<?plantuml 1.2026.2?><svg xmlns="http://www.w3.org/2000/svg" xmlns:xlink="http://www.w3.org/1999/xlink" contentStyleType="text/css" data-diagram-type="ACTIVITY" height="694px" preserveAspectRatio="none" style="width:353px;height:694px;background:#FFFFFF;" version="1.1" viewBox="0 0 353 694" width="353px" zoomAndPan="magnify"><title>archility audit flow</title><defs/><g><g class="title" data-source-line="1"><text fill="#000000" font-family="sans-serif" font-size="14" font-weight="bold" lengthAdjust="spacing" textLength="128.8765" x="110.9609" y="34.9659">archility audit flow</text></g><ellipse cx="176.8991" cy="60.0679" fill="#222222" rx="10" ry="10" style="stroke:#222222;stroke-width:1;"/><rect fill="#F1F1F1" height="36.3441" rx="12.5" ry="12.5" style="stroke:#181818;stroke-width:0.5;" width="137.7328" x="108.0327" y="90.0679"/><text fill="#000000" font-family="sans-serif" font-size="12" lengthAdjust="spacing" textLength="117.7328" x="118.0327" y="112.896">parse CLI arguments</text><rect fill="#F1F1F1" height="36.3441" rx="12.5" ry="12.5" style="stroke:#181818;stroke-width:0.5;" width="220.8934" x="66.4524" y="146.412"/><text fill="#000000" font-family="sans-serif" font-size="12" lengthAdjust="spacing" textLength="200.8934" x="76.4524" y="169.2401">resolve shared toolchain ownership</text><rect fill="#F1F1F1" height="36.3441" rx="12.5" ry="12.5" style="stroke:#181818;stroke-width:0.5;" width="156.417" x="98.6906" y="202.7561"/><text fill="#000000" font-family="sans-serif" font-size="12" lengthAdjust="spacing" textLength="136.417" x="108.6906" y="225.5842">resolve repository paths</text><rect fill="#F1F1F1" height="36.3441" rx="12.5" ry="12.5" style="stroke:#181818;stroke-width:0.5;" width="159.561" x="97.1186" y="259.1003"/><text fill="#000000" font-family="sans-serif" font-size="12" lengthAdjust="spacing" textLength="139.561" x="107.1186" y="281.9283">inspect baseline artifacts</text><rect fill="#F1F1F1" height="36.3441" rx="12.5" ry="12.5" style="stroke:#181818;stroke-width:0.5;" width="257.1217" x="48.3382" y="315.4444"/><text fill="#000000" font-family="sans-serif" font-size="12" lengthAdjust="spacing" textLength="237.1217" x="58.3382" y="338.2725">detect code-like markers and source roots</text><rect fill="#F1F1F1" height="36.3441" rx="12.5" ry="12.5" style="stroke:#181818;stroke-width:0.5;" width="282.8378" x="35.4802" y="371.7885"/><text fill="#000000" font-family="sans-serif" font-size="12" lengthAdjust="spacing" textLength="262.8378" x="45.4802" y="394.6166">inventory diagram formats and toolchain hints</text><rect fill="#F1F1F1" height="36.3441" rx="12.5" ry="12.5" style="stroke:#181818;stroke-width:0.5;" width="331.7982" x="11" y="428.1326"/><text fill="#000000" font-family="sans-serif" font-size="12" lengthAdjust="spacing" textLength="311.7982" x="21" y="450.9607">count workflows, diagram sources, and render artifacts</text><rect fill="#F1F1F1" height="36.3441" rx="12.5" ry="12.5" style="stroke:#181818;stroke-width:0.5;" width="154.821" x="99.4886" y="484.4767"/><text fill="#000000" font-family="sans-serif" font-size="12" lengthAdjust="spacing" textLength="134.821" x="109.4886" y="507.3048">build recommendations</text><polygon fill="#F1F1F1" points="142.6069,540.8208,211.1914,540.8208,223.1914,552.8208,211.1914,564.8208,142.6069,564.8208,130.6069,552.8208,142.6069,540.8208" style="stroke:#181818;stroke-width:0.5;"/><text fill="#000000" font-family="sans-serif" font-size="11" lengthAdjust="spacing" textLength="68.5845" x="142.6069" y="557.0888">JSON output?</text><text fill="#000000" font-family="sans-serif" font-size="11" lengthAdjust="spacing" textLength="17.0829" x="113.524" y="549.5979">yes</text><text fill="#000000" font-family="sans-serif" font-size="11" lengthAdjust="spacing" textLength="13.4529" x="223.1914" y="549.5979">no</text><rect fill="#F1F1F1" height="36.3441" rx="12.5" ry="12.5" style="stroke:#181818;stroke-width:0.5;" width="124.7127" x="46.0924" y="574.8208"/><text fill="#000000" font-family="sans-serif" font-size="12" lengthAdjust="spacing" textLength="104.7127" x="56.0924" y="597.6489">emit JSON payload</text><rect fill="#F1F1F1" height="36.3441" rx="12.5" ry="12.5" style="stroke:#181818;stroke-width:0.5;" width="109.0887" x="190.8051" y="574.8208"/><text fill="#000000" font-family="sans-serif" font-size="12" lengthAdjust="spacing" textLength="89.0887" x="200.8051" y="597.6489">emit text report</text><polygon fill="#F1F1F1" points="176.8991,617.1649,188.8991,629.1649,176.8991,641.1649,164.8991,629.1649,176.8991,617.1649" style="stroke:#181818;stroke-width:0.5;"/><ellipse cx="176.8991" cy="672.1649" fill="none" rx="11" ry="11" style="stroke:#222222;stroke-width:1;"/><ellipse cx="176.8991" cy="672.1649" fill="#222222" rx="6" ry="6" style="stroke:#222222;stroke-width:1;"/><line style="stroke:#181818;stroke-width:1;" x1="176.8991" x2="176.8991" y1="70.0679" y2="90.0679"/><polygon fill="#181818" points="172.8991,80.0679,176.8991,90.0679,180.8991,80.0679,176.8991,84.0679" style="stroke:#181818;stroke-width:1;"/><line style="stroke:#181818;stroke-width:1;" x1="176.8991" x2="176.8991" y1="126.412" y2="146.412"/><polygon fill="#181818" points="172.8991,136.412,176.8991,146.412,180.8991,136.412,176.8991,140.412" style="stroke:#181818;stroke-width:1;"/><line style="stroke:#181818;stroke-width:1;" x1="176.8991" x2="176.8991" y1="182.7561" y2="202.7561"/><polygon fill="#181818" points="172.8991,192.7561,176.8991,202.7561,180.8991,192.7561,176.8991,196.7561" style="stroke:#181818;stroke-width:1;"/><line style="stroke:#181818;stroke-width:1;" x1="176.8991" x2="176.8991" y1="239.1003" y2="259.1003"/><polygon fill="#181818" points="172.8991,249.1003,176.8991,259.1003,180.8991,249.1003,176.8991,253.1003" style="stroke:#181818;stroke-width:1;"/><line style="stroke:#181818;stroke-width:1;" x1="176.8991" x2="176.8991" y1="295.4444" y2="315.4444"/><polygon fill="#181818" points="172.8991,305.4444,176.8991,315.4444,180.8991,305.4444,176.8991,309.4444" style="stroke:#181818;stroke-width:1;"/><line style="stroke:#181818;stroke-width:1;" x1="176.8991" x2="176.8991" y1="351.7885" y2="371.7885"/><polygon fill="#181818" points="172.8991,361.7885,176.8991,371.7885,180.8991,361.7885,176.8991,365.7885" style="stroke:#181818;stroke-width:1;"/><line style="stroke:#181818;stroke-width:1;" x1="176.8991" x2="176.8991" y1="408.1326" y2="428.1326"/><polygon fill="#181818" points="172.8991,418.1326,176.8991,428.1326,180.8991,418.1326,176.8991,422.1326" style="stroke:#181818;stroke-width:1;"/><line style="stroke:#181818;stroke-width:1;" x1="176.8991" x2="176.8991" y1="464.4767" y2="484.4767"/><polygon fill="#181818" points="172.8991,474.4767,176.8991,484.4767,180.8991,474.4767,176.8991,478.4767" style="stroke:#181818;stroke-width:1;"/><line style="stroke:#181818;stroke-width:1;" x1="130.6069" x2="108.4488" y1="552.8208" y2="552.8208"/><line style="stroke:#181818;stroke-width:1;" x1="108.4488" x2="108.4488" y1="552.8208" y2="574.8208"/><polygon fill="#181818" points="104.4488,564.8208,108.4488,574.8208,112.4488,564.8208,108.4488,568.8208" style="stroke:#181818;stroke-width:1;"/><line style="stroke:#181818;stroke-width:1;" x1="223.1914" x2="245.3495" y1="552.8208" y2="552.8208"/><line style="stroke:#181818;stroke-width:1;" x1="245.3495" x2="245.3495" y1="552.8208" y2="574.8208"/><polygon fill="#181818" points="241.3495,564.8208,245.3495,574.8208,249.3495,564.8208,245.3495,568.8208" style="stroke:#181818;stroke-width:1;"/><line style="stroke:#181818;stroke-width:1;" x1="108.4488" x2="108.4488" y1="611.1649" y2="629.1649"/><line style="stroke:#181818;stroke-width:1;" x1="108.4488" x2="164.8991" y1="629.1649" y2="629.1649"/><polygon fill="#181818" points="154.8991,625.1649,164.8991,629.1649,154.8991,633.1649,158.8991,629.1649" style="stroke:#181818;stroke-width:1;"/><line style="stroke:#181818;stroke-width:1;" x1="245.3495" x2="245.3495" y1="611.1649" y2="629.1649"/><line style="stroke:#181818;stroke-width:1;" x1="245.3495" x2="188.8991" y1="629.1649" y2="629.1649"/><polygon fill="#181818" points="198.8991,625.1649,188.8991,629.1649,198.8991,633.1649,194.8991,629.1649" style="stroke:#181818;stroke-width:1;"/><line style="stroke:#181818;stroke-width:1;" x1="176.8991" x2="176.8991" y1="520.8208" y2="540.8208"/><polygon fill="#181818" points="172.8991,530.8208,176.8991,540.8208,180.8991,530.8208,176.8991,534.8208" style="stroke:#181818;stroke-width:1;"/><line style="stroke:#181818;stroke-width:1;" x1="176.8991" x2="176.8991" y1="641.1649" y2="661.1649"/><polygon fill="#181818" points="172.8991,651.1649,176.8991,661.1649,180.8991,651.1649,176.8991,655.1649" style="stroke:#181818;stroke-width:1;"/><?plantuml-src LP31JWCn34Jl-GeVMmb-e3rmu0H2SEWNk8ctiPgD8yVfidzFqfKeN3qpJ-CnjaI0wYCdjXMm1JQOaYpELKCrToYebU3ruwtRBcscRFNe3afLqesWHbGAO2B9H-GCicJI6hdyCIaLgMoYAnIqEFASQo5lSCPAYVFeO3oXlyC3sT2y17fEV2MOKQ-T2fW3L6dgErF4Dj2jLnhem7XHd64IdT4sywDNvAsubvOD5j7h-B8-_SOsRZ-Cd58EfFzAdHkd8NYP-mW1ZINtk-C9Tk-dhq-GPgNPonuiKeRTIdNl00uqzqNlXe9h4Wn7Hwalkiloq8s-xJwJMfTpu6diB-K7?></g></svg>
