<?plantuml 1.2026.2?><svg xmlns="http://www.w3.org/2000/svg" xmlns:xlink="http://www.w3.org/1999/xlink" contentStyleType="text/css" data-diagram-type="DESCRIPTION" height="581px" preserveAspectRatio="none" style="width:402px;height:581px;background:#FFFFFF;" version="1.1" viewBox="0 0 402 581" width="402px" zoomAndPan="magnify"><defs/><g><!--entity archility--><g class="entity" data-qualified-name="archility" data-source-line="4" id="ent0002"><rect fill="#F1F1F1" height="96.2717" rx="2.5" ry="2.5" style="stroke:#181818;stroke-width:0.5;" width="186.1794" x="7" y="125.13"/><text fill="#000000" font-family="sans-serif" font-size="14" lengthAdjust="spacing" textLength="52.0378" x="17" y="150.0959">archility</text><text fill="#000000" font-family="sans-serif" font-size="14" lengthAdjust="spacing" textLength="147.2654" x="17" y="169.1639">0 child pkg, 5 modules</text><text fill="#000000" font-family="sans-serif" font-size="14" lengthAdjust="spacing" textLength="88.5076" x="17" y="188.2318">6 python files</text><text fill="#000000" font-family="sans-serif" font-size="14" lengthAdjust="spacing" textLength="66.8217" x="17" y="207.2997">examples:</text><text fill="#000000" font-family="sans-serif" font-size="14" lengthAdjust="spacing" text-decoration="underline" textLength="33.2079" x="87.4617" y="207.2997">main</text><text fill="#000000" font-family="sans-serif" font-size="14" lengthAdjust="spacing" textLength="62.5098" x="120.6696" y="207.2997">, audit, cli</text></g><!--entity archility.__main__--><g class="entity" data-qualified-name="archility.__main__" data-source-line="5" id="ent0003"><rect fill="#F1F1F1" height="58.1358" rx="2.5" ry="2.5" style="stroke:#181818;stroke-width:0.5;" width="108.9977" x="287.59" y="7"/><text fill="#000000" font-family="sans-serif" font-size="14" lengthAdjust="spacing" textLength="55.7898" x="297.59" y="31.9659">archility.</text><text fill="#000000" font-family="sans-serif" font-size="14" lengthAdjust="spacing" text-decoration="underline" textLength="33.2079" x="353.3798" y="31.9659">main</text><text fill="#000000" font-family="sans-serif" font-size="14" lengthAdjust="spacing" textLength="81.8017" x="297.59" y="51.0339">1 python file</text></g><!--entity archility.audit--><g class="entity" data-qualified-name="archility.audit" data-source-line="6" id="ent0004"><rect fill="#F1F1F1" height="58.1358" rx="2.5" ry="2.5" style="stroke:#181818;stroke-width:0.5;" width="109.5717" x="148.3" y="517.67"/><text fill="#000000" font-family="sans-serif" font-size="14" lengthAdjust="spacing" textLength="89.5717" x="158.3" y="542.6359">archility.audit</text><text fill="#000000" font-family="sans-serif" font-size="14" lengthAdjust="spacing" textLength="81.8017" x="158.3" y="561.7039">1 python file</text></g><!--entity archility.cli--><g class="entity" data-qualified-name="archility.cli" data-source-line="7" id="ent0005"><rect fill="#F1F1F1" height="58.1358" rx="2.5" ry="2.5" style="stroke:#181818;stroke-width:0.5;" width="101.8017" x="291.19" y="144.2"/><text fill="#000000" font-family="sans-serif" font-size="14" lengthAdjust="spacing" textLength="69.7337" x="301.19" y="169.1659">archility.cli</text><text fill="#000000" font-family="sans-serif" font-size="14" lengthAdjust="spacing" textLength="81.8017" x="301.19" y="188.2339">1 python file</text></g><!--entity archility.generate--><g class="entity" data-qualified-name="archility.generate" data-source-line="8" id="ent0006"><rect fill="#F1F1F1" height="58.1358" rx="2.5" ry="2.5" style="stroke:#181818;stroke-width:0.5;" width="135.4296" x="153.37" y="281.4"/><text fill="#000000" font-family="sans-serif" font-size="14" lengthAdjust="spacing" textLength="115.4296" x="163.37" y="306.3659">archility.generate</text><text fill="#000000" font-family="sans-serif" font-size="14" lengthAdjust="spacing" textLength="81.8017" x="163.37" y="325.4339">1 python file</text></g><!--entity archility.render--><g class="entity" data-qualified-name="archility.render" data-source-line="9" id="ent0007"><rect fill="#F1F1F1" height="58.1358" rx="2.5" ry="2.5" style="stroke:#181818;stroke-width:0.5;" width="120.4076" x="199.89" y="399.54"/><text fill="#000000" font-family="sans-serif" font-size="14" lengthAdjust="spacing" textLength="100.4076" x="209.89" y="424.5059">archility.render</text><text fill="#000000" font-family="sans-serif" font-size="14" lengthAdjust="spacing" textLength="81.8017" x="209.89" y="443.5739">1 python file</text></g><!--link archility to archility.audit--><g class="link" data-entity-1="ent0002" data-entity-2="ent0004" data-link-type="dependency" data-source-line="10" id="lnk8"><path d="M96.01,221.61 C94.38,255.03 94.73,300.61 104.09,339.54 C120.38,407.3 157.6961,473.972 181.5461,512.402" fill="none" id="archility-to-archility.audit" style="stroke:#181818;stroke-width:1;"/><polygon fill="#181818" points="184.71,517.5,183.3629,507.7437,182.0734,513.2516,176.5655,511.9622,184.71,517.5" style="stroke:#181818;stroke-width:1;"/></g><!--link archility to archility.generate--><g class="link" data-entity-1="ent0002" data-entity-2="ent0006" data-link-type="dependency" data-source-line="11" id="lnk9"><path d="M142.41,221.55 C160.13,241.35 176.1376,259.25 191.5476,276.46" fill="none" id="archility-to-archility.generate" style="stroke:#181818;stroke-width:1;"/><polygon fill="#181818" points="195.55,280.93,192.5263,271.5568,192.2146,277.205,186.5664,276.8934,195.55,280.93" style="stroke:#181818;stroke-width:1;"/></g><!--link archility to archility.render--><g class="link" data-entity-1="ent0002" data-entity-2="ent0007" data-link-type="dependency" data-source-line="12" id="lnk10"><path d="M101.38,221.6 C104.36,256.71 112.86,304.38 136.09,339.54 C152.54,364.43 173.5091,381.3833 197.5191,396.0433" fill="none" id="archility-to-archility.render" style="stroke:#181818;stroke-width:1;"/><polygon fill="#181818" points="202.64,399.17,197.0431,391.066,198.3726,396.5644,192.8742,397.8939,202.64,399.17" style="stroke:#181818;stroke-width:1;"/></g><!--link archility.__main__ to archility.cli--><g class="link" data-entity-1="ent0003" data-entity-2="ent0005" data-link-type="dependency" data-source-line="13" id="lnk11"><path d="M342.09,65.41 C342.09,88.48 342.09,114.9 342.09,137.96" fill="none" id="archility.__main__-to-archility.cli" style="stroke:#181818;stroke-width:1;"/><polygon fill="#181818" points="342.09,143.96,346.09,134.96,342.09,138.96,338.09,134.96,342.09,143.96" style="stroke:#181818;stroke-width:1;"/></g><!--link archility.cli to archility.audit--><g class="link" data-entity-1="ent0005" data-entity-2="ent0004" data-link-type="dependency" data-source-line="14" id="lnk12"><path d="M349.93,202.62 C363.08,256.3 383.91,374.77 338.09,457.67 C320.9,488.78 292.9383,508.0811 263.6883,522.2711" fill="none" id="archility.cli-to-archility.audit" style="stroke:#181818;stroke-width:1;"/><polygon fill="#181818" points="258.29,524.89,268.1333,524.5606,262.7886,522.7076,264.6415,517.3628,258.29,524.89" style="stroke:#181818;stroke-width:1;"/></g><!--link archility.cli to archility.generate--><g class="link" data-entity-1="ent0005" data-entity-2="ent0006" data-link-type="dependency" data-source-line="15" id="lnk13"><path d="M316.72,202.61 C296.07,225.69 271.0616,253.6293 250.4216,276.6893" fill="none" id="archility.cli-to-archility.generate" style="stroke:#181818;stroke-width:1;"/><polygon fill="#181818" points="246.42,281.16,255.4028,277.1216,249.7546,277.4344,249.4419,271.7862,246.42,281.16" style="stroke:#181818;stroke-width:1;"/></g><!--link archility.cli to archility.render--><g class="link" data-entity-1="ent0005" data-entity-2="ent0007" data-link-type="dependency" data-source-line="16" id="lnk14"><path d="M338.26,202.69 C333.22,236.14 322.96,293.02 306.09,339.54 C298.56,360.3 290.0375,377.1009 280.4175,393.9309" fill="none" id="archility.cli-to-archility.render" style="stroke:#181818;stroke-width:1;"/><polygon fill="#181818" points="277.44,399.14,285.379,393.3114,279.9213,394.7991,278.4335,389.3414,277.44,399.14" style="stroke:#181818;stroke-width:1;"/></g><!--link archility.generate to archility.audit--><g class="link" data-entity-1="ent0006" data-entity-2="ent0004" data-link-type="dependency" data-source-line="17" id="lnk15"><path d="M204.91,339.8 C196.27,356.58 186.52,378.6 182.09,399.54 C173.52,440.06 182.3769,481.8988 191.3669,511.5088" fill="none" id="archility.generate-to-archility.audit" style="stroke:#181818;stroke-width:1;"/><polygon fill="#181818" points="193.11,517.25,194.3228,507.4761,191.6574,512.4657,186.6679,509.8003,193.11,517.25" style="stroke:#181818;stroke-width:1;"/></g><!--link archility.generate to archility.render--><g class="link" data-entity-1="ent0006" data-entity-2="ent0007" data-link-type="dependency" data-source-line="18" id="lnk16"><path d="M230.63,339.88 C236.67,357.88 242.5503,375.382 248.6003,393.402" fill="none" id="archility.generate-to-archility.render" style="stroke:#181818;stroke-width:1;"/><polygon fill="#181818" points="250.51,399.09,251.4375,389.2849,248.9186,394.35,243.8535,391.8311,250.51,399.09" style="stroke:#181818;stroke-width:1;"/></g><!--link archility.render to archility.audit--><g class="link" data-entity-1="ent0007" data-entity-2="ent0004" data-link-type="dependency" data-source-line="19" id="lnk17"><path d="M246.15,458.02 C237.31,476.01 228.5737,493.8238 219.7337,511.8338" fill="none" id="archility.render-to-archility.audit" style="stroke:#181818;stroke-width:1;"/><polygon fill="#181818" points="217.09,517.22,224.6464,510.9033,219.2931,512.7315,217.4648,507.3783,217.09,517.22" style="stroke:#181818;stroke-width:1;"/></g><?plantuml-src XP71RiCW38RlUGghvtJQ3jjXXxr4hv4Y1bwA2ZO2LshUVYHLqDgGx6RW-pyRI2X0ocCAIkC9WufAE08nOICSG1Y-MOGz61jHYsLgqiNI17hGx4CcIKuoEeG9K3GuR4e51nNrsJehOqUlC9K6mcLeuHqycwl3rD47X57EJF1ZvpNUb0-v-eI-zyfItxUWhiPA2zhP0wW4nLfjzRBaEdhxwtwC5ghkc3lk2sQadiw3xcSpK4yEI9X_0VVZ2rLtH2I3STzmPvgo0SVZr-fkMwUb_HRmR2-F_SHDp_2msX-ZGgn7gK2hSPRKF-qsi9Nklb6J_G80?></g></svg>
