<?plantuml 1.2026.2?><svg xmlns="http://www.w3.org/2000/svg" xmlns:xlink="http://www.w3.org/1999/xlink" contentStyleType="text/css" data-diagram-type="CLASS" height="544px" preserveAspectRatio="none" style="width:358px;height:544px;background:#FFFFFF;" version="1.1" viewBox="0 0 358 544" width="358px" zoomAndPan="magnify"><defs/><g><path d="M8.5,124.742 L65.4753,124.742 A3.75,3.75 0 0 1 67.9753,127.242 L74.9753,149.8099 L79.4753,149.8099 A2.5,2.5 0 0 1 81.9753,152.3099 L81.9753,180.3778 A2.5,2.5 0 0 1 79.4753,182.8778 L8.5,182.8778 A2.5,2.5 0 0 1 6,180.3778 L6,127.242 A2.5,2.5 0 0 1 8.5,124.742" fill="#F1F1F1" style="stroke:#181818;stroke-width:0.5;"/><line style="stroke:#181818;stroke-width:0.5;" x1="6" x2="74.9753" y1="149.8099" y2="149.8099"/><text fill="#000000" font-family="sans-serif" font-size="14" font-weight="bold" lengthAdjust="spacing" textLength="55.9753" x="10" y="141.7079">archility</text><path d="M238.93,6.602 L335.0527,6.602 A3.75,3.75 0 0 1 337.5527,9.102 L344.5527,31.6699 L349.0527,31.6699 A2.5,2.5 0 0 1 351.5527,34.1699 L351.5527,62.2378 A2.5,2.5 0 0 1 349.0527,64.7378 L238.93,64.7378 A2.5,2.5 0 0 1 236.43,62.2378 L236.43,9.102 A2.5,2.5 0 0 1 238.93,6.602" fill="#F1F1F1" style="stroke:#181818;stroke-width:0.5;"/><line style="stroke:#181818;stroke-width:0.5;" x1="236.43" x2="344.5527" y1="31.6699" y2="31.6699"/><text fill="#000000" font-family="sans-serif" font-size="14" font-weight="bold" lengthAdjust="spacing" textLength="60.1648" x="240.43" y="23.5679">archility.</text><text fill="#000000" font-family="sans-serif" font-size="14" font-weight="bold" lengthAdjust="spacing" text-decoration="underline" textLength="34.9579" x="300.5948" y="23.5679">main</text><path d="M93.42,479.142 L190.5542,479.142 A3.75,3.75 0 0 1 193.0542,481.642 L200.0542,504.2099 L204.5542,504.2099 A2.5,2.5 0 0 1 207.0542,506.7099 L207.0542,534.7778 A2.5,2.5 0 0 1 204.5542,537.2778 L93.42,537.2778 A2.5,2.5 0 0 1 90.92,534.7778 L90.92,481.642 A2.5,2.5 0 0 1 93.42,479.142" fill="#F1F1F1" style="stroke:#181818;stroke-width:0.5;"/><line style="stroke:#181818;stroke-width:0.5;" x1="90.92" x2="200.0542" y1="504.2099" y2="504.2099"/><text fill="#000000" font-family="sans-serif" font-size="14" font-weight="bold" lengthAdjust="spacing" textLength="96.1342" x="94.92" y="496.1079">archility.audit</text><path d="M248.78,124.742 L325.2012,124.742 A3.75,3.75 0 0 1 327.7012,127.242 L334.7012,149.8099 L339.2012,149.8099 A2.5,2.5 0 0 1 341.7012,152.3099 L341.7012,180.3778 A2.5,2.5 0 0 1 339.2012,182.8778 L248.78,182.8778 A2.5,2.5 0 0 1 246.28,180.3778 L246.28,127.242 A2.5,2.5 0 0 1 248.78,124.742" fill="#F1F1F1" style="stroke:#181818;stroke-width:0.5;"/><line style="stroke:#181818;stroke-width:0.5;" x1="246.28" x2="334.7012" y1="149.8099" y2="149.8099"/><text fill="#000000" font-family="sans-serif" font-size="14" font-weight="bold" lengthAdjust="spacing" textLength="75.4212" x="250.28" y="141.7079">archility.cli</text><path d="M99.84,242.872 L224.1446,242.872 A3.75,3.75 0 0 1 226.6446,245.372 L233.6446,267.9399 L238.1446,267.9399 A2.5,2.5 0 0 1 240.6446,270.4399 L240.6446,298.5078 A2.5,2.5 0 0 1 238.1446,301.0078 L99.84,301.0078 A2.5,2.5 0 0 1 97.34,298.5078 L97.34,245.372 A2.5,2.5 0 0 1 99.84,242.872" fill="#F1F1F1" style="stroke:#181818;stroke-width:0.5;"/><line style="stroke:#181818;stroke-width:0.5;" x1="97.34" x2="233.6446" y1="267.9399" y2="267.9399"/><text fill="#000000" font-family="sans-serif" font-size="14" font-weight="bold" lengthAdjust="spacing" textLength="123.3046" x="101.34" y="259.8379">archility.generate</text><path d="M146.78,361.012 L255.1876,361.012 A3.75,3.75 0 0 1 257.6876,363.512 L264.6876,386.0799 L269.1876,386.0799 A2.5,2.5 0 0 1 271.6876,388.5799 L271.6876,416.6478 A2.5,2.5 0 0 1 269.1876,419.1478 L146.78,419.1478 A2.5,2.5 0 0 1 144.28,416.6478 L144.28,363.512 A2.5,2.5 0 0 1 146.78,361.012" fill="#F1F1F1" style="stroke:#181818;stroke-width:0.5;"/><line style="stroke:#181818;stroke-width:0.5;" x1="144.28" x2="264.6876" y1="386.0799" y2="386.0799"/><text fill="#000000" font-family="sans-serif" font-size="14" font-weight="bold" lengthAdjust="spacing" textLength="107.4076" x="148.28" y="377.9779">archility.render</text><!--link archility to archility.audit--><g class="link" data-entity-1="ent0002" data-entity-2="ent0004" data-link-type="dependency" data-source-line="14" id="lnk8"><path codeLine="14" d="M40.95,183.312 C38.61,213.122 37.21,261.062 46.99,301.012 C63.6,368.902 101.9203,435.2818 126.5603,473.6918" fill="none" id="archility-to-archility.audit" style="stroke:#181818;stroke-width:1;"/><polygon fill="#181818" points="129.8,478.742,128.3073,469.0069,127.1003,474.5335,121.5737,473.3265,129.8,478.742" style="stroke:#181818;stroke-width:1;"/></g><!--link archility to archility.generate--><g class="link" data-entity-1="ent0002" data-entity-2="ent0006" data-link-type="dependency" data-source-line="15" id="lnk9"><path codeLine="15" d="M74.57,183.212 C93.94,201.212 114.5049,220.3175 133.8949,238.3375" fill="none" id="archility-to-archility.generate" style="stroke:#181818;stroke-width:1;"/><polygon fill="#181818" points="138.29,242.422,134.4204,233.3651,134.6274,239.0182,128.9744,239.2252,138.29,242.422" style="stroke:#181818;stroke-width:1;"/></g><!--link archility to archility.render--><g class="link" data-entity-1="ent0002" data-entity-2="ent0007" data-link-type="dependency" data-source-line="16" id="lnk10"><path codeLine="16" d="M45.08,183.362 C47.55,214.742 55.39,265.422 79.99,301.012 C97.24,325.972 118.8896,342.9409 143.5196,357.5509" fill="none" id="archility-to-archility.render" style="stroke:#181818;stroke-width:1;"/><polygon fill="#181818" points="148.68,360.612,142.9801,352.5801,144.3796,358.0611,138.8987,359.4607,148.68,360.612" style="stroke:#181818;stroke-width:1;"/></g><!--link archility.__main__ to archility.cli--><g class="link" data-entity-1="ent0003" data-entity-2="ent0005" data-link-type="dependency" data-source-line="17" id="lnk11"><path codeLine="17" d="M293.99,65.082 C293.99,83.082 293.99,100.272 293.99,118.292" fill="none" id="archility.__main__-to-archility.cli" style="stroke:#181818;stroke-width:1;"/><polygon fill="#181818" points="293.99,124.292,297.99,115.292,293.99,119.292,289.99,115.292,293.99,124.292" style="stroke:#181818;stroke-width:1;"/></g><!--link archility.cli to archility.audit--><g class="link" data-entity-1="ent0005" data-entity-2="ent0004" data-link-type="dependency" data-source-line="18" id="lnk12"><path codeLine="18" d="M301.73,182.972 C314.05,233.972 332.55,343.332 288.99,419.142 C271.1,450.272 242.7379,469.435 212.8279,483.525" fill="none" id="archility.cli-to-archility.audit" style="stroke:#181818;stroke-width:1;"/><polygon fill="#181818" points="207.4,486.082,217.2465,485.8651,211.9232,483.9512,213.8372,478.6279,207.4,486.082" style="stroke:#181818;stroke-width:1;"/></g><!--link archility.cli to archility.generate--><g class="link" data-entity-1="ent0005" data-entity-2="ent0006" data-link-type="dependency" data-source-line="19" id="lnk13"><path codeLine="19" d="M263.41,183.212 C244.04,201.212 223.4761,220.3186 204.0761,238.3386" fill="none" id="archility.cli-to-archility.generate" style="stroke:#181818;stroke-width:1;"/><polygon fill="#181818" points="199.68,242.422,208.9964,239.2276,203.3434,239.0191,203.5519,233.3661,199.68,242.422" style="stroke:#181818;stroke-width:1;"/></g><!--link archility.cli to archility.render--><g class="link" data-entity-1="ent0005" data-entity-2="ent0007" data-link-type="dependency" data-source-line="20" id="lnk14"><path codeLine="20" d="M289.38,183.272 C283.97,213.272 273.7,261.542 257.99,301.012 C249.66,321.922 240.3239,338.834 229.9039,355.624" fill="none" id="archility.cli-to-archility.render" style="stroke:#181818;stroke-width:1;"/><polygon fill="#181818" points="226.74,360.722,234.8845,355.1842,229.3766,356.4736,228.0871,350.9657,226.74,360.722" style="stroke:#181818;stroke-width:1;"/></g><!--link archility.generate to archility.audit--><g class="link" data-entity-1="ent0006" data-entity-2="ent0004" data-link-type="dependency" data-source-line="21" id="lnk15"><path codeLine="21" d="M151.36,301.512 C142.11,318.192 131.73,340.032 126.99,361.012 C117.84,401.442 127.1616,443.3373 136.6416,472.9673" fill="none" id="archility.generate-to-archility.audit" style="stroke:#181818;stroke-width:1;"/><polygon fill="#181818" points="138.47,478.682,139.5372,468.8911,136.9464,473.9198,131.9177,471.3289,138.47,478.682" style="stroke:#181818;stroke-width:1;"/></g><!--link archility.generate to archility.render--><g class="link" data-entity-1="ent0006" data-entity-2="ent0007" data-link-type="dependency" data-source-line="22" id="lnk16"><path codeLine="22" d="M178.53,301.352 C184.57,319.352 190.4503,336.854 196.5003,354.874" fill="none" id="archility.generate-to-archility.render" style="stroke:#181818;stroke-width:1;"/><polygon fill="#181818" points="198.41,360.562,199.3375,350.7569,196.8186,355.822,191.7535,353.3031,198.41,360.562" style="stroke:#181818;stroke-width:1;"/></g><!--link archility.render to archility.audit--><g class="link" data-entity-1="ent0007" data-entity-2="ent0004" data-link-type="dependency" data-source-line="23" id="lnk17"><path codeLine="23" d="M193.55,419.492 C184.41,437.482 175.3477,455.3328 166.1977,473.3428" fill="none" id="archility.render-to-archility.audit" style="stroke:#181818;stroke-width:1;"/><polygon fill="#181818" points="163.48,478.692,171.1227,472.4799,165.7447,474.2343,163.9904,468.8564,163.48,478.692" style="stroke:#181818;stroke-width:1;"/></g><?plantuml-src VP1B3i8m34JtEONLVJa2b-00aPLQ9Q9rgoGi4EBkH2qDoiTTPlB67e-d08mp-HKDtMX5Xs5nm0kJYj83Hu8EdRdRoOPN1-WXlU2jFWteelMCbhNEwIHBDdmEDXIUJPCCPh857XK97eaftaQ5uv0bcoCUo1McNTmi_pBw_be65t-FhIAmRr2Dyd8k7gpoyqzZD8WwIWEgugJQpjS9M3NkLsXZs1S0?></g></svg>