<?plantuml 1.2026.2?><svg xmlns="http://www.w3.org/2000/svg" xmlns:xlink="http://www.w3.org/1999/xlink" contentStyleType="text/css" data-diagram-type="CLASS" height="888px" preserveAspectRatio="none" style="width:749px;height:888px;background:#FFFFFF;" version="1.1" viewBox="0 0 749 888" width="749px" zoomAndPan="magnify"><defs/><g><!--class archility.generate.DrawioBounds--><g class="entity" data-qualified-name="archility.generate.DrawioBounds" data-source-line="2" id="ent0002"><rect fill="#F1F1F1" height="238.6792" rx="2.5" ry="2.5" style="stroke:#181818;stroke-width:0.5;" width="129.1316" x="86.34" y="7"/><ellipse cx="101.34" cy="23" fill="#ADD1B2" rx="11" ry="11" style="stroke:#181818;stroke-width:1;"/><path d="M101.4494,18.5313 Q100.5275,18.5313 99.7931,18.8438 Q99.0744,19.1563 98.5744,19.75 Q98.0744,20.3281 97.7931,21.2031 Q97.5275,22.0781 97.5275,23.1719 Q97.5275,24.6094 97.965,25.6563 Q98.4181,26.7031 99.2619,27.25 Q100.1213,27.7969 101.4338,27.7969 Q102.215,27.7969 102.9025,27.6719 Q103.6056,27.5313 104.6056,27.2188 L104.6056,29.0938 Q103.7463,29.4219 102.9806,29.5469 Q102.2306,29.6719 101.215,29.6719 Q99.2931,29.6719 97.9806,28.875 Q96.6838,28.0625 96.0275,26.5938 Q95.3713,25.1094 95.3713,23.1406 Q95.3713,21.7188 95.7619,20.5469 Q96.1681,19.3594 96.9494,18.4844 Q97.7306,17.6094 98.8713,17.1406 Q100.0119,16.6563 101.4806,16.6563 Q102.4338,16.6563 103.3244,16.8594 Q104.2306,17.0469 105.1681,17.5156 L104.34,19.2969 Q103.5588,18.9219 102.9025,18.7344 Q102.2463,18.5313 101.4494,18.5313 Z " fill="#000000"/><text fill="#000000" font-family="sans-serif" font-size="14" lengthAdjust="spacing" textLength="97.1316" x="115.34" y="28.432">DrawioBounds</text><line style="stroke:#181818;stroke-width:0.5;" x1="87.34" x2="214.4716" y1="39" y2="39"/><text fill="#000000" font-family="sans-serif" font-size="14" lengthAdjust="spacing" textLength="77.0977" x="92.34" y="57.9659">bottom : int</text><text fill="#000000" font-family="sans-serif" font-size="14" lengthAdjust="spacing" textLength="70.8257" x="92.34" y="77.0339">height : int</text><text fill="#000000" font-family="sans-serif" font-size="14" lengthAdjust="spacing" textLength="49.7278" x="92.34" y="96.1018">left : int</text><text fill="#000000" font-family="sans-serif" font-size="14" lengthAdjust="spacing" textLength="67.2837" x="92.34" y="115.1697">mid_x : int</text><text fill="#000000" font-family="sans-serif" font-size="14" lengthAdjust="spacing" textLength="67.0177" x="92.34" y="134.2376">mid_y : int</text><text fill="#000000" font-family="sans-serif" font-size="14" lengthAdjust="spacing" textLength="60.0598" x="92.34" y="153.3055">right : int</text><text fill="#000000" font-family="sans-serif" font-size="14" lengthAdjust="spacing" textLength="50.4838" x="92.34" y="172.3734">top : int</text><text fill="#000000" font-family="sans-serif" font-size="14" lengthAdjust="spacing" textLength="65.2817" x="92.34" y="191.4414">width : int</text><text fill="#000000" font-family="sans-serif" font-size="14" lengthAdjust="spacing" textLength="35.7559" x="92.34" y="210.5093">x : int</text><text fill="#000000" font-family="sans-serif" font-size="14" lengthAdjust="spacing" textLength="35.4899" x="92.34" y="229.5772">y : int</text><line style="stroke:#181818;stroke-width:0.5;" x1="87.34" x2="214.4716" y1="237.6792" y2="237.6792"/></g><!--class archility.render.DrawioCellBounds--><g class="entity" data-qualified-name="archility.render.DrawioCellBounds" data-source-line="14" id="ent0003"><rect fill="#F1F1F1" height="238.6792" rx="2.5" ry="2.5" style="stroke:#181818;stroke-width:0.5;" width="153.0995" x="250.36" y="7"/><ellipse cx="265.36" cy="23" fill="#ADD1B2" rx="11" ry="11" style="stroke:#181818;stroke-width:1;"/><path d="M265.4694,18.5313 Q264.5475,18.5313 263.8131,18.8438 Q263.0944,19.1563 262.5944,19.75 Q262.0944,20.3281 261.8131,21.2031 Q261.5475,22.0781 261.5475,23.1719 Q261.5475,24.6094 261.985,25.6563 Q262.4381,26.7031 263.2819,27.25 Q264.1413,27.7969 265.4538,27.7969 Q266.235,27.7969 266.9225,27.6719 Q267.6256,27.5313 268.6256,27.2188 L268.6256,29.0938 Q267.7663,29.4219 267.0006,29.5469 Q266.2506,29.6719 265.235,29.6719 Q263.3131,29.6719 262.0006,28.875 Q260.7038,28.0625 260.0475,26.5938 Q259.3913,25.1094 259.3913,23.1406 Q259.3913,21.7188 259.7819,20.5469 Q260.1881,19.3594 260.9694,18.4844 Q261.7506,17.6094 262.8913,17.1406 Q264.0319,16.6563 265.5006,16.6563 Q266.4538,16.6563 267.3444,16.8594 Q268.2506,17.0469 269.1881,17.5156 L268.36,19.2969 Q267.5788,18.9219 266.9225,18.7344 Q266.2663,18.5313 265.4694,18.5313 Z " fill="#000000"/><text fill="#000000" font-family="sans-serif" font-size="14" lengthAdjust="spacing" textLength="121.0995" x="279.36" y="28.432">DrawioCellBounds</text><line style="stroke:#181818;stroke-width:0.5;" x1="251.36" x2="402.4595" y1="39" y2="39"/><text fill="#000000" font-family="sans-serif" font-size="14" lengthAdjust="spacing" textLength="89.5857" x="256.36" y="57.9659">bottom : float</text><text fill="#000000" font-family="sans-serif" font-size="14" lengthAdjust="spacing" textLength="83.3137" x="256.36" y="77.0339">height : float</text><text fill="#000000" font-family="sans-serif" font-size="14" lengthAdjust="spacing" textLength="62.2158" x="256.36" y="96.1018">left : float</text><text fill="#000000" font-family="sans-serif" font-size="14" lengthAdjust="spacing" textLength="79.7717" x="256.36" y="115.1697">mid_x : float</text><text fill="#000000" font-family="sans-serif" font-size="14" lengthAdjust="spacing" textLength="79.5057" x="256.36" y="134.2376">mid_y : float</text><text fill="#000000" font-family="sans-serif" font-size="14" lengthAdjust="spacing" textLength="72.5477" x="256.36" y="153.3055">right : float</text><text fill="#000000" font-family="sans-serif" font-size="14" lengthAdjust="spacing" textLength="62.9718" x="256.36" y="172.3734">top : float</text><text fill="#000000" font-family="sans-serif" font-size="14" lengthAdjust="spacing" textLength="77.7697" x="256.36" y="191.4414">width : float</text><text fill="#000000" font-family="sans-serif" font-size="14" lengthAdjust="spacing" textLength="48.2438" x="256.36" y="210.5093">x : float</text><text fill="#000000" font-family="sans-serif" font-size="14" lengthAdjust="spacing" textLength="47.9778" x="256.36" y="229.5772">y : float</text><line style="stroke:#181818;stroke-width:0.5;" x1="251.36" x2="402.4595" y1="237.6792" y2="237.6792"/></g><!--class archility.generate.GenerateResult--><g class="entity" data-qualified-name="archility.generate.GenerateResult" data-source-line="26" id="ent0004"><rect fill="#F1F1F1" height="143.3396" rx="2.5" ry="2.5" style="stroke:#181818;stroke-width:0.5;" width="182.4354" x="438.69" y="54.67"/><ellipse cx="475.5536" cy="70.67" fill="#ADD1B2" rx="11" ry="11" style="stroke:#181818;stroke-width:1;"/><path d="M475.663,66.2012 Q474.7411,66.2012 474.0067,66.5137 Q473.288,66.8262 472.788,67.42 Q472.288,67.9981 472.0067,68.8731 Q471.7411,69.7481 471.7411,70.8419 Q471.7411,72.2794 472.1786,73.3262 Q472.6317,74.3731 473.4755,74.92 Q474.3348,75.4669 475.6473,75.4669 Q476.4286,75.4669 477.1161,75.3419 Q477.8192,75.2012 478.8192,74.8887 L478.8192,76.7637 Q477.9598,77.0919 477.1942,77.2169 Q476.4442,77.3419 475.4286,77.3419 Q473.5067,77.3419 472.1942,76.545 Q470.8973,75.7325 470.2411,74.2637 Q469.5848,72.7794 469.5848,70.8106 Q469.5848,69.3887 469.9755,68.2169 Q470.3817,67.0294 471.163,66.1544 Q471.9442,65.2794 473.0848,64.8106 Q474.2255,64.3262 475.6942,64.3262 Q476.6473,64.3262 477.538,64.5294 Q478.4442,64.7169 479.3817,65.1856 L478.5536,66.9669 Q477.7723,66.5919 477.1161,66.4044 Q476.4598,66.2012 475.663,66.2012 Z " fill="#000000"/><text fill="#000000" font-family="sans-serif" font-size="14" lengthAdjust="spacing" textLength="101.8496" x="494.4122" y="76.102">GenerateResult</text><line style="stroke:#181818;stroke-width:0.5;" x1="439.69" x2="620.1254" y1="86.67" y2="86.67"/><text fill="#000000" font-family="sans-serif" font-size="14" lengthAdjust="spacing" textLength="106.5816" x="444.69" y="105.6359">created : list[str]</text><text fill="#000000" font-family="sans-serif" font-size="14" lengthAdjust="spacing" textLength="58.7438" x="444.69" y="124.7039">path : str</text><text fill="#000000" font-family="sans-serif" font-size="14" lengthAdjust="spacing" textLength="117.8936" x="444.69" y="143.7718">rendered : list[str]</text><text fill="#000000" font-family="sans-serif" font-size="14" lengthAdjust="spacing" textLength="108.2896" x="444.69" y="162.8397">skipped : list[str]</text><line style="stroke:#181818;stroke-width:0.5;" x1="439.69" x2="620.1254" y1="170.9417" y2="170.9417"/><text fill="#000000" font-family="sans-serif" font-size="14" lengthAdjust="spacing" textLength="170.4354" x="444.69" y="189.9076">to_dict() -&gt; dict[str, object]</text></g><!--class archility.render.PythonDiagramPlan--><g class="entity" data-qualified-name="archility.render.PythonDiagramPlan" data-source-line="33" id="ent0005"><rect fill="#F1F1F1" height="181.4754" rx="2.5" ry="2.5" style="stroke:#181818;stroke-width:0.5;" width="287.813" x="7" y="315.21"/><ellipse cx="80.6327" cy="331.21" fill="#ADD1B2" rx="11" ry="11" style="stroke:#181818;stroke-width:1;"/><path d="M80.7421,326.7412 Q79.8202,326.7412 79.0859,327.0537 Q78.3671,327.3662 77.8671,327.96 Q77.3671,328.5381 77.0859,329.4131 Q76.8202,330.2881 76.8202,331.3819 Q76.8202,332.8194 77.2577,333.8662 Q77.7109,334.9131 78.5546,335.46 Q79.414,336.0069 80.7265,336.0069 Q81.5077,336.0069 82.1952,335.8819 Q82.8984,335.7412 83.8984,335.4287 L83.8984,337.3037 Q83.039,337.6319 82.2734,337.7569 Q81.5234,337.8819 80.5077,337.8819 Q78.5859,337.8819 77.2734,337.085 Q75.9765,336.2725 75.3202,334.8037 Q74.664,333.3194 74.664,331.3506 Q74.664,329.9287 75.0546,328.7569 Q75.4609,327.5694 76.2421,326.6944 Q77.0234,325.8194 78.164,325.3506 Q79.3046,324.8662 80.7734,324.8662 Q81.7265,324.8662 82.6171,325.0694 Q83.5234,325.2569 84.4609,325.7256 L83.6327,327.5069 Q82.8515,327.1319 82.1952,326.9444 Q81.539,326.7412 80.7421,326.7412 Z " fill="#000000"/><text fill="#000000" font-family="sans-serif" font-size="14" lengthAdjust="spacing" textLength="132.0475" x="101.1327" y="336.642">PythonDiagramPlan</text><line style="stroke:#181818;stroke-width:0.5;" x1="8" x2="293.813" y1="347.21" y2="347.21"/><text fill="#000000" font-family="sans-serif" font-size="14" lengthAdjust="spacing" textLength="118.4256" x="13" y="366.1759">project_name : str</text><text fill="#000000" font-family="sans-serif" font-size="14" lengthAdjust="spacing" textLength="207.7312" x="13" y="385.2439">pydeps_outputs : tuple[Path, ...]</text><text fill="#000000" font-family="sans-serif" font-size="14" lengthAdjust="spacing" textLength="270.311" x="13" y="404.3118">pyreverse_produced_stems : tuple[str, ...]</text><text fill="#000000" font-family="sans-serif" font-size="14" lengthAdjust="spacing" textLength="275.813" x="13" y="423.3797">pyreverse_render_outputs : tuple[Path, ...]</text><text fill="#000000" font-family="sans-serif" font-size="14" lengthAdjust="spacing" textLength="224.7131" x="13" y="442.4476">pyreverse_sources : tuple[Path, ...]</text><text fill="#000000" font-family="sans-serif" font-size="14" lengthAdjust="spacing" textLength="105.8116" x="13" y="461.5155">repo_root : Path</text><text fill="#000000" font-family="sans-serif" font-size="14" lengthAdjust="spacing" textLength="149.7014" x="13" y="480.5834">targets : tuple[Path, ...]</text><line style="stroke:#181818;stroke-width:0.5;" x1="8" x2="293.813" y1="488.6854" y2="488.6854"/></g><!--class archility.render.PythonModuleInfo--><g class="entity" data-qualified-name="archility.render.PythonModuleInfo" data-source-line="42" id="ent0006"><rect fill="#F1F1F1" height="143.3396" rx="2.5" ry="2.5" style="stroke:#181818;stroke-width:0.5;" width="155.0595" x="329.38" y="334.28"/><ellipse cx="344.38" cy="350.28" fill="#ADD1B2" rx="11" ry="11" style="stroke:#181818;stroke-width:1;"/><path d="M344.4894,345.8113 Q343.5675,345.8113 342.8331,346.1238 Q342.1144,346.4363 341.6144,347.03 Q341.1144,347.6081 340.8331,348.4831 Q340.5675,349.3581 340.5675,350.4519 Q340.5675,351.8894 341.005,352.9363 Q341.4581,353.9831 342.3019,354.53 Q343.1613,355.0769 344.4738,355.0769 Q345.255,355.0769 345.9425,354.9519 Q346.6456,354.8113 347.6456,354.4988 L347.6456,356.3738 Q346.7863,356.7019 346.0206,356.8269 Q345.2706,356.9519 344.255,356.9519 Q342.3331,356.9519 341.0206,356.155 Q339.7238,355.3425 339.0675,353.8738 Q338.4113,352.3894 338.4113,350.4206 Q338.4113,348.9988 338.8019,347.8269 Q339.2081,346.6394 339.9894,345.7644 Q340.7706,344.8894 341.9113,344.4206 Q343.0519,343.9363 344.5206,343.9363 Q345.4738,343.9363 346.3644,344.1394 Q347.2706,344.3269 348.2081,344.7956 L347.38,346.5769 Q346.5988,346.2019 345.9425,346.0144 Q345.2863,345.8113 344.4894,345.8113 Z " fill="#000000"/><text fill="#000000" font-family="sans-serif" font-size="14" lengthAdjust="spacing" textLength="123.0595" x="358.38" y="355.712">PythonModuleInfo</text><line style="stroke:#181818;stroke-width:0.5;" x1="330.38" x2="483.4395" y1="366.28" y2="366.28"/><text fill="#000000" font-family="sans-serif" font-size="14" lengthAdjust="spacing" textLength="103.7116" x="335.38" y="385.2459">class_count : int</text><text fill="#000000" font-family="sans-serif" font-size="14" lengthAdjust="spacing" textLength="126.7415" x="335.38" y="404.3139">function_count : int</text><text fill="#000000" font-family="sans-serif" font-size="14" lengthAdjust="spacing" textLength="111.7476" x="335.38" y="423.3818">is_package : bool</text><text fill="#000000" font-family="sans-serif" font-size="14" lengthAdjust="spacing" textLength="66.0658" x="335.38" y="442.4497">name : str</text><text fill="#000000" font-family="sans-serif" font-size="14" lengthAdjust="spacing" textLength="71.2317" x="335.38" y="461.5176">path : Path</text><line style="stroke:#181818;stroke-width:0.5;" x1="330.38" x2="483.4395" y1="469.6196" y2="469.6196"/></g><!--class archility.render.RenderStep--><g class="entity" data-qualified-name="archility.render.RenderStep" data-source-line="49" id="ent0007"><rect fill="#F1F1F1" height="200.5433" rx="2.5" ry="2.5" style="stroke:#181818;stroke-width:0.5;" width="223.0212" x="519.4" y="305.68"/><ellipse cx="588.2658" cy="321.68" fill="#ADD1B2" rx="11" ry="11" style="stroke:#181818;stroke-width:1;"/><path d="M588.3751,317.2112 Q587.4533,317.2112 586.7189,317.5237 Q586.0001,317.8362 585.5001,318.43 Q585.0001,319.0081 584.7189,319.8831 Q584.4533,320.7581 584.4533,321.8519 Q584.4533,323.2894 584.8908,324.3362 Q585.3439,325.3831 586.1876,325.93 Q587.047,326.4769 588.3595,326.4769 Q589.1408,326.4769 589.8283,326.3519 Q590.5314,326.2112 591.5314,325.8987 L591.5314,327.7737 Q590.672,328.1019 589.9064,328.2269 Q589.1564,328.3519 588.1408,328.3519 Q586.2189,328.3519 584.9064,327.555 Q583.6095,326.7425 582.9533,325.2737 Q582.297,323.7894 582.297,321.8206 Q582.297,320.3987 582.6876,319.2269 Q583.0939,318.0394 583.8751,317.1644 Q584.6564,316.2894 585.797,315.8206 Q586.9376,315.3362 588.4064,315.3362 Q589.3595,315.3362 590.2501,315.5394 Q591.1564,315.7269 592.0939,316.1956 L591.2658,317.9769 Q590.4845,317.6019 589.8283,317.4144 Q589.172,317.2112 588.3751,317.2112 Z " fill="#000000"/><text fill="#000000" font-family="sans-serif" font-size="14" lengthAdjust="spacing" textLength="76.7897" x="608.7658" y="327.112">RenderStep</text><line style="stroke:#181818;stroke-width:0.5;" x1="520.4" x2="741.4212" y1="337.68" y2="337.68"/><text fill="#000000" font-family="sans-serif" font-size="14" lengthAdjust="spacing" textLength="123.2556" x="525.4" y="356.6459">command : list[str]</text><text fill="#000000" font-family="sans-serif" font-size="14" lengthAdjust="spacing" textLength="105.5596" x="525.4" y="375.7139">cwd : str | None</text><text fill="#000000" font-family="sans-serif" font-size="14" lengthAdjust="spacing" textLength="73.0657" x="525.4" y="394.7818">output : str</text><text fill="#000000" font-family="sans-serif" font-size="14" lengthAdjust="spacing" textLength="141.4555" x="525.4" y="413.8497">outputs : tuple[str, ...]</text><text fill="#000000" font-family="sans-serif" font-size="14" lengthAdjust="spacing" textLength="142.6315" x="525.4" y="432.9176">produced_output : str</text><text fill="#000000" font-family="sans-serif" font-size="14" lengthAdjust="spacing" textLength="211.0212" x="525.4" y="451.9855">produced_outputs : tuple[str, ...]</text><text fill="#000000" font-family="sans-serif" font-size="14" lengthAdjust="spacing" textLength="72.7997" x="525.4" y="471.0534">source : str</text><text fill="#000000" font-family="sans-serif" font-size="14" lengthAdjust="spacing" textLength="54.1798" x="525.4" y="490.1214">tool : str</text><line style="stroke:#181818;stroke-width:0.5;" x1="520.4" x2="741.4212" y1="498.2233" y2="498.2233"/></g><!--class archility.audit.RepoAudit--><g class="entity" data-qualified-name="archility.audit.RepoAudit" data-source-line="59" id="ent0008"><rect fill="#F1F1F1" height="314.9508" rx="2.5" ry="2.5" style="stroke:#181818;stroke-width:0.5;" width="189.9673" x="55.92" y="566.22"/><ellipse cx="112.3748" cy="582.22" fill="#ADD1B2" rx="11" ry="11" style="stroke:#181818;stroke-width:1;"/><path d="M112.4842,577.7512 Q111.5623,577.7512 110.8279,578.0637 Q110.1092,578.3762 109.6092,578.97 Q109.1092,579.5481 108.8279,580.4231 Q108.5623,581.2981 108.5623,582.3919 Q108.5623,583.8294 108.9998,584.8762 Q109.4529,585.9231 110.2967,586.47 Q111.156,587.0169 112.4685,587.0169 Q113.2498,587.0169 113.9373,586.8919 Q114.6404,586.7512 115.6404,586.4387 L115.6404,588.3137 Q114.781,588.6419 114.0154,588.7669 Q113.2654,588.8919 112.2498,588.8919 Q110.3279,588.8919 109.0154,588.095 Q107.7185,587.2825 107.0623,585.8137 Q106.406,584.3294 106.406,582.3606 Q106.406,580.9387 106.7967,579.7669 Q107.2029,578.5794 107.9842,577.7044 Q108.7654,576.8294 109.906,576.3606 Q111.0467,575.8762 112.5154,575.8762 Q113.4685,575.8762 114.3592,576.0794 Q115.2654,576.2669 116.2029,576.7356 L115.3748,578.5169 Q114.5935,578.1419 113.9373,577.9544 Q113.281,577.7512 112.4842,577.7512 Z " fill="#000000"/><text fill="#000000" font-family="sans-serif" font-size="14" lengthAdjust="spacing" textLength="68.5577" x="132.8748" y="587.652">RepoAudit</text><line style="stroke:#181818;stroke-width:0.5;" x1="56.92" x2="244.8873" y1="598.22" y2="598.22"/><text fill="#000000" font-family="sans-serif" font-size="14" lengthAdjust="spacing" textLength="100.7016" x="61.92" y="617.1859">code_like : bool</text><text fill="#000000" font-family="sans-serif" font-size="14" lengthAdjust="spacing" textLength="127.5255" x="61.92" y="636.2539">diagram_count : int</text><text fill="#000000" font-family="sans-serif" font-size="14" lengthAdjust="spacing" textLength="170.1694" x="61.92" y="655.3218">diagram_formats : list[str]</text><text fill="#000000" font-family="sans-serif" font-size="14" lengthAdjust="spacing" textLength="177.9673" x="61.92" y="674.3897">diagram_source_count : int</text><text fill="#000000" font-family="sans-serif" font-size="14" lengthAdjust="spacing" textLength="114.3936" x="61.92" y="693.4576">has_agents : bool</text><text fill="#000000" font-family="sans-serif" font-size="14" lengthAdjust="spacing" textLength="130.1015" x="61.92" y="712.5255">has_blueprint : bool</text><text fill="#000000" font-family="sans-serif" font-size="14" lengthAdjust="spacing" textLength="118.3696" x="61.92" y="731.5934">has_lessons : bool</text><text fill="#000000" font-family="sans-serif" font-size="14" lengthAdjust="spacing" textLength="58.7438" x="61.92" y="750.6614">path : str</text><text fill="#000000" font-family="sans-serif" font-size="14" lengthAdjust="spacing" textLength="177.3233" x="61.92" y="769.7293">recommendations : list[str]</text><text fill="#000000" font-family="sans-serif" font-size="14" lengthAdjust="spacing" textLength="169.6933" x="61.92" y="788.7972">render_artifact_count : int</text><text fill="#000000" font-family="sans-serif" font-size="14" lengthAdjust="spacing" textLength="141.6935" x="61.92" y="807.8651">source_roots : list[str]</text><text fill="#000000" font-family="sans-serif" font-size="14" lengthAdjust="spacing" textLength="124.5715" x="61.92" y="826.933">toolchains : list[str]</text><text fill="#000000" font-family="sans-serif" font-size="14" lengthAdjust="spacing" textLength="132.7475" x="61.92" y="846.0009">workflow_count : int</text><line style="stroke:#181818;stroke-width:0.5;" x1="56.92" x2="244.8873" y1="854.1029" y2="854.1029"/><text fill="#000000" font-family="sans-serif" font-size="14" lengthAdjust="spacing" textLength="170.4354" x="61.92" y="873.0689">to_dict() -&gt; dict[str, object]</text></g><?plantuml-src ZLHDZzGm3BtlhuZs1DBI7y012LW9SG2DTe-hLUL9t6cOD8uIbw42_Zj9lvlE0hU-5zjvptOQa8M51eC3YO_em0EJ5vOitaW38OZRUmyNJH-ejIhS2WW2lAorqTmL9xGO4x1OnuYVDq8SYPaQyLPeon7Mg4yrpz1WjO16g_B71dKpyfiq9ZT_NxJYUaPB_fJxUol_8nfprO97gz0NUTJMH6K8DZOcOZGomSdA6dShxBFqmT249aiJNbTQgip6FetDVy3G6dvfCjketfRq60aLAneT-2cmVuwiW_xoY9BGlYkxc73MpkrOfb9foQzUYpVlHFfA1tU2ZjzGylCY-D1nJVPUmyb3Sp1WhuzY5zQBTfvIkJ8jwopJTGfTAAbbrtA8DBVEuDCXMhaJHL7qlZgFtz47B6C9rKfKPM1ibkXUx2vu4FE_fGErNk8BOHuTbPueJJuTf9Q1F-7ribcxlaJD1Z_RYlxMhILgc72gKCguoSlZgLehMPFDQ1tA-FJFS4fTFHAPo6rxFEn5BtpMzj1V_iZehgjQpWSzr3HWyxsH5pNS8dw9h-c78yJGxldklFkRKKtJp78o_dhoCAyvXwFl4QmiEdhVAfs_B4XSCP-E_XIMHfzNFLJ3_cRTdjYAV0EzjdL3fjD1NPPQGoZZb6oVDLwIkADfqNdTHwveWo6GNSLcxpkD90u9qahaEiRT1y-wWlZcja96TMcXm-vFG4RMe7SLB-JFyVTroKhzwy_n1m00?></g></svg>