<?plantuml 1.2026.2?><svg xmlns="http://www.w3.org/2000/svg" xmlns:xlink="http://www.w3.org/1999/xlink" contentStyleType="text/css" data-diagram-type="CLASS" height="627px" preserveAspectRatio="none" style="width:783px;height:627px;background:#FFFFFF;" version="1.1" viewBox="0 0 783 627" width="783px" zoomAndPan="magnify"><defs/><g><!--class archility.generate.DrawioBounds--><g class="entity" data-qualified-name="archility.generate.DrawioBounds" data-source-line="2" id="ent0002"><rect fill="#F1F1F1" height="238.6792" rx="2.5" ry="2.5" style="stroke:#181818;stroke-width:0.5;" width="129.1316" x="86.34" y="7"/><ellipse cx="101.34" cy="23" fill="#ADD1B2" rx="11" ry="11" style="stroke:#181818;stroke-width:1;"/><path d="M101.4494,18.5313 Q100.5275,18.5313 99.7931,18.8438 Q99.0744,19.1563 98.5744,19.75 Q98.0744,20.3281 97.7931,21.2031 Q97.5275,22.0781 97.5275,23.1719 Q97.5275,24.6094 97.965,25.6563 Q98.4181,26.7031 99.2619,27.25 Q100.1213,27.7969 101.4338,27.7969 Q102.215,27.7969 102.9025,27.6719 Q103.6056,27.5313 104.6056,27.2188 L104.6056,29.0938 Q103.7463,29.4219 102.9806,29.5469 Q102.2306,29.6719 101.215,29.6719 Q99.2931,29.6719 97.9806,28.875 Q96.6838,28.0625 96.0275,26.5938 Q95.3713,25.1094 95.3713,23.1406 Q95.3713,21.7188 95.7619,20.5469 Q96.1681,19.3594 96.9494,18.4844 Q97.7306,17.6094 98.8713,17.1406 Q100.0119,16.6563 101.4806,16.6563 Q102.4338,16.6563 103.3244,16.8594 Q104.2306,17.0469 105.1681,17.5156 L104.34,19.2969 Q103.5588,18.9219 102.9025,18.7344 Q102.2463,18.5313 101.4494,18.5313 Z " fill="#000000"/><text fill="#000000" font-family="sans-serif" font-size="14" lengthAdjust="spacing" textLength="97.1316" x="115.34" y="28.432">DrawioBounds</text><line style="stroke:#181818;stroke-width:0.5;" x1="87.34" x2="214.4716" y1="39" y2="39"/><text fill="#000000" font-family="sans-serif" font-size="14" lengthAdjust="spacing" textLength="77.0977" x="92.34" y="57.9659">bottom : int</text><text fill="#000000" font-family="sans-serif" font-size="14" lengthAdjust="spacing" textLength="70.8257" x="92.34" y="77.0339">height : int</text><text fill="#000000" font-family="sans-serif" font-size="14" lengthAdjust="spacing" textLength="49.7278" x="92.34" y="96.1018">left : int</text><text fill="#000000" font-family="sans-serif" font-size="14" lengthAdjust="spacing" textLength="67.2837" x="92.34" y="115.1697">mid_x : int</text><text fill="#000000" font-family="sans-serif" font-size="14" lengthAdjust="spacing" textLength="67.0177" x="92.34" y="134.2376">mid_y : int</text><text fill="#000000" font-family="sans-serif" font-size="14" lengthAdjust="spacing" textLength="60.0598" x="92.34" y="153.3055">right : int</text><text fill="#000000" font-family="sans-serif" font-size="14" lengthAdjust="spacing" textLength="50.4838" x="92.34" y="172.3734">top : int</text><text fill="#000000" font-family="sans-serif" font-size="14" lengthAdjust="spacing" textLength="65.2817" x="92.34" y="191.4414">width : int</text><text fill="#000000" font-family="sans-serif" font-size="14" lengthAdjust="spacing" textLength="35.7559" x="92.34" y="210.5093">x : int</text><text fill="#000000" font-family="sans-serif" font-size="14" lengthAdjust="spacing" textLength="35.4899" x="92.34" y="229.5772">y : int</text><line style="stroke:#181818;stroke-width:0.5;" x1="87.34" x2="214.4716" y1="237.6792" y2="237.6792"/></g><!--class archility.render.DrawioCellBounds--><g class="entity" data-qualified-name="archility.render.DrawioCellBounds" data-source-line="14" id="ent0003"><rect fill="#F1F1F1" height="238.6792" rx="2.5" ry="2.5" style="stroke:#181818;stroke-width:0.5;" width="153.0995" x="250.36" y="7"/><ellipse cx="265.36" cy="23" fill="#ADD1B2" rx="11" ry="11" style="stroke:#181818;stroke-width:1;"/><path d="M265.4694,18.5313 Q264.5475,18.5313 263.8131,18.8438 Q263.0944,19.1563 262.5944,19.75 Q262.0944,20.3281 261.8131,21.2031 Q261.5475,22.0781 261.5475,23.1719 Q261.5475,24.6094 261.985,25.6563 Q262.4381,26.7031 263.2819,27.25 Q264.1413,27.7969 265.4538,27.7969 Q266.235,27.7969 266.9225,27.6719 Q267.6256,27.5313 268.6256,27.2188 L268.6256,29.0938 Q267.7663,29.4219 267.0006,29.5469 Q266.2506,29.6719 265.235,29.6719 Q263.3131,29.6719 262.0006,28.875 Q260.7038,28.0625 260.0475,26.5938 Q259.3913,25.1094 259.3913,23.1406 Q259.3913,21.7188 259.7819,20.5469 Q260.1881,19.3594 260.9694,18.4844 Q261.7506,17.6094 262.8913,17.1406 Q264.0319,16.6563 265.5006,16.6563 Q266.4538,16.6563 267.3444,16.8594 Q268.2506,17.0469 269.1881,17.5156 L268.36,19.2969 Q267.5788,18.9219 266.9225,18.7344 Q266.2663,18.5313 265.4694,18.5313 Z " fill="#000000"/><text fill="#000000" font-family="sans-serif" font-size="14" lengthAdjust="spacing" textLength="121.0995" x="279.36" y="28.432">DrawioCellBounds</text><line style="stroke:#181818;stroke-width:0.5;" x1="251.36" x2="402.4595" y1="39" y2="39"/><text fill="#000000" font-family="sans-serif" font-size="14" lengthAdjust="spacing" textLength="89.5857" x="256.36" y="57.9659">bottom : float</text><text fill="#000000" font-family="sans-serif" font-size="14" lengthAdjust="spacing" textLength="83.3137" x="256.36" y="77.0339">height : float</text><text fill="#000000" font-family="sans-serif" font-size="14" lengthAdjust="spacing" textLength="62.2158" x="256.36" y="96.1018">left : float</text><text fill="#000000" font-family="sans-serif" font-size="14" lengthAdjust="spacing" textLength="79.7717" x="256.36" y="115.1697">mid_x : float</text><text fill="#000000" font-family="sans-serif" font-size="14" lengthAdjust="spacing" textLength="79.5057" x="256.36" y="134.2376">mid_y : float</text><text fill="#000000" font-family="sans-serif" font-size="14" lengthAdjust="spacing" textLength="72.5477" x="256.36" y="153.3055">right : float</text><text fill="#000000" font-family="sans-serif" font-size="14" lengthAdjust="spacing" textLength="62.9718" x="256.36" y="172.3734">top : float</text><text fill="#000000" font-family="sans-serif" font-size="14" lengthAdjust="spacing" textLength="77.7697" x="256.36" y="191.4414">width : float</text><text fill="#000000" font-family="sans-serif" font-size="14" lengthAdjust="spacing" textLength="48.2438" x="256.36" y="210.5093">x : float</text><text fill="#000000" font-family="sans-serif" font-size="14" lengthAdjust="spacing" textLength="47.9778" x="256.36" y="229.5772">y : float</text><line style="stroke:#181818;stroke-width:0.5;" x1="251.36" x2="402.4595" y1="237.6792" y2="237.6792"/></g><!--class archility.generate.GenerateResult--><g class="entity" data-qualified-name="archility.generate.GenerateResult" data-source-line="26" id="ent0004"><rect fill="#F1F1F1" height="143.3396" rx="2.5" ry="2.5" style="stroke:#181818;stroke-width:0.5;" width="182.4354" x="438.69" y="54.67"/><ellipse cx="475.5536" cy="70.67" fill="#ADD1B2" rx="11" ry="11" style="stroke:#181818;stroke-width:1;"/><path d="M475.663,66.2012 Q474.7411,66.2012 474.0067,66.5137 Q473.288,66.8262 472.788,67.42 Q472.288,67.9981 472.0067,68.8731 Q471.7411,69.7481 471.7411,70.8419 Q471.7411,72.2794 472.1786,73.3262 Q472.6317,74.3731 473.4755,74.92 Q474.3348,75.4669 475.6473,75.4669 Q476.4286,75.4669 477.1161,75.3419 Q477.8192,75.2012 478.8192,74.8887 L478.8192,76.7637 Q477.9598,77.0919 477.1942,77.2169 Q476.4442,77.3419 475.4286,77.3419 Q473.5067,77.3419 472.1942,76.545 Q470.8973,75.7325 470.2411,74.2637 Q469.5848,72.7794 469.5848,70.8106 Q469.5848,69.3887 469.9755,68.2169 Q470.3817,67.0294 471.163,66.1544 Q471.9442,65.2794 473.0848,64.8106 Q474.2255,64.3262 475.6942,64.3262 Q476.6473,64.3262 477.538,64.5294 Q478.4442,64.7169 479.3817,65.1856 L478.5536,66.9669 Q477.7723,66.5919 477.1161,66.4044 Q476.4598,66.2012 475.663,66.2012 Z " fill="#000000"/><text fill="#000000" font-family="sans-serif" font-size="14" lengthAdjust="spacing" textLength="101.8496" x="494.4122" y="76.102">GenerateResult</text><line style="stroke:#181818;stroke-width:0.5;" x1="439.69" x2="620.1254" y1="86.67" y2="86.67"/><text fill="#000000" font-family="sans-serif" font-size="14" lengthAdjust="spacing" textLength="106.5816" x="444.69" y="105.6359">created : list[str]</text><text fill="#000000" font-family="sans-serif" font-size="14" lengthAdjust="spacing" textLength="58.7438" x="444.69" y="124.7039">path : str</text><text fill="#000000" font-family="sans-serif" font-size="14" lengthAdjust="spacing" textLength="117.8936" x="444.69" y="143.7718">rendered : list[str]</text><text fill="#000000" font-family="sans-serif" font-size="14" lengthAdjust="spacing" textLength="108.2896" x="444.69" y="162.8397">skipped : list[str]</text><line style="stroke:#181818;stroke-width:0.5;" x1="439.69" x2="620.1254" y1="170.9417" y2="170.9417"/><text fill="#000000" font-family="sans-serif" font-size="14" lengthAdjust="spacing" textLength="170.4354" x="444.69" y="189.9076">to_dict() -&gt; dict[str, object]</text></g><!--class archility.render.PythonDiagramPlan--><g class="entity" data-qualified-name="archility.render.PythonDiagramPlan" data-source-line="33" id="ent0005"><rect fill="#F1F1F1" height="181.4754" rx="2.5" ry="2.5" style="stroke:#181818;stroke-width:0.5;" width="287.813" x="7" y="372.42"/><ellipse cx="80.6327" cy="388.42" fill="#ADD1B2" rx="11" ry="11" style="stroke:#181818;stroke-width:1;"/><path d="M80.7421,383.9512 Q79.8202,383.9512 79.0859,384.2637 Q78.3671,384.5762 77.8671,385.17 Q77.3671,385.7481 77.0859,386.6231 Q76.8202,387.4981 76.8202,388.5919 Q76.8202,390.0294 77.2577,391.0762 Q77.7109,392.1231 78.5546,392.67 Q79.414,393.2169 80.7265,393.2169 Q81.5077,393.2169 82.1952,393.0919 Q82.8984,392.9512 83.8984,392.6387 L83.8984,394.5137 Q83.039,394.8419 82.2734,394.9669 Q81.5234,395.0919 80.5077,395.0919 Q78.5859,395.0919 77.2734,394.295 Q75.9765,393.4825 75.3202,392.0137 Q74.664,390.5294 74.664,388.5606 Q74.664,387.1387 75.0546,385.9669 Q75.4609,384.7794 76.2421,383.9044 Q77.0234,383.0294 78.164,382.5606 Q79.3046,382.0762 80.7734,382.0762 Q81.7265,382.0762 82.6171,382.2794 Q83.5234,382.4669 84.4609,382.9356 L83.6327,384.7169 Q82.8515,384.3419 82.1952,384.1544 Q81.539,383.9512 80.7421,383.9512 Z " fill="#000000"/><text fill="#000000" font-family="sans-serif" font-size="14" lengthAdjust="spacing" textLength="132.0475" x="101.1327" y="393.852">PythonDiagramPlan</text><line style="stroke:#181818;stroke-width:0.5;" x1="8" x2="293.813" y1="404.42" y2="404.42"/><text fill="#000000" font-family="sans-serif" font-size="14" lengthAdjust="spacing" textLength="118.4256" x="13" y="423.3859">project_name : str</text><text fill="#000000" font-family="sans-serif" font-size="14" lengthAdjust="spacing" textLength="207.7312" x="13" y="442.4539">pydeps_outputs : tuple[Path, ...]</text><text fill="#000000" font-family="sans-serif" font-size="14" lengthAdjust="spacing" textLength="270.311" x="13" y="461.5218">pyreverse_produced_stems : tuple[str, ...]</text><text fill="#000000" font-family="sans-serif" font-size="14" lengthAdjust="spacing" textLength="275.813" x="13" y="480.5897">pyreverse_render_outputs : tuple[Path, ...]</text><text fill="#000000" font-family="sans-serif" font-size="14" lengthAdjust="spacing" textLength="224.7131" x="13" y="499.6576">pyreverse_sources : tuple[Path, ...]</text><text fill="#000000" font-family="sans-serif" font-size="14" lengthAdjust="spacing" textLength="105.8116" x="13" y="518.7255">repo_root : Path</text><text fill="#000000" font-family="sans-serif" font-size="14" lengthAdjust="spacing" textLength="149.7014" x="13" y="537.7934">targets : tuple[Path, ...]</text><line style="stroke:#181818;stroke-width:0.5;" x1="8" x2="293.813" y1="545.8954" y2="545.8954"/></g><!--class archility.render.RenderStep--><g class="entity" data-qualified-name="archility.render.RenderStep" data-source-line="42" id="ent0006"><rect fill="#F1F1F1" height="200.5433" rx="2.5" ry="2.5" style="stroke:#181818;stroke-width:0.5;" width="223.0212" x="329.4" y="362.88"/><ellipse cx="398.2658" cy="378.88" fill="#ADD1B2" rx="11" ry="11" style="stroke:#181818;stroke-width:1;"/><path d="M398.3751,374.4113 Q397.4533,374.4113 396.7189,374.7238 Q396.0001,375.0363 395.5001,375.63 Q395.0001,376.2081 394.7189,377.0831 Q394.4533,377.9581 394.4533,379.0519 Q394.4533,380.4894 394.8908,381.5363 Q395.3439,382.5831 396.1876,383.13 Q397.047,383.6769 398.3595,383.6769 Q399.1408,383.6769 399.8283,383.5519 Q400.5314,383.4113 401.5314,383.0988 L401.5314,384.9738 Q400.672,385.3019 399.9064,385.4269 Q399.1564,385.5519 398.1408,385.5519 Q396.2189,385.5519 394.9064,384.755 Q393.6095,383.9425 392.9533,382.4738 Q392.297,380.9894 392.297,379.0206 Q392.297,377.5988 392.6876,376.4269 Q393.0939,375.2394 393.8751,374.3644 Q394.6564,373.4894 395.797,373.0206 Q396.9376,372.5363 398.4064,372.5363 Q399.3595,372.5363 400.2501,372.7394 Q401.1564,372.9269 402.0939,373.3956 L401.2658,375.1769 Q400.4845,374.8019 399.8283,374.6144 Q399.172,374.4113 398.3751,374.4113 Z " fill="#000000"/><text fill="#000000" font-family="sans-serif" font-size="14" lengthAdjust="spacing" textLength="76.7897" x="418.7658" y="384.312">RenderStep</text><line style="stroke:#181818;stroke-width:0.5;" x1="330.4" x2="551.4212" y1="394.88" y2="394.88"/><text fill="#000000" font-family="sans-serif" font-size="14" lengthAdjust="spacing" textLength="123.2556" x="335.4" y="413.8459">command : list[str]</text><text fill="#000000" font-family="sans-serif" font-size="14" lengthAdjust="spacing" textLength="105.5596" x="335.4" y="432.9139">cwd : str | None</text><text fill="#000000" font-family="sans-serif" font-size="14" lengthAdjust="spacing" textLength="73.0657" x="335.4" y="451.9818">output : str</text><text fill="#000000" font-family="sans-serif" font-size="14" lengthAdjust="spacing" textLength="141.4555" x="335.4" y="471.0497">outputs : tuple[str, ...]</text><text fill="#000000" font-family="sans-serif" font-size="14" lengthAdjust="spacing" textLength="142.6315" x="335.4" y="490.1176">produced_output : str</text><text fill="#000000" font-family="sans-serif" font-size="14" lengthAdjust="spacing" textLength="211.0212" x="335.4" y="509.1855">produced_outputs : tuple[str, ...]</text><text fill="#000000" font-family="sans-serif" font-size="14" lengthAdjust="spacing" textLength="72.7997" x="335.4" y="528.2534">source : str</text><text fill="#000000" font-family="sans-serif" font-size="14" lengthAdjust="spacing" textLength="54.1798" x="335.4" y="547.3214">tool : str</text><line style="stroke:#181818;stroke-width:0.5;" x1="330.4" x2="551.4212" y1="555.4233" y2="555.4233"/></g><!--class archility.audit.RepoAudit--><g class="entity" data-qualified-name="archility.audit.RepoAudit" data-source-line="52" id="ent0007"><rect fill="#F1F1F1" height="314.9508" rx="2.5" ry="2.5" style="stroke:#181818;stroke-width:0.5;" width="189.9673" x="586.92" y="305.68"/><ellipse cx="643.3748" cy="321.68" fill="#ADD1B2" rx="11" ry="11" style="stroke:#181818;stroke-width:1;"/><path d="M643.4842,317.2113 Q642.5623,317.2113 641.8279,317.5238 Q641.1092,317.8363 640.6092,318.43 Q640.1092,319.0081 639.8279,319.8831 Q639.5623,320.7581 639.5623,321.8519 Q639.5623,323.2894 639.9998,324.3363 Q640.4529,325.3831 641.2967,325.93 Q642.156,326.4769 643.4685,326.4769 Q644.2498,326.4769 644.9373,326.3519 Q645.6404,326.2113 646.6404,325.8988 L646.6404,327.7738 Q645.781,328.1019 645.0154,328.2269 Q644.2654,328.3519 643.2498,328.3519 Q641.3279,328.3519 640.0154,327.555 Q638.7185,326.7425 638.0623,325.2738 Q637.406,323.7894 637.406,321.8206 Q637.406,320.3988 637.7967,319.2269 Q638.2029,318.0394 638.9842,317.1644 Q639.7654,316.2894 640.906,315.8206 Q642.0467,315.3363 643.5154,315.3363 Q644.4685,315.3363 645.3592,315.5394 Q646.2654,315.7269 647.2029,316.1956 L646.3748,317.9769 Q645.5935,317.6019 644.9373,317.4144 Q644.281,317.2113 643.4842,317.2113 Z " fill="#000000"/><text fill="#000000" font-family="sans-serif" font-size="14" lengthAdjust="spacing" textLength="68.5577" x="663.8748" y="327.112">RepoAudit</text><line style="stroke:#181818;stroke-width:0.5;" x1="587.92" x2="775.8873" y1="337.68" y2="337.68"/><text fill="#000000" font-family="sans-serif" font-size="14" lengthAdjust="spacing" textLength="100.7016" x="592.92" y="356.6459">code_like : bool</text><text fill="#000000" font-family="sans-serif" font-size="14" lengthAdjust="spacing" textLength="127.5255" x="592.92" y="375.7139">diagram_count : int</text><text fill="#000000" font-family="sans-serif" font-size="14" lengthAdjust="spacing" textLength="170.1694" x="592.92" y="394.7818">diagram_formats : list[str]</text><text fill="#000000" font-family="sans-serif" font-size="14" lengthAdjust="spacing" textLength="177.9673" x="592.92" y="413.8497">diagram_source_count : int</text><text fill="#000000" font-family="sans-serif" font-size="14" lengthAdjust="spacing" textLength="114.3936" x="592.92" y="432.9176">has_agents : bool</text><text fill="#000000" font-family="sans-serif" font-size="14" lengthAdjust="spacing" textLength="130.1015" x="592.92" y="451.9855">has_blueprint : bool</text><text fill="#000000" font-family="sans-serif" font-size="14" lengthAdjust="spacing" textLength="118.3696" x="592.92" y="471.0534">has_lessons : bool</text><text fill="#000000" font-family="sans-serif" font-size="14" lengthAdjust="spacing" textLength="58.7438" x="592.92" y="490.1214">path : str</text><text fill="#000000" font-family="sans-serif" font-size="14" lengthAdjust="spacing" textLength="177.3233" x="592.92" y="509.1893">recommendations : list[str]</text><text fill="#000000" font-family="sans-serif" font-size="14" lengthAdjust="spacing" textLength="169.6933" x="592.92" y="528.2572">render_artifact_count : int</text><text fill="#000000" font-family="sans-serif" font-size="14" lengthAdjust="spacing" textLength="141.6935" x="592.92" y="547.3251">source_roots : list[str]</text><text fill="#000000" font-family="sans-serif" font-size="14" lengthAdjust="spacing" textLength="124.5715" x="592.92" y="566.393">toolchains : list[str]</text><text fill="#000000" font-family="sans-serif" font-size="14" lengthAdjust="spacing" textLength="132.7475" x="592.92" y="585.4609">workflow_count : int</text><line style="stroke:#181818;stroke-width:0.5;" x1="587.92" x2="775.8873" y1="593.5629" y2="593.5629"/><text fill="#000000" font-family="sans-serif" font-size="14" lengthAdjust="spacing" textLength="170.4354" x="592.92" y="612.5289">to_dict() -&gt; dict[str, object]</text></g><?plantuml-src ZLJ9RXGn4BtdAwoSG0hz0HoGW4ZSK9GSewXLOzTCE-DsMULgXXRmxzYzBnF1hLzjVg-MZYZAGuqnWCOd3C0WnCgJnnlj84PrUyzmiVI56c_YhOAeW7LbdPMsEA77b835CaRzkb7gG29Kgu_AUacmGdkgP88EZpEehIb_hb0x8Lwb2ONf-sADL1EQyyVSFslwNz6vgn8OlK4kjb5h4KT7i98n6WOX8nobB76xmBn9xmMDQ9GqucMbkSeaxDlG_4UCZPEt9hEEwcHfncGmgQApKPwZy4ko1kWUJoWJxRgoYubd6yBEAbGQg-NTU_NXayfVsN6dwF2AMbvcmW-jLEJlBPmOwWS7_leeTc4TwS2KovLvMIUQeJKOOacDX4PYCaiJ73u_92btgYYAJbVB-0CvOfbAc4QZAQDWFKTtP7V1FPd_BHsfOOrlX346AfaeJpuxSik0JtYzxDIknux1as2utgVPtq-LwXhyTZRwOlfkgT_gUpvgfNf9Km-t2bVj63ksoTdOhoVtFPboXCWDO24nqEV6sEtsGhOLatVGPx1qzfmh7bAjP3BzZfGwdUpybnYjH-8QEcxBXepUdjqcjO9OGZgTBcju9DiEhi70jejSc1t6I7uHkxcXF98q913RHorv3Fi5BFO8QQ_NH0PsUMdYxjh8wGhihkA5-9n-4PTDgNzTvry0?></g></svg>