<?plantuml 1.2026.2?><svg xmlns="http://www.w3.org/2000/svg" xmlns:xlink="http://www.w3.org/1999/xlink" contentStyleType="text/css" data-diagram-type="DESCRIPTION" height="581px" preserveAspectRatio="none" style="width:436px;height:581px;background:#FFFFFF;" version="1.1" viewBox="0 0 436 581" width="436px" zoomAndPan="magnify"><defs/><g><!--entity conftest--><g class="entity" data-qualified-name="conftest" data-source-line="4" id="ent0002"><rect fill="#F1F1F1" height="58.1358" rx="2.5" ry="2.5" style="stroke:#181818;stroke-width:0.5;" width="101.8017" x="161.19" y="7"/><text fill="#000000" font-family="sans-serif" font-size="14" lengthAdjust="spacing" textLength="53.3678" x="171.19" y="31.9659">conftest</text><text fill="#000000" font-family="sans-serif" font-size="14" lengthAdjust="spacing" textLength="81.8017" x="171.19" y="51.0339">1 python file</text></g><!--entity src.archility--><g class="entity" data-qualified-name="src.archility" data-source-line="5" id="ent0003"><rect fill="#F1F1F1" height="96.2717" rx="2.5" ry="2.5" style="stroke:#181818;stroke-width:0.5;" width="186.1794" x="7" y="125.13"/><text fill="#000000" font-family="sans-serif" font-size="14" lengthAdjust="spacing" textLength="74.9977" x="17" y="150.0959">src.archility</text><text fill="#000000" font-family="sans-serif" font-size="14" lengthAdjust="spacing" textLength="147.2654" x="17" y="169.1639">0 child pkg, 5 modules</text><text fill="#000000" font-family="sans-serif" font-size="14" lengthAdjust="spacing" textLength="88.5076" x="17" y="188.2318">6 python files</text><text fill="#000000" font-family="sans-serif" font-size="14" lengthAdjust="spacing" textLength="66.8217" x="17" y="207.2997">examples:</text><text fill="#000000" font-family="sans-serif" font-size="14" lengthAdjust="spacing" text-decoration="underline" textLength="33.2079" x="87.4617" y="207.2997">main</text><text fill="#000000" font-family="sans-serif" font-size="14" lengthAdjust="spacing" textLength="62.5098" x="120.6696" y="207.2997">, audit, cli</text></g><!--entity src.archility.__main__--><g class="entity" data-qualified-name="src.archility.__main__" data-source-line="6" id="ent0004"><rect fill="#F1F1F1" height="58.1358" rx="2.5" ry="2.5" style="stroke:#181818;stroke-width:0.5;" width="131.9576" x="298.11" y="7"/><text fill="#000000" font-family="sans-serif" font-size="14" lengthAdjust="spacing" textLength="78.7497" x="308.11" y="31.9659">src.archility.</text><text fill="#000000" font-family="sans-serif" font-size="14" lengthAdjust="spacing" text-decoration="underline" textLength="33.2079" x="386.8597" y="31.9659">main</text><text fill="#000000" font-family="sans-serif" font-size="14" lengthAdjust="spacing" textLength="81.8017" x="308.11" y="51.0339">1 python file</text></g><!--entity src.archility.audit--><g class="entity" data-qualified-name="src.archility.audit" data-source-line="7" id="ent0005"><rect fill="#F1F1F1" height="58.1358" rx="2.5" ry="2.5" style="stroke:#181818;stroke-width:0.5;" width="132.5316" x="141.82" y="517.67"/><text fill="#000000" font-family="sans-serif" font-size="14" lengthAdjust="spacing" textLength="112.5316" x="151.82" y="542.6359">src.archility.audit</text><text fill="#000000" font-family="sans-serif" font-size="14" lengthAdjust="spacing" textLength="81.8017" x="151.82" y="561.7039">1 python file</text></g><!--entity src.archility.cli--><g class="entity" data-qualified-name="src.archility.cli" data-source-line="8" id="ent0006"><rect fill="#F1F1F1" height="58.1358" rx="2.5" ry="2.5" style="stroke:#181818;stroke-width:0.5;" width="112.6936" x="307.74" y="144.2"/><text fill="#000000" font-family="sans-serif" font-size="14" lengthAdjust="spacing" textLength="92.6936" x="317.74" y="169.1659">src.archility.cli</text><text fill="#000000" font-family="sans-serif" font-size="14" lengthAdjust="spacing" textLength="81.8017" x="317.74" y="188.2339">1 python file</text></g><!--entity src.archility.generate--><g class="entity" data-qualified-name="src.archility.generate" data-source-line="9" id="ent0007"><rect fill="#F1F1F1" height="58.1358" rx="2.5" ry="2.5" style="stroke:#181818;stroke-width:0.5;" width="158.3895" x="152.89" y="281.4"/><text fill="#000000" font-family="sans-serif" font-size="14" lengthAdjust="spacing" textLength="138.3895" x="162.89" y="306.3659">src.archility.generate</text><text fill="#000000" font-family="sans-serif" font-size="14" lengthAdjust="spacing" textLength="81.8017" x="162.89" y="325.4339">1 python file</text></g><!--entity src.archility.render--><g class="entity" data-qualified-name="src.archility.render" data-source-line="10" id="ent0008"><rect fill="#F1F1F1" height="58.1358" rx="2.5" ry="2.5" style="stroke:#181818;stroke-width:0.5;" width="143.3675" x="199.41" y="399.54"/><text fill="#000000" font-family="sans-serif" font-size="14" lengthAdjust="spacing" textLength="123.3675" x="209.41" y="424.5059">src.archility.render</text><text fill="#000000" font-family="sans-serif" font-size="14" lengthAdjust="spacing" textLength="81.8017" x="209.41" y="443.5739">1 python file</text></g><!--link src.archility to src.archility.audit--><g class="link" data-entity-1="ent0003" data-entity-2="ent0005" data-link-type="dependency" data-source-line="11" id="lnk9"><path d="M95.37,221.66 C93.38,255.11 93.4,300.7 103.09,339.54 C120.11,407.75 159.6148,474.0591 185.0048,512.3591" fill="none" id="src.archility-to-src.archility.audit" style="stroke:#181818;stroke-width:1;"/><polygon fill="#181818" points="188.32,517.36,186.6811,507.6485,185.5573,513.1926,180.0132,512.0688,188.32,517.36" style="stroke:#181818;stroke-width:1;"/></g><!--link src.archility to src.archility.generate--><g class="link" data-entity-1="ent0003" data-entity-2="ent0007" data-link-type="dependency" data-source-line="12" id="lnk10"><path d="M146.26,221.55 C165.59,241.35 183.2275,259.4278 200.0375,276.6378" fill="none" id="src.archility-to-src.archility.generate" style="stroke:#181818;stroke-width:1;"/><polygon fill="#181818" points="204.23,280.93,200.8028,271.6967,200.7363,277.3531,195.0798,277.2866,204.23,280.93" style="stroke:#181818;stroke-width:1;"/></g><!--link src.archility to src.archility.render--><g class="link" data-entity-1="ent0003" data-entity-2="ent0008" data-link-type="dependency" data-source-line="13" id="lnk11"><path d="M100.61,221.87 C103.13,257.13 111.24,304.86 135.09,339.54 C152.62,365.03 174.958,381.9608 200.708,396.3008" fill="none" id="src.archility-to-src.archility.render" style="stroke:#181818;stroke-width:1;"/><polygon fill="#181818" points="205.95,399.22,200.0332,391.3465,201.5817,396.7873,196.1409,398.3358,205.95,399.22" style="stroke:#181818;stroke-width:1;"/></g><!--link src.archility.__main__ to src.archility.cli--><g class="link" data-entity-1="ent0004" data-entity-2="ent0006" data-link-type="dependency" data-source-line="14" id="lnk12"><path d="M364.09,65.41 C364.09,88.48 364.09,114.9 364.09,137.96" fill="none" id="src.archility.__main__-to-src.archility.cli" style="stroke:#181818;stroke-width:1;"/><polygon fill="#181818" points="364.09,143.96,368.09,134.96,364.09,138.96,360.09,134.96,364.09,143.96" style="stroke:#181818;stroke-width:1;"/></g><!--link src.archility.cli to src.archility.audit--><g class="link" data-entity-1="ent0006" data-entity-2="ent0005" data-link-type="dependency" data-source-line="15" id="lnk13"><path d="M372.35,202.51 C386.39,256.49 408.9,376.21 360.09,457.67 C341.12,489.33 311.6313,508.345 280.0013,522.115" fill="none" id="src.archility.cli-to-src.archility.audit" style="stroke:#181818;stroke-width:1;"/><polygon fill="#181818" points="274.5,524.51,284.3486,524.5851,279.0844,522.5142,281.1553,517.25,274.5,524.51" style="stroke:#181818;stroke-width:1;"/></g><!--link src.archility.cli to src.archility.generate--><g class="link" data-entity-1="ent0006" data-entity-2="ent0007" data-link-type="dependency" data-source-line="16" id="lnk14"><path d="M336.42,202.61 C313.89,225.69 286.4321,253.8074 263.9121,276.8674" fill="none" id="src.archility.cli-to-src.archility.generate" style="stroke:#181818;stroke-width:1;"/><polygon fill="#181818" points="259.72,281.16,268.8699,277.5158,263.2134,277.5828,263.1464,271.9264,259.72,281.16" style="stroke:#181818;stroke-width:1;"/></g><!--link src.archility.cli to src.archility.render--><g class="link" data-entity-1="ent0006" data-entity-2="ent0008" data-link-type="dependency" data-source-line="17" id="lnk15"><path d="M361.33,202.71 C357.32,236.42 348.19,293.8 329.09,339.54 C320.13,360.99 309.345,378.0066 297.165,394.5666" fill="none" id="src.archility.cli-to-src.archility.render" style="stroke:#181818;stroke-width:1;"/><polygon fill="#181818" points="293.61,399.4,302.1648,394.5199,296.5725,395.3722,295.7202,389.7799,293.61,399.4" style="stroke:#181818;stroke-width:1;"/></g><!--link src.archility.generate to src.archility.audit--><g class="link" data-entity-1="ent0007" data-entity-2="ent0005" data-link-type="dependency" data-source-line="18" id="lnk16"><path d="M210.88,339.97 C199.95,356.45 187.75,378.12 182.09,399.54 C171.43,439.92 182.5577,482.1241 193.7177,511.7941" fill="none" id="src.archility.generate-to-src.archility.audit" style="stroke:#181818;stroke-width:1;"/><polygon fill="#181818" points="195.83,517.41,196.4054,507.578,194.0697,512.7301,188.9176,510.3944,195.83,517.41" style="stroke:#181818;stroke-width:1;"/></g><!--link src.archility.generate to src.archility.render--><g class="link" data-entity-1="ent0007" data-entity-2="ent0008" data-link-type="dependency" data-source-line="19" id="lnk17"><path d="M241.63,339.88 C247.67,357.88 253.5503,375.382 259.6003,393.402" fill="none" id="src.archility.generate-to-src.archility.render" style="stroke:#181818;stroke-width:1;"/><polygon fill="#181818" points="261.51,399.09,262.4375,389.2849,259.9186,394.35,254.8535,391.8311,261.51,399.09" style="stroke:#181818;stroke-width:1;"/></g><!--link src.archility.render to src.archility.audit--><g class="link" data-entity-1="ent0008" data-entity-2="ent0005" data-link-type="dependency" data-source-line="20" id="lnk18"><path d="M255.68,458.02 C245.92,476.01 236.191,493.936 226.421,511.946" fill="none" id="src.archility.render-to-src.archility.audit" style="stroke:#181818;stroke-width:1;"/><polygon fill="#181818" points="223.56,517.22,231.3675,511.2164,225.9442,512.825,224.3355,507.4017,223.56,517.22" style="stroke:#181818;stroke-width:1;"/></g><?plantuml-src ZP71RiCW38RlUGghvxJQ3jjXXxr4hv4YHjmK5Mm4hjIy_KYgHAq6epTZFZx_G4G1KWwZLngFw5LGmW682HjX3yBmmoBiO301jHYc9buCpQ03pSudakGeaqMO0KMZnMQhOAUPJe9HEde7FycP2Kx6uWvKX7NlaOz17rJGPsEDJ1szmLmEu2zZ2n_WUBXQZ1rzFihI6c_A-LHzGTyxPQZlMr3NmKWBsffbsfEvEFAmdiy5pfDbrvAWBbgmiYLTeEv8KDam8c7wMQnhLhBi2aW3XhhfpZLFJTZllxDthr5Rh1gOcxfzL8QVd-rFvxMO1J8VjG1duww65sFyWsVrzsP9_Wi0?></g></svg>
