<?xml version="1.0" encoding="UTF-8" standalone="no"?>
<!DOCTYPE svg PUBLIC "-//W3C//DTD SVG 1.1//EN"
 "http://www.w3.org/Graphics/SVG/1.1/DTD/svg11.dtd">
<!-- Generated by graphviz version 13.1.2 (20250808.2320)
 -->
<!-- Title: G Pages: 1 -->
<svg width="190pt" height="352pt"
 viewBox="0.00 0.00 190.00 352.00" xmlns="http://www.w3.org/2000/svg" xmlns:xlink="http://www.w3.org/1999/xlink">
<g id="graph0" class="graph" transform="scale(1 1) rotate(0) translate(4 348.05)">
<title>G</title><style>.edge>path:hover{stroke-width:8}</style>
<polygon fill="white" stroke="none" points="-4,4 -4,-348.05 185.92,-348.05 185.92,4 -4,4"/>
<!-- archility -->
<g id="node1" class="node">
<title>archility</title><style>.edge>path:hover{stroke-width:8}</style>
<ellipse fill="#a44646" stroke="black" cx="29" cy="-95.01" rx="29" ry="18"/>
<text xml:space="preserve" text-anchor="middle" x="29" y="-90.76" font-family="Helvetica,sans-Serif" font-size="10.00" fill="#ffffff">archility</text>
</g>
<!-- archility___main__ -->
<g id="node2" class="node">
<title>archility___main__</title><style>.edge>path:hover{stroke-width:8}</style>
<ellipse fill="#b34c4c" stroke="black" cx="112" cy="-20.51" rx="41.01" ry="20.51"/>
<text xml:space="preserve" text-anchor="middle" x="112" y="-21.51" font-family="Helvetica,sans-Serif" font-size="10.00" fill="#ffffff">archility.</text>
<text xml:space="preserve" text-anchor="middle" x="112" y="-11.01" font-family="Helvetica,sans-Serif" font-size="10.00" fill="#ffffff">__main__</text>
</g>
<!-- archility_audit -->
<g id="node3" class="node">
<title>archility_audit</title><style>.edge>path:hover{stroke-width:8}</style>
<ellipse fill="#e72222" stroke="black" cx="92" cy="-323.54" rx="36.77" ry="20.51"/>
<text xml:space="preserve" text-anchor="middle" x="92" y="-324.54" font-family="Helvetica,sans-Serif" font-size="10.00" fill="#ffffff">archility.</text>
<text xml:space="preserve" text-anchor="middle" x="92" y="-314.04" font-family="Helvetica,sans-Serif" font-size="10.00" fill="#ffffff">audit</text>
</g>
<!-- archility_audit&#45;&gt;archility -->
<g id="edge1" class="edge">
<title>archility_audit&#45;&gt;archility</title><style>.edge>path:hover{stroke-width:8}</style>
<path fill="none" stroke="black" d="M74.07,-305.68C64.26,-295.43 52.76,-281.56 46,-267.04 24.41,-220.7 24.1,-159.8 26.26,-124.57"/>
<polygon fill="#e72222" stroke="black" points="29.74,-124.99 26.98,-114.76 22.76,-124.47 29.74,-124.99"/>
</g>
<!-- archility_cli -->
<g id="node4" class="node">
<title>archility_cli</title><style>.edge>path:hover{stroke-width:8}</style>
<ellipse fill="#b03a3a" stroke="black" cx="112" cy="-95.01" rx="35.99" ry="18"/>
<text xml:space="preserve" text-anchor="middle" x="112" y="-90.76" font-family="Helvetica,sans-Serif" font-size="10.00" fill="#ffffff">archility.cli</text>
</g>
<!-- archility_audit&#45;&gt;archility_cli -->
<g id="edge2" class="edge">
<title>archility_audit&#45;&gt;archility_cli</title><style>.edge>path:hover{stroke-width:8}</style>
<path fill="none" stroke="black" d="M178,-245.53C187.44,-202.84 178.4,-188.19 159,-149.01 153.59,-138.1 145.34,-127.7 137.25,-119.05"/>
<polygon fill="#e72222" stroke="black" points="139.91,-116.76 130.39,-112.11 134.93,-121.68 139.91,-116.76"/>
</g>
<!-- archility_generate -->
<g id="node5" class="node">
<title>archility_generate</title><style>.edge>path:hover{stroke-width:8}</style>
<ellipse fill="#c43131" stroke="black" cx="112" cy="-169.52" rx="37.83" ry="20.51"/>
<text xml:space="preserve" text-anchor="middle" x="112" y="-170.52" font-family="Helvetica,sans-Serif" font-size="10.00" fill="#ffffff">archility.</text>
<text xml:space="preserve" text-anchor="middle" x="112" y="-160.02" font-family="Helvetica,sans-Serif" font-size="10.00" fill="#ffffff">generate</text>
</g>
<!-- archility_audit&#45;&gt;archility_generate -->
<g id="edge3" class="edge">
<title>archility_audit&#45;&gt;archility_generate</title><style>.edge>path:hover{stroke-width:8}</style>
<path fill="none" stroke="black" d="M119.82,-310.02C142.39,-297.86 171.49,-276.93 178,-247.53"/>
<path fill="none" stroke="black" d="M178,-245.53C182.88,-223.46 165.7,-204.43 147.64,-191.06"/>
<polygon fill="#e72222" stroke="black" points="149.71,-188.23 139.48,-185.45 145.74,-194 149.71,-188.23"/>
</g>
<!-- archility_render -->
<g id="node6" class="node">
<title>archility_render</title><style>.edge>path:hover{stroke-width:8}</style>
<ellipse fill="#d92626" stroke="black" cx="92" cy="-246.53" rx="36.77" ry="20.51"/>
<text xml:space="preserve" text-anchor="middle" x="92" y="-247.53" font-family="Helvetica,sans-Serif" font-size="10.00" fill="#ffffff">archility.</text>
<text xml:space="preserve" text-anchor="middle" x="92" y="-237.03" font-family="Helvetica,sans-Serif" font-size="10.00" fill="#ffffff">render</text>
</g>
<!-- archility_audit&#45;&gt;archility_render -->
<g id="edge4" class="edge">
<title>archility_audit&#45;&gt;archility_render</title><style>.edge>path:hover{stroke-width:8}</style>
<path fill="none" stroke="black" d="M92,-302.83C92,-295.48 92,-286.95 92,-278.81"/>
<polygon fill="#e72222" stroke="black" points="95.5,-278.88 92,-268.88 88.5,-278.88 95.5,-278.88"/>
</g>
<!-- archility_cli&#45;&gt;archility___main__ -->
<g id="edge5" class="edge">
<title>archility_cli&#45;&gt;archility___main__</title><style>.edge>path:hover{stroke-width:8}</style>
<path fill="none" stroke="black" d="M112,-76.83C112,-69.6 112,-60.96 112,-52.67"/>
<polygon fill="#b03a3a" stroke="black" points="115.5,-52.9 112,-42.9 108.5,-52.9 115.5,-52.9"/>
</g>
<!-- archility_generate&#45;&gt;archility -->
<g id="edge6" class="edge">
<title>archility_generate&#45;&gt;archility</title><style>.edge>path:hover{stroke-width:8}</style>
<path fill="none" stroke="black" d="M92.75,-151.7C81.19,-141.6 66.35,-128.65 53.91,-117.77"/>
<polygon fill="#c43131" stroke="black" points="56.32,-115.23 46.49,-111.29 51.71,-120.5 56.32,-115.23"/>
</g>
<!-- archility_generate&#45;&gt;archility_cli -->
<g id="edge7" class="edge">
<title>archility_generate&#45;&gt;archility_cli</title><style>.edge>path:hover{stroke-width:8}</style>
<path fill="none" stroke="black" d="M112,-148.71C112,-141.27 112,-132.66 112,-124.58"/>
<polygon fill="#c43131" stroke="black" points="115.5,-124.85 112,-114.85 108.5,-124.85 115.5,-124.85"/>
</g>
<!-- archility_render&#45;&gt;archility -->
<g id="edge8" class="edge">
<title>archility_render&#45;&gt;archility</title><style>.edge>path:hover{stroke-width:8}</style>
<path fill="none" stroke="black" d="M74.93,-227.87C62.87,-213.68 48.44,-192.53 46,-170.52"/>
<path fill="none" stroke="black" d="M46,-168.52C44.34,-153.61 40.7,-137.32 37.2,-123.97"/>
<polygon fill="#d92626" stroke="black" points="40.64,-123.28 34.63,-114.56 33.89,-125.13 40.64,-123.28"/>
</g>
<!-- archility_render&#45;&gt;archility_cli -->
<g id="edge9" class="edge">
<title>archility_render&#45;&gt;archility_cli</title><style>.edge>path:hover{stroke-width:8}</style>
<path fill="none" stroke="black" d="M46,-168.52C43.52,-146.19 61.14,-127.61 78.8,-114.85"/>
<polygon fill="#d92626" stroke="black" points="80.32,-118.04 86.67,-109.56 76.42,-112.23 80.32,-118.04"/>
</g>
<!-- archility_render&#45;&gt;archility_generate -->
<g id="edge10" class="edge">
<title>archility_render&#45;&gt;archility_generate</title><style>.edge>path:hover{stroke-width:8}</style>
<path fill="none" stroke="black" d="M97.25,-225.82C99.27,-218.24 101.63,-209.4 103.86,-201.04"/>
<polygon fill="#d92626" stroke="black" points="107.19,-202.12 106.39,-191.56 100.43,-200.32 107.19,-202.12"/>
</g>
</g>
</svg>
