<?plantuml 1.2026.2?><svg xmlns="http://www.w3.org/2000/svg" xmlns:xlink="http://www.w3.org/1999/xlink" contentStyleType="text/css" data-diagram-type="CLASS" height="570px" preserveAspectRatio="none" style="width:539px;height:570px;background:#FFFFFF;" version="1.1" viewBox="0 0 539 570" width="539px" zoomAndPan="magnify"><defs/><g><!--class archility.generate.GenerateResult--><g class="entity" data-qualified-name="archility.generate.GenerateResult" data-source-line="2" id="ent0002"><rect fill="#F1F1F1" height="143.3396" rx="2.5" ry="2.5" style="stroke:#181818;stroke-width:0.5;" width="182.4354" x="27.29" y="26.07"/><ellipse cx="64.1536" cy="42.07" fill="#ADD1B2" rx="11" ry="11" style="stroke:#181818;stroke-width:1;"/><path d="M64.263,37.6012 Q63.3411,37.6012 62.6067,37.9137 Q61.888,38.2262 61.388,38.82 Q60.888,39.3981 60.6067,40.2731 Q60.3411,41.1481 60.3411,42.2419 Q60.3411,43.6794 60.7786,44.7262 Q61.2317,45.7731 62.0755,46.32 Q62.9348,46.8669 64.2473,46.8669 Q65.0286,46.8669 65.7161,46.7419 Q66.4192,46.6012 67.4192,46.2887 L67.4192,48.1637 Q66.5598,48.4919 65.7942,48.6169 Q65.0442,48.7419 64.0286,48.7419 Q62.1067,48.7419 60.7942,47.945 Q59.4973,47.1325 58.8411,45.6637 Q58.1848,44.1794 58.1848,42.2106 Q58.1848,40.7887 58.5755,39.6169 Q58.9817,38.4294 59.763,37.5544 Q60.5442,36.6794 61.6848,36.2106 Q62.8255,35.7262 64.2942,35.7262 Q65.2473,35.7262 66.138,35.9294 Q67.0442,36.1169 67.9817,36.5856 L67.1536,38.3669 Q66.3723,37.9919 65.7161,37.8044 Q65.0598,37.6012 64.263,37.6012 Z " fill="#000000"/><text fill="#000000" font-family="sans-serif" font-size="14" lengthAdjust="spacing" textLength="101.8496" x="83.0122" y="47.502">GenerateResult</text><line style="stroke:#181818;stroke-width:0.5;" x1="28.29" x2="208.7254" y1="58.07" y2="58.07"/><text fill="#000000" font-family="sans-serif" font-size="14" lengthAdjust="spacing" textLength="106.5816" x="33.29" y="77.0359">created : list[str]</text><text fill="#000000" font-family="sans-serif" font-size="14" lengthAdjust="spacing" textLength="58.7438" x="33.29" y="96.1039">path : str</text><text fill="#000000" font-family="sans-serif" font-size="14" lengthAdjust="spacing" textLength="117.8936" x="33.29" y="115.1718">rendered : list[str]</text><text fill="#000000" font-family="sans-serif" font-size="14" lengthAdjust="spacing" textLength="108.2896" x="33.29" y="134.2397">skipped : list[str]</text><line style="stroke:#181818;stroke-width:0.5;" x1="28.29" x2="208.7254" y1="142.3417" y2="142.3417"/><text fill="#000000" font-family="sans-serif" font-size="14" lengthAdjust="spacing" textLength="170.4354" x="33.29" y="161.3076">to_dict() -&gt; dict[str, object]</text></g><!--class archility.render.PythonDiagramPlan--><g class="entity" data-qualified-name="archility.render.PythonDiagramPlan" data-source-line="9" id="ent0003"><rect fill="#F1F1F1" height="181.4754" rx="2.5" ry="2.5" style="stroke:#181818;stroke-width:0.5;" width="287.813" x="244.6" y="7"/><ellipse cx="318.2327" cy="23" fill="#ADD1B2" rx="11" ry="11" style="stroke:#181818;stroke-width:1;"/><path d="M318.3421,18.5313 Q317.4202,18.5313 316.6859,18.8438 Q315.9671,19.1563 315.4671,19.75 Q314.9671,20.3281 314.6859,21.2031 Q314.4202,22.0781 314.4202,23.1719 Q314.4202,24.6094 314.8577,25.6563 Q315.3109,26.7031 316.1546,27.25 Q317.014,27.7969 318.3265,27.7969 Q319.1077,27.7969 319.7952,27.6719 Q320.4984,27.5313 321.4984,27.2188 L321.4984,29.0938 Q320.639,29.4219 319.8734,29.5469 Q319.1234,29.6719 318.1077,29.6719 Q316.1859,29.6719 314.8734,28.875 Q313.5765,28.0625 312.9202,26.5938 Q312.264,25.1094 312.264,23.1406 Q312.264,21.7188 312.6546,20.5469 Q313.0609,19.3594 313.8421,18.4844 Q314.6234,17.6094 315.764,17.1406 Q316.9046,16.6563 318.3734,16.6563 Q319.3265,16.6563 320.2171,16.8594 Q321.1234,17.0469 322.0609,17.5156 L321.2327,19.2969 Q320.4515,18.9219 319.7952,18.7344 Q319.139,18.5313 318.3421,18.5313 Z " fill="#000000"/><text fill="#000000" font-family="sans-serif" font-size="14" lengthAdjust="spacing" textLength="132.0475" x="338.7327" y="28.432">PythonDiagramPlan</text><line style="stroke:#181818;stroke-width:0.5;" x1="245.6" x2="531.413" y1="39" y2="39"/><text fill="#000000" font-family="sans-serif" font-size="14" lengthAdjust="spacing" textLength="118.4256" x="250.6" y="57.9659">project_name : str</text><text fill="#000000" font-family="sans-serif" font-size="14" lengthAdjust="spacing" textLength="207.7312" x="250.6" y="77.0339">pydeps_outputs : tuple[Path, ...]</text><text fill="#000000" font-family="sans-serif" font-size="14" lengthAdjust="spacing" textLength="270.311" x="250.6" y="96.1018">pyreverse_produced_stems : tuple[str, ...]</text><text fill="#000000" font-family="sans-serif" font-size="14" lengthAdjust="spacing" textLength="275.813" x="250.6" y="115.1697">pyreverse_render_outputs : tuple[Path, ...]</text><text fill="#000000" font-family="sans-serif" font-size="14" lengthAdjust="spacing" textLength="224.7131" x="250.6" y="134.2376">pyreverse_sources : tuple[Path, ...]</text><text fill="#000000" font-family="sans-serif" font-size="14" lengthAdjust="spacing" textLength="105.8116" x="250.6" y="153.3055">repo_root : Path</text><text fill="#000000" font-family="sans-serif" font-size="14" lengthAdjust="spacing" textLength="149.7014" x="250.6" y="172.3734">targets : tuple[Path, ...]</text><line style="stroke:#181818;stroke-width:0.5;" x1="245.6" x2="531.413" y1="180.4754" y2="180.4754"/></g><!--class archility.render.RenderStep--><g class="entity" data-qualified-name="archility.render.RenderStep" data-source-line="18" id="ent0004"><rect fill="#F1F1F1" height="200.5433" rx="2.5" ry="2.5" style="stroke:#181818;stroke-width:0.5;" width="223.0212" x="7" y="305.68"/><ellipse cx="75.8658" cy="321.68" fill="#ADD1B2" rx="11" ry="11" style="stroke:#181818;stroke-width:1;"/><path d="M75.9751,317.2112 Q75.0533,317.2112 74.3189,317.5237 Q73.6001,317.8362 73.1001,318.43 Q72.6001,319.0081 72.3189,319.8831 Q72.0533,320.7581 72.0533,321.8519 Q72.0533,323.2894 72.4908,324.3362 Q72.9439,325.3831 73.7876,325.93 Q74.647,326.4769 75.9595,326.4769 Q76.7408,326.4769 77.4283,326.3519 Q78.1314,326.2112 79.1314,325.8987 L79.1314,327.7737 Q78.272,328.1019 77.5064,328.2269 Q76.7564,328.3519 75.7408,328.3519 Q73.8189,328.3519 72.5064,327.555 Q71.2095,326.7425 70.5533,325.2737 Q69.897,323.7894 69.897,321.8206 Q69.897,320.3987 70.2876,319.2269 Q70.6939,318.0394 71.4751,317.1644 Q72.2564,316.2894 73.397,315.8206 Q74.5376,315.3362 76.0064,315.3362 Q76.9595,315.3362 77.8501,315.5394 Q78.7564,315.7269 79.6939,316.1956 L78.8658,317.9769 Q78.0845,317.6019 77.4283,317.4144 Q76.772,317.2112 75.9751,317.2112 Z " fill="#000000"/><text fill="#000000" font-family="sans-serif" font-size="14" lengthAdjust="spacing" textLength="76.7897" x="96.3658" y="327.112">RenderStep</text><line style="stroke:#181818;stroke-width:0.5;" x1="8" x2="229.0212" y1="337.68" y2="337.68"/><text fill="#000000" font-family="sans-serif" font-size="14" lengthAdjust="spacing" textLength="123.2556" x="13" y="356.6459">command : list[str]</text><text fill="#000000" font-family="sans-serif" font-size="14" lengthAdjust="spacing" textLength="105.5596" x="13" y="375.7139">cwd : str | None</text><text fill="#000000" font-family="sans-serif" font-size="14" lengthAdjust="spacing" textLength="73.0657" x="13" y="394.7818">output : str</text><text fill="#000000" font-family="sans-serif" font-size="14" lengthAdjust="spacing" textLength="141.4555" x="13" y="413.8497">outputs : tuple[str, ...]</text><text fill="#000000" font-family="sans-serif" font-size="14" lengthAdjust="spacing" textLength="142.6315" x="13" y="432.9176">produced_output : str</text><text fill="#000000" font-family="sans-serif" font-size="14" lengthAdjust="spacing" textLength="211.0212" x="13" y="451.9855">produced_outputs : tuple[str, ...]</text><text fill="#000000" font-family="sans-serif" font-size="14" lengthAdjust="spacing" textLength="72.7997" x="13" y="471.0534">source : str</text><text fill="#000000" font-family="sans-serif" font-size="14" lengthAdjust="spacing" textLength="54.1798" x="13" y="490.1214">tool : str</text><line style="stroke:#181818;stroke-width:0.5;" x1="8" x2="229.0212" y1="498.2233" y2="498.2233"/></g><!--class archility.audit.RepoAudit--><g class="entity" data-qualified-name="archility.audit.RepoAudit" data-source-line="28" id="ent0005"><rect fill="#F1F1F1" height="314.9508" rx="2.5" ry="2.5" style="stroke:#181818;stroke-width:0.5;" width="189.9673" x="264.53" y="248.48"/><ellipse cx="320.9848" cy="264.48" fill="#ADD1B2" rx="11" ry="11" style="stroke:#181818;stroke-width:1;"/><path d="M321.0942,260.0112 Q320.1723,260.0112 319.4379,260.3237 Q318.7192,260.6362 318.2192,261.23 Q317.7192,261.8081 317.4379,262.6831 Q317.1723,263.5581 317.1723,264.6519 Q317.1723,266.0894 317.6098,267.1362 Q318.0629,268.1831 318.9067,268.73 Q319.766,269.2769 321.0785,269.2769 Q321.8598,269.2769 322.5473,269.1519 Q323.2504,269.0112 324.2504,268.6987 L324.2504,270.5737 Q323.391,270.9019 322.6254,271.0269 Q321.8754,271.1519 320.8598,271.1519 Q318.9379,271.1519 317.6254,270.355 Q316.3285,269.5425 315.6723,268.0737 Q315.016,266.5894 315.016,264.6206 Q315.016,263.1987 315.4067,262.0269 Q315.8129,260.8394 316.5942,259.9644 Q317.3754,259.0894 318.516,258.6206 Q319.6567,258.1362 321.1254,258.1362 Q322.0785,258.1362 322.9692,258.3394 Q323.8754,258.5269 324.8129,258.9956 L323.9848,260.7769 Q323.2035,260.4019 322.5473,260.2144 Q321.891,260.0112 321.0942,260.0112 Z " fill="#000000"/><text fill="#000000" font-family="sans-serif" font-size="14" lengthAdjust="spacing" textLength="68.5577" x="341.4848" y="269.912">RepoAudit</text><line style="stroke:#181818;stroke-width:0.5;" x1="265.53" x2="453.4973" y1="280.48" y2="280.48"/><text fill="#000000" font-family="sans-serif" font-size="14" lengthAdjust="spacing" textLength="100.7016" x="270.53" y="299.4459">code_like : bool</text><text fill="#000000" font-family="sans-serif" font-size="14" lengthAdjust="spacing" textLength="127.5255" x="270.53" y="318.5139">diagram_count : int</text><text fill="#000000" font-family="sans-serif" font-size="14" lengthAdjust="spacing" textLength="170.1694" x="270.53" y="337.5818">diagram_formats : list[str]</text><text fill="#000000" font-family="sans-serif" font-size="14" lengthAdjust="spacing" textLength="177.9673" x="270.53" y="356.6497">diagram_source_count : int</text><text fill="#000000" font-family="sans-serif" font-size="14" lengthAdjust="spacing" textLength="114.3936" x="270.53" y="375.7176">has_agents : bool</text><text fill="#000000" font-family="sans-serif" font-size="14" lengthAdjust="spacing" textLength="130.1015" x="270.53" y="394.7855">has_blueprint : bool</text><text fill="#000000" font-family="sans-serif" font-size="14" lengthAdjust="spacing" textLength="118.3696" x="270.53" y="413.8534">has_lessons : bool</text><text fill="#000000" font-family="sans-serif" font-size="14" lengthAdjust="spacing" textLength="58.7438" x="270.53" y="432.9214">path : str</text><text fill="#000000" font-family="sans-serif" font-size="14" lengthAdjust="spacing" textLength="177.3233" x="270.53" y="451.9893">recommendations : list[str]</text><text fill="#000000" font-family="sans-serif" font-size="14" lengthAdjust="spacing" textLength="169.6933" x="270.53" y="471.0572">render_artifact_count : int</text><text fill="#000000" font-family="sans-serif" font-size="14" lengthAdjust="spacing" textLength="141.6935" x="270.53" y="490.1251">source_roots : list[str]</text><text fill="#000000" font-family="sans-serif" font-size="14" lengthAdjust="spacing" textLength="124.5715" x="270.53" y="509.193">toolchains : list[str]</text><text fill="#000000" font-family="sans-serif" font-size="14" lengthAdjust="spacing" textLength="132.7475" x="270.53" y="528.2609">workflow_count : int</text><line style="stroke:#181818;stroke-width:0.5;" x1="265.53" x2="453.4973" y1="536.3629" y2="536.3629"/><text fill="#000000" font-family="sans-serif" font-size="14" lengthAdjust="spacing" textLength="170.4354" x="270.53" y="555.3289">to_dict() -&gt; dict[str, object]</text></g><?plantuml-src ZLF1Rjim3BtdAuIULg3p1-mme421teQWFHQ5mKXCh4KM1OfQ46pxzqcsupfoXkrcFJxIZuzaH54UUem1DBvY00OXLfuyRhI36DNTCthCABvWJ4xk54G5h3lhh9oRmnHihbdgvqOfpPW1exuePwEyHU7tZ0QGBaFvbH-CtY2lEF5eGrYXGgsnMZxTgyzVLVagWGT5k--evNtp-o9uUvQE_9E50qE_TU0hpUDFcnLj41sOIhcsc3BB36U38RQK92I96POK7BvjSoiFgccQeQypum_aY6qkOP96qqR1_eCzY5sHHp7_MpfIOer_eJ46Qfb8ShW4YcN01xnTThRhPL3mAXXk-_GH7wTAVG--deq-cT4jzKjzAykZrDZIx67TuPKT5yUgd0g_dJnwCkS8aPiUYnO3FIPZw-s5WZLpTEhFOEliiLJSvLePCkEEj9gIB-AibmMw9-vXqBOqv18TrLMf7SGMykaCMTDF2hPp2GFRWRc07SP8Vi6jRgYC90y9n8wifOvflu35xY7lzRMGILrPchYwDdAw0xkgU28-xXsTgbB_kiu_?></g></svg>