<?plantuml 1.2026.2?><svg xmlns="http://www.w3.org/2000/svg" xmlns:xlink="http://www.w3.org/1999/xlink" contentStyleType="text/css" data-diagram-type="CLASS" height="792px" preserveAspectRatio="none" style="width:1011px;height:792px;background:#FFFFFF;" version="1.1" viewBox="0 0 1011 792" width="1011px" zoomAndPan="magnify"><defs/><g><!--class src.archility.render.DatabaseDiagramPlan--><g class="entity" data-qualified-name="src.archility.render.DatabaseDiagramPlan" data-source-line="2" id="ent0002"><rect fill="#F1F1F1" height="105.2038" rx="2.5" ry="2.5" style="stroke:#181818;stroke-width:0.5;" width="179.6575" x="61.08" y="73.73"/><ellipse cx="76.08" cy="89.73" fill="#ADD1B2" rx="11" ry="11" style="stroke:#181818;stroke-width:1;"/><path d="M76.1894,85.0113 Q75.2675,85.0113 74.5331,85.3238 Q73.8144,85.6363 73.3144,86.23 Q72.8144,86.8081 72.5331,87.6831 Q72.2675,88.5581 72.2675,89.6519 Q72.2675,91.0894 72.705,92.1363 Q73.1581,93.1831 74.0019,93.73 Q74.8613,94.2769 76.1738,94.2769 Q76.955,94.2769 77.6425,94.1519 Q78.3456,94.0113 79.3456,93.6988 L79.3456,95.5738 Q78.4863,95.9019 77.7206,96.0269 Q76.9706,96.1519 75.955,96.1519 Q74.0331,96.1519 72.7206,95.355 Q71.4238,94.5425 70.7675,93.0738 Q70.1113,91.5894 70.1113,89.6206 Q70.1113,88.1988 70.5019,87.0269 Q70.9081,85.8394 71.6894,84.9644 Q72.4706,84.0894 73.6113,83.6206 Q74.7519,83.1363 76.2206,83.1363 Q77.1738,83.1363 78.0644,83.3394 Q78.9706,83.5269 79.9081,83.9956 L79.08,85.7769 Q78.2988,85.4019 77.6425,85.2144 Q76.9863,85.0113 76.1894,85.0113 Z " fill="#000000"/><text fill="#000000" font-family="sans-serif" font-size="14" lengthAdjust="spacing" textLength="147.6575" x="90.08" y="95.162">DatabaseDiagramPlan</text><line style="stroke:#181818;stroke-width:0.5;" x1="62.08" x2="239.7375" y1="105.73" y2="105.73"/><text fill="#000000" font-family="sans-serif" font-size="14" lengthAdjust="spacing" textLength="105.8116" x="67.08" y="124.6959">repo_root : Path</text><text fill="#000000" font-family="sans-serif" font-size="14" lengthAdjust="spacing" textLength="85.2877" x="67.08" y="143.7639">source : Path</text><text fill="#000000" font-family="sans-serif" font-size="14" lengthAdjust="spacing" textLength="149.7014" x="67.08" y="162.8318">targets : tuple[Path, ...]</text><line style="stroke:#181818;stroke-width:0.5;" x1="62.08" x2="239.7375" y1="170.9338" y2="170.9338"/></g><!--class src.archility.generate.DrawioBounds--><g class="entity" data-qualified-name="src.archility.generate.DrawioBounds" data-source-line="7" id="ent0003"><rect fill="#F1F1F1" height="238.6792" rx="2.5" ry="2.5" style="stroke:#181818;stroke-width:0.5;" width="129.1316" x="275.34" y="7"/><ellipse cx="290.34" cy="23" fill="#ADD1B2" rx="11" ry="11" style="stroke:#181818;stroke-width:1;"/><path d="M290.4494,18.2813 Q289.5275,18.2813 288.7931,18.5938 Q288.0744,18.9063 287.5744,19.5 Q287.0744,20.0781 286.7931,20.9531 Q286.5275,21.8281 286.5275,22.9219 Q286.5275,24.3594 286.965,25.4063 Q287.4181,26.4531 288.2619,27 Q289.1213,27.5469 290.4338,27.5469 Q291.215,27.5469 291.9025,27.4219 Q292.6056,27.2813 293.6056,26.9688 L293.6056,28.8438 Q292.7463,29.1719 291.9806,29.2969 Q291.2306,29.4219 290.215,29.4219 Q288.2931,29.4219 286.9806,28.625 Q285.6838,27.8125 285.0275,26.3438 Q284.3713,24.8594 284.3713,22.8906 Q284.3713,21.4688 284.7619,20.2969 Q285.1681,19.1094 285.9494,18.2344 Q286.7306,17.3594 287.8713,16.8906 Q289.0119,16.4063 290.4806,16.4063 Q291.4338,16.4063 292.3244,16.6094 Q293.2306,16.7969 294.1681,17.2656 L293.34,19.0469 Q292.5588,18.6719 291.9025,18.4844 Q291.2463,18.2813 290.4494,18.2813 Z " fill="#000000"/><text fill="#000000" font-family="sans-serif" font-size="14" lengthAdjust="spacing" textLength="97.1316" x="304.34" y="28.432">DrawioBounds</text><line style="stroke:#181818;stroke-width:0.5;" x1="276.34" x2="403.4716" y1="39" y2="39"/><text fill="#000000" font-family="sans-serif" font-size="14" lengthAdjust="spacing" textLength="77.0977" x="281.34" y="57.9659">bottom : int</text><text fill="#000000" font-family="sans-serif" font-size="14" lengthAdjust="spacing" textLength="70.8257" x="281.34" y="77.0339">height : int</text><text fill="#000000" font-family="sans-serif" font-size="14" lengthAdjust="spacing" textLength="49.7278" x="281.34" y="96.1018">left : int</text><text fill="#000000" font-family="sans-serif" font-size="14" lengthAdjust="spacing" textLength="67.2837" x="281.34" y="115.1697">mid_x : int</text><text fill="#000000" font-family="sans-serif" font-size="14" lengthAdjust="spacing" textLength="67.0177" x="281.34" y="134.2376">mid_y : int</text><text fill="#000000" font-family="sans-serif" font-size="14" lengthAdjust="spacing" textLength="60.0598" x="281.34" y="153.3055">right : int</text><text fill="#000000" font-family="sans-serif" font-size="14" lengthAdjust="spacing" textLength="50.4838" x="281.34" y="172.3734">top : int</text><text fill="#000000" font-family="sans-serif" font-size="14" lengthAdjust="spacing" textLength="65.2817" x="281.34" y="191.4414">width : int</text><text fill="#000000" font-family="sans-serif" font-size="14" lengthAdjust="spacing" textLength="35.7559" x="281.34" y="210.5093">x : int</text><text fill="#000000" font-family="sans-serif" font-size="14" lengthAdjust="spacing" textLength="35.4899" x="281.34" y="229.5772">y : int</text><line style="stroke:#181818;stroke-width:0.5;" x1="276.34" x2="403.4716" y1="237.6792" y2="237.6792"/></g><!--class src.archility.render.DrawioCellBounds--><g class="entity" data-qualified-name="src.archility.render.DrawioCellBounds" data-source-line="19" id="ent0004"><rect fill="#F1F1F1" height="238.6792" rx="2.5" ry="2.5" style="stroke:#181818;stroke-width:0.5;" width="153.0995" x="439.36" y="7"/><ellipse cx="454.36" cy="23" fill="#ADD1B2" rx="11" ry="11" style="stroke:#181818;stroke-width:1;"/><path d="M454.4694,18.2813 Q453.5475,18.2813 452.8131,18.5938 Q452.0944,18.9063 451.5944,19.5 Q451.0944,20.0781 450.8131,20.9531 Q450.5475,21.8281 450.5475,22.9219 Q450.5475,24.3594 450.985,25.4063 Q451.4381,26.4531 452.2819,27 Q453.1413,27.5469 454.4538,27.5469 Q455.235,27.5469 455.9225,27.4219 Q456.6256,27.2813 457.6256,26.9688 L457.6256,28.8438 Q456.7663,29.1719 456.0006,29.2969 Q455.2506,29.4219 454.235,29.4219 Q452.3131,29.4219 451.0006,28.625 Q449.7038,27.8125 449.0475,26.3438 Q448.3913,24.8594 448.3913,22.8906 Q448.3913,21.4688 448.7819,20.2969 Q449.1881,19.1094 449.9694,18.2344 Q450.7506,17.3594 451.8913,16.8906 Q453.0319,16.4063 454.5006,16.4063 Q455.4538,16.4063 456.3444,16.6094 Q457.2506,16.7969 458.1881,17.2656 L457.36,19.0469 Q456.5788,18.6719 455.9225,18.4844 Q455.2663,18.2813 454.4694,18.2813 Z " fill="#000000"/><text fill="#000000" font-family="sans-serif" font-size="14" lengthAdjust="spacing" textLength="121.0995" x="468.36" y="28.432">DrawioCellBounds</text><line style="stroke:#181818;stroke-width:0.5;" x1="440.36" x2="591.4595" y1="39" y2="39"/><text fill="#000000" font-family="sans-serif" font-size="14" lengthAdjust="spacing" textLength="89.5857" x="445.36" y="57.9659">bottom : float</text><text fill="#000000" font-family="sans-serif" font-size="14" lengthAdjust="spacing" textLength="83.3137" x="445.36" y="77.0339">height : float</text><text fill="#000000" font-family="sans-serif" font-size="14" lengthAdjust="spacing" textLength="62.2158" x="445.36" y="96.1018">left : float</text><text fill="#000000" font-family="sans-serif" font-size="14" lengthAdjust="spacing" textLength="79.7717" x="445.36" y="115.1697">mid_x : float</text><text fill="#000000" font-family="sans-serif" font-size="14" lengthAdjust="spacing" textLength="79.5057" x="445.36" y="134.2376">mid_y : float</text><text fill="#000000" font-family="sans-serif" font-size="14" lengthAdjust="spacing" textLength="72.5477" x="445.36" y="153.3055">right : float</text><text fill="#000000" font-family="sans-serif" font-size="14" lengthAdjust="spacing" textLength="62.9718" x="445.36" y="172.3734">top : float</text><text fill="#000000" font-family="sans-serif" font-size="14" lengthAdjust="spacing" textLength="77.7697" x="445.36" y="191.4414">width : float</text><text fill="#000000" font-family="sans-serif" font-size="14" lengthAdjust="spacing" textLength="48.2438" x="445.36" y="210.5093">x : float</text><text fill="#000000" font-family="sans-serif" font-size="14" lengthAdjust="spacing" textLength="47.9778" x="445.36" y="229.5772">y : float</text><line style="stroke:#181818;stroke-width:0.5;" x1="440.36" x2="591.4595" y1="237.6792" y2="237.6792"/></g><!--class src.archility.generate.GenerateResult--><g class="entity" data-qualified-name="src.archility.generate.GenerateResult" data-source-line="31" id="ent0005"><rect fill="#F1F1F1" height="143.3396" rx="2.5" ry="2.5" style="stroke:#181818;stroke-width:0.5;" width="182.4354" x="627.69" y="54.67"/><ellipse cx="664.5536" cy="70.67" fill="#ADD1B2" rx="11" ry="11" style="stroke:#181818;stroke-width:1;"/><path d="M664.663,65.9513 Q663.7411,65.9513 663.0067,66.2638 Q662.288,66.5763 661.788,67.17 Q661.288,67.7481 661.0067,68.6231 Q660.7411,69.4981 660.7411,70.5919 Q660.7411,72.0294 661.1786,73.0763 Q661.6317,74.1231 662.4755,74.67 Q663.3348,75.2169 664.6473,75.2169 Q665.4286,75.2169 666.1161,75.0919 Q666.8192,74.9513 667.8192,74.6388 L667.8192,76.5138 Q666.9598,76.8419 666.1942,76.9669 Q665.4442,77.0919 664.4286,77.0919 Q662.5067,77.0919 661.1942,76.295 Q659.8973,75.4825 659.2411,74.0138 Q658.5848,72.5294 658.5848,70.5606 Q658.5848,69.1388 658.9755,67.9669 Q659.3817,66.7794 660.163,65.9044 Q660.9442,65.0294 662.0848,64.5606 Q663.2255,64.0763 664.6942,64.0763 Q665.6473,64.0763 666.538,64.2794 Q667.4442,64.4669 668.3817,64.9356 L667.5536,66.7169 Q666.7723,66.3419 666.1161,66.1544 Q665.4598,65.9513 664.663,65.9513 Z " fill="#000000"/><text fill="#000000" font-family="sans-serif" font-size="14" lengthAdjust="spacing" textLength="101.8496" x="683.4122" y="76.102">GenerateResult</text><line style="stroke:#181818;stroke-width:0.5;" x1="628.69" x2="809.1254" y1="86.67" y2="86.67"/><text fill="#000000" font-family="sans-serif" font-size="14" lengthAdjust="spacing" textLength="106.5816" x="633.69" y="105.6359">created : list[str]</text><text fill="#000000" font-family="sans-serif" font-size="14" lengthAdjust="spacing" textLength="58.7438" x="633.69" y="124.7039">path : str</text><text fill="#000000" font-family="sans-serif" font-size="14" lengthAdjust="spacing" textLength="117.8936" x="633.69" y="143.7718">rendered : list[str]</text><text fill="#000000" font-family="sans-serif" font-size="14" lengthAdjust="spacing" textLength="108.2896" x="633.69" y="162.8397">skipped : list[str]</text><line style="stroke:#181818;stroke-width:0.5;" x1="628.69" x2="809.1254" y1="170.9417" y2="170.9417"/><text fill="#000000" font-family="sans-serif" font-size="14" lengthAdjust="spacing" textLength="170.4354" x="633.69" y="189.9076">to_dict() -&gt; dict[str, object]</text></g><!--class src.archility.render.PythonDiagramPlan--><g class="entity" data-qualified-name="src.archility.render.PythonDiagramPlan" data-source-line="38" id="ent0006"><rect fill="#F1F1F1" height="181.4754" rx="2.5" ry="2.5" style="stroke:#181818;stroke-width:0.5;" width="287.813" x="7" y="372.41"/><ellipse cx="80.6327" cy="388.41" fill="#ADD1B2" rx="11" ry="11" style="stroke:#181818;stroke-width:1;"/><path d="M80.7421,383.6913 Q79.8202,383.6913 79.0859,384.0038 Q78.3671,384.3163 77.8671,384.91 Q77.3671,385.4881 77.0859,386.3631 Q76.8202,387.2381 76.8202,388.3319 Q76.8202,389.7694 77.2577,390.8163 Q77.7109,391.8631 78.5546,392.41 Q79.414,392.9569 80.7265,392.9569 Q81.5077,392.9569 82.1952,392.8319 Q82.8984,392.6913 83.8984,392.3788 L83.8984,394.2538 Q83.039,394.5819 82.2734,394.7069 Q81.5234,394.8319 80.5077,394.8319 Q78.5859,394.8319 77.2734,394.035 Q75.9765,393.2225 75.3202,391.7538 Q74.664,390.2694 74.664,388.3006 Q74.664,386.8788 75.0546,385.7069 Q75.4609,384.5194 76.2421,383.6444 Q77.0234,382.7694 78.164,382.3006 Q79.3046,381.8163 80.7734,381.8163 Q81.7265,381.8163 82.6171,382.0194 Q83.5234,382.2069 84.4609,382.6756 L83.6327,384.4569 Q82.8515,384.0819 82.1952,383.8944 Q81.539,383.6913 80.7421,383.6913 Z " fill="#000000"/><text fill="#000000" font-family="sans-serif" font-size="14" lengthAdjust="spacing" textLength="132.0475" x="101.1327" y="393.842">PythonDiagramPlan</text><line style="stroke:#181818;stroke-width:0.5;" x1="8" x2="293.813" y1="404.41" y2="404.41"/><text fill="#000000" font-family="sans-serif" font-size="14" lengthAdjust="spacing" textLength="118.4256" x="13" y="423.3759">project_name : str</text><text fill="#000000" font-family="sans-serif" font-size="14" lengthAdjust="spacing" textLength="207.7312" x="13" y="442.4439">pydeps_outputs : tuple[Path, ...]</text><text fill="#000000" font-family="sans-serif" font-size="14" lengthAdjust="spacing" textLength="270.311" x="13" y="461.5118">pyreverse_produced_stems : tuple[str, ...]</text><text fill="#000000" font-family="sans-serif" font-size="14" lengthAdjust="spacing" textLength="275.813" x="13" y="480.5797">pyreverse_render_outputs : tuple[Path, ...]</text><text fill="#000000" font-family="sans-serif" font-size="14" lengthAdjust="spacing" textLength="224.7131" x="13" y="499.6476">pyreverse_sources : tuple[Path, ...]</text><text fill="#000000" font-family="sans-serif" font-size="14" lengthAdjust="spacing" textLength="105.8116" x="13" y="518.7155">repo_root : Path</text><text fill="#000000" font-family="sans-serif" font-size="14" lengthAdjust="spacing" textLength="149.7014" x="13" y="537.7834">targets : tuple[Path, ...]</text><line style="stroke:#181818;stroke-width:0.5;" x1="8" x2="293.813" y1="545.8854" y2="545.8854"/></g><!--class src.archility.render.PythonModuleInfo--><g class="entity" data-qualified-name="src.archility.render.PythonModuleInfo" data-source-line="47" id="ent0007"><rect fill="#F1F1F1" height="143.3396" rx="2.5" ry="2.5" style="stroke:#181818;stroke-width:0.5;" width="155.0595" x="329.38" y="391.48"/><ellipse cx="344.38" cy="407.48" fill="#ADD1B2" rx="11" ry="11" style="stroke:#181818;stroke-width:1;"/><path d="M344.4894,402.7613 Q343.5675,402.7613 342.8331,403.0738 Q342.1144,403.3863 341.6144,403.98 Q341.1144,404.5581 340.8331,405.4331 Q340.5675,406.3081 340.5675,407.4019 Q340.5675,408.8394 341.005,409.8863 Q341.4581,410.9331 342.3019,411.48 Q343.1613,412.0269 344.4738,412.0269 Q345.255,412.0269 345.9425,411.9019 Q346.6456,411.7613 347.6456,411.4488 L347.6456,413.3238 Q346.7863,413.6519 346.0206,413.7769 Q345.2706,413.9019 344.255,413.9019 Q342.3331,413.9019 341.0206,413.105 Q339.7238,412.2925 339.0675,410.8238 Q338.4113,409.3394 338.4113,407.3706 Q338.4113,405.9488 338.8019,404.7769 Q339.2081,403.5894 339.9894,402.7144 Q340.7706,401.8394 341.9113,401.3706 Q343.0519,400.8863 344.5206,400.8863 Q345.4738,400.8863 346.3644,401.0894 Q347.2706,401.2769 348.2081,401.7456 L347.38,403.5269 Q346.5988,403.1519 345.9425,402.9644 Q345.2863,402.7613 344.4894,402.7613 Z " fill="#000000"/><text fill="#000000" font-family="sans-serif" font-size="14" lengthAdjust="spacing" textLength="123.0595" x="358.38" y="412.912">PythonModuleInfo</text><line style="stroke:#181818;stroke-width:0.5;" x1="330.38" x2="483.4395" y1="423.48" y2="423.48"/><text fill="#000000" font-family="sans-serif" font-size="14" lengthAdjust="spacing" textLength="103.7116" x="335.38" y="442.4459">class_count : int</text><text fill="#000000" font-family="sans-serif" font-size="14" lengthAdjust="spacing" textLength="126.7415" x="335.38" y="461.5139">function_count : int</text><text fill="#000000" font-family="sans-serif" font-size="14" lengthAdjust="spacing" textLength="111.7476" x="335.38" y="480.5818">is_package : bool</text><text fill="#000000" font-family="sans-serif" font-size="14" lengthAdjust="spacing" textLength="66.0658" x="335.38" y="499.6497">name : str</text><text fill="#000000" font-family="sans-serif" font-size="14" lengthAdjust="spacing" textLength="71.2317" x="335.38" y="518.7176">path : Path</text><line style="stroke:#181818;stroke-width:0.5;" x1="330.38" x2="483.4395" y1="526.8196" y2="526.8196"/></g><!--class src.archility.render.RenderStep--><g class="entity" data-qualified-name="src.archility.render.RenderStep" data-source-line="54" id="ent0008"><rect fill="#F1F1F1" height="238.6792" rx="2.5" ry="2.5" style="stroke:#181818;stroke-width:0.5;" width="260.373" x="519.72" y="343.81"/><ellipse cx="607.2617" cy="359.81" fill="#ADD1B2" rx="11" ry="11" style="stroke:#181818;stroke-width:1;"/><path d="M607.371,355.0913 Q606.4492,355.0913 605.7148,355.4038 Q604.996,355.7163 604.496,356.31 Q603.996,356.8881 603.7148,357.7631 Q603.4492,358.6381 603.4492,359.7319 Q603.4492,361.1694 603.8867,362.2163 Q604.3398,363.2631 605.1835,363.81 Q606.0429,364.3569 607.3554,364.3569 Q608.1367,364.3569 608.8242,364.2319 Q609.5273,364.0913 610.5273,363.7788 L610.5273,365.6538 Q609.6679,365.9819 608.9023,366.1069 Q608.1523,366.2319 607.1367,366.2319 Q605.2148,366.2319 603.9023,365.435 Q602.6054,364.6225 601.9492,363.1538 Q601.2929,361.6694 601.2929,359.7006 Q601.2929,358.2788 601.6835,357.1069 Q602.0898,355.9194 602.871,355.0444 Q603.6523,354.1694 604.7929,353.7006 Q605.9335,353.2163 607.4023,353.2163 Q608.3554,353.2163 609.246,353.4194 Q610.1523,353.6069 611.0898,354.0756 L610.2617,355.8569 Q609.4804,355.4819 608.8242,355.2944 Q608.1679,355.0913 607.371,355.0913 Z " fill="#000000"/><text fill="#000000" font-family="sans-serif" font-size="14" lengthAdjust="spacing" textLength="76.7897" x="627.7617" y="365.242">RenderStep</text><line style="stroke:#181818;stroke-width:0.5;" x1="520.72" x2="779.093" y1="375.81" y2="375.81"/><text fill="#000000" font-family="sans-serif" font-size="14" lengthAdjust="spacing" textLength="123.2556" x="525.72" y="394.7759">command : list[str]</text><text fill="#000000" font-family="sans-serif" font-size="14" lengthAdjust="spacing" textLength="105.5596" x="525.72" y="413.8439">cwd : str | None</text><text fill="#000000" font-family="sans-serif" font-size="14" lengthAdjust="spacing" textLength="248.373" x="525.72" y="432.9118">internal_action : RenderAction | None</text><text fill="#000000" font-family="sans-serif" font-size="14" lengthAdjust="spacing" textLength="107.8416" x="525.72" y="451.9797">is_internal : bool</text><text fill="#000000" font-family="sans-serif" font-size="14" lengthAdjust="spacing" textLength="73.0657" x="525.72" y="471.0476">output : str</text><text fill="#000000" font-family="sans-serif" font-size="14" lengthAdjust="spacing" textLength="141.4555" x="525.72" y="490.1155">outputs : tuple[str, ...]</text><text fill="#000000" font-family="sans-serif" font-size="14" lengthAdjust="spacing" textLength="142.6315" x="525.72" y="509.1834">produced_output : str</text><text fill="#000000" font-family="sans-serif" font-size="14" lengthAdjust="spacing" textLength="211.0212" x="525.72" y="528.2514">produced_outputs : tuple[str, ...]</text><text fill="#000000" font-family="sans-serif" font-size="14" lengthAdjust="spacing" textLength="72.7997" x="525.72" y="547.3193">source : str</text><text fill="#000000" font-family="sans-serif" font-size="14" lengthAdjust="spacing" textLength="54.1798" x="525.72" y="566.3872">tool : str</text><line style="stroke:#181818;stroke-width:0.5;" x1="520.72" x2="779.093" y1="574.4892" y2="574.4892"/></g><!--class src.archility.audit.RepoAudit--><g class="entity" data-qualified-name="src.archility.audit.RepoAudit" data-source-line="66" id="ent0009"><rect fill="#F1F1F1" height="314.9508" rx="2.5" ry="2.5" style="stroke:#181818;stroke-width:0.5;" width="189.9673" x="814.92" y="305.68"/><ellipse cx="871.3748" cy="321.68" fill="#ADD1B2" rx="11" ry="11" style="stroke:#181818;stroke-width:1;"/><path d="M871.4842,316.9613 Q870.5623,316.9613 869.8279,317.2738 Q869.1092,317.5863 868.6092,318.18 Q868.1092,318.7581 867.8279,319.6331 Q867.5623,320.5081 867.5623,321.6019 Q867.5623,323.0394 867.9998,324.0863 Q868.4529,325.1331 869.2967,325.68 Q870.156,326.2269 871.4685,326.2269 Q872.2498,326.2269 872.9373,326.1019 Q873.6404,325.9613 874.6404,325.6488 L874.6404,327.5238 Q873.781,327.8519 873.0154,327.9769 Q872.2654,328.1019 871.2498,328.1019 Q869.3279,328.1019 868.0154,327.305 Q866.7185,326.4925 866.0623,325.0238 Q865.406,323.5394 865.406,321.5706 Q865.406,320.1488 865.7967,318.9769 Q866.2029,317.7894 866.9842,316.9144 Q867.7654,316.0394 868.906,315.5706 Q870.0467,315.0863 871.5154,315.0863 Q872.4685,315.0863 873.3592,315.2894 Q874.2654,315.4769 875.2029,315.9456 L874.3748,317.7269 Q873.5935,317.3519 872.9373,317.1644 Q872.281,316.9613 871.4842,316.9613 Z " fill="#000000"/><text fill="#000000" font-family="sans-serif" font-size="14" lengthAdjust="spacing" textLength="68.5577" x="891.8748" y="327.112">RepoAudit</text><line style="stroke:#181818;stroke-width:0.5;" x1="815.92" x2="1003.8873" y1="337.68" y2="337.68"/><text fill="#000000" font-family="sans-serif" font-size="14" lengthAdjust="spacing" textLength="100.7016" x="820.92" y="356.6459">code_like : bool</text><text fill="#000000" font-family="sans-serif" font-size="14" lengthAdjust="spacing" textLength="127.5255" x="820.92" y="375.7139">diagram_count : int</text><text fill="#000000" font-family="sans-serif" font-size="14" lengthAdjust="spacing" textLength="170.1694" x="820.92" y="394.7818">diagram_formats : list[str]</text><text fill="#000000" font-family="sans-serif" font-size="14" lengthAdjust="spacing" textLength="177.9673" x="820.92" y="413.8497">diagram_source_count : int</text><text fill="#000000" font-family="sans-serif" font-size="14" lengthAdjust="spacing" textLength="114.3936" x="820.92" y="432.9176">has_agents : bool</text><text fill="#000000" font-family="sans-serif" font-size="14" lengthAdjust="spacing" textLength="130.1015" x="820.92" y="451.9855">has_blueprint : bool</text><text fill="#000000" font-family="sans-serif" font-size="14" lengthAdjust="spacing" textLength="118.3696" x="820.92" y="471.0534">has_lessons : bool</text><text fill="#000000" font-family="sans-serif" font-size="14" lengthAdjust="spacing" textLength="58.7438" x="820.92" y="490.1214">path : str</text><text fill="#000000" font-family="sans-serif" font-size="14" lengthAdjust="spacing" textLength="177.3233" x="820.92" y="509.1893">recommendations : list[str]</text><text fill="#000000" font-family="sans-serif" font-size="14" lengthAdjust="spacing" textLength="169.6933" x="820.92" y="528.2572">render_artifact_count : int</text><text fill="#000000" font-family="sans-serif" font-size="14" lengthAdjust="spacing" textLength="141.6935" x="820.92" y="547.3251">source_roots : list[str]</text><text fill="#000000" font-family="sans-serif" font-size="14" lengthAdjust="spacing" textLength="124.5715" x="820.92" y="566.393">toolchains : list[str]</text><text fill="#000000" font-family="sans-serif" font-size="14" lengthAdjust="spacing" textLength="132.7475" x="820.92" y="585.4609">workflow_count : int</text><line style="stroke:#181818;stroke-width:0.5;" x1="815.92" x2="1003.8873" y1="593.5629" y2="593.5629"/><text fill="#000000" font-family="sans-serif" font-size="14" lengthAdjust="spacing" textLength="170.4354" x="820.92" y="612.5289">to_dict() -&gt; dict[str, object]</text></g><!--class src.archility.render.ShellDiagramPlan--><g class="entity" data-qualified-name="src.archility.render.ShellDiagramPlan" data-source-line="82" id="ent0010"><rect fill="#F1F1F1" height="105.2038" rx="2.5" ry="2.5" style="stroke:#181818;stroke-width:0.5;" width="161.7014" x="70.06" y="680.63"/><ellipse cx="90.7453" cy="696.63" fill="#ADD1B2" rx="11" ry="11" style="stroke:#181818;stroke-width:1;"/><path d="M90.8546,691.9113 Q89.9328,691.9113 89.1984,692.2238 Q88.4796,692.5363 87.9796,693.13 Q87.4796,693.7081 87.1984,694.5831 Q86.9328,695.4581 86.9328,696.5519 Q86.9328,697.9894 87.3703,699.0363 Q87.8234,700.0831 88.6671,700.63 Q89.5265,701.1769 90.839,701.1769 Q91.6203,701.1769 92.3078,701.0519 Q93.0109,700.9113 94.0109,700.5988 L94.0109,702.4738 Q93.1515,702.8019 92.3859,702.9269 Q91.6359,703.0519 90.6203,703.0519 Q88.6984,703.0519 87.3859,702.255 Q86.089,701.4425 85.4328,699.9738 Q84.7765,698.4894 84.7765,696.5206 Q84.7765,695.0988 85.1671,693.9269 Q85.5734,692.7394 86.3546,691.8644 Q87.1359,690.9894 88.2765,690.5206 Q89.4171,690.0363 90.8859,690.0363 Q91.839,690.0363 92.7296,690.2394 Q93.6359,690.4269 94.5734,690.8956 L93.7453,692.6769 Q92.964,692.3019 92.3078,692.1144 Q91.6515,691.9113 90.8546,691.9113 Z " fill="#000000"/><text fill="#000000" font-family="sans-serif" font-size="14" lengthAdjust="spacing" textLength="117.0676" x="106.0086" y="702.062">ShellDiagramPlan</text><line style="stroke:#181818;stroke-width:0.5;" x1="71.06" x2="230.7614" y1="712.63" y2="712.63"/><text fill="#000000" font-family="sans-serif" font-size="14" lengthAdjust="spacing" textLength="105.8116" x="76.06" y="731.5959">repo_root : Path</text><text fill="#000000" font-family="sans-serif" font-size="14" lengthAdjust="spacing" textLength="85.2877" x="76.06" y="750.6639">source : Path</text><text fill="#000000" font-family="sans-serif" font-size="14" lengthAdjust="spacing" textLength="149.7014" x="76.06" y="769.7318">targets : tuple[Path, ...]</text><line style="stroke:#181818;stroke-width:0.5;" x1="71.06" x2="230.7614" y1="777.8338" y2="777.8338"/></g><!--class src.archility.render.ToolingDiagramPlan--><g class="entity" data-qualified-name="src.archility.render.ToolingDiagramPlan" data-source-line="87" id="ent0011"><rect fill="#F1F1F1" height="105.2038" rx="2.5" ry="2.5" style="stroke:#181818;stroke-width:0.5;" width="166.8195" x="266.5" y="680.63"/><ellipse cx="281.5" cy="696.63" fill="#ADD1B2" rx="11" ry="11" style="stroke:#181818;stroke-width:1;"/><path d="M281.6094,691.9113 Q280.6875,691.9113 279.9531,692.2238 Q279.2344,692.5363 278.7344,693.13 Q278.2344,693.7081 277.9531,694.5831 Q277.6875,695.4581 277.6875,696.5519 Q277.6875,697.9894 278.125,699.0363 Q278.5781,700.0831 279.4219,700.63 Q280.2813,701.1769 281.5938,701.1769 Q282.375,701.1769 283.0625,701.0519 Q283.7656,700.9113 284.7656,700.5988 L284.7656,702.4738 Q283.9063,702.8019 283.1406,702.9269 Q282.3906,703.0519 281.375,703.0519 Q279.4531,703.0519 278.1406,702.255 Q276.8438,701.4425 276.1875,699.9738 Q275.5313,698.4894 275.5313,696.5206 Q275.5313,695.0988 275.9219,693.9269 Q276.3281,692.7394 277.1094,691.8644 Q277.8906,690.9894 279.0313,690.5206 Q280.1719,690.0363 281.6406,690.0363 Q282.5938,690.0363 283.4844,690.2394 Q284.3906,690.4269 285.3281,690.8956 L284.5,692.6769 Q283.7188,692.3019 283.0625,692.1144 Q282.4063,691.9113 281.6094,691.9113 Z " fill="#000000"/><text fill="#000000" font-family="sans-serif" font-size="14" lengthAdjust="spacing" textLength="134.8195" x="295.5" y="702.062">ToolingDiagramPlan</text><line style="stroke:#181818;stroke-width:0.5;" x1="267.5" x2="432.3195" y1="712.63" y2="712.63"/><text fill="#000000" font-family="sans-serif" font-size="14" lengthAdjust="spacing" textLength="105.8116" x="272.5" y="731.5959">repo_root : Path</text><text fill="#000000" font-family="sans-serif" font-size="14" lengthAdjust="spacing" textLength="85.2877" x="272.5" y="750.6639">source : Path</text><text fill="#000000" font-family="sans-serif" font-size="14" lengthAdjust="spacing" textLength="149.7014" x="272.5" y="769.7318">targets : tuple[Path, ...]</text><line style="stroke:#181818;stroke-width:0.5;" x1="267.5" x2="432.3195" y1="777.8338" y2="777.8338"/></g><?plantuml-src hLLDRnCn4BttLrWzWLJs1t10AbH2FO2gbbjLMPFTITR4wx7iMK84_7VizNvw4yYXjxpPD-Ctd_78ma23taA9JsZ10PCJXWnUbHgy5zTtmB01ZtSATWwQ1mtcMe0NtfK5kB9MMl6nS6WgTCK9ilXr9OH3Iz8HiNWl7e3hOFBKkX8dpE1so3uOkBKQdwFvHXH5yNBrPzJYuA3e8xMcyYT4xD1WI02BEQzxVqFCr8JOod20DQfTpIFKk9r0eohvSu6E8t8BDoOx_ZweYkiHJVw3RvR29zJwR1f3BJFcCf6j9bYaCXZwP0Ouf3F7nnbscNjAQa13MWEUHvgYZCbzxXlmYBxL_AyEBPbTQgN3OAX2LAqyFtjsBy5geHCGK3T6iJ8hZjyhQrTM9bcfaj-y5Uy-YFWhVhWHjFcE9S-6wk78DPcBndj5xOHRHp6aZ8iqIhN72gsNrB9jJqzrv3ZyWSwZ326gjiHAUiPcOdU2L-GavjBGQS_Eq4xivILxcEhm9MZMU6-szB-AJSpKwHX5bc6gfsNQjgPaHIOpAo_3QTh3BbPsGwI3RLddD1-T-57VO_Vu4wCzhspY94tKD63o6IeFLNf9_1PVur4KKHSw0rf2fpTyJf5k4vnuNWxKINhgsIW-R-6YtyD8P3wP_RJpU5oJ3uVNUp2haQNRjbAdrXIYlHWPVO4gb5hjPuseqY9aBHkiMt8DTFhc5Hs-9eMPQmrUXbQRpgj_9DeskaNhLCUScJLwJsR6pOv5x6de3SJ6v3hw9GB7QXiwcGdfrSNDyAkpGhgiGQqY7iZjmpqyPA4kFKDFTRZq5rsXdFcQ_x3VGdRAx2xIiUQ-XfA_?></g></svg>
