<?plantuml 1.2026.2?><svg xmlns="http://www.w3.org/2000/svg" xmlns:xlink="http://www.w3.org/1999/xlink" contentStyleType="text/css" data-diagram-type="CLASS" height="792px" preserveAspectRatio="none" style="width:1011px;height:792px;background:#FFFFFF;" version="1.1" viewBox="0 0 1011 792" width="1011px" zoomAndPan="magnify"><defs/><g><!--class archility.render.DatabaseDiagramPlan--><g class="entity" data-qualified-name="archility.render.DatabaseDiagramPlan" data-source-line="2" id="ent0002"><rect fill="#F1F1F1" height="105.2038" rx="2.5" ry="2.5" style="stroke:#181818;stroke-width:0.5;" width="179.6575" x="61.08" y="73.73"/><ellipse cx="76.08" cy="89.73" fill="#ADD1B2" rx="11" ry="11" style="stroke:#181818;stroke-width:1;"/><path d="M76.1894,85.2613 Q75.2675,85.2613 74.5331,85.5738 Q73.8144,85.8863 73.3144,86.48 Q72.8144,87.0581 72.5331,87.9331 Q72.2675,88.8081 72.2675,89.9019 Q72.2675,91.3394 72.705,92.3863 Q73.1581,93.4331 74.0019,93.98 Q74.8613,94.5269 76.1738,94.5269 Q76.955,94.5269 77.6425,94.4019 Q78.3456,94.2613 79.3456,93.9488 L79.3456,95.8238 Q78.4863,96.1519 77.7206,96.2769 Q76.9706,96.4019 75.955,96.4019 Q74.0331,96.4019 72.7206,95.605 Q71.4238,94.7925 70.7675,93.3238 Q70.1113,91.8394 70.1113,89.8706 Q70.1113,88.4488 70.5019,87.2769 Q70.9081,86.0894 71.6894,85.2144 Q72.4706,84.3394 73.6113,83.8706 Q74.7519,83.3863 76.2206,83.3863 Q77.1738,83.3863 78.0644,83.5894 Q78.9706,83.7769 79.9081,84.2456 L79.08,86.0269 Q78.2988,85.6519 77.6425,85.4644 Q76.9863,85.2613 76.1894,85.2613 Z " fill="#000000"/><text fill="#000000" font-family="sans-serif" font-size="14" lengthAdjust="spacing" textLength="147.6575" x="90.08" y="95.162">DatabaseDiagramPlan</text><line style="stroke:#181818;stroke-width:0.5;" x1="62.08" x2="239.7375" y1="105.73" y2="105.73"/><text fill="#000000" font-family="sans-serif" font-size="14" lengthAdjust="spacing" textLength="105.8116" x="67.08" y="124.6959">repo_root : Path</text><text fill="#000000" font-family="sans-serif" font-size="14" lengthAdjust="spacing" textLength="85.2877" x="67.08" y="143.7639">source : Path</text><text fill="#000000" font-family="sans-serif" font-size="14" lengthAdjust="spacing" textLength="149.7014" x="67.08" y="162.8318">targets : tuple[Path, ...]</text><line style="stroke:#181818;stroke-width:0.5;" x1="62.08" x2="239.7375" y1="170.9338" y2="170.9338"/></g><!--class archility.generate.DrawioBounds--><g class="entity" data-qualified-name="archility.generate.DrawioBounds" data-source-line="7" id="ent0003"><rect fill="#F1F1F1" height="238.6792" rx="2.5" ry="2.5" style="stroke:#181818;stroke-width:0.5;" width="129.1316" x="275.34" y="7"/><ellipse cx="290.34" cy="23" fill="#ADD1B2" rx="11" ry="11" style="stroke:#181818;stroke-width:1;"/><path d="M290.4494,18.5313 Q289.5275,18.5313 288.7931,18.8438 Q288.0744,19.1563 287.5744,19.75 Q287.0744,20.3281 286.7931,21.2031 Q286.5275,22.0781 286.5275,23.1719 Q286.5275,24.6094 286.965,25.6563 Q287.4181,26.7031 288.2619,27.25 Q289.1213,27.7969 290.4338,27.7969 Q291.215,27.7969 291.9025,27.6719 Q292.6056,27.5313 293.6056,27.2188 L293.6056,29.0938 Q292.7463,29.4219 291.9806,29.5469 Q291.2306,29.6719 290.215,29.6719 Q288.2931,29.6719 286.9806,28.875 Q285.6838,28.0625 285.0275,26.5938 Q284.3713,25.1094 284.3713,23.1406 Q284.3713,21.7188 284.7619,20.5469 Q285.1681,19.3594 285.9494,18.4844 Q286.7306,17.6094 287.8713,17.1406 Q289.0119,16.6563 290.4806,16.6563 Q291.4338,16.6563 292.3244,16.8594 Q293.2306,17.0469 294.1681,17.5156 L293.34,19.2969 Q292.5588,18.9219 291.9025,18.7344 Q291.2463,18.5313 290.4494,18.5313 Z " fill="#000000"/><text fill="#000000" font-family="sans-serif" font-size="14" lengthAdjust="spacing" textLength="97.1316" x="304.34" y="28.432">DrawioBounds</text><line style="stroke:#181818;stroke-width:0.5;" x1="276.34" x2="403.4716" y1="39" y2="39"/><text fill="#000000" font-family="sans-serif" font-size="14" lengthAdjust="spacing" textLength="77.0977" x="281.34" y="57.9659">bottom : int</text><text fill="#000000" font-family="sans-serif" font-size="14" lengthAdjust="spacing" textLength="70.8257" x="281.34" y="77.0339">height : int</text><text fill="#000000" font-family="sans-serif" font-size="14" lengthAdjust="spacing" textLength="49.7278" x="281.34" y="96.1018">left : int</text><text fill="#000000" font-family="sans-serif" font-size="14" lengthAdjust="spacing" textLength="67.2837" x="281.34" y="115.1697">mid_x : int</text><text fill="#000000" font-family="sans-serif" font-size="14" lengthAdjust="spacing" textLength="67.0177" x="281.34" y="134.2376">mid_y : int</text><text fill="#000000" font-family="sans-serif" font-size="14" lengthAdjust="spacing" textLength="60.0598" x="281.34" y="153.3055">right : int</text><text fill="#000000" font-family="sans-serif" font-size="14" lengthAdjust="spacing" textLength="50.4838" x="281.34" y="172.3734">top : int</text><text fill="#000000" font-family="sans-serif" font-size="14" lengthAdjust="spacing" textLength="65.2817" x="281.34" y="191.4414">width : int</text><text fill="#000000" font-family="sans-serif" font-size="14" lengthAdjust="spacing" textLength="35.7559" x="281.34" y="210.5093">x : int</text><text fill="#000000" font-family="sans-serif" font-size="14" lengthAdjust="spacing" textLength="35.4899" x="281.34" y="229.5772">y : int</text><line style="stroke:#181818;stroke-width:0.5;" x1="276.34" x2="403.4716" y1="237.6792" y2="237.6792"/></g><!--class archility.render.DrawioCellBounds--><g class="entity" data-qualified-name="archility.render.DrawioCellBounds" data-source-line="19" id="ent0004"><rect fill="#F1F1F1" height="238.6792" rx="2.5" ry="2.5" style="stroke:#181818;stroke-width:0.5;" width="153.0995" x="439.36" y="7"/><ellipse cx="454.36" cy="23" fill="#ADD1B2" rx="11" ry="11" style="stroke:#181818;stroke-width:1;"/><path d="M454.4694,18.5313 Q453.5475,18.5313 452.8131,18.8438 Q452.0944,19.1563 451.5944,19.75 Q451.0944,20.3281 450.8131,21.2031 Q450.5475,22.0781 450.5475,23.1719 Q450.5475,24.6094 450.985,25.6563 Q451.4381,26.7031 452.2819,27.25 Q453.1413,27.7969 454.4538,27.7969 Q455.235,27.7969 455.9225,27.6719 Q456.6256,27.5313 457.6256,27.2188 L457.6256,29.0938 Q456.7663,29.4219 456.0006,29.5469 Q455.2506,29.6719 454.235,29.6719 Q452.3131,29.6719 451.0006,28.875 Q449.7038,28.0625 449.0475,26.5938 Q448.3913,25.1094 448.3913,23.1406 Q448.3913,21.7188 448.7819,20.5469 Q449.1881,19.3594 449.9694,18.4844 Q450.7506,17.6094 451.8913,17.1406 Q453.0319,16.6563 454.5006,16.6563 Q455.4538,16.6563 456.3444,16.8594 Q457.2506,17.0469 458.1881,17.5156 L457.36,19.2969 Q456.5788,18.9219 455.9225,18.7344 Q455.2663,18.5313 454.4694,18.5313 Z " fill="#000000"/><text fill="#000000" font-family="sans-serif" font-size="14" lengthAdjust="spacing" textLength="121.0995" x="468.36" y="28.432">DrawioCellBounds</text><line style="stroke:#181818;stroke-width:0.5;" x1="440.36" x2="591.4595" y1="39" y2="39"/><text fill="#000000" font-family="sans-serif" font-size="14" lengthAdjust="spacing" textLength="89.5857" x="445.36" y="57.9659">bottom : float</text><text fill="#000000" font-family="sans-serif" font-size="14" lengthAdjust="spacing" textLength="83.3137" x="445.36" y="77.0339">height : float</text><text fill="#000000" font-family="sans-serif" font-size="14" lengthAdjust="spacing" textLength="62.2158" x="445.36" y="96.1018">left : float</text><text fill="#000000" font-family="sans-serif" font-size="14" lengthAdjust="spacing" textLength="79.7717" x="445.36" y="115.1697">mid_x : float</text><text fill="#000000" font-family="sans-serif" font-size="14" lengthAdjust="spacing" textLength="79.5057" x="445.36" y="134.2376">mid_y : float</text><text fill="#000000" font-family="sans-serif" font-size="14" lengthAdjust="spacing" textLength="72.5477" x="445.36" y="153.3055">right : float</text><text fill="#000000" font-family="sans-serif" font-size="14" lengthAdjust="spacing" textLength="62.9718" x="445.36" y="172.3734">top : float</text><text fill="#000000" font-family="sans-serif" font-size="14" lengthAdjust="spacing" textLength="77.7697" x="445.36" y="191.4414">width : float</text><text fill="#000000" font-family="sans-serif" font-size="14" lengthAdjust="spacing" textLength="48.2438" x="445.36" y="210.5093">x : float</text><text fill="#000000" font-family="sans-serif" font-size="14" lengthAdjust="spacing" textLength="47.9778" x="445.36" y="229.5772">y : float</text><line style="stroke:#181818;stroke-width:0.5;" x1="440.36" x2="591.4595" y1="237.6792" y2="237.6792"/></g><!--class archility.generate.GenerateResult--><g class="entity" data-qualified-name="archility.generate.GenerateResult" data-source-line="31" id="ent0005"><rect fill="#F1F1F1" height="143.3396" rx="2.5" ry="2.5" style="stroke:#181818;stroke-width:0.5;" width="182.4354" x="627.69" y="54.67"/><ellipse cx="664.5536" cy="70.67" fill="#ADD1B2" rx="11" ry="11" style="stroke:#181818;stroke-width:1;"/><path d="M664.663,66.2013 Q663.7411,66.2013 663.0067,66.5138 Q662.288,66.8263 661.788,67.42 Q661.288,67.9981 661.0067,68.8731 Q660.7411,69.7481 660.7411,70.8419 Q660.7411,72.2794 661.1786,73.3263 Q661.6317,74.3731 662.4755,74.92 Q663.3348,75.4669 664.6473,75.4669 Q665.4286,75.4669 666.1161,75.3419 Q666.8192,75.2013 667.8192,74.8888 L667.8192,76.7638 Q666.9598,77.0919 666.1942,77.2169 Q665.4442,77.3419 664.4286,77.3419 Q662.5067,77.3419 661.1942,76.545 Q659.8973,75.7325 659.2411,74.2638 Q658.5848,72.7794 658.5848,70.8106 Q658.5848,69.3888 658.9755,68.2169 Q659.3817,67.0294 660.163,66.1544 Q660.9442,65.2794 662.0848,64.8106 Q663.2255,64.3263 664.6942,64.3263 Q665.6473,64.3263 666.538,64.5294 Q667.4442,64.7169 668.3817,65.1856 L667.5536,66.9669 Q666.7723,66.5919 666.1161,66.4044 Q665.4598,66.2013 664.663,66.2013 Z " fill="#000000"/><text fill="#000000" font-family="sans-serif" font-size="14" lengthAdjust="spacing" textLength="101.8496" x="683.4122" y="76.102">GenerateResult</text><line style="stroke:#181818;stroke-width:0.5;" x1="628.69" x2="809.1254" y1="86.67" y2="86.67"/><text fill="#000000" font-family="sans-serif" font-size="14" lengthAdjust="spacing" textLength="106.5816" x="633.69" y="105.6359">created : list[str]</text><text fill="#000000" font-family="sans-serif" font-size="14" lengthAdjust="spacing" textLength="58.7438" x="633.69" y="124.7039">path : str</text><text fill="#000000" font-family="sans-serif" font-size="14" lengthAdjust="spacing" textLength="117.8936" x="633.69" y="143.7718">rendered : list[str]</text><text fill="#000000" font-family="sans-serif" font-size="14" lengthAdjust="spacing" textLength="108.2896" x="633.69" y="162.8397">skipped : list[str]</text><line style="stroke:#181818;stroke-width:0.5;" x1="628.69" x2="809.1254" y1="170.9417" y2="170.9417"/><text fill="#000000" font-family="sans-serif" font-size="14" lengthAdjust="spacing" textLength="170.4354" x="633.69" y="189.9076">to_dict() -&gt; dict[str, object]</text></g><!--class archility.render.PythonDiagramPlan--><g class="entity" data-qualified-name="archility.render.PythonDiagramPlan" data-source-line="38" id="ent0006"><rect fill="#F1F1F1" height="181.4754" rx="2.5" ry="2.5" style="stroke:#181818;stroke-width:0.5;" width="287.813" x="7" y="372.41"/><ellipse cx="80.6327" cy="388.41" fill="#ADD1B2" rx="11" ry="11" style="stroke:#181818;stroke-width:1;"/><path d="M80.7421,383.9413 Q79.8202,383.9413 79.0859,384.2538 Q78.3671,384.5663 77.8671,385.16 Q77.3671,385.7381 77.0859,386.6131 Q76.8202,387.4881 76.8202,388.5819 Q76.8202,390.0194 77.2577,391.0663 Q77.7109,392.1131 78.5546,392.66 Q79.414,393.2069 80.7265,393.2069 Q81.5077,393.2069 82.1952,393.0819 Q82.8984,392.9413 83.8984,392.6288 L83.8984,394.5038 Q83.039,394.8319 82.2734,394.9569 Q81.5234,395.0819 80.5077,395.0819 Q78.5859,395.0819 77.2734,394.285 Q75.9765,393.4725 75.3202,392.0038 Q74.664,390.5194 74.664,388.5506 Q74.664,387.1288 75.0546,385.9569 Q75.4609,384.7694 76.2421,383.8944 Q77.0234,383.0194 78.164,382.5506 Q79.3046,382.0663 80.7734,382.0663 Q81.7265,382.0663 82.6171,382.2694 Q83.5234,382.4569 84.4609,382.9256 L83.6327,384.7069 Q82.8515,384.3319 82.1952,384.1444 Q81.539,383.9413 80.7421,383.9413 Z " fill="#000000"/><text fill="#000000" font-family="sans-serif" font-size="14" lengthAdjust="spacing" textLength="132.0475" x="101.1327" y="393.842">PythonDiagramPlan</text><line style="stroke:#181818;stroke-width:0.5;" x1="8" x2="293.813" y1="404.41" y2="404.41"/><text fill="#000000" font-family="sans-serif" font-size="14" lengthAdjust="spacing" textLength="118.4256" x="13" y="423.3759">project_name : str</text><text fill="#000000" font-family="sans-serif" font-size="14" lengthAdjust="spacing" textLength="207.7312" x="13" y="442.4439">pydeps_outputs : tuple[Path, ...]</text><text fill="#000000" font-family="sans-serif" font-size="14" lengthAdjust="spacing" textLength="270.311" x="13" y="461.5118">pyreverse_produced_stems : tuple[str, ...]</text><text fill="#000000" font-family="sans-serif" font-size="14" lengthAdjust="spacing" textLength="275.813" x="13" y="480.5797">pyreverse_render_outputs : tuple[Path, ...]</text><text fill="#000000" font-family="sans-serif" font-size="14" lengthAdjust="spacing" textLength="224.7131" x="13" y="499.6476">pyreverse_sources : tuple[Path, ...]</text><text fill="#000000" font-family="sans-serif" font-size="14" lengthAdjust="spacing" textLength="105.8116" x="13" y="518.7155">repo_root : Path</text><text fill="#000000" font-family="sans-serif" font-size="14" lengthAdjust="spacing" textLength="149.7014" x="13" y="537.7834">targets : tuple[Path, ...]</text><line style="stroke:#181818;stroke-width:0.5;" x1="8" x2="293.813" y1="545.8854" y2="545.8854"/></g><!--class archility.render.PythonModuleInfo--><g class="entity" data-qualified-name="archility.render.PythonModuleInfo" data-source-line="47" id="ent0007"><rect fill="#F1F1F1" height="143.3396" rx="2.5" ry="2.5" style="stroke:#181818;stroke-width:0.5;" width="155.0595" x="329.38" y="391.48"/><ellipse cx="344.38" cy="407.48" fill="#ADD1B2" rx="11" ry="11" style="stroke:#181818;stroke-width:1;"/><path d="M344.4894,403.0113 Q343.5675,403.0113 342.8331,403.3238 Q342.1144,403.6363 341.6144,404.23 Q341.1144,404.8081 340.8331,405.6831 Q340.5675,406.5581 340.5675,407.6519 Q340.5675,409.0894 341.005,410.1363 Q341.4581,411.1831 342.3019,411.73 Q343.1613,412.2769 344.4738,412.2769 Q345.255,412.2769 345.9425,412.1519 Q346.6456,412.0113 347.6456,411.6988 L347.6456,413.5738 Q346.7863,413.9019 346.0206,414.0269 Q345.2706,414.1519 344.255,414.1519 Q342.3331,414.1519 341.0206,413.355 Q339.7238,412.5425 339.0675,411.0738 Q338.4113,409.5894 338.4113,407.6206 Q338.4113,406.1988 338.8019,405.0269 Q339.2081,403.8394 339.9894,402.9644 Q340.7706,402.0894 341.9113,401.6206 Q343.0519,401.1363 344.5206,401.1363 Q345.4738,401.1363 346.3644,401.3394 Q347.2706,401.5269 348.2081,401.9956 L347.38,403.7769 Q346.5988,403.4019 345.9425,403.2144 Q345.2863,403.0113 344.4894,403.0113 Z " fill="#000000"/><text fill="#000000" font-family="sans-serif" font-size="14" lengthAdjust="spacing" textLength="123.0595" x="358.38" y="412.912">PythonModuleInfo</text><line style="stroke:#181818;stroke-width:0.5;" x1="330.38" x2="483.4395" y1="423.48" y2="423.48"/><text fill="#000000" font-family="sans-serif" font-size="14" lengthAdjust="spacing" textLength="103.7116" x="335.38" y="442.4459">class_count : int</text><text fill="#000000" font-family="sans-serif" font-size="14" lengthAdjust="spacing" textLength="126.7415" x="335.38" y="461.5139">function_count : int</text><text fill="#000000" font-family="sans-serif" font-size="14" lengthAdjust="spacing" textLength="111.7476" x="335.38" y="480.5818">is_package : bool</text><text fill="#000000" font-family="sans-serif" font-size="14" lengthAdjust="spacing" textLength="66.0658" x="335.38" y="499.6497">name : str</text><text fill="#000000" font-family="sans-serif" font-size="14" lengthAdjust="spacing" textLength="71.2317" x="335.38" y="518.7176">path : Path</text><line style="stroke:#181818;stroke-width:0.5;" x1="330.38" x2="483.4395" y1="526.8196" y2="526.8196"/></g><!--class archility.render.RenderStep--><g class="entity" data-qualified-name="archility.render.RenderStep" data-source-line="54" id="ent0008"><rect fill="#F1F1F1" height="238.6792" rx="2.5" ry="2.5" style="stroke:#181818;stroke-width:0.5;" width="260.373" x="519.72" y="343.81"/><ellipse cx="607.2617" cy="359.81" fill="#ADD1B2" rx="11" ry="11" style="stroke:#181818;stroke-width:1;"/><path d="M607.371,355.3413 Q606.4492,355.3413 605.7148,355.6538 Q604.996,355.9663 604.496,356.56 Q603.996,357.1381 603.7148,358.0131 Q603.4492,358.8881 603.4492,359.9819 Q603.4492,361.4194 603.8867,362.4663 Q604.3398,363.5131 605.1835,364.06 Q606.0429,364.6069 607.3554,364.6069 Q608.1367,364.6069 608.8242,364.4819 Q609.5273,364.3413 610.5273,364.0288 L610.5273,365.9038 Q609.6679,366.2319 608.9023,366.3569 Q608.1523,366.4819 607.1367,366.4819 Q605.2148,366.4819 603.9023,365.685 Q602.6054,364.8725 601.9492,363.4038 Q601.2929,361.9194 601.2929,359.9506 Q601.2929,358.5288 601.6835,357.3569 Q602.0898,356.1694 602.871,355.2944 Q603.6523,354.4194 604.7929,353.9506 Q605.9335,353.4663 607.4023,353.4663 Q608.3554,353.4663 609.246,353.6694 Q610.1523,353.8569 611.0898,354.3256 L610.2617,356.1069 Q609.4804,355.7319 608.8242,355.5444 Q608.1679,355.3413 607.371,355.3413 Z " fill="#000000"/><text fill="#000000" font-family="sans-serif" font-size="14" lengthAdjust="spacing" textLength="76.7897" x="627.7617" y="365.242">RenderStep</text><line style="stroke:#181818;stroke-width:0.5;" x1="520.72" x2="779.093" y1="375.81" y2="375.81"/><text fill="#000000" font-family="sans-serif" font-size="14" lengthAdjust="spacing" textLength="123.2556" x="525.72" y="394.7759">command : list[str]</text><text fill="#000000" font-family="sans-serif" font-size="14" lengthAdjust="spacing" textLength="105.5596" x="525.72" y="413.8439">cwd : str | None</text><text fill="#000000" font-family="sans-serif" font-size="14" lengthAdjust="spacing" textLength="248.373" x="525.72" y="432.9118">internal_action : RenderAction | None</text><text fill="#000000" font-family="sans-serif" font-size="14" lengthAdjust="spacing" textLength="107.8416" x="525.72" y="451.9797">is_internal : bool</text><text fill="#000000" font-family="sans-serif" font-size="14" lengthAdjust="spacing" textLength="73.0657" x="525.72" y="471.0476">output : str</text><text fill="#000000" font-family="sans-serif" font-size="14" lengthAdjust="spacing" textLength="141.4555" x="525.72" y="490.1155">outputs : tuple[str, ...]</text><text fill="#000000" font-family="sans-serif" font-size="14" lengthAdjust="spacing" textLength="142.6315" x="525.72" y="509.1834">produced_output : str</text><text fill="#000000" font-family="sans-serif" font-size="14" lengthAdjust="spacing" textLength="211.0212" x="525.72" y="528.2514">produced_outputs : tuple[str, ...]</text><text fill="#000000" font-family="sans-serif" font-size="14" lengthAdjust="spacing" textLength="72.7997" x="525.72" y="547.3193">source : str</text><text fill="#000000" font-family="sans-serif" font-size="14" lengthAdjust="spacing" textLength="54.1798" x="525.72" y="566.3872">tool : str</text><line style="stroke:#181818;stroke-width:0.5;" x1="520.72" x2="779.093" y1="574.4892" y2="574.4892"/></g><!--class archility.audit.RepoAudit--><g class="entity" data-qualified-name="archility.audit.RepoAudit" data-source-line="66" id="ent0009"><rect fill="#F1F1F1" height="314.9508" rx="2.5" ry="2.5" style="stroke:#181818;stroke-width:0.5;" width="189.9673" x="814.92" y="305.68"/><ellipse cx="871.3748" cy="321.68" fill="#ADD1B2" rx="11" ry="11" style="stroke:#181818;stroke-width:1;"/><path d="M871.4842,317.2113 Q870.5623,317.2113 869.8279,317.5238 Q869.1092,317.8363 868.6092,318.43 Q868.1092,319.0081 867.8279,319.8831 Q867.5623,320.7581 867.5623,321.8519 Q867.5623,323.2894 867.9998,324.3363 Q868.4529,325.3831 869.2967,325.93 Q870.156,326.4769 871.4685,326.4769 Q872.2498,326.4769 872.9373,326.3519 Q873.6404,326.2113 874.6404,325.8988 L874.6404,327.7738 Q873.781,328.1019 873.0154,328.2269 Q872.2654,328.3519 871.2498,328.3519 Q869.3279,328.3519 868.0154,327.555 Q866.7185,326.7425 866.0623,325.2738 Q865.406,323.7894 865.406,321.8206 Q865.406,320.3988 865.7967,319.2269 Q866.2029,318.0394 866.9842,317.1644 Q867.7654,316.2894 868.906,315.8206 Q870.0467,315.3363 871.5154,315.3363 Q872.4685,315.3363 873.3592,315.5394 Q874.2654,315.7269 875.2029,316.1956 L874.3748,317.9769 Q873.5935,317.6019 872.9373,317.4144 Q872.281,317.2113 871.4842,317.2113 Z " fill="#000000"/><text fill="#000000" font-family="sans-serif" font-size="14" lengthAdjust="spacing" textLength="68.5577" x="891.8748" y="327.112">RepoAudit</text><line style="stroke:#181818;stroke-width:0.5;" x1="815.92" x2="1003.8873" y1="337.68" y2="337.68"/><text fill="#000000" font-family="sans-serif" font-size="14" lengthAdjust="spacing" textLength="100.7016" x="820.92" y="356.6459">code_like : bool</text><text fill="#000000" font-family="sans-serif" font-size="14" lengthAdjust="spacing" textLength="127.5255" x="820.92" y="375.7139">diagram_count : int</text><text fill="#000000" font-family="sans-serif" font-size="14" lengthAdjust="spacing" textLength="170.1694" x="820.92" y="394.7818">diagram_formats : list[str]</text><text fill="#000000" font-family="sans-serif" font-size="14" lengthAdjust="spacing" textLength="177.9673" x="820.92" y="413.8497">diagram_source_count : int</text><text fill="#000000" font-family="sans-serif" font-size="14" lengthAdjust="spacing" textLength="114.3936" x="820.92" y="432.9176">has_agents : bool</text><text fill="#000000" font-family="sans-serif" font-size="14" lengthAdjust="spacing" textLength="130.1015" x="820.92" y="451.9855">has_blueprint : bool</text><text fill="#000000" font-family="sans-serif" font-size="14" lengthAdjust="spacing" textLength="118.3696" x="820.92" y="471.0534">has_lessons : bool</text><text fill="#000000" font-family="sans-serif" font-size="14" lengthAdjust="spacing" textLength="58.7438" x="820.92" y="490.1214">path : str</text><text fill="#000000" font-family="sans-serif" font-size="14" lengthAdjust="spacing" textLength="177.3233" x="820.92" y="509.1893">recommendations : list[str]</text><text fill="#000000" font-family="sans-serif" font-size="14" lengthAdjust="spacing" textLength="169.6933" x="820.92" y="528.2572">render_artifact_count : int</text><text fill="#000000" font-family="sans-serif" font-size="14" lengthAdjust="spacing" textLength="141.6935" x="820.92" y="547.3251">source_roots : list[str]</text><text fill="#000000" font-family="sans-serif" font-size="14" lengthAdjust="spacing" textLength="124.5715" x="820.92" y="566.393">toolchains : list[str]</text><text fill="#000000" font-family="sans-serif" font-size="14" lengthAdjust="spacing" textLength="132.7475" x="820.92" y="585.4609">workflow_count : int</text><line style="stroke:#181818;stroke-width:0.5;" x1="815.92" x2="1003.8873" y1="593.5629" y2="593.5629"/><text fill="#000000" font-family="sans-serif" font-size="14" lengthAdjust="spacing" textLength="170.4354" x="820.92" y="612.5289">to_dict() -&gt; dict[str, object]</text></g><!--class archility.render.ShellDiagramPlan--><g class="entity" data-qualified-name="archility.render.ShellDiagramPlan" data-source-line="82" id="ent0010"><rect fill="#F1F1F1" height="105.2038" rx="2.5" ry="2.5" style="stroke:#181818;stroke-width:0.5;" width="161.7014" x="70.06" y="680.63"/><ellipse cx="90.7453" cy="696.63" fill="#ADD1B2" rx="11" ry="11" style="stroke:#181818;stroke-width:1;"/><path d="M90.8546,692.1613 Q89.9328,692.1613 89.1984,692.4738 Q88.4796,692.7863 87.9796,693.38 Q87.4796,693.9581 87.1984,694.8331 Q86.9328,695.7081 86.9328,696.8019 Q86.9328,698.2394 87.3703,699.2863 Q87.8234,700.3331 88.6671,700.88 Q89.5265,701.4269 90.839,701.4269 Q91.6203,701.4269 92.3078,701.3019 Q93.0109,701.1613 94.0109,700.8488 L94.0109,702.7238 Q93.1515,703.0519 92.3859,703.1769 Q91.6359,703.3019 90.6203,703.3019 Q88.6984,703.3019 87.3859,702.505 Q86.089,701.6925 85.4328,700.2238 Q84.7765,698.7394 84.7765,696.7706 Q84.7765,695.3488 85.1671,694.1769 Q85.5734,692.9894 86.3546,692.1144 Q87.1359,691.2394 88.2765,690.7706 Q89.4171,690.2863 90.8859,690.2863 Q91.839,690.2863 92.7296,690.4894 Q93.6359,690.6769 94.5734,691.1456 L93.7453,692.9269 Q92.964,692.5519 92.3078,692.3644 Q91.6515,692.1613 90.8546,692.1613 Z " fill="#000000"/><text fill="#000000" font-family="sans-serif" font-size="14" lengthAdjust="spacing" textLength="117.0676" x="106.0086" y="702.062">ShellDiagramPlan</text><line style="stroke:#181818;stroke-width:0.5;" x1="71.06" x2="230.7614" y1="712.63" y2="712.63"/><text fill="#000000" font-family="sans-serif" font-size="14" lengthAdjust="spacing" textLength="105.8116" x="76.06" y="731.5959">repo_root : Path</text><text fill="#000000" font-family="sans-serif" font-size="14" lengthAdjust="spacing" textLength="85.2877" x="76.06" y="750.6639">source : Path</text><text fill="#000000" font-family="sans-serif" font-size="14" lengthAdjust="spacing" textLength="149.7014" x="76.06" y="769.7318">targets : tuple[Path, ...]</text><line style="stroke:#181818;stroke-width:0.5;" x1="71.06" x2="230.7614" y1="777.8338" y2="777.8338"/></g><!--class archility.render.ToolingDiagramPlan--><g class="entity" data-qualified-name="archility.render.ToolingDiagramPlan" data-source-line="87" id="ent0011"><rect fill="#F1F1F1" height="105.2038" rx="2.5" ry="2.5" style="stroke:#181818;stroke-width:0.5;" width="166.8195" x="266.5" y="680.63"/><ellipse cx="281.5" cy="696.63" fill="#ADD1B2" rx="11" ry="11" style="stroke:#181818;stroke-width:1;"/><path d="M281.6094,692.1613 Q280.6875,692.1613 279.9531,692.4738 Q279.2344,692.7863 278.7344,693.38 Q278.2344,693.9581 277.9531,694.8331 Q277.6875,695.7081 277.6875,696.8019 Q277.6875,698.2394 278.125,699.2863 Q278.5781,700.3331 279.4219,700.88 Q280.2813,701.4269 281.5938,701.4269 Q282.375,701.4269 283.0625,701.3019 Q283.7656,701.1613 284.7656,700.8488 L284.7656,702.7238 Q283.9063,703.0519 283.1406,703.1769 Q282.3906,703.3019 281.375,703.3019 Q279.4531,703.3019 278.1406,702.505 Q276.8438,701.6925 276.1875,700.2238 Q275.5313,698.7394 275.5313,696.7706 Q275.5313,695.3488 275.9219,694.1769 Q276.3281,692.9894 277.1094,692.1144 Q277.8906,691.2394 279.0313,690.7706 Q280.1719,690.2863 281.6406,690.2863 Q282.5938,690.2863 283.4844,690.4894 Q284.3906,690.6769 285.3281,691.1456 L284.5,692.9269 Q283.7188,692.5519 283.0625,692.3644 Q282.4063,692.1613 281.6094,692.1613 Z " fill="#000000"/><text fill="#000000" font-family="sans-serif" font-size="14" lengthAdjust="spacing" textLength="134.8195" x="295.5" y="702.062">ToolingDiagramPlan</text><line style="stroke:#181818;stroke-width:0.5;" x1="267.5" x2="432.3195" y1="712.63" y2="712.63"/><text fill="#000000" font-family="sans-serif" font-size="14" lengthAdjust="spacing" textLength="105.8116" x="272.5" y="731.5959">repo_root : Path</text><text fill="#000000" font-family="sans-serif" font-size="14" lengthAdjust="spacing" textLength="85.2877" x="272.5" y="750.6639">source : Path</text><text fill="#000000" font-family="sans-serif" font-size="14" lengthAdjust="spacing" textLength="149.7014" x="272.5" y="769.7318">targets : tuple[Path, ...]</text><line style="stroke:#181818;stroke-width:0.5;" x1="267.5" x2="432.3195" y1="777.8338" y2="777.8338"/></g><?plantuml-src hLLDRzGm4BttLrWzWLJo0pWW5IeX3g2gvLPLqMmykp7hU2nxmh82_Zjsd4zdo-wXjxpnc_6R3qyyiZ3GeBTGuIDQSC3aX263LvK6xyNr7J1imEETWfs3vbw3kHRW1RYgLbhniN1e9BhY157ylXB2eQNI4R5uB-w1ws3orBeA9ypWTiW-6BYr6f-Y-KOKHV5yzNVKuU2Ww2ErHlfCm0uD1k5Op3dTtHjYfYR4LOO3h57jQXwXnkq46YNBNmjq795Rk37PyVkW9DSZclm7tqp-9zJwP0f33JFMCecj9bYaCHZwH0Ouf3B7nnbscNjAQ413IWEUHvgYZ8bzxel_WBxL_59dbgmkhSfXCCWGKIlFJvxTSx1Qw2uFg1kTM9KLn--LjIihKobLnM_UYdSVHFoA1pU2DZ-mujaWtH-v9dDsd5UqJhHr5CELyT6CCkrHelKbjMpRqrCSEGv_elDOXX2ohL2Mdh6Ps9tO5Jc9kJHqUbSlq4wymqlUNQh3rw1PunUpfVzLQsAb3iS8PHKcUNeyszPKhCXaPkNBi8Bsi8jLtH3fO5lMECr59tpKzj1T_iXeJwkQpfCUQXem-TnK1vbk4N_4jxZuHDI4pe0keTCQZbEasmGddYy7wYGxzMeKdhTkqUTX53AVp7xQULoYoOV3xJsOrSVIRIjL_YmXsehnj2-En5Ah_Qm1CWr_rgh1kYNNGATjNitXDAdBN6lmPMYnwRpwIw9jerkqJdNCcLcZzsHct6mvn7w6la1iIgwZVpZWM6r35pCXlRhu6lngZP2kQb2hY0To-x3x3bceIzVEOnss-jcjaxDUym_wFMIcpEwiXZNlDLJy0m00?></g></svg>
