<?xml version="1.0" encoding="UTF-8"?>
<!DOCTYPE svg PUBLIC "-//W3C//DTD SVG 1.1//EN" "http://www.w3.org/Graphics/SVG/1.1/DTD/svg11.dtd">
<svg xmlns="http://www.w3.org/2000/svg" xmlns:xlink="http://www.w3.org/1999/xlink" version="1.1" width="1522px" height="732px" viewBox="-0.5 -0.5 1522 732"><defs/><g><g data-cell-id="0"><g data-cell-id="1"><g data-cell-id="2"><g><rect x="0" y="0" width="1520" height="80" fill="#1f2937" stroke="#111827" pointer-events="all"/></g><g><g transform="translate(-0.5 -0.5)"><switch><foreignObject pointer-events="none" width="100%" height="100%" requiredFeatures="http://www.w3.org/TR/SVG11/feature#Extensibility" style="overflow: visible; text-align: left;"><div xmlns="http://www.w3.org/1999/xhtml" style="display: flex; align-items: unsafe center; justify-content: unsafe center; width: 1502px; height: 1px; padding-top: 40px; margin-left: 9px;"><div data-drawio-colors="color: #FFFFFF; " style="box-sizing: border-box; font-size: 0px; text-align: center;"><div style="display: inline-block; font-size: 26px; font-family: Helvetica; color: rgb(255, 255, 255); line-height: 1.2; pointer-events: all; font-weight: bold; white-space: normal; overflow-wrap: normal;">archility Repository Architecture</div></div></div></foreignObject><text x="760" y="48" fill="#FFFFFF" font-family="&quot;Helvetica&quot;" font-size="26px" text-anchor="middle" font-weight="bold">archility Repository Architecture</text></switch></g></g></g><g data-cell-id="10"><g><rect x="20" y="130" width="260" height="100" rx="15" ry="15" fill="#fce7f3" stroke="#db2777" pointer-events="all"/></g><g><g transform="translate(-0.5 -0.5)"><switch><foreignObject pointer-events="none" width="100%" height="100%" requiredFeatures="http://www.w3.org/TR/SVG11/feature#Extensibility" style="overflow: visible; text-align: left;"><div xmlns="http://www.w3.org/1999/xhtml" style="display: flex; align-items: unsafe center; justify-content: unsafe center; width: 246px; height: 1px; padding-top: 180px; margin-left: 27px;"><div data-drawio-colors="color: #111827; " style="box-sizing: border-box; font-size: 0px; text-align: center;"><div style="display: inline-block; font-size: 18px; font-family: Helvetica; color: rgb(17, 24, 39); line-height: 1.2; pointer-events: all; white-space: normal; overflow-wrap: normal;">Portfolio Maintainer or AI Agent<br />invokes repo lifecycle</div></div></div></foreignObject><text x="150" y="185" fill="#111827" font-family="&quot;Helvetica&quot;" font-size="18px" text-anchor="middle">Portfolio Maintainer or AI A...</text></switch></g></g></g><g data-cell-id="20"><g><rect x="340" y="125" width="330" height="120" rx="18" ry="18" fill="#dbeafe" stroke="#2563eb" pointer-events="all"/></g><g><g transform="translate(-0.5 -0.5)"><switch><foreignObject pointer-events="none" width="100%" height="100%" requiredFeatures="http://www.w3.org/TR/SVG11/feature#Extensibility" style="overflow: visible; text-align: left;"><div xmlns="http://www.w3.org/1999/xhtml" style="display: flex; align-items: unsafe center; justify-content: unsafe center; width: 316px; height: 1px; padding-top: 185px; margin-left: 347px;"><div data-drawio-colors="color: #111827; " style="box-sizing: border-box; font-size: 0px; text-align: center;"><div style="display: inline-block; font-size: 18px; font-family: Helvetica; color: rgb(17, 24, 39); line-height: 1.2; pointer-events: all; white-space: normal; overflow-wrap: normal;">CLI Surface<br />src/archility/cli.py<br />src/archility/__main__.py<br />audit | generate | render</div></div></div></foreignObject><text x="505" y="190" fill="#111827" font-family="&quot;Helvetica&quot;" font-size="18px" text-anchor="middle">CLI Surface...</text></switch></g></g></g><g data-cell-id="30"><g><rect x="720" y="115" width="360" height="140" rx="21" ry="21" fill="#e2e8f0" stroke="#64748b" pointer-events="all"/></g><g><g transform="translate(-0.5 -0.5)"><switch><foreignObject pointer-events="none" width="100%" height="100%" requiredFeatures="http://www.w3.org/TR/SVG11/feature#Extensibility" style="overflow: visible; text-align: left;"><div xmlns="http://www.w3.org/1999/xhtml" style="display: flex; align-items: unsafe center; justify-content: unsafe center; width: 346px; height: 1px; padding-top: 185px; margin-left: 727px;"><div data-drawio-colors="color: #111827; " style="box-sizing: border-box; font-size: 0px; text-align: center;"><div style="display: inline-block; font-size: 17px; font-family: Helvetica; color: rgb(17, 24, 39); line-height: 1.2; pointer-events: all; white-space: normal; overflow-wrap: normal;">Reference Docs<br />README.md<br />docs/contributor-architecture-blueprint.md<br />docs/portfolio-architecture-toolchain.md<br />docs/diagrams/archility-audit-flow.puml</div></div></div></foreignObject><text x="900" y="190" fill="#111827" font-family="&quot;Helvetica&quot;" font-size="17px" text-anchor="middle">Reference Docs...</text></switch></g></g></g><g data-cell-id="40"><g><rect x="1130" y="125" width="330" height="120" rx="18" ry="18" fill="#fde68a" stroke="#d97706" pointer-events="all"/></g><g><g transform="translate(-0.5 -0.5)"><switch><foreignObject pointer-events="none" width="100%" height="100%" requiredFeatures="http://www.w3.org/TR/SVG11/feature#Extensibility" style="overflow: visible; text-align: left;"><div xmlns="http://www.w3.org/1999/xhtml" style="display: flex; align-items: unsafe center; justify-content: unsafe center; width: 316px; height: 1px; padding-top: 185px; margin-left: 1137px;"><div data-drawio-colors="color: #111827; " style="box-sizing: border-box; font-size: 0px; text-align: center;"><div style="display: inline-block; font-size: 18px; font-family: Helvetica; color: rgb(17, 24, 39); line-height: 1.2; pointer-events: all; white-space: normal; overflow-wrap: normal;">Shared Toolchain Bootstrap<br />setup.sh<br />tools/bin/plantuml<br />tools/bin/drawio<br />tools/bin/dot (optional)</div></div></div></foreignObject><text x="1295" y="190" fill="#111827" font-family="&quot;Helvetica&quot;" font-size="18px" text-anchor="middle">Shared Toolchain Bootstrap...</text></switch></g></g></g><g data-cell-id="100"><g><rect x="40" y="340" width="280" height="130" rx="19.5" ry="19.5" fill="#e0f2fe" stroke="#0284c7" pointer-events="all"/></g><g><g transform="translate(-0.5 -0.5)"><switch><foreignObject pointer-events="none" width="100%" height="100%" requiredFeatures="http://www.w3.org/TR/SVG11/feature#Extensibility" style="overflow: visible; text-align: left;"><div xmlns="http://www.w3.org/1999/xhtml" style="display: flex; align-items: unsafe center; justify-content: unsafe center; width: 266px; height: 1px; padding-top: 405px; margin-left: 47px;"><div data-drawio-colors="color: #111827; " style="box-sizing: border-box; font-size: 0px; text-align: center;"><div style="display: inline-block; font-size: 18px; font-family: Helvetica; color: rgb(17, 24, 39); line-height: 1.2; pointer-events: all; white-space: normal; overflow-wrap: normal;">Inspection Layer<br />src/archility/audit.py<br />RepoAudit model<br />text and JSON reports</div></div></div></foreignObject><text x="180" y="410" fill="#111827" font-family="&quot;Helvetica&quot;" font-size="18px" text-anchor="middle">Inspection Layer...</text></switch></g></g></g><g data-cell-id="110"><g><rect x="380" y="330" width="330" height="150" rx="22.5" ry="22.5" fill="#dcfce7" stroke="#16a34a" pointer-events="all"/></g><g><g transform="translate(-0.5 -0.5)"><switch><foreignObject pointer-events="none" width="100%" height="100%" requiredFeatures="http://www.w3.org/TR/SVG11/feature#Extensibility" style="overflow: visible; text-align: left;"><div xmlns="http://www.w3.org/1999/xhtml" style="display: flex; align-items: unsafe center; justify-content: unsafe center; width: 316px; height: 1px; padding-top: 405px; margin-left: 387px;"><div data-drawio-colors="color: #111827; " style="box-sizing: border-box; font-size: 0px; text-align: center;"><div style="display: inline-block; font-size: 18px; font-family: Helvetica; color: rgb(17, 24, 39); line-height: 1.2; pointer-events: all; white-space: normal; overflow-wrap: normal;">Programmatic Scaffolding<br />src/archility/generate.py<br />deterministic starter blueprint<br />and diagram-source generation</div></div></div></foreignObject><text x="545" y="410" fill="#111827" font-family="&quot;Helvetica&quot;" font-size="18px" text-anchor="middle">Programmatic Scaffolding...</text></switch></g></g></g><g data-cell-id="120"><g><rect x="770" y="340" width="300" height="130" rx="19.5" ry="19.5" fill="#fce7f3" stroke="#db2777" pointer-events="all"/></g><g><g transform="translate(-0.5 -0.5)"><switch><foreignObject pointer-events="none" width="100%" height="100%" requiredFeatures="http://www.w3.org/TR/SVG11/feature#Extensibility" style="overflow: visible; text-align: left;"><div xmlns="http://www.w3.org/1999/xhtml" style="display: flex; align-items: unsafe center; justify-content: unsafe center; width: 286px; height: 1px; padding-top: 405px; margin-left: 777px;"><div data-drawio-colors="color: #111827; " style="box-sizing: border-box; font-size: 0px; text-align: center;"><div style="display: inline-block; font-size: 18px; font-family: Helvetica; color: rgb(17, 24, 39); line-height: 1.2; pointer-events: all; white-space: normal; overflow-wrap: normal;">Render Orchestration<br />src/archility/render.py<br />shared render plan<br />and execution</div></div></div></foreignObject><text x="920" y="410" fill="#111827" font-family="&quot;Helvetica&quot;" font-size="18px" text-anchor="middle">Render Orchestration...</text></switch></g></g></g><g data-cell-id="130"><g><rect x="1130" y="340" width="330" height="130" rx="19.5" ry="19.5" fill="#fef3c7" stroke="#d97706" pointer-events="all"/></g><g><g transform="translate(-0.5 -0.5)"><switch><foreignObject pointer-events="none" width="100%" height="100%" requiredFeatures="http://www.w3.org/TR/SVG11/feature#Extensibility" style="overflow: visible; text-align: left;"><div xmlns="http://www.w3.org/1999/xhtml" style="display: flex; align-items: unsafe center; justify-content: unsafe center; width: 316px; height: 1px; padding-top: 405px; margin-left: 1137px;"><div data-drawio-colors="color: #111827; " style="box-sizing: border-box; font-size: 0px; text-align: center;"><div style="display: inline-block; font-size: 18px; font-family: Helvetica; color: rgb(17, 24, 39); line-height: 1.2; pointer-events: all; white-space: normal; overflow-wrap: normal;">Agentic Authoring Path<br />full repository inspection<br />non-deterministic rewrite or extension</div></div></div></foreignObject><text x="1295" y="410" fill="#111827" font-family="&quot;Helvetica&quot;" font-size="18px" text-anchor="middle">Agentic Authoring Path...</text></switch></g></g></g><g data-cell-id="200"><g><rect x="20" y="590" width="300" height="130" rx="19.5" ry="19.5" fill="#e0e7ff" stroke="#4f46e5" pointer-events="all"/></g><g><g transform="translate(-0.5 -0.5)"><switch><foreignObject pointer-events="none" width="100%" height="100%" requiredFeatures="http://www.w3.org/TR/SVG11/feature#Extensibility" style="overflow: visible; text-align: left;"><div xmlns="http://www.w3.org/1999/xhtml" style="display: flex; align-items: unsafe center; justify-content: unsafe center; width: 286px; height: 1px; padding-top: 655px; margin-left: 27px;"><div data-drawio-colors="color: #111827; " style="box-sizing: border-box; font-size: 0px; text-align: center;"><div style="display: inline-block; font-size: 18px; font-family: Helvetica; color: rgb(17, 24, 39); line-height: 1.2; pointer-events: all; white-space: normal; overflow-wrap: normal;">Audit Reports<br />baseline coverage<br />toolchain hints<br />next-step recommendations</div></div></div></foreignObject><text x="170" y="660" fill="#111827" font-family="&quot;Helvetica&quot;" font-size="18px" text-anchor="middle">Audit Reports...</text></switch></g></g></g><g data-cell-id="210"><g><rect x="390" y="570" width="400" height="160" rx="24" ry="24" fill="#ecfccb" stroke="#65a30d" pointer-events="all"/></g><g><g transform="translate(-0.5 -0.5)"><switch><foreignObject pointer-events="none" width="100%" height="100%" requiredFeatures="http://www.w3.org/TR/SVG11/feature#Extensibility" style="overflow: visible; text-align: left;"><div xmlns="http://www.w3.org/1999/xhtml" style="display: flex; align-items: unsafe center; justify-content: unsafe center; width: 386px; height: 1px; padding-top: 650px; margin-left: 397px;"><div data-drawio-colors="color: #111827; " style="box-sizing: border-box; font-size: 0px; text-align: center;"><div style="display: inline-block; font-size: 18px; font-family: Helvetica; color: rgb(17, 24, 39); line-height: 1.2; pointer-events: all; white-space: normal; overflow-wrap: normal;">Source Artifacts In Target Repo<br />docs/contributor-architecture-blueprint.md<br />repo-architecture.puml<br />repo-architecture.drawio</div></div></div></foreignObject><text x="590" y="655" fill="#111827" font-family="&quot;Helvetica&quot;" font-size="18px" text-anchor="middle">Source Artifacts In Target Repo...</text></switch></g></g></g><g data-cell-id="220"><g><rect x="850" y="590" width="380" height="130" rx="19.5" ry="19.5" fill="#fbcfe8" stroke="#be185d" pointer-events="all"/></g><g><g transform="translate(-0.5 -0.5)"><switch><foreignObject pointer-events="none" width="100%" height="100%" requiredFeatures="http://www.w3.org/TR/SVG11/feature#Extensibility" style="overflow: visible; text-align: left;"><div xmlns="http://www.w3.org/1999/xhtml" style="display: flex; align-items: unsafe center; justify-content: unsafe center; width: 366px; height: 1px; padding-top: 655px; margin-left: 857px;"><div data-drawio-colors="color: #111827; " style="box-sizing: border-box; font-size: 0px; text-align: center;"><div style="display: inline-block; font-size: 18px; font-family: Helvetica; color: rgb(17, 24, 39); line-height: 1.2; pointer-events: all; white-space: normal; overflow-wrap: normal;">Rendered Artifacts In Target Repo<br />repo-architecture.puml.svg and .png<br />repo-architecture.drawio.svg and .png</div></div></div></foreignObject><text x="1040" y="660" fill="#111827" font-family="&quot;Helvetica&quot;" font-size="18px" text-anchor="middle">Rendered Artifacts In Target Repo...</text></switch></g></g></g><g data-cell-id="230"><g><rect x="1260" y="580" width="240" height="150" rx="22.5" ry="22.5" fill="#ddd6fe" stroke="#7c3aed" pointer-events="all"/></g><g><g transform="translate(-0.5 -0.5)"><switch><foreignObject pointer-events="none" width="100%" height="100%" requiredFeatures="http://www.w3.org/TR/SVG11/feature#Extensibility" style="overflow: visible; text-align: left;"><div xmlns="http://www.w3.org/1999/xhtml" style="display: flex; align-items: unsafe center; justify-content: unsafe center; width: 226px; height: 1px; padding-top: 655px; margin-left: 1267px;"><div data-drawio-colors="color: #111827; " style="box-sizing: border-box; font-size: 0px; text-align: center;"><div style="display: inline-block; font-size: 18px; font-family: Helvetica; color: rgb(17, 24, 39); line-height: 1.2; pointer-events: all; white-space: normal; overflow-wrap: normal;">Validation Surface<br />tests/test_audit.py<br />tests/test_generate.py<br />tests/test_render.py<br />.github/workflows/ci.yml</div></div></div></foreignObject><text x="1380" y="660" fill="#111827" font-family="&quot;Helvetica&quot;" font-size="18px" text-anchor="middle">Validation Surface...</text></switch></g></g></g><g data-cell-id="500"><g><path d="M 280 170 L 304 170 L 304 185 L 328.76 185" fill="none" stroke="#1f2937" stroke-width="2" stroke-miterlimit="10" pointer-events="stroke"/><path d="M 337.76 185 L 325.76 191 L 328.76 185 L 325.76 179 Z" fill="#1f2937" stroke="#1f2937" stroke-width="2" stroke-miterlimit="10" pointer-events="all"/></g></g><g data-cell-id="501"><g><path d="M 280 190 L 304 190 L 304 288.5 L 1106 288.5 L 1106 405 L 1118.76 405" fill="none" stroke="#1f2937" stroke-width="2" stroke-miterlimit="10" pointer-events="stroke"/><path d="M 1127.76 405 L 1115.76 411 L 1118.76 405 L 1115.76 399 Z" fill="#1f2937" stroke="#1f2937" stroke-width="2" stroke-miterlimit="10" pointer-events="all"/></g></g><g data-cell-id="502"><g><path d="M 720 185 L 681.24 185" fill="none" stroke="#1f2937" stroke-width="2" stroke-miterlimit="10" pointer-events="stroke"/><path d="M 672.24 185 L 684.24 179 L 681.24 185 L 684.24 191 Z" fill="#1f2937" stroke="#1f2937" stroke-width="2" stroke-miterlimit="10" pointer-events="all"/></g></g><g data-cell-id="503"><g><path d="M 380 245 L 380 269 L 310 269 C 310 261.2 298 261.2 298 269 L 298 269 L 180 269 L 180 328.76" fill="none" stroke="#1f2937" stroke-width="2" stroke-miterlimit="10" pointer-events="stroke"/><path d="M 180 337.76 L 174 325.76 L 180 328.76 L 186 325.76 Z" fill="#1f2937" stroke="#1f2937" stroke-width="2" stroke-miterlimit="10" pointer-events="all"/></g></g><g data-cell-id="504"><g><path d="M 630 245 L 630 269 L 545 269 L 545 282.5 C 552.8 282.5 552.8 294.5 545 294.5 L 545 294.5 L 545 318.76" fill="none" stroke="#1f2937" stroke-width="2" stroke-miterlimit="10" pointer-events="stroke"/><path d="M 545 327.76 L 539 315.76 L 545 318.76 L 551 315.76 Z" fill="#1f2937" stroke="#1f2937" stroke-width="2" stroke-miterlimit="10" pointer-events="all"/></g></g><g data-cell-id="505"><g><path d="M 670 185 L 694 185 L 694 282.5 C 701.8 282.5 701.8 294.5 694 294.5 L 694 294.5 L 694 298 L 746 298 L 746 405 L 758.76 405" fill="none" stroke="#1f2937" stroke-width="2" stroke-miterlimit="10" pointer-events="stroke"/><path d="M 767.76 405 L 755.76 411 L 758.76 405 L 755.76 399 Z" fill="#1f2937" stroke="#1f2937" stroke-width="2" stroke-miterlimit="10" pointer-events="all"/></g></g><g data-cell-id="506"><g><path d="M 80 470 L 80 494 L 170 494 L 170 578.76" fill="none" stroke="#1f2937" stroke-width="2" stroke-miterlimit="10" pointer-events="stroke"/><path d="M 170 587.76 L 164 575.76 L 170 578.76 L 176 575.76 Z" fill="#1f2937" stroke="#1f2937" stroke-width="2" stroke-miterlimit="10" pointer-events="all"/></g></g><g data-cell-id="507"><g><path d="M 280 470 L 280 494 L 271 494 L 271 546 L 430 546 L 430 558.76" fill="none" stroke="#1f2937" stroke-width="2" stroke-miterlimit="10" pointer-events="stroke"/><path d="M 430 567.76 L 424 555.76 L 430 558.76 L 436 555.76 Z" fill="#1f2937" stroke="#1f2937" stroke-width="2" stroke-miterlimit="10" pointer-events="all"/></g><g><g fill="rgb(0, 0, 0)" font-family="&quot;Helvetica&quot;" text-anchor="middle" font-size="14px"><rect fill="rgb(255, 255, 255)" stroke="none" x="250" y="538" width="142" height="18" stroke-width="0"/><text x="319.5" y="551.5">inspect existing assets</text></g></g></g><g data-cell-id="508"><g><path d="M 545 480 L 545 504 L 759 504 L 759 546 L 750 546 L 750 558.76" fill="none" stroke="#1f2937" stroke-width="2" stroke-miterlimit="10" pointer-events="stroke"/><path d="M 750 567.76 L 744 555.76 L 750 558.76 L 756 555.76 Z" fill="#1f2937" stroke="#1f2937" stroke-width="2" stroke-miterlimit="10" pointer-events="all"/></g></g><g data-cell-id="509"><g><path d="M 1130 405 L 1106 405 L 1106 527.5 L 814 527.5 L 814 650 L 801.24 650" fill="none" stroke="#1f2937" stroke-width="2" stroke-miterlimit="10" pointer-events="stroke"/><path d="M 792.24 650 L 804.24 644 L 801.24 650 L 804.24 656 Z" fill="#1f2937" stroke="#1f2937" stroke-width="2" stroke-miterlimit="10" pointer-events="all"/></g></g><g data-cell-id="510"><g><path d="M 590 570 L 590 546 L 808 546 C 808 538.2 820 538.2 820 546 L 820 546 L 920 546 L 920 533.5 C 927.8 533.5 927.8 521.5 920 521.5 L 920 521.5 L 920 481.24" fill="none" stroke="#1f2937" stroke-width="2" stroke-miterlimit="10" pointer-events="stroke"/><path d="M 920 472.24 L 926 484.24 L 920 481.24 L 914 484.24 Z" fill="#1f2937" stroke="#1f2937" stroke-width="2" stroke-miterlimit="10" pointer-events="all"/></g><g><g fill="rgb(0, 0, 0)" font-family="&quot;Helvetica&quot;" text-anchor="middle" font-size="14px"><rect fill="rgb(255, 255, 255)" stroke="none" x="716" y="538" width="132" height="18" stroke-width="0"/><text x="780.5" y="551.5">shared source layout</text></g></g></g><g data-cell-id="511"><g><path d="M 1295 245 L 1295 269 L 1106 269 L 1106 316 L 920 316 L 920 328.76" fill="none" stroke="#1f2937" stroke-width="2" stroke-miterlimit="10" pointer-events="stroke"/><path d="M 920 337.76 L 914 325.76 L 920 328.76 L 926 325.76 Z" fill="#1f2937" stroke="#1f2937" stroke-width="2" stroke-miterlimit="10" pointer-events="all"/></g></g><g data-cell-id="512"><g><path d="M 920 470 L 920 494 L 980 494 L 980 521.5 C 987.8 521.5 987.8 533.5 980 533.5 L 980 533.5 L 980 566 L 1040 566 L 1040 578.76" fill="none" stroke="#1f2937" stroke-width="2" stroke-miterlimit="10" pointer-events="stroke"/><path d="M 1040 587.76 L 1034 575.76 L 1040 578.76 L 1046 575.76 Z" fill="#1f2937" stroke="#1f2937" stroke-width="2" stroke-miterlimit="10" pointer-events="all"/></g></g><g data-cell-id="513"><g><path d="M 1260 620 L 1236 620 L 1236 512 L 1112 512 C 1112 504.2 1100 504.2 1100 512 L 1100 512 L 986 512 C 986 504.2 974 504.2 974 512 L 974 512 L 926 512 C 926 504.2 914 504.2 914 512 L 914 512 L 765 512 C 765 504.2 753 504.2 753 512 L 753 512 L 344 512 L 344 405 L 331.24 405" fill="none" stroke="#1f2937" stroke-width="2" stroke-miterlimit="10" pointer-events="stroke"/><path d="M 322.24 405 L 334.24 399 L 331.24 405 L 334.24 411 Z" fill="#1f2937" stroke="#1f2937" stroke-width="2" stroke-miterlimit="10" pointer-events="all"/></g></g><g data-cell-id="514"><g><path d="M 1260 655 L 1236 655 L 1236 530 L 986 530 C 986 522.2 974 522.2 974 530 L 974 530 L 926 530 C 926 522.2 914 522.2 914 530 L 914 530 L 820 530 C 820 522.2 808 522.2 808 530 L 808 530 L 765 530 C 765 522.2 753 522.2 753 530 L 753 530 L 734 530 L 734 518 C 741.8 518 741.8 506 734 506 L 734 506 L 734 510 C 741.8 510 741.8 498 734 498 L 734 498 L 734 405 L 721.24 405" fill="none" stroke="#1f2937" stroke-width="2" stroke-miterlimit="10" pointer-events="stroke"/><path d="M 712.24 405 L 724.24 399 L 721.24 405 L 724.24 411 Z" fill="#1f2937" stroke="#1f2937" stroke-width="2" stroke-miterlimit="10" pointer-events="all"/></g></g><g data-cell-id="515"><g><path d="M 1260 690 L 1236 690 L 1236 558 L 1094 558 L 1094 530 L 1094 527.5 L 1094 518 C 1101.8 518 1101.8 506 1094 506 L 1094 506 L 1094 405 L 1081.24 405" fill="none" stroke="#1f2937" stroke-width="2" stroke-miterlimit="10" pointer-events="stroke"/><path d="M 1072.24 405 L 1084.24 399 L 1081.24 405 L 1084.24 411 Z" fill="#1f2937" stroke="#1f2937" stroke-width="2" stroke-miterlimit="10" pointer-events="all"/></g></g></g></g></g><switch><g requiredFeatures="http://www.w3.org/TR/SVG11/feature#Extensibility"/><a transform="translate(0,-5)" xlink:href="https://www.drawio.com/doc/faq/svg-export-text-problems" target="_blank"><text text-anchor="middle" font-size="10px" x="50%" y="100%">Text is not SVG - cannot display</text></a></switch></svg>
