<?plantuml 1.2026.2?><svg xmlns="http://www.w3.org/2000/svg" xmlns:xlink="http://www.w3.org/1999/xlink" contentStyleType="text/css" data-diagram-type="DESCRIPTION" height="682px" preserveAspectRatio="none" style="width:1071px;height:682px;background:#FFFFFF;" version="1.1" viewBox="0 0 1071 682" width="1071px" zoomAndPan="magnify"><title>archility Repository Architecture</title><defs/><g><g class="title" data-source-line="2"><text fill="#000000" font-family="Monospace" font-size="14" font-weight="bold" lengthAdjust="spacing" textLength="224.0937" x="415.9532" y="24.9659">archility&#160;Repository&#160;Architecture</text></g><!--cluster Public Entry Surface--><g class="cluster" data-qualified-name="Public Entry Surface" data-source-line="10" id="ent0003"><rect fill="#F8FAFC" height="134" rx="2.5" ry="2.5" style="stroke:#181818;stroke-width:1;" width="286" x="310" y="216.0679"/><text fill="#000000" font-family="Monospace" font-size="14" font-weight="bold" lengthAdjust="spacing" textLength="138.6485" x="383.6758" y="233.0339">Public&#160;Entry&#160;Surface</text></g><!--cluster Lifecycle Layers--><g class="cluster" data-qualified-name="Lifecycle Layers" data-source-line="14" id="ent0005"><rect fill="#F8FAFC" height="134" rx="2.5" ry="2.5" style="stroke:#181818;stroke-width:1;" width="604" x="329" y="369.0679"/><text fill="#000000" font-family="Monospace" font-size="14" font-weight="bold" lengthAdjust="spacing" textLength="108.6641" x="576.668" y="386.0339">Lifecycle&#160;Layers</text></g><!--cluster Agentic Authoring Boundary--><g class="cluster" data-qualified-name="Agentic Authoring Boundary" data-source-line="20" id="ent0009"><rect fill="#F8FAFC" height="115" rx="2.5" ry="2.5" style="stroke:#181818;stroke-width:1;" width="288" x="14" y="225.5679"/><text fill="#000000" font-family="Monospace" font-size="14" font-weight="bold" lengthAdjust="spacing" textLength="197.9593" x="59.0204" y="242.5339">Agentic&#160;Authoring&#160;Boundary</text></g><!--cluster Shared Bootstrap And References--><g class="cluster" data-qualified-name="Shared Bootstrap And References" data-source-line="24" id="ent0011"><rect fill="#F8FAFC" height="153" rx="2.5" ry="2.5" style="stroke:#181818;stroke-width:1;" width="744" x="234" y="44.0679"/><text fill="#000000" font-family="Monospace" font-size="14" font-weight="bold" lengthAdjust="spacing" textLength="233.9252" x="489.0374" y="61.0339">Shared&#160;Bootstrap&#160;And&#160;References</text></g><!--cluster Target Repository Outputs--><g class="cluster" data-qualified-name="Target Repository Outputs" data-source-line="30" id="ent0015"><rect fill="#F8FAFC" height="134" rx="2.5" ry="2.5" style="stroke:#181818;stroke-width:1;" width="816" x="249" y="542.0679"/><text fill="#000000" font-family="Monospace" font-size="14" font-weight="bold" lengthAdjust="spacing" textLength="184.4319" x="564.7841" y="559.0339">Target&#160;Repository&#160;Outputs</text></g><!--entity maintainer--><g class="entity" data-qualified-name="maintainer" data-source-line="8" id="ent0002"><ellipse cx="158.0308" cy="91.0679" fill="#F1F1F1" rx="8" ry="8" style="stroke:#181818;stroke-width:0.5;"/><path d="M158.0308,99.0679 L158.0308,126.0679 M145.0308,107.0679 L171.0308,107.0679 M158.0308,126.0679 L145.0308,141.0679 M158.0308,126.0679 L171.0308,141.0679" fill="none" style="stroke:#181818;stroke-width:0.5;"/><text fill="#000000" font-family="Monospace" font-size="14" lengthAdjust="spacing" textLength="132.0615" x="92" y="157.5339">Portfolio&#160;Maintainer</text><text fill="#000000" font-family="Monospace" font-size="14" lengthAdjust="spacing" textLength="74.3817" x="92" y="176.6018">or&#160;AI&#160;Agent</text></g><!--entity cli--><g class="entity" data-qualified-name="Public Entry Surface.cli" data-source-line="11" id="ent0004"><rect fill="#DBEAFE" height="96.2717" rx="2.5" ry="2.5" style="stroke:#181818;stroke-width:0.5;" width="268.6111" x="318.5" y="246.0679"/><text fill="#000000" font-family="Monospace" font-size="14" lengthAdjust="spacing" textLength="73.9757" x="328.5" y="271.0339">CLI&#160;Surface</text><text fill="#000000" font-family="Monospace" font-size="14" lengthAdjust="spacing" textLength="115.1075" x="328.5" y="290.1018">src/archility/cli.py</text><text fill="#000000" font-family="Monospace" font-size="14" lengthAdjust="spacing" textLength="81.6617" x="328.5" y="309.1697">src/archility/</text><text fill="#000000" font-family="Monospace" font-size="14" lengthAdjust="spacing" text-decoration="underline" textLength="33.2079" x="410.1617" y="309.1697">main</text><text fill="#000000" font-family="Monospace" font-size="14" lengthAdjust="spacing" textLength="19.5019" x="443.3696" y="309.1697">.py</text><text fill="#000000" font-family="Monospace" font-size="14" lengthAdjust="spacing" textLength="248.6111" x="328.5" y="328.2376">commands:&#160;audit&#160;|&#160;generate&#160;|&#160;render</text></g><!--entity audit--><g class="entity" data-qualified-name="Lifecycle Layers.audit" data-source-line="15" id="ent0006"><rect fill="#E0F2FE" height="96.2717" rx="2.5" ry="2.5" style="stroke:#181818;stroke-width:0.5;" width="154.9455" x="769.5" y="399.0679"/><text fill="#000000" font-family="Monospace" font-size="14" lengthAdjust="spacing" textLength="108.7656" x="779.5" y="424.0339">Inspection&#160;Layer</text><text fill="#000000" font-family="Monospace" font-size="14" lengthAdjust="spacing" textLength="134.9455" x="779.5" y="443.1018">src/archility/audit.py</text><text fill="#000000" font-family="Monospace" font-size="14" lengthAdjust="spacing" textLength="113.8756" x="779.5" y="462.1697">RepoAudit&#160;model</text><text fill="#000000" font-family="Monospace" font-size="14" lengthAdjust="spacing" textLength="122.9196" x="779.5" y="481.2376">text&#160;/&#160;JSON&#160;reports</text></g><!--entity generate--><g class="entity" data-qualified-name="Lifecycle Layers.generate" data-source-line="16" id="ent0007"><rect fill="#DCFCE7" height="96.2717" rx="2.5" ry="2.5" style="stroke:#181818;stroke-width:0.5;" width="229.0192" x="337.5" y="399.0679"/><text fill="#000000" font-family="Monospace" font-size="14" lengthAdjust="spacing" textLength="171.4854" x="347.5" y="424.0339">Programmatic&#160;Scaffolding</text><text fill="#000000" font-family="Monospace" font-size="14" lengthAdjust="spacing" textLength="160.8034" x="347.5" y="443.1018">src/archility/generate.py</text><text fill="#000000" font-family="Monospace" font-size="14" lengthAdjust="spacing" textLength="199.7932" x="347.5" y="462.1697">Deterministic&#160;starter&#160;blueprint</text><text fill="#000000" font-family="Monospace" font-size="14" lengthAdjust="spacing" textLength="209.0192" x="347.5" y="481.2376">and&#160;diagram-source&#160;generation</text></g><!--entity render--><g class="entity" data-qualified-name="Lifecycle Layers.render" data-source-line="17" id="ent0008"><rect fill="#FCE7F3" height="96.2717" rx="2.5" ry="2.5" style="stroke:#181818;stroke-width:0.5;" width="165.7814" x="585" y="399.0679"/><text fill="#000000" font-family="Monospace" font-size="14" lengthAdjust="spacing" textLength="142.3515" x="595" y="424.0339">Render&#160;Orchestration</text><text fill="#000000" font-family="Monospace" font-size="14" lengthAdjust="spacing" textLength="145.7814" x="595" y="443.1018">src/archility/render.py</text><text fill="#000000" font-family="Monospace" font-size="14" lengthAdjust="spacing" textLength="132.8315" x="595" y="462.1697">shared&#160;render&#160;plans</text><text fill="#000000" font-family="Monospace" font-size="14" lengthAdjust="spacing" textLength="93.1136" x="595" y="481.2376">and&#160;execution</text></g><!--entity agentic--><g class="entity" data-qualified-name="Agentic Authoring Boundary.agentic" data-source-line="21" id="ent0010"><rect fill="#FEF3C7" height="77.2038" rx="2.5" ry="2.5" style="stroke:#181818;stroke-width:0.5;" width="270.557" x="22.5" y="255.5679"/><text fill="#000000" font-family="Monospace" font-size="14" lengthAdjust="spacing" textLength="83.1597" x="32.5" y="280.5339">Agentic&#160;Path</text><text fill="#000000" font-family="Monospace" font-size="14" lengthAdjust="spacing" textLength="163.4774" x="32.5" y="299.6018">full&#160;repository&#160;inspection</text><text fill="#000000" font-family="Monospace" font-size="14" lengthAdjust="spacing" textLength="250.557" x="32.5" y="318.6697">non-deterministic&#160;architecture&#160;rewrite</text></g><!--entity bootstrap--><g class="entity" data-qualified-name="Shared Bootstrap And References.bootstrap" data-source-line="25" id="ent0012"><rect fill="#FDE68A" height="115.3396" rx="2.5" ry="2.5" style="stroke:#181818;stroke-width:0.5;" width="202.6853" x="565.5" y="74.0679"/><text fill="#000000" font-family="Monospace" font-size="14" lengthAdjust="spacing" textLength="182.6853" x="575.5" y="99.0339">Shared&#160;Toolchain&#160;Bootstrap</text><text fill="#000000" font-family="Monospace" font-size="14" lengthAdjust="spacing" textLength="56.0278" x="575.5" y="118.1018">setup.sh</text><text fill="#000000" font-family="Monospace" font-size="14" lengthAdjust="spacing" textLength="122.7375" x="575.5" y="137.1697">tools/bin/plantuml</text><text fill="#000000" font-family="Monospace" font-size="14" lengthAdjust="spacing" textLength="108.9336" x="575.5" y="156.2376">tools/bin/drawio</text><text fill="#000000" font-family="Monospace" font-size="14" lengthAdjust="spacing" textLength="152.1094" x="575.5" y="175.3055">tools/bin/dot&#160;(optional)</text></g><!--entity refs--><g class="entity" data-qualified-name="Shared Bootstrap And References.refs" data-source-line="26" id="ent0013"><rect fill="#E2E8F0" height="115.3396" rx="2.5" ry="2.5" style="stroke:#181818;stroke-width:0.5;" width="305.1929" x="242.5" y="74.0679"/><text fill="#000000" font-family="Monospace" font-size="14" lengthAdjust="spacing" textLength="102.0176" x="252.5" y="99.0339">Reference&#160;Docs</text><text fill="#000000" font-family="Monospace" font-size="14" lengthAdjust="spacing" textLength="81.5917" x="252.5" y="118.1018">README.md</text><text fill="#000000" font-family="Monospace" font-size="14" lengthAdjust="spacing" textLength="285.1929" x="252.5" y="137.1697">docs/contributor-architecture-blueprint.md</text><text fill="#000000" font-family="Monospace" font-size="14" lengthAdjust="spacing" textLength="267.847" x="252.5" y="156.2376">docs/portfolio-architecture-toolchain.md</text><text fill="#000000" font-family="Monospace" font-size="14" lengthAdjust="spacing" textLength="263.493" x="252.5" y="175.3055">docs/diagrams/archility-audit-flow.puml</text></g><!--entity validation--><g class="entity" data-qualified-name="Shared Bootstrap And References.validation" data-source-line="27" id="ent0014"><rect fill="#DDD6FE" height="115.3396" rx="2.5" ry="2.5" style="stroke:#181818;stroke-width:0.5;" width="182.6234" x="786.5" y="74.0679"/><text fill="#000000" font-family="Monospace" font-size="14" lengthAdjust="spacing" textLength="118.7755" x="796.5" y="99.0339">Validation&#160;Surface</text><text fill="#000000" font-family="Monospace" font-size="14" lengthAdjust="spacing" textLength="120.8336" x="796.5" y="118.1018">tests/test_audit.py</text><text fill="#000000" font-family="Monospace" font-size="14" lengthAdjust="spacing" textLength="146.6915" x="796.5" y="137.1697">tests/test_generate.py</text><text fill="#000000" font-family="Monospace" font-size="14" lengthAdjust="spacing" textLength="131.6695" x="796.5" y="156.2376">tests/test_render.py</text><text fill="#000000" font-family="Monospace" font-size="14" lengthAdjust="spacing" textLength="162.6234" x="796.5" y="175.3055">.github/workflows/ci.yml</text></g><!--entity sources--><g class="entity" data-qualified-name="Target Repository Outputs.sources" data-source-line="31" id="ent0016"><rect fill="#ECFCCB" height="96.2717" rx="2.5" ry="2.5" style="stroke:#181818;stroke-width:0.5;" width="305.1929" x="257.5" y="572.0679"/><text fill="#000000" font-family="Monospace" font-size="14" lengthAdjust="spacing" textLength="203.2372" x="267.5" y="597.0339">Source&#160;Artifacts&#160;in&#160;Target&#160;Repo</text><text fill="#000000" font-family="Monospace" font-size="14" lengthAdjust="spacing" textLength="285.1929" x="267.5" y="616.1018">docs/contributor-architecture-blueprint.md</text><text fill="#000000" font-family="Monospace" font-size="14" lengthAdjust="spacing" textLength="255.695" x="267.5" y="635.1697">docs/diagrams/repo-architecture.puml</text><text fill="#000000" font-family="Monospace" font-size="14" lengthAdjust="spacing" textLength="267.063" x="267.5" y="654.2376">docs/diagrams/repo-architecture.drawio</text></g><!--entity renders--><g class="entity" data-qualified-name="Target Repository Outputs.renders" data-source-line="32" id="ent0017"><rect fill="#FBCFE8" height="77.2038" rx="2.5" ry="2.5" style="stroke:#181818;stroke-width:0.5;" width="252.3151" x="581" y="581.5679"/><text fill="#000000" font-family="Monospace" font-size="14" lengthAdjust="spacing" textLength="222.0811" x="591" y="606.5339">Rendered&#160;Artifacts&#160;in&#160;Target&#160;Repo</text><text fill="#000000" font-family="Monospace" font-size="14" lengthAdjust="spacing" textLength="220.9471" x="591" y="625.6018">repo-architecture.puml.svg&#160;/&#160;.png</text><text fill="#000000" font-family="Monospace" font-size="14" lengthAdjust="spacing" textLength="232.3151" x="591" y="644.6697">repo-architecture.drawio.svg&#160;/&#160;.png</text></g><!--entity reports--><g class="entity" data-qualified-name="Target Repository Outputs.reports" data-source-line="33" id="ent0018"><rect fill="#E0E7FF" height="96.2717" rx="2.5" ry="2.5" style="stroke:#181818;stroke-width:0.5;" width="205.9753" x="851" y="572.0679"/><text fill="#000000" font-family="Monospace" font-size="14" lengthAdjust="spacing" textLength="89.7397" x="861" y="597.0339">Audit&#160;Reports</text><text fill="#000000" font-family="Monospace" font-size="14" lengthAdjust="spacing" textLength="118.8175" x="861" y="616.1018">baseline&#160;coverage</text><text fill="#000000" font-family="Monospace" font-size="14" lengthAdjust="spacing" textLength="97.4116" x="861" y="635.1697">toolchain&#160;hints</text><text fill="#000000" font-family="Monospace" font-size="14" lengthAdjust="spacing" textLength="185.9753" x="861" y="654.2376">next-step&#160;recommendations</text></g><g class="link" data-entity-1="ent0002" data-entity-2="ent0004" data-link-type="dependency" id="lnk19"><polygon fill="#181818" points="371.4114,245.9551,365.2635,238.2607,366.9728,243.6531,361.5804,245.3625,371.4114,245.9551" style="stroke:#181818;stroke-width:1;"/><path d="M205.5623,180.7724 C213.2928,186.9008 221.5496,192.585 230,197.0679 C260.7574,213.3845 273.4607,203.6807 306,216.0679 C327.8093,224.3704 345.2076,232.3653 366.0851,243.1928" fill="none" style="stroke:#181818;stroke-width:1;"/></g><g class="link" data-entity-1="ent0002" data-entity-2="ent0010" data-link-type="dependency" id="lnk20"><polygon fill="#181818" points="158,255.4014,162,246.4014,158,250.4014,154,246.4014,158,255.4014" style="stroke:#181818;stroke-width:1;"/><path d="M158,180.7232 C158,204.6384 158,227.1064 158,249.4014" fill="none" style="stroke:#181818;stroke-width:1;"/></g><g class="link" data-entity-1="ent0013" data-entity-2="ent0004" data-link-type="dependency" id="lnk21"><polygon fill="#181818" points="435.993,246.0055,436.6962,236.1818,434.2937,241.3032,429.1724,238.9007,435.993,246.0055" style="stroke:#181818;stroke-width:1;"/><path d="M415.4486,189.1542 C422.1672,207.7461 427.5191,222.5561 433.9539,240.3627" fill="none" style="stroke:#181818;stroke-width:1;"/></g><g class="link" data-entity-1="ent0004" data-entity-2="ent0006" data-link-type="dependency" id="lnk22"><polygon fill="#181818" points="801.8446,398.7036,797.7163,389.7617,798.0857,395.4065,792.4409,395.7759,801.8446,398.7036" style="stroke:#181818;stroke-width:1;"/><path d="M587.6263,312.846 C643.1946,323.849 706.8864,341.3817 760,369.0679 C774.8455,376.8064 784.6993,383.6644 797.3339,394.7471" fill="none" style="stroke:#181818;stroke-width:1;"/></g><g class="link" data-entity-1="ent0004" data-entity-2="ent0007" data-link-type="dependency" id="lnk23"><polygon fill="#181818" points="452.3125,398.8729,456.3721,389.8996,452.3457,393.873,448.3722,389.8466,452.3125,398.8729" style="stroke:#181818;stroke-width:1;"/><path d="M452.6863,342.431 C452.5672,360.4211 452.4713,374.8985 452.3523,392.8731" fill="none" style="stroke:#181818;stroke-width:1;"/></g><g class="link" data-entity-1="ent0004" data-entity-2="ent0008" data-link-type="dependency" id="lnk24"><polygon fill="#181818" points="613.4804,398.6905,609.0449,389.897,609.6096,395.5255,603.981,396.0902,613.4804,398.6905" style="stroke:#181818;stroke-width:1;"/><path d="M534.4628,342.1985 C548.2176,350.8003 562.1827,359.9486 575,369.0679 C587.8099,378.1819 596.4513,384.7668 608.8354,394.8926" fill="none" style="stroke:#181818;stroke-width:1;"/></g><g class="link" data-entity-1="ent0006" data-entity-2="ent0018" data-link-type="dependency" id="lnk25"><polygon fill="#181818" points="924.5749,572.0427,923.1918,562.2915,921.9227,567.8041,916.41,566.535,924.5749,572.0427" style="stroke:#181818;stroke-width:1;"/><path d="M876.5215,495.2471 C891.4911,519.1706 906.4361,543.0546 921.3922,566.9564" fill="none" style="stroke:#181818;stroke-width:1;"/></g><g class="link" data-entity-1="ent0006" data-entity-2="ent0016" data-link-type="dependency" id="lnk26"><polygon fill="#181818" points="499.2373,571.9783,509.0837,571.7584,503.7599,569.8461,505.6722,564.5223,499.2373,571.9783" style="stroke:#181818;stroke-width:1;"/><path d="M776.9039,495.2783 C771.3039,498.1487 765.6328,500.791 760,503.0679 C680.8848,535.0486 652.8912,514.8908 572,542.0679 C547.7945,550.2003 527.9016,558.4644 504.6644,569.4197" fill="none" style="stroke:#181818;stroke-width:1;"/><text fill="#000000" font-family="Monospace" font-size="13" lengthAdjust="spacing" textLength="136.5001" x="731" y="528.9649">inspect&#160;existing&#160;assets</text></g><g class="link" data-entity-1="ent0007" data-entity-2="ent0016" data-link-type="dependency" id="lnk27"><polygon fill="#181818" points="402.1444,571.9875,405.4356,562.7049,401.7573,567.0025,397.4597,563.3242,402.1444,571.9875" style="stroke:#181818;stroke-width:1;"/><path d="M414.637,495.3603 C411.5414,501.0822 408.8825,507.0415 407,513.0679 C401.1539,531.7829 400.2266,547.2897 401.6799,566.0055" fill="none" style="stroke:#181818;stroke-width:1;"/></g><g class="link" data-entity-1="ent0010" data-entity-2="ent0016" data-link-type="dependency" id="lnk28"><polygon fill="#181818" points="373.2586,571.8289,370.8905,562.269,370.1889,567.8822,364.5757,567.1805,373.2586,571.8289" style="stroke:#181818;stroke-width:1;"/><path d="M187.4008,332.8689 C233.5567,392.2122 319.2491,502.3882 369.5749,567.0928" fill="none" style="stroke:#181818;stroke-width:1;"/></g><g class="link" data-entity-1="ent0016" data-entity-2="ent0008" data-link-type="dependency" id="lnk29"><polygon fill="#181818" points="595.6145,495.0771,585.7663,495.1896,591.0689,497.1599,589.0987,502.4625,595.6145,495.0771" style="stroke:#181818;stroke-width:1;"/><path d="M405.3536,571.9816 C405.9982,550.9698 410.9599,527.7028 427,513.0679 C439.1756,501.959 559.2579,507.9507 575,503.0679 C581.8977,500.9284 583.3694,500.6878 590.1598,497.5764" fill="none" style="stroke:#181818;stroke-width:1;"/><text fill="#000000" font-family="Monospace" font-size="13" lengthAdjust="spacing" textLength="127.9461" x="429" y="528.9649">shared&#160;source&#160;layout</text></g><g class="link" data-entity-1="ent0012" data-entity-2="ent0008" data-link-type="dependency" id="lnk30"><polygon fill="#181818" points="667.8496,398.9271,671.8209,389.9144,667.8337,393.9271,663.8209,389.9399,667.8496,398.9271" style="stroke:#181818;stroke-width:1;"/><path d="M667.1811,189.3404 C667.3725,249.3332 667.6516,336.8595 667.8305,392.9271" fill="none" style="stroke:#181818;stroke-width:1;"/></g><g class="link" data-entity-1="ent0008" data-entity-2="ent0017" data-link-type="dependency" id="lnk31"><polygon fill="#181818" points="720.3596,581.3769,726.4585,573.6437,721.5945,576.5318,718.7064,571.6678,720.3596,581.3769" style="stroke:#181818;stroke-width:1;"/><path d="M712.184,495.1686 C715.7397,500.8841 718.8024,506.8952 721,513.0679 C728.7823,534.9272 727.1088,554.8977 721.8415,575.5628" fill="none" style="stroke:#181818;stroke-width:1;"/></g><g class="link" data-entity-1="ent0014" data-entity-2="ent0006" data-link-type="dependency" id="lnk32"><polygon fill="#181818" points="851.6615,398.9271,856.5277,390.3644,852.1535,393.9513,848.5665,389.5771,851.6615,398.9271" style="stroke:#181818;stroke-width:1;"/><path d="M872.3861,189.3404 C866.4538,249.3332 857.796,336.8886 852.2519,392.9562" fill="none" style="stroke:#181818;stroke-width:1;"/></g><g class="link" data-entity-1="ent0014" data-entity-2="ent0007" data-link-type="dependency" id="lnk33"><polygon fill="#181818" points="531.9767,399.0097,541.7091,397.4998,536.1804,396.3026,537.3777,390.7738,531.9767,399.0097" style="stroke:#181818;stroke-width:1;"/><path d="M792.7732,189.1831 C787.832,191.9488 782.886,194.5983 778,197.0679 C756.7836,207.7918 747.81,202.9264 728,216.0679 C659.3681,261.5967 663.4224,297.5245 600,350.0679 C579.01,367.4574 559.7711,381.1102 537.0212,395.7611" fill="none" style="stroke:#181818;stroke-width:1;"/></g><g class="link" data-entity-1="ent0014" data-entity-2="ent0008" data-link-type="dependency" id="lnk34"><polygon fill="#181818" points="699.5776,398.9271,707.9097,393.6758,702.3603,394.7729,701.2631,389.2235,699.5776,398.9271" style="stroke:#181818;stroke-width:1;"/><path d="M839.9706,189.3404 C799.784,249.3332 740.474,337.8746 702.9168,393.9421" fill="none" style="stroke:#181818;stroke-width:1;"/></g><?plantuml-src dLPDRziu4BthLt3Zo-v1Tj42RT330h8b0LaaJM0NUp9Wq18b4w58WHp55NRtltT8VL52tG9xI10DXpDlPjuyvhTQqxAYHD1MDK1CnO1A6W07mGZLsOKB3YtPireP3agt9B96O1aqcWNcbSkQQbeHSw6vkd9Pae8Auv_ahA2DW5H9-48hHfwKLAQccU-3dw-qP0TeCQt6u5IMmdSGN39eQqQKXeiA0feX67BtWf-54boH9yebu0_JHuadqGE9IYRXZb13gl4i2FfCUBKv2vwHH08MTMXqWOZko2gzJwDqH_u9o8I3tEqU7mQVepGwsuojsMI2h-jsQJsTRDBJoHrbgggepCrdGfkS0_cN83IcAJ3yKpEPC-rmOYYoYhT9b2R1VnxKHrwmhCqGo2DjcJOtOJv8K-CNLxBpNA9owHqaEz38WQbKpiHH0li6P4F-EZn_mOWrzjKuJ1tYLV8kVO-ePjbUj2fnDXK5xECXemLE8aS6BBCEnRh4CGEcAowviRSCK8tVv2mQLckSqb5YeqZEgOqS6jNeZ0tTmh8SfB5vgtYNxf9FSrHxrq_oZEcPWUxQ4b7Nysvi5wfPta-1r89Aqs5WtrZMZ3dxyvNDbtwOJSVn36k96cIcjXkmLOtCgMvlpccuyaBXSfH58uJhURzXV9pYKKebmtpMCkhj7zwwQlpe9jK7NQL9-c7tQORnq5MvLGfiJseIOOLxLZ2iAsEt2TNV-wgKo2v8w2a2Tev1KwyD5W1uR3PdBZUsVz1KmhVbcbwvcbaKaDzLRIkauWy7_ZmYMwLnyl4-MWwrXqfYbU60zaaKFoNhAZ_A70sR3CL5ytE3_Glz1eKZiIRVUj2CkISCDKwUFGtDn9pGhKDO27LTrrXdput2u8QyJ-xJTtFOVrF1SyV0IJq0MMaszlTfMaVFEDiMp-vnTbrok3JdpLNfLmi5w-VhjaVpDkLSnN7ySQ4bNwak6VY2_jn0tS1FED0jOQI1OmLWa9_4Y_8_9Z3srP9-vksQ-cklZbAkt4uYRFzH2tRR7sa14lWs-1z3M9kt4jLmNLirkvNVS_8q0g6asrsQt2zMtkdelbFMepnJm-oRHZBrXkCkMRSVtP9Ti5le8r6IGmEijd7m2S7mRgwcp-P2MMb6IKhjaATtZeJXd_OvMPfwZGWSPGSV--ouGmjn_1fuE1gwyeBkGUWC3e5d6ORnUT0mL56hMgY9rA1Uc63KRiyz69JBjmsXfimOjHVh_bde_cS99kdmKFPN9ei9lCMOgbqOnw8NzZxgTm00?></g></svg>
