<?plantuml 1.2026.2?><svg xmlns="http://www.w3.org/2000/svg" xmlns:xlink="http://www.w3.org/1999/xlink" contentStyleType="text/css" data-diagram-type="DESCRIPTION" height="610px" preserveAspectRatio="none" style="width:492px;height:610px;background:#FFFFFF;" version="1.1" viewBox="0 0 492 610" width="492px" zoomAndPan="magnify"><title>archility Shell Script Flow</title><defs/><g><g class="title" data-source-line="1"><text fill="#000000" font-family="Monospace" font-size="14" font-weight="bold" lengthAdjust="spacing" textLength="172.7314" x="152.8026" y="24.9659">archility&#160;Shell&#160;Script&#160;Flow</text></g><!--entity shell_setup_sh--><g class="entity" data-qualified-name="shell_setup_sh" data-source-line="7" id="ent0002"><rect fill="#DBEAFE" height="39.0679" rx="2.5" ry="2.5" style="stroke:#181818;stroke-width:0.5;" width="324.8908" x="7" y="304.1638"/><text fill="#000000" font-family="Monospace" font-size="14" lengthAdjust="spacing" textLength="304.8908" x="17" y="329.1297">setup.sh\n0&#160;local&#160;shell&#160;edges\n7&#160;external&#160;tools</text></g><!--entity tool_cat--><g class="entity" data-qualified-name="tool_cat" data-source-line="8" id="ent0003"><path d="M419.7582,56.1779 C423.6419,46.0679 430.5092,46.4728 437.2721,53.1792 C444.7559,46.4868 449.1146,49.3464 452.7238,57.2742 C461.3392,60.427 461.8273,65.9192 456.5219,72.5362 C462.4694,78.6933 462.0912,86.5904 452.6411,89.1511 C450.3183,98.9668 443.0367,99.9661 435.6782,94.8855 C427.8632,100.9773 422.6119,98.2522 420.2027,89.3181 C409.4425,88.0685 408.0303,82.6224 412.6537,73.8602 C406.944,65.7894 408.4907,57.4274 419.7582,56.1779" fill="#FEF3C7" style="stroke:#181818;stroke-width:0.5;"/><text fill="#000000" font-family="Monospace" font-size="14" lengthAdjust="spacing" textLength="19.6279" x="425.84" y="77.1297">cat</text></g><!--entity tool_chmod--><g class="entity" data-qualified-name="tool_chmod" data-source-line="9" id="ent0004"><path d="M407.6023,139.7037 C411.848,132.7988 417.8893,133.1454 422.4588,139.3364 C426.7993,132.5969 431.6693,133.1814 436.3434,138.9667 C441.9984,132.0157 447.5401,131.6743 452.7119,139.5019 C458.2356,132.4121 463.3456,133.7418 467.5349,140.891 C477.3894,142.2605 479.8328,147.2277 476.2106,156.2231 C480.2246,164.9972 476.8223,173.3862 465.7944,172.5834 C462.8304,180.8578 457.2332,180.6598 451.5691,175.4272 C448.2686,182.6207 443.7226,185.4145 437.277,178.6468 C431.8225,186.1685 425.0075,186.1631 421.2451,177.019 C415.1248,183.0917 408.9766,181.6199 407.1293,172.9325 C399.3088,170.3214 398.3756,163.2218 403.836,157.7331 C397.58,151.613 398.8011,142.6784 407.6023,139.7037" fill="#FEF3C7" style="stroke:#181818;stroke-width:0.5;"/><text fill="#000000" font-family="Monospace" font-size="14" lengthAdjust="spacing" textLength="45.5418" x="412.88" y="161.1297">chmod</text></g><!--entity tool_curl--><g class="entity" data-qualified-name="tool_curl" data-source-line="10" id="ent0005"><path d="M416.8532,223.8511 C421.8153,214.2898 431.3639,213.5514 437.0762,223.0554 C444.004,215.1983 449.7974,215.2228 455.0554,224.7795 C465.611,225.4292 467.8617,232.0231 463.0455,240.4904 C467.8233,249.3199 464.4204,254.2845 455.4139,256.5731 C450.1499,266.7002 444.352,267.4018 436.5929,259.1247 C429.8421,266.8666 421.4094,267.6999 417.1421,256.5657 C408.1382,255.2578 405.4161,248.2997 411.659,241.4581 C404.339,234.227 408.1046,226.3419 416.8532,223.8511" fill="#FEF3C7" style="stroke:#181818;stroke-width:0.5;"/><text fill="#000000" font-family="Monospace" font-size="14" lengthAdjust="spacing" textLength="24.7659" x="423.27" y="245.1297">curl</text></g><!--entity tool_inkscape--><g class="entity" data-qualified-name="tool_inkscape" data-source-line="11" id="ent0006"><path d="M400.7523,309.0106 C402.8445,302.4358 407.6668,301.812 412.084,306.7153 C415.4745,299.7108 421.7339,298.9801 425.6168,306.2484 C429.2503,301.3017 433.6379,300.0789 437.6074,305.8733 C441.401,301.6398 445.1238,301.8637 447.66,307.1948 C452.5297,300.6974 456.5062,300.9176 460.4027,308.1013 C463.2293,302.2969 468.0756,302.8772 471.6553,307.2702 C482.1101,310.424 485.3366,316.4805 477.58,325.54 C483.9097,332.9147 482.4719,339.1284 472.4501,341.1186 C470.5466,347.424 466.6488,348.4267 461.3827,344.906 C458.6568,350.448 452.536,351.3906 448.7166,346.196 C446.6946,352.9029 442.2653,355.3116 436.2158,350.6085 C431.1361,355.4984 426.1053,353.4325 423.7776,347.4579 C419.0635,350.6598 415.0349,350.0997 413.8918,343.7586 C408.8793,349.8116 404.439,348.9468 401.2066,342.019 C391.8738,339.8385 388.9382,332.2625 395.5595,324.8381 C389.219,317.3375 392.3925,311.6882 400.7523,309.0106" fill="#FEF3C7" style="stroke:#181818;stroke-width:0.5;"/><text fill="#000000" font-family="Monospace" font-size="14" lengthAdjust="spacing" textLength="57.5258" x="406.89" y="329.1297">inkscape</text></g><!--entity tool_mkdir--><g class="entity" data-qualified-name="tool_mkdir" data-source-line="12" id="ent0007"><path d="M410.6813,391.7211 C414.5059,385.8851 419.8333,385.884 423.1587,392.2324 C426.6858,385.369 432.2526,385.6465 436.9847,390.852 C440.9226,384.819 445.1704,385.3431 449.4656,390.4517 C453.8127,385.1097 459.0654,384.6672 462.1707,391.7243 C474.7744,391.9439 477.3108,399.1332 472.9145,409.5811 C477.5029,418.3344 472.0085,424.7649 463.0993,424.8302 C460.1607,431.0936 456.2879,433.3471 450.4434,427.9969 C447.5957,434.6832 441.4046,436.3274 436.0839,430.9373 C430.6532,435.4552 426.7674,433.3034 424.695,427.3015 C419.0131,434.5236 412.6004,432.5456 409.5483,424.6642 C400.1984,422.6013 395.8233,418.1057 401.6815,408.5967 C396.2252,398.1624 400.4896,393.8103 410.6813,391.7211" fill="#FEF3C7" style="stroke:#181818;stroke-width:0.5;"/><text fill="#000000" font-family="Monospace" font-size="14" lengthAdjust="spacing" textLength="38.5699" x="416.37" y="413.1297">mkdir</text></g><!--entity tool_pip--><g class="entity" data-qualified-name="tool_pip" data-source-line="13" id="ent0008"><path d="M419.5312,475.2325 C423.8755,467.6046 431.3407,466.142 436.7951,473.9944 C444.2031,465.8806 450.3118,467.8281 454.6005,477.1753 C463.9719,478.4273 468.0319,483.32 463.197,492.527 C469.2878,502.2538 463.6144,508.6779 453.7261,509.4755 C450.8161,519.4511 445.1252,521.8184 436.7433,515.0133 C428.4273,522.1256 420.6126,518.2224 418.6246,508.2876 C410.812,504.0089 408.38,499.3867 415.8887,492.4598 C408.8208,485.2417 409.7057,478.8786 419.5312,475.2325" fill="#FEF3C7" style="stroke:#181818;stroke-width:0.5;"/><text fill="#000000" font-family="Monospace" font-size="14" lengthAdjust="spacing" textLength="20.8319" x="425.24" y="497.1297">pip</text></g><!--entity tool_venv--><g class="entity" data-qualified-name="tool_venv" data-source-line="14" id="ent0009"><path d="M414.5992,560.1605 C417.2672,555.765 421.7754,554.6269 424.9282,559.6275 C428.1479,552.6671 432.0879,551.753 437.6409,557.2457 C440.7712,552.4963 446.0036,553.6634 448.2667,558.2344 C452.6364,554.2841 456.4854,554.967 458.8138,560.5038 C468.7313,563.2746 468.6265,569.6511 463.1292,576.5639 C469.9485,584.4428 467.1081,589.6423 458.5685,593.3476 C456.4196,599.4853 452.8729,601.3026 447.3219,597.0193 C445.5494,601.8885 440.7665,603.9333 436.8155,599.4725 C430.9266,603.0287 426.947,602.3145 424.5777,595.3705 C420.6525,599.9189 415.5246,598.1089 413.9688,592.8162 C404.254,590.6946 401.6677,582.9564 409.018,575.854 C403.2733,568.9269 405.7303,561.8905 414.5992,560.1605" fill="#FEF3C7" style="stroke:#181818;stroke-width:0.5;"/><text fill="#000000" font-family="Monospace" font-size="14" lengthAdjust="spacing" textLength="30.7719" x="420.27" y="581.1297">venv</text></g><g class="entity" data-qualified-name="shellGraphSummary" data-source-line="23" id="ent0017"><path d="M72.53,206.1438 L72.53,269.2618 L266.3651,269.2618 L266.3651,216.1438 L256.3651,206.1438 L72.53,206.1438" fill="#FEFFDD" style="stroke:#181818;stroke-width:0.5;"/><path d="M256.3651,206.1438 L256.3651,216.1438 L266.3651,216.1438 L256.3651,206.1438" fill="#FEFFDD" style="stroke:#181818;stroke-width:1;"/><text fill="#000000" font-family="Monospace" font-size="13" lengthAdjust="spacing" textLength="135.3041" x="78.53" y="225.0408">Scanned&#160;1&#160;shell&#160;script.</text><text fill="#000000" font-family="Monospace" font-size="13" lengthAdjust="spacing" textLength="172.8351" x="78.53" y="242.7468">Detected&#160;0&#160;local&#160;shell&#160;edges.</text><text fill="#000000" font-family="Monospace" font-size="13" lengthAdjust="spacing" textLength="156.4551" x="78.53" y="260.4528">Detected&#160;7&#160;external&#160;tools.</text></g><!--link shell_setup_sh to tool_cat--><g class="link" data-entity-1="ent0002" data-entity-2="ent0003" data-link-type="dependency" data-source-line="15" id="lnk10"><path d="M282.42,303.9238 C282.42,244.5238 282.42,71.7038 282.42,71.7038 C282.42,71.7038 360.83,71.7038 404.35,71.7038" fill="none" id="shell_setup_sh-to-tool_cat" style="stroke:#181818;stroke-width:1;"/><polygon fill="#181818" points="410.35,71.7038,401.35,67.7038,405.35,71.7038,401.35,75.7038,410.35,71.7038" style="stroke:#181818;stroke-width:1;"/></g><!--link shell_setup_sh to tool_chmod--><g class="link" data-entity-1="ent0002" data-entity-2="ent0004" data-link-type="dependency" data-source-line="16" id="lnk11"><path d="M299.42,303.7638 C299.42,259.2638 299.42,155.7038 299.42,155.7038 C299.42,155.7038 351.39,155.7038 391.7,155.7038" fill="none" id="shell_setup_sh-to-tool_chmod" style="stroke:#181818;stroke-width:1;"/><polygon fill="#181818" points="397.7,155.7038,388.7,151.7038,392.7,155.7038,388.7,159.7038,397.7,155.7038" style="stroke:#181818;stroke-width:1;"/></g><!--link shell_setup_sh to tool_curl--><g class="link" data-entity-1="ent0002" data-entity-2="ent0005" data-link-type="dependency" data-source-line="17" id="lnk12"><path d="M315.42,303.7938 C315.42,278.9538 315.42,239.7038 315.42,239.7038 C315.42,239.7038 366.57,239.7038 402.07,239.7038" fill="none" id="shell_setup_sh-to-tool_curl" style="stroke:#181818;stroke-width:1;"/><polygon fill="#181818" points="408.07,239.7038,399.07,235.7038,403.07,239.7038,399.07,243.7038,408.07,239.7038" style="stroke:#181818;stroke-width:1;"/></g><!--link shell_setup_sh to tool_inkscape--><g class="link" data-entity-1="ent0002" data-entity-2="ent0006" data-link-type="dependency" data-source-line="18" id="lnk13"><path d="M332.35,323.7038 C354.05,323.7038 368.63,323.7038 385.63,323.7038" fill="none" id="shell_setup_sh-to-tool_inkscape" style="stroke:#181818;stroke-width:1;"/><polygon fill="#181818" points="391.63,323.7038,382.63,319.7038,386.63,323.7038,382.63,327.7038,391.63,323.7038" style="stroke:#181818;stroke-width:1;"/></g><!--link shell_setup_sh to tool_mkdir--><g class="link" data-entity-1="ent0002" data-entity-2="ent0007" data-link-type="dependency" data-source-line="19" id="lnk14"><path d="M250.42,343.6038 C250.42,368.4438 250.42,407.7038 250.42,407.7038 C250.42,407.7038 341.68,407.7038 395.25,407.7038" fill="none" id="shell_setup_sh-to-tool_mkdir" style="stroke:#181818;stroke-width:1;"/><polygon fill="#181818" points="401.25,407.7038,392.25,403.7038,396.25,407.7038,392.25,411.7038,401.25,407.7038" style="stroke:#181818;stroke-width:1;"/></g><!--link shell_setup_sh to tool_pip--><g class="link" data-entity-1="ent0002" data-entity-2="ent0008" data-link-type="dependency" data-source-line="20" id="lnk15"><path d="M169.42,343.6338 C169.42,388.1338 169.42,491.7038 169.42,491.7038 C169.42,491.7038 337.49,491.7038 404.13,491.7038" fill="none" id="shell_setup_sh-to-tool_pip" style="stroke:#181818;stroke-width:1;"/><polygon fill="#181818" points="410.13,491.7038,401.13,487.7038,405.13,491.7038,401.13,495.7038,410.13,491.7038" style="stroke:#181818;stroke-width:1;"/></g><!--link shell_setup_sh to tool_venv--><g class="link" data-entity-1="ent0002" data-entity-2="ent0009" data-link-type="dependency" data-source-line="21" id="lnk16"><path d="M88.42,343.4738 C88.42,402.8838 88.42,575.7038 88.42,575.7038 C88.42,575.7038 313.86,575.7038 398.84,575.7038" fill="none" id="shell_setup_sh-to-tool_venv" style="stroke:#181818;stroke-width:1;"/><polygon fill="#181818" points="404.84,575.7038,395.84,571.7038,399.84,575.7038,395.84,579.7038,404.84,575.7038" style="stroke:#181818;stroke-width:1;"/></g><?plantuml-src TPAnReCm48PtdkAKp8bQTSXMgMr2ftPXZHHPveAjc3lBFfBozZMq0KJB-FlxiFsR4oiEGGLjhBFIGc7GEIXqi5uWTtpB79u5X27OoWYKDg0MovJ5YoMlWgeX6bNopL85P-KYJaY9PzKuoPdaKzK87qmSlT9JHtFjcP2aa3PTfTjUKUMcYhE4qde43c8u6nHOHPJ6RwCv7ka176lbqcsw1bXM6DFg3l1BC502mkpY2bJyKKxzjwTeOBr_FRpaXqmxRafOQIMzrVcd562T7_Adjzt0JStbnEZY7wS9RgAaD3SiNQ9M7aVhlZ8twqjwz57huzpnrez62dD-HRgEGfS6O_OOcytpq7oPTPsNQQgx2Eyj5uM-to9DtHPPLoiZ5Xp-yNjGtXHDNQlGPeLMH5Z2u--8n7x8jzaU9GrK0lzCq8JE9scR8PNG7VSD?></g></svg>