<?plantuml 1.2026.2?><svg xmlns="http://www.w3.org/2000/svg" xmlns:xlink="http://www.w3.org/1999/xlink" contentStyleType="text/css" data-diagram-type="DESCRIPTION" height="610px" preserveAspectRatio="none" style="width:360px;height:610px;background:#FFFFFF;" version="1.1" viewBox="0 0 360 610" width="360px" zoomAndPan="magnify"><title>archility Shell Script Flow</title><defs/><g><g class="title" data-source-line="1"><text fill="#000000" font-family="Monospace" font-size="14" font-weight="bold" lengthAdjust="spacing" textLength="172.7314" x="86.7776" y="24.9659">archility&#160;Shell&#160;Script&#160;Flow</text></g><!--entity shell_setup_sh--><g class="entity" data-qualified-name="shell_setup_sh" data-source-line="7" id="ent0002"><rect fill="#DBEAFE" height="77.2038" rx="2.5" ry="2.5" style="stroke:#181818;stroke-width:0.5;" width="139.3915" x="33.22" y="285.0938"/><text fill="#000000" font-family="Monospace" font-size="14" lengthAdjust="spacing" textLength="56.0278" x="43.22" y="310.0597">setup.sh</text><text fill="#000000" font-family="Monospace" font-size="14" lengthAdjust="spacing" textLength="119.3915" x="43.22" y="329.1277">0&#160;local&#160;shell&#160;edges</text><text fill="#000000" font-family="Monospace" font-size="14" lengthAdjust="spacing" textLength="101.7516" x="43.22" y="348.1956">7&#160;external&#160;tools</text></g><!--entity tool_cat--><g class="entity" data-qualified-name="tool_cat" data-source-line="8" id="ent0003"><path d="M287.6982,56.1779 C291.5819,46.0679 298.4492,46.4728 305.2121,53.1792 C312.6959,46.4868 317.0546,49.3464 320.6638,57.2742 C329.2792,60.427 329.7673,65.9192 324.4619,72.5362 C330.4094,78.6933 330.0312,86.5904 320.5811,89.1511 C318.2583,98.9668 310.9767,99.9661 303.6182,94.8855 C295.8032,100.9773 290.5519,98.2522 288.1427,89.3181 C277.3825,88.0685 275.9703,82.6224 280.5937,73.8602 C274.884,65.7894 276.4307,57.4274 287.6982,56.1779" fill="#FEF3C7" style="stroke:#181818;stroke-width:0.5;"/><text fill="#000000" font-family="Monospace" font-size="14" lengthAdjust="spacing" textLength="19.6279" x="293.78" y="77.1297">cat</text></g><!--entity tool_chmod--><g class="entity" data-qualified-name="tool_chmod" data-source-line="9" id="ent0004"><path d="M275.5523,139.7037 C279.798,132.7988 285.8393,133.1454 290.4088,139.3364 C294.7493,132.5969 299.6193,133.1814 304.2934,138.9667 C309.9484,132.0157 315.4901,131.6743 320.6619,139.5019 C326.1856,132.4121 331.2956,133.7418 335.4849,140.891 C345.3394,142.2605 347.7828,147.2277 344.1606,156.2231 C348.1746,164.9972 344.7723,173.3862 333.7444,172.5834 C330.7804,180.8578 325.1832,180.6598 319.5191,175.4272 C316.2186,182.6207 311.6726,185.4145 305.227,178.6468 C299.7725,186.1685 292.9575,186.1631 289.1951,177.019 C283.0748,183.0917 276.9266,181.6199 275.0793,172.9325 C267.2588,170.3214 266.3256,163.2218 271.786,157.7331 C265.53,151.613 266.7511,142.6784 275.5523,139.7037" fill="#FEF3C7" style="stroke:#181818;stroke-width:0.5;"/><text fill="#000000" font-family="Monospace" font-size="14" lengthAdjust="spacing" textLength="45.5418" x="280.83" y="161.1297">chmod</text></g><!--entity tool_curl--><g class="entity" data-qualified-name="tool_curl" data-source-line="10" id="ent0005"><path d="M284.8032,223.8511 C289.7653,214.2898 299.3139,213.5514 305.0262,223.0554 C311.954,215.1983 317.7474,215.2228 323.0054,224.7795 C333.561,225.4292 335.8117,232.0231 330.9955,240.4904 C335.7733,249.3199 332.3704,254.2845 323.3639,256.5731 C318.0999,266.7002 312.302,267.4018 304.5429,259.1247 C297.7921,266.8666 289.3594,267.6999 285.0921,256.5657 C276.0882,255.2578 273.3661,248.2997 279.609,241.4581 C272.289,234.227 276.0546,226.3419 284.8032,223.8511" fill="#FEF3C7" style="stroke:#181818;stroke-width:0.5;"/><text fill="#000000" font-family="Monospace" font-size="14" lengthAdjust="spacing" textLength="24.7659" x="291.22" y="245.1297">curl</text></g><!--entity tool_inkscape--><g class="entity" data-qualified-name="tool_inkscape" data-source-line="11" id="ent0006"><path d="M268.7023,309.0106 C270.7945,302.4358 275.6168,301.812 280.034,306.7153 C283.4245,299.7108 289.6839,298.9801 293.5668,306.2484 C297.2003,301.3017 301.5879,300.0789 305.5574,305.8733 C309.351,301.6398 313.0738,301.8637 315.61,307.1948 C320.4797,300.6974 324.4562,300.9176 328.3527,308.1013 C331.1793,302.2969 336.0256,302.8772 339.6053,307.2702 C350.0601,310.424 353.2866,316.4805 345.53,325.54 C351.8597,332.9147 350.4219,339.1284 340.4001,341.1186 C338.4966,347.424 334.5988,348.4267 329.3327,344.906 C326.6068,350.448 320.486,351.3906 316.6666,346.196 C314.6446,352.9029 310.2153,355.3116 304.1658,350.6085 C299.0861,355.4984 294.0553,353.4325 291.7276,347.4579 C287.0135,350.6598 282.9849,350.0997 281.8418,343.7586 C276.8293,349.8116 272.389,348.9468 269.1566,342.019 C259.8238,339.8385 256.8882,332.2625 263.5095,324.8381 C257.169,317.3375 260.3425,311.6882 268.7023,309.0106" fill="#FEF3C7" style="stroke:#181818;stroke-width:0.5;"/><text fill="#000000" font-family="Monospace" font-size="14" lengthAdjust="spacing" textLength="57.5258" x="274.84" y="329.1297">inkscape</text></g><!--entity tool_mkdir--><g class="entity" data-qualified-name="tool_mkdir" data-source-line="12" id="ent0007"><path d="M278.6213,391.7211 C282.4459,385.8851 287.7733,385.884 291.0987,392.2324 C294.6258,385.369 300.1926,385.6465 304.9247,390.852 C308.8626,384.819 313.1104,385.3431 317.4056,390.4517 C321.7527,385.1097 327.0054,384.6672 330.1107,391.7243 C342.7144,391.9439 345.2508,399.1332 340.8545,409.5811 C345.4429,418.3344 339.9485,424.7649 331.0393,424.8302 C328.1007,431.0936 324.2279,433.3471 318.3834,427.9969 C315.5357,434.6832 309.3446,436.3274 304.0239,430.9373 C298.5932,435.4552 294.7074,433.3034 292.635,427.3015 C286.9531,434.5236 280.5404,432.5456 277.4883,424.6642 C268.1384,422.6013 263.7633,418.1057 269.6215,408.5967 C264.1652,398.1624 268.4296,393.8103 278.6213,391.7211" fill="#FEF3C7" style="stroke:#181818;stroke-width:0.5;"/><text fill="#000000" font-family="Monospace" font-size="14" lengthAdjust="spacing" textLength="38.5699" x="284.31" y="413.1297">mkdir</text></g><!--entity tool_pip--><g class="entity" data-qualified-name="tool_pip" data-source-line="13" id="ent0008"><path d="M287.4712,475.2325 C291.8155,467.6046 299.2807,466.142 304.7351,473.9944 C312.1431,465.8806 318.2518,467.8281 322.5405,477.1753 C331.9119,478.4273 335.9719,483.32 331.137,492.527 C337.2278,502.2538 331.5544,508.6779 321.6661,509.4755 C318.7561,519.4511 313.0652,521.8184 304.6833,515.0133 C296.3673,522.1256 288.5526,518.2224 286.5646,508.2876 C278.752,504.0089 276.32,499.3867 283.8287,492.4598 C276.7608,485.2417 277.6457,478.8786 287.4712,475.2325" fill="#FEF3C7" style="stroke:#181818;stroke-width:0.5;"/><text fill="#000000" font-family="Monospace" font-size="14" lengthAdjust="spacing" textLength="20.8319" x="293.18" y="497.1297">pip</text></g><!--entity tool_venv--><g class="entity" data-qualified-name="tool_venv" data-source-line="14" id="ent0009"><path d="M282.5392,560.1605 C285.2072,555.765 289.7154,554.6269 292.8682,559.6275 C296.0879,552.6671 300.0279,551.753 305.5809,557.2457 C308.7112,552.4963 313.9436,553.6634 316.2067,558.2344 C320.5764,554.2841 324.4254,554.967 326.7538,560.5038 C336.6713,563.2746 336.5665,569.6511 331.0692,576.5639 C337.8885,584.4428 335.0481,589.6423 326.5085,593.3476 C324.3596,599.4853 320.8129,601.3026 315.2619,597.0193 C313.4894,601.8885 308.7065,603.9333 304.7555,599.4725 C298.8666,603.0287 294.887,602.3145 292.5177,595.3705 C288.5925,599.9189 283.4646,598.1089 281.9088,592.8162 C272.194,590.6946 269.6077,582.9564 276.958,575.854 C271.2133,568.9269 273.6703,561.8905 282.5392,560.1605" fill="#FEF3C7" style="stroke:#181818;stroke-width:0.5;"/><text fill="#000000" font-family="Monospace" font-size="14" lengthAdjust="spacing" textLength="30.7719" x="288.21" y="581.1297">venv</text></g><g class="entity" data-qualified-name="shellGraphSummary" data-source-line="23" id="ent0017"><path d="M6,187.1438 L6,250.2618 L199.8351,250.2618 L199.8351,197.1438 L189.8351,187.1438 L6,187.1438" fill="#FEFFDD" style="stroke:#181818;stroke-width:0.5;"/><path d="M189.8351,187.1438 L189.8351,197.1438 L199.8351,197.1438 L189.8351,187.1438" fill="#FEFFDD" style="stroke:#181818;stroke-width:1;"/><text fill="#000000" font-family="Monospace" font-size="13" lengthAdjust="spacing" textLength="135.3041" x="12" y="206.0408">Scanned&#160;1&#160;shell&#160;script.</text><text fill="#000000" font-family="Monospace" font-size="13" lengthAdjust="spacing" textLength="172.8351" x="12" y="223.7468">Detected&#160;0&#160;local&#160;shell&#160;edges.</text><text fill="#000000" font-family="Monospace" font-size="13" lengthAdjust="spacing" textLength="156.4551" x="12" y="241.4528">Detected&#160;7&#160;external&#160;tools.</text></g><!--link shell_setup_sh to tool_cat--><g class="link" data-entity-1="ent0002" data-entity-2="ent0003" data-link-type="dependency" data-source-line="15" id="lnk10"><path d="M172.8,288.6138 C202.04,288.6138 229.36,288.6138 229.36,288.6138 C229.36,288.6138 229.36,71.7038 229.36,71.7038 C229.36,71.7038 250.93,71.7038 272.46,71.7038" fill="none" id="shell_setup_sh-to-tool_cat" style="stroke:#181818;stroke-width:1;"/><polygon fill="#181818" points="278.46,71.7038,269.46,67.7038,273.46,71.7038,269.46,75.7038,278.46,71.7038" style="stroke:#181818;stroke-width:1;"/></g><!--link shell_setup_sh to tool_chmod--><g class="link" data-entity-1="ent0002" data-entity-2="ent0004" data-link-type="dependency" data-source-line="16" id="lnk11"><path d="M172.89,292.1338 C219.17,292.1338 271.36,292.1338 271.36,292.1338 C271.36,292.1338 271.36,226.1138 271.36,186.7238" fill="none" id="shell_setup_sh-to-tool_chmod" style="stroke:#181818;stroke-width:1;"/><polygon fill="#181818" points="271.36,180.7238,267.36,189.7238,271.36,185.7238,275.36,189.7238,271.36,180.7238" style="stroke:#181818;stroke-width:1;"/></g><!--link shell_setup_sh to tool_curl--><g class="link" data-entity-1="ent0002" data-entity-2="ent0005" data-link-type="dependency" data-source-line="17" id="lnk12"><path d="M173.02,295.6538 C230.83,295.6538 303.36,295.6538 303.36,295.6538 C303.36,295.6538 303.36,285.6238 303.36,270.7238" fill="none" id="shell_setup_sh-to-tool_curl" style="stroke:#181818;stroke-width:1;"/><polygon fill="#181818" points="303.36,264.7238,299.36,273.7238,303.36,269.7238,307.36,273.7238,303.36,264.7238" style="stroke:#181818;stroke-width:1;"/></g><!--link shell_setup_sh to tool_inkscape--><g class="link" data-entity-1="ent0002" data-entity-2="ent0006" data-link-type="dependency" data-source-line="18" id="lnk13"><path d="M173.11,323.7038 C201.82,323.7038 228.15,323.7038 253.46,323.7038" fill="none" id="shell_setup_sh-to-tool_inkscape" style="stroke:#181818;stroke-width:1;"/><polygon fill="#181818" points="259.46,323.7038,250.46,319.7038,254.46,323.7038,250.46,327.7038,259.46,323.7038" style="stroke:#181818;stroke-width:1;"/></g><!--link shell_setup_sh to tool_mkdir--><g class="link" data-entity-1="ent0002" data-entity-2="ent0007" data-link-type="dependency" data-source-line="19" id="lnk14"><path d="M173.02,355.2638 C230.83,355.2638 303.36,355.2638 303.36,355.2638 C303.36,355.2638 303.36,363.2038 303.36,376.7138" fill="none" id="shell_setup_sh-to-tool_mkdir" style="stroke:#181818;stroke-width:1;"/><polygon fill="#181818" points="303.36,382.7138,307.36,373.7138,303.36,377.7138,299.36,373.7138,303.36,382.7138" style="stroke:#181818;stroke-width:1;"/></g><!--link shell_setup_sh to tool_pip--><g class="link" data-entity-1="ent0002" data-entity-2="ent0008" data-link-type="dependency" data-source-line="20" id="lnk15"><path d="M126.36,362.6638 C126.36,412.2938 126.36,491.7038 126.36,491.7038 C126.36,491.7038 222.67,491.7038 271.83,491.7038" fill="none" id="shell_setup_sh-to-tool_pip" style="stroke:#181818;stroke-width:1;"/><polygon fill="#181818" points="277.83,491.7038,268.83,487.7038,272.83,491.7038,268.83,495.7038,277.83,491.7038" style="stroke:#181818;stroke-width:1;"/></g><!--link shell_setup_sh to tool_venv--><g class="link" data-entity-1="ent0002" data-entity-2="ent0009" data-link-type="dependency" data-source-line="21" id="lnk16"><path d="M79.36,362.7938 C79.36,433.5838 79.36,575.7038 79.36,575.7038 C79.36,575.7038 205.48,575.7038 266.89,575.7038" fill="none" id="shell_setup_sh-to-tool_venv" style="stroke:#181818;stroke-width:1;"/><polygon fill="#181818" points="272.89,575.7038,263.89,571.7038,267.89,575.7038,263.89,579.7038,272.89,575.7038" style="stroke:#181818;stroke-width:1;"/></g><?plantuml-src TPAnReCm48PtdkAKp8bQTSXMgMr2ftPXZHHPveAjc3lBFfBozZMq0KJB-FlxiFsR4oiEGGLjhBFIGc7GEIXqi5uWTtpB79u5X27OoWYKDg0MovJ5YoMlWgeX6bNopL85P-KYJaY9PzKuoPdaKzK87qmSlT9JHtFjcP2aa3PTfTjUKUMcYhE4qde43c8u6nHOHPJ6RwCvqWCurigbotG5iAmm7ca7-2KOAAqBiuihKF77EFLVdgA1zVxry98VCksuAM6bbVHMvvzIW7L-o9_UTWCtDPSJeuj_d2QuYPBItB1qYLfv7AtxojoiB-d9HwsFSyTRFnefpFaLwJeANHgCsMDiDiz3ysNMTLwcgUuYlBTS5Ff-YpHrMsHThOnOSFZ7xq5vKpHrhKAR5LeHOGcFlnCI-n7VPdkKD4u9_3D04pgVf6s6L49tt3S0?></g></svg>
