<?plantuml 1.2026.2?><svg xmlns="http://www.w3.org/2000/svg" xmlns:xlink="http://www.w3.org/1999/xlink" contentStyleType="text/css" data-diagram-type="DESCRIPTION" height="859px" preserveAspectRatio="none" style="width:428px;height:859px;background:#FFFFFF;" version="1.1" viewBox="0 0 428 859" width="428px" zoomAndPan="magnify"><title>archility Shell Script Flow</title><defs/><g><g class="title" data-source-line="1"><text fill="#000000" font-family="Monospace" font-size="14" font-weight="bold" lengthAdjust="spacing" textLength="172.7314" x="120.8513" y="24.9659">archility&#160;Shell&#160;Script&#160;Flow</text></g><!--entity shell_scripts_run_tachometer_profile_sh--><g class="entity" data-qualified-name="shell_scripts_run_tachometer_profile_sh" data-source-line="7" id="ent0002"><rect fill="#DBEAFE" height="77.2038" rx="2.5" ry="2.5" style="stroke:#181818;stroke-width:0.5;" width="242.2912" x="7" y="705.0938"/><text fill="#000000" font-family="Monospace" font-size="14" lengthAdjust="spacing" textLength="222.2912" x="17" y="730.0597">scripts/run_tachometer_profile.sh</text><text fill="#000000" font-family="Monospace" font-size="14" lengthAdjust="spacing" textLength="119.3915" x="17" y="749.1277">0&#160;local&#160;shell&#160;edges</text><text fill="#000000" font-family="Monospace" font-size="14" lengthAdjust="spacing" textLength="101.7516" x="17" y="768.1956">3&#160;external&#160;tools</text></g><!--entity shell_setup_sh--><g class="entity" data-qualified-name="shell_setup_sh" data-source-line="8" id="ent0003"><rect fill="#DBEAFE" height="77.2038" rx="2.5" ry="2.5" style="stroke:#181818;stroke-width:0.5;" width="139.3915" x="58.45" y="285.0938"/><text fill="#000000" font-family="Monospace" font-size="14" lengthAdjust="spacing" textLength="56.0278" x="68.45" y="310.0597">setup.sh</text><text fill="#000000" font-family="Monospace" font-size="14" lengthAdjust="spacing" textLength="119.3915" x="68.45" y="329.1277">0&#160;local&#160;shell&#160;edges</text><text fill="#000000" font-family="Monospace" font-size="14" lengthAdjust="spacing" textLength="101.7516" x="68.45" y="348.1956">7&#160;external&#160;tools</text></g><!--entity tool_cat--><g class="entity" data-qualified-name="tool_cat" data-source-line="9" id="ent0004"><path d="M346.6282,56.1779 C350.5119,46.0679 357.3792,46.4728 364.1421,53.1792 C371.6259,46.4868 375.9846,49.3464 379.5938,57.2742 C388.2092,60.427 388.6973,65.9192 383.3919,72.5362 C389.3394,78.6933 388.9612,86.5904 379.5111,89.1511 C377.1883,98.9668 369.9067,99.9661 362.5482,94.8855 C354.7332,100.9773 349.4819,98.2522 347.0727,89.3181 C336.3125,88.0685 334.9003,82.6224 339.5237,73.8602 C333.814,65.7894 335.3607,57.4274 346.6282,56.1779" fill="#FEF3C7" style="stroke:#181818;stroke-width:0.5;"/><text fill="#000000" font-family="Monospace" font-size="14" lengthAdjust="spacing" textLength="19.6279" x="352.71" y="77.1297">cat</text></g><!--entity tool_chmod--><g class="entity" data-qualified-name="tool_chmod" data-source-line="10" id="ent0005"><path d="M334.4723,139.7037 C338.718,132.7988 344.7593,133.1454 349.3288,139.3364 C353.6693,132.5969 358.5393,133.1814 363.2134,138.9667 C368.8684,132.0157 374.4101,131.6743 379.5819,139.5019 C385.1056,132.4121 390.2156,133.7418 394.4049,140.891 C404.2594,142.2605 406.7028,147.2277 403.0806,156.2231 C407.0946,164.9972 403.6923,173.3862 392.6644,172.5834 C389.7004,180.8578 384.1032,180.6598 378.4391,175.4272 C375.1386,182.6207 370.5926,185.4145 364.147,178.6468 C358.6925,186.1685 351.8775,186.1631 348.1151,177.019 C341.9948,183.0917 335.8466,181.6199 333.9993,172.9325 C326.1788,170.3214 325.2456,163.2218 330.706,157.7331 C324.45,151.613 325.6711,142.6784 334.4723,139.7037" fill="#FEF3C7" style="stroke:#181818;stroke-width:0.5;"/><text fill="#000000" font-family="Monospace" font-size="14" lengthAdjust="spacing" textLength="45.5418" x="339.75" y="161.1297">chmod</text></g><!--entity tool_curl--><g class="entity" data-qualified-name="tool_curl" data-source-line="11" id="ent0006"><path d="M343.7232,223.8511 C348.6853,214.2898 358.2339,213.5514 363.9462,223.0554 C370.874,215.1983 376.6674,215.2228 381.9254,224.7795 C392.481,225.4292 394.7317,232.0231 389.9155,240.4904 C394.6933,249.3199 391.2904,254.2845 382.2839,256.5731 C377.0199,266.7002 371.222,267.4018 363.4629,259.1247 C356.7121,266.8666 348.2794,267.6999 344.0121,256.5657 C335.0082,255.2578 332.2861,248.2997 338.529,241.4581 C331.209,234.227 334.9746,226.3419 343.7232,223.8511" fill="#FEF3C7" style="stroke:#181818;stroke-width:0.5;"/><text fill="#000000" font-family="Monospace" font-size="14" lengthAdjust="spacing" textLength="24.7659" x="350.14" y="245.1297">curl</text></g><!--entity tool_inkscape--><g class="entity" data-qualified-name="tool_inkscape" data-source-line="12" id="ent0007"><path d="M327.6223,309.0106 C329.7145,302.4358 334.5368,301.812 338.954,306.7153 C342.3445,299.7108 348.6039,298.9801 352.4868,306.2484 C356.1203,301.3017 360.5079,300.0789 364.4774,305.8733 C368.271,301.6398 371.9938,301.8637 374.53,307.1948 C379.3997,300.6974 383.3762,300.9176 387.2727,308.1013 C390.0993,302.2969 394.9456,302.8772 398.5253,307.2702 C408.9801,310.424 412.2066,316.4805 404.45,325.54 C410.7797,332.9147 409.3419,339.1284 399.3201,341.1186 C397.4166,347.424 393.5188,348.4267 388.2527,344.906 C385.5268,350.448 379.406,351.3906 375.5866,346.196 C373.5646,352.9029 369.1353,355.3116 363.0858,350.6085 C358.0061,355.4984 352.9753,353.4325 350.6476,347.4579 C345.9335,350.6598 341.9049,350.0997 340.7618,343.7586 C335.7493,349.8116 331.309,348.9468 328.0766,342.019 C318.7438,339.8385 315.8082,332.2625 322.4295,324.8381 C316.089,317.3375 319.2625,311.6882 327.6223,309.0106" fill="#FEF3C7" style="stroke:#181818;stroke-width:0.5;"/><text fill="#000000" font-family="Monospace" font-size="14" lengthAdjust="spacing" textLength="57.5258" x="333.76" y="329.1297">inkscape</text></g><!--entity tool_mkdir--><g class="entity" data-qualified-name="tool_mkdir" data-source-line="13" id="ent0008"><path d="M337.5513,391.7211 C341.3759,385.8851 346.7033,385.884 350.0287,392.2324 C353.5558,385.369 359.1226,385.6465 363.8547,390.852 C367.7926,384.819 372.0404,385.3431 376.3356,390.4517 C380.6827,385.1097 385.9354,384.6672 389.0407,391.7243 C401.6444,391.9439 404.1808,399.1332 399.7845,409.5811 C404.3729,418.3344 398.8785,424.7649 389.9693,424.8302 C387.0307,431.0936 383.1579,433.3471 377.3134,427.9969 C374.4657,434.6832 368.2746,436.3274 362.9539,430.9373 C357.5232,435.4552 353.6374,433.3034 351.565,427.3015 C345.8831,434.5236 339.4704,432.5456 336.4183,424.6642 C327.0684,422.6013 322.6933,418.1057 328.5515,408.5967 C323.0952,398.1624 327.3596,393.8103 337.5513,391.7211" fill="#FEF3C7" style="stroke:#181818;stroke-width:0.5;"/><text fill="#000000" font-family="Monospace" font-size="14" lengthAdjust="spacing" textLength="38.5699" x="343.24" y="413.1297">mkdir</text></g><!--entity tool_pip--><g class="entity" data-qualified-name="tool_pip" data-source-line="14" id="ent0009"><path d="M346.4012,475.2325 C350.7455,467.6046 358.2107,466.142 363.6651,473.9944 C371.0731,465.8806 377.1818,467.8281 381.4705,477.1753 C390.8419,478.4273 394.9019,483.32 390.067,492.527 C396.1578,502.2538 390.4844,508.6779 380.5961,509.4755 C377.6861,519.4511 371.9952,521.8184 363.6133,515.0133 C355.2973,522.1256 347.4826,518.2224 345.4946,508.2876 C337.682,504.0089 335.25,499.3867 342.7587,492.4598 C335.6908,485.2417 336.5757,478.8786 346.4012,475.2325" fill="#FEF3C7" style="stroke:#181818;stroke-width:0.5;"/><text fill="#000000" font-family="Monospace" font-size="14" lengthAdjust="spacing" textLength="20.8319" x="352.11" y="497.1297">pip</text></g><!--entity tool_run--><g class="entity" data-qualified-name="tool_run" data-source-line="15" id="ent0010"><path d="M344.1902,644.7965 C349.0618,635.6552 357.3648,634.0555 364.4251,642.2402 C370.2887,634.4763 378.6135,636.2142 382.0127,644.8784 C391.6023,645.5872 397.2916,650.3403 391.8044,660.4995 C397.0385,669.9461 393.5365,675.3659 383.163,676.2487 C382.9246,688.9734 376.5931,693.968 364.5997,687.7968 C353.693,692.8295 346.5306,691.3435 345.8302,677.5961 C336.1693,676.7614 332.3811,668.6699 337.7339,660.6585 C332.6785,652.5316 335.0947,647.1636 344.1902,644.7965" fill="#FEF3C7" style="stroke:#181818;stroke-width:0.5;"/><text fill="#000000" font-family="Monospace" font-size="14" lengthAdjust="spacing" textLength="23.0859" x="350.98" y="665.1297">run</text></g><!--entity tool_summarize--><g class="entity" data-qualified-name="tool_summarize" data-source-line="16" id="ent0011"><path d="M320.0562,727.634 C325.2505,720.0139 330.4879,721.5875 334.9154,728.4222 C338.5319,721.2711 344.2394,721.5054 348.3202,727.9648 C353.1542,720.5013 357.9209,719.2313 364.1259,726.4932 C368.1867,719.1256 375.2865,719.3915 378.9106,726.9265 C383.4951,720.0672 390.3865,720.3443 393.6024,728.2852 C397.2389,722.4706 403.939,721.9082 407.1017,728.789 C416.4694,728.8596 420.5794,736.6765 415.4893,744.4771 C421.4339,753.0902 417.7613,759.0927 408.1664,760.6848 C404.3844,768.5364 396.7945,768.4443 391.8762,761.9777 C388.5699,770.0948 383.2883,769.5858 378.0295,763.9424 C375.2374,771.3233 368.3539,770.8104 364.2946,765.2918 C359.4656,770.8685 354.4955,771.8477 350.1581,764.7438 C344.6002,770.4117 338.2788,769.7205 335.1819,761.9924 C330.992,769.7122 324.5019,769.7523 320.6276,761.7011 C310.0676,760.8458 308.1351,751.5435 313.5771,744.2303 C308.2633,737.0465 309.3292,728.5557 320.0562,727.634" fill="#FEF3C7" style="stroke:#181818;stroke-width:0.5;"/><text fill="#000000" font-family="Monospace" font-size="14" lengthAdjust="spacing" textLength="73.2617" x="325.89" y="749.1297">summarize</text></g><!--entity tool_tachometer--><g class="entity" data-qualified-name="tool_tachometer" data-source-line="17" id="ent0012"><path d="M318.8672,811.6166 C321.6407,806.5433 326.196,806.9034 328.9274,811.6597 C333.0084,805.4351 338.3557,806.8605 341.8126,812.3465 C345.1305,806.8603 348.3863,806.4337 352.1278,811.9494 C355.0186,805.0454 359.5721,805.007 364.3058,810.0747 C368.1208,804.8372 372.5124,806.9364 374.7933,811.6857 C377.9261,806.5564 381.9549,806.3419 385.476,811.2733 C389.3174,805.4319 394.2207,806.5542 397.2876,812.0782 C400.356,806.3747 404.9969,807.6736 407.9723,812.1756 C416.2008,815.9869 416.8821,823.0006 409.7196,828.463 C417.74,833.4265 417.221,839.1081 409.8884,844.236 C406.7061,849.6379 402.4187,850.3786 398.4912,845.0256 C395.8329,851.6913 390.7721,851.9497 386.258,846.9761 C382.2925,852.3597 378.9746,851.6236 375.2571,846.7111 C372.8491,852.3984 367.5853,852.5407 364.5816,847.2925 C361.1725,852.0291 356.075,852.446 352.9593,846.9591 C348.9347,850.738 344.2251,851.0179 342.0926,844.8848 C339.093,851.9037 332.9563,851.1425 328.9172,846.0122 C325.3731,850.4898 319.747,850.1254 317.3947,844.6346 C308.5879,843.4856 305.6325,835.2402 310.5087,828.317 C305.7921,818.9141 307.2116,812.8253 318.8672,811.6166" fill="#FEF3C7" style="stroke:#181818;stroke-width:0.5;"/><text fill="#000000" font-family="Monospace" font-size="14" lengthAdjust="spacing" textLength="76.4677" x="324.29" y="833.1297">tachometer</text></g><!--entity tool_venv--><g class="entity" data-qualified-name="tool_venv" data-source-line="18" id="ent0013"><path d="M341.4692,560.1605 C344.1372,555.765 348.6454,554.6269 351.7982,559.6275 C355.0179,552.6671 358.9579,551.753 364.5109,557.2457 C367.6412,552.4963 372.8736,553.6634 375.1367,558.2344 C379.5064,554.2841 383.3554,554.967 385.6838,560.5038 C395.6013,563.2746 395.4965,569.6511 389.9992,576.5639 C396.8185,584.4428 393.9781,589.6423 385.4385,593.3476 C383.2896,599.4853 379.7429,601.3026 374.1919,597.0193 C372.4194,601.8885 367.6365,603.9333 363.6855,599.4725 C357.7966,603.0287 353.817,602.3145 351.4477,595.3705 C347.5225,599.9189 342.3946,598.1089 340.8388,592.8162 C331.124,590.6946 328.5377,582.9564 335.888,575.854 C330.1433,568.9269 332.6003,561.8905 341.4692,560.1605" fill="#FEF3C7" style="stroke:#181818;stroke-width:0.5;"/><text fill="#000000" font-family="Monospace" font-size="14" lengthAdjust="spacing" textLength="30.7719" x="347.14" y="581.1297">venv</text></g><g class="entity" data-qualified-name="shellGraphSummary" data-source-line="30" id="ent0024"><path d="M31.23,187.1438 L31.23,250.2618 L225.0651,250.2618 L225.0651,197.1438 L215.0651,187.1438 L31.23,187.1438" fill="#FEFFDD" style="stroke:#181818;stroke-width:0.5;"/><path d="M215.0651,187.1438 L215.0651,197.1438 L225.0651,197.1438 L215.0651,187.1438" fill="#FEFFDD" style="stroke:#181818;stroke-width:1;"/><text fill="#000000" font-family="Monospace" font-size="13" lengthAdjust="spacing" textLength="141.5311" x="37.23" y="206.0408">Scanned&#160;2&#160;shell&#160;scripts.</text><text fill="#000000" font-family="Monospace" font-size="13" lengthAdjust="spacing" textLength="172.8351" x="37.23" y="223.7468">Detected&#160;0&#160;local&#160;shell&#160;edges.</text><text fill="#000000" font-family="Monospace" font-size="13" lengthAdjust="spacing" textLength="163.8911" x="37.23" y="241.4528">Detected&#160;10&#160;external&#160;tools.</text></g><!--link shell_scripts_run_tachometer_profile_sh to tool_run--><g class="link" data-entity-1="ent0002" data-entity-2="ent0010" data-link-type="dependency" data-source-line="19" id="lnk14"><path d="M249.58,712.1338 C306.82,712.1338 362.76,712.1338 362.76,712.1338 C362.76,712.1338 362.76,704.1938 362.76,690.6838" fill="none" id="shell_scripts_run_tachometer_profile_sh-to-tool_run" style="stroke:#181818;stroke-width:1;"/><polygon fill="#181818" points="362.76,684.6838,358.76,693.6838,362.76,689.6838,366.76,693.6838,362.76,684.6838" style="stroke:#181818;stroke-width:1;"/></g><!--link shell_scripts_run_tachometer_profile_sh to tool_summarize--><g class="link" data-entity-1="ent0002" data-entity-2="ent0011" data-link-type="dependency" data-source-line="20" id="lnk15"><path d="M249.45,743.7038 C271.01,743.7038 286.38,743.7038 304.65,743.7038" fill="none" id="shell_scripts_run_tachometer_profile_sh-to-tool_summarize" style="stroke:#181818;stroke-width:1;"/><polygon fill="#181818" points="310.65,743.7038,301.65,739.7038,305.65,743.7038,301.65,747.7038,310.65,743.7038" style="stroke:#181818;stroke-width:1;"/></g><!--link shell_scripts_run_tachometer_profile_sh to tool_tachometer--><g class="link" data-entity-1="ent0002" data-entity-2="ent0012" data-link-type="dependency" data-source-line="21" id="lnk16"><path d="M249.58,775.2638 C306.82,775.2638 362.76,775.2638 362.76,775.2638 C362.76,775.2638 362.76,783.2038 362.76,796.7138" fill="none" id="shell_scripts_run_tachometer_profile_sh-to-tool_tachometer" style="stroke:#181818;stroke-width:1;"/><polygon fill="#181818" points="362.76,802.7138,366.76,793.7138,362.76,797.7138,358.76,793.7138,362.76,802.7138" style="stroke:#181818;stroke-width:1;"/></g><!--link shell_setup_sh to tool_cat--><g class="link" data-entity-1="ent0003" data-entity-2="ent0004" data-link-type="dependency" data-source-line="22" id="lnk17"><path d="M198.16,288.6138 C219.18,288.6138 236.76,288.6138 236.76,288.6138 C236.76,288.6138 236.76,71.7038 236.76,71.7038 C236.76,71.7038 294.67,71.7038 331.38,71.7038" fill="none" id="shell_setup_sh-to-tool_cat" style="stroke:#181818;stroke-width:1;"/><polygon fill="#181818" points="337.38,71.7038,328.38,67.7038,332.38,71.7038,328.38,75.7038,337.38,71.7038" style="stroke:#181818;stroke-width:1;"/></g><!--link shell_setup_sh to tool_chmod--><g class="link" data-entity-1="ent0003" data-entity-2="ent0005" data-link-type="dependency" data-source-line="23" id="lnk18"><path d="M198.09,292.1338 C256.33,292.1338 329.76,292.1338 329.76,292.1338 C329.76,292.1338 329.76,226.1138 329.76,186.7238" fill="none" id="shell_setup_sh-to-tool_chmod" style="stroke:#181818;stroke-width:1;"/><polygon fill="#181818" points="329.76,180.7238,325.76,189.7238,329.76,185.7238,333.76,189.7238,329.76,180.7238" style="stroke:#181818;stroke-width:1;"/></g><!--link shell_setup_sh to tool_curl--><g class="link" data-entity-1="ent0003" data-entity-2="ent0006" data-link-type="dependency" data-source-line="24" id="lnk19"><path d="M198.22,295.6538 C267.35,295.6538 362.76,295.6538 362.76,295.6538 C362.76,295.6538 362.76,285.6238 362.76,270.7238" fill="none" id="shell_setup_sh-to-tool_curl" style="stroke:#181818;stroke-width:1;"/><polygon fill="#181818" points="362.76,264.7238,358.76,273.7238,362.76,269.7238,366.76,273.7238,362.76,264.7238" style="stroke:#181818;stroke-width:1;"/></g><!--link shell_setup_sh to tool_inkscape--><g class="link" data-entity-1="ent0003" data-entity-2="ent0007" data-link-type="dependency" data-source-line="25" id="lnk20"><path d="M198.15,323.7038 C237.13,323.7038 278.48,323.7038 312.33,323.7038" fill="none" id="shell_setup_sh-to-tool_inkscape" style="stroke:#181818;stroke-width:1;"/><polygon fill="#181818" points="318.33,323.7038,309.33,319.7038,313.33,323.7038,309.33,327.7038,318.33,323.7038" style="stroke:#181818;stroke-width:1;"/></g><!--link shell_setup_sh to tool_mkdir--><g class="link" data-entity-1="ent0003" data-entity-2="ent0008" data-link-type="dependency" data-source-line="26" id="lnk21"><path d="M198.22,355.2638 C267.35,355.2638 362.76,355.2638 362.76,355.2638 C362.76,355.2638 362.76,363.2038 362.76,376.7138" fill="none" id="shell_setup_sh-to-tool_mkdir" style="stroke:#181818;stroke-width:1;"/><polygon fill="#181818" points="362.76,382.7138,366.76,373.7138,362.76,377.7138,358.76,373.7138,362.76,382.7138" style="stroke:#181818;stroke-width:1;"/></g><!--link shell_setup_sh to tool_pip--><g class="link" data-entity-1="ent0003" data-entity-2="ent0009" data-link-type="dependency" data-source-line="27" id="lnk22"><path d="M151.76,362.6638 C151.76,412.2938 151.76,491.7038 151.76,491.7038 C151.76,491.7038 274.4,491.7038 330.68,491.7038" fill="none" id="shell_setup_sh-to-tool_pip" style="stroke:#181818;stroke-width:1;"/><polygon fill="#181818" points="336.68,491.7038,327.68,487.7038,331.68,491.7038,327.68,495.7038,336.68,491.7038" style="stroke:#181818;stroke-width:1;"/></g><!--link shell_setup_sh to tool_venv--><g class="link" data-entity-1="ent0003" data-entity-2="ent0013" data-link-type="dependency" data-source-line="28" id="lnk23"><path d="M104.76,362.7938 C104.76,433.5838 104.76,575.7038 104.76,575.7038 C104.76,575.7038 257.27,575.7038 325.69,575.7038" fill="none" id="shell_setup_sh-to-tool_venv" style="stroke:#181818;stroke-width:1;"/><polygon fill="#181818" points="331.69,575.7038,322.69,571.7038,326.69,575.7038,322.69,579.7038,331.69,575.7038" style="stroke:#181818;stroke-width:1;"/></g><?plantuml-src bPCzRzmm38Pt_mhYCkUQD4Es0cropfGkNWCOWimx2IUJWaGdkVpwIkx5TjMuQ4RoVKXH_10h3a45RQopSeB6e7FGw62zGEtufNAu5n26O0z6eBC1jLYcAXujUHLK3z6eZbyi7M2lNCI5qk5U3Kvg9lcfUeH79evUwIMZkVTCIDB8APMIqoiwk2NYBA6SF087CLnD26pYM6Zy4WPgHMd3FGg6rWVUMuVRQ9xe2XnhvLAL-MVO7J0-qGtWQm8f-ONPnGse-9jepodRZrEsqS35_O_TzthtHnqeWrz_xlOVp-N8PLRjUEXWevMCLERRPC15lQjlxcudtVJSBOXi_iKCmIsGP9M4fMFKokDClNjAiZ-cqS_OQ9QCjtucab7ggQMpdenIZqFVgs3V5kLChfATHpF3iw-adv6UPovR4_6_Kx-y_3OL_lcWwH-V3vtbgbYP2KdxiQxbpLXNqrAiYk-xi0gCMx2gfWrOrV88AcB1wH8UWlAc6TjqgXgjYB23h-SxEhThMzsdFcX9oWTtjb2lhugBsrP87UG7Vm40?></g></svg>
