<?plantuml 1.2026.2?><svg xmlns="http://www.w3.org/2000/svg" xmlns:xlink="http://www.w3.org/1999/xlink" contentStyleType="text/css" data-diagram-type="DESCRIPTION" height="1113px" preserveAspectRatio="none" style="width:551px;height:1113px;background:#FFFFFF;" version="1.1" viewBox="0 0 551 1113" width="551px" zoomAndPan="magnify"><title>archility Tooling Integrations</title><defs/><g><g class="title" data-source-line="1"><text fill="#000000" font-family="Monospace" font-size="14" font-weight="bold" lengthAdjust="spacing" textLength="201.8653" x="167.9568" y="24.9659">archility&#160;Tooling&#160;Integrations</text></g><!--entity source_github_workflows_ci_yml--><g class="entity" data-qualified-name="source_github_workflows_ci_yml" data-source-line="7" id="ent0002"><rect fill="#E0F2FE" height="39.0679" rx="2.5" ry="2.5" style="stroke:#181818;stroke-width:0.5;" width="301.8189" x="7" y="302.5146"/><text fill="#000000" font-family="Monospace" font-size="14" lengthAdjust="spacing" textLength="281.8189" x="17" y="327.4805">.github/workflows/ci.yml\n7&#160;detected&#160;tools</text></g><!--entity source_setup_sh--><g class="entity" data-qualified-name="source_setup_sh" data-source-line="8" id="ent0003"><rect fill="#E0F2FE" height="39.0679" rx="2.5" ry="2.5" style="stroke:#181818;stroke-width:0.5;" width="195.2233" x="60.3" y="806.5146"/><text fill="#000000" font-family="Monospace" font-size="14" lengthAdjust="spacing" textLength="175.2233" x="70.3" y="831.4805">setup.sh\n7&#160;detected&#160;tools</text></g><!--entity tool_actions_checkout--><g class="entity" data-qualified-name="tool_actions_checkout" data-source-line="9" id="ent0004"><path d="M392.4321,53.8803 C396.2839,47.7213 401.0265,47.8618 404.756,54.0028 C408.0617,47.2399 413.0634,48.4888 417.102,53.2153 C421.7223,46.0679 425.9829,46.1928 430.6239,53.1956 C434.8987,46.9122 438.7313,47.9002 442.8273,53.3812 C446.1588,48.6952 451.3724,48.8489 454.1526,54.0149 C456.8508,48.3572 463.1173,47.8653 466.6945,52.9928 C470.7741,46.9554 476.0719,47.015 480.445,52.6469 C485.6196,47.2114 490.3812,47.7115 493.2316,54.9852 C496.2026,48.8612 501.6829,48.9453 504.7215,54.921 C508.6903,49.0874 513.0744,49.8445 517.0844,54.874 C526.7657,57.2837 528.0759,63.4434 523.0782,71.2317 C528.5231,79.6889 527.058,84.7921 517.1147,87.6652 C514.8671,93.3365 509.5073,93.8078 506.3314,88.584 C502.7444,95.0942 496.5823,95.6835 491.9911,89.7403 C489.2576,95.6427 485.2871,97.2581 480.0571,92.5475 C476.7762,99.0514 472.2801,98.8755 468.2001,93.334 C465.6717,100.7731 459.1543,101.2401 455.146,94.7178 C450.2427,101.1156 444.7836,99.0399 442.2965,92.3462 C438.3606,99.1242 432.4389,98.9687 428.8681,91.9898 C424.3334,97.5081 419.6451,96.0295 416.9715,90.0621 C413.0943,95.1797 407.7353,94.8018 405.1914,88.6665 C400.7305,94.1295 394.5086,94.8653 391.2471,87.3753 C384.1491,83.3238 382.7477,75.3409 391.3287,71.3694 C383.0864,65.3412 384.0335,58.8586 392.4321,53.8803" fill="#FEF3C7" style="stroke:#181818;stroke-width:0.5;"/><text fill="#000000" font-family="Monospace" font-size="14" lengthAdjust="spacing" textLength="111.9156" x="398" y="75.4805">actions/checkout</text></g><!--entity tool_actions_setup_python--><g class="entity" data-qualified-name="tool_actions_setup_python" data-source-line="10" id="ent0005"><path d="M378.0691,139.0653 C380.2816,133.0104 384.4952,132.9487 388.3139,137.5162 C393.1776,132.1865 397.5169,132.8353 400.9097,139.1123 C402.8057,134.523 407.6036,132.6687 411.0596,137.4164 C414.4191,131.1239 418.0266,131.2305 422.0951,136.7543 C425.6753,131.2677 429.413,132.166 432.8627,136.8919 C436.7014,132.5503 440.3398,132.8787 443.116,138.0385 C446.2914,132.2339 451.3479,130.5811 456.0898,136.2702 C459.1356,131.2994 462.074,131.358 465.195,136.2005 C469.5281,130.4578 473.8561,131.0985 477.5853,136.8515 C481.628,131.9141 485.4971,132.5779 488.5586,137.9009 C491.3271,132.528 496.0905,133.2043 499.1999,137.5267 C502.2503,131.8827 507.0518,132.5978 509.7825,137.8376 C514.0074,132.1954 517.8072,132.8788 521.8437,138.0476 C525.6354,132.7773 530.0872,133.0907 533.2876,138.6712 C542.4326,141.3725 544.2641,149.3956 537.744,156.1019 C544.7789,164.1975 542.3316,170.7354 531.7414,172.2994 C528.2594,177.8902 524.481,177.8178 521.2967,172.0262 C519.2518,177.902 514.3128,177.5255 510.8459,173.5319 C508.099,179.3945 503.4712,179.5459 499.5738,174.7485 C496.4527,180.8644 490.7031,180.5999 487.6338,174.6971 C485.2105,180.2628 481.9816,179.6416 478.0833,176.2741 C474.9292,181.4071 470.3685,182.0431 466.8569,176.6555 C464.4821,182.0373 458.8219,182.5113 455.4729,177.7488 C451.8916,183.7723 447.3483,183.4457 443.661,177.8565 C440.0863,182.4354 434.8935,183.1241 432.1966,176.923 C428.5468,181.4066 424.2418,179.8954 422.4953,174.9623 C418.0432,178.9929 414.3124,178.6572 411.1581,173.3813 C407.0218,179.4902 403.1078,178.1863 399.2284,173.1073 C397.001,177.5332 392.3723,177.3996 389.7188,173.5998 C385.9447,179.2753 380.3649,178.6616 377.8662,172.3398 C368.1293,171.054 364.5589,163.8861 369.1311,155.2756 C364.1685,146.3595 366.6967,138.9746 378.0691,139.0653" fill="#FEF3C7" style="stroke:#181818;stroke-width:0.5;"/><text fill="#000000" font-family="Monospace" font-size="14" lengthAdjust="spacing" textLength="140.2795" x="383.82" y="159.4805">actions/setup-python</text></g><!--entity tool_archility--><g class="entity" data-qualified-name="tool_archility" data-source-line="11" id="ent0006"><path d="M421.4294,222.1068 C424.9952,216.1601 429.484,216.9035 432.6983,222.4514 C435.8332,217.4617 439.3611,216.5975 443.3571,221.5259 C446.385,215.7448 451.7345,214.9627 456.0123,220.0736 C459.5934,216.4408 462.611,216.3956 465.0605,221.2762 C469.1126,216.3325 473.1762,216.0164 476.3984,222.1274 C480.1254,216.9677 484.3637,216.2216 488.1651,222.0477 C496.1239,226.5102 496.0541,232.8144 489.8676,238.7213 C496.2265,245.2956 496.6476,251.956 487.2125,256.1201 C485.7636,262.0954 481.1233,262.3003 477.1598,258.7831 C474.4896,264.23 471.1996,265.2572 466.57,260.8993 C464.8268,266.8205 462.0896,269.5741 456.0549,265.345 C450.4796,269.1052 445.2587,268.9024 443.7788,261.0249 C439.8616,265.2189 435.8584,263.7281 433.7591,258.9864 C428.3806,264.8064 424.2205,263.1593 421.6062,256.3306 C412.7223,251.5054 412.9983,245.3563 421.305,240.2099 C412.681,234.1602 413.3102,228.0414 421.4294,222.1068" fill="#FEF3C7" style="stroke:#181818;stroke-width:0.5;"/><text fill="#000000" font-family="Monospace" font-size="14" lengthAdjust="spacing" textLength="52.0378" x="427.94" y="243.4805">archility</text></g><!--entity tool_bash--><g class="entity" data-qualified-name="tool_bash" data-source-line="12" id="ent0007"><path d="M432.0442,306.1845 C435.0081,300.6316 439.2615,300.102 442.7758,305.6526 C445.0861,300.2575 450.1441,297.9914 454.5477,303.3641 C459.0165,298.993 463.6564,299.025 466.3395,305.3353 C470.5585,299.662 476.338,301.2223 478.9882,307.0594 C488.2766,311.7374 488.5693,316.9575 481.1979,323.8304 C487.5669,329.6755 484.8855,336.71 477.4651,339.2078 C475.8129,344.2322 471.8235,346.4911 467.337,342.3345 C463.9973,349.2902 459.216,349.9719 454.7185,343.4158 C450.3171,347.453 446.6598,348.0457 443.9181,341.6909 C439.6925,346.8723 435.9119,346.4128 433.1424,340.3014 C423.6851,338.1291 421.2953,330.2936 426.7441,322.7022 C420.001,315.6528 423.4312,308.3065 432.0442,306.1845" fill="#FEF3C7" style="stroke:#181818;stroke-width:0.5;"/><text fill="#000000" font-family="Monospace" font-size="14" lengthAdjust="spacing" textLength="31.8219" x="438.05" y="327.4805">bash</text></g><!--entity tool_cat--><g class="entity" data-qualified-name="tool_cat" data-source-line="13" id="ent0008"><path d="M438.0582,642.5286 C441.9419,632.4187 448.8092,632.8236 455.5721,639.53 C463.0559,632.8376 467.4146,635.6972 471.0238,643.625 C479.6392,646.7777 480.1273,652.2699 474.8219,658.887 C480.7694,665.0441 480.3912,672.9412 470.9411,675.5019 C468.6183,685.3175 461.3367,686.3168 453.9782,681.2362 C446.1632,687.328 440.9119,684.603 438.5027,675.6688 C427.7425,674.4193 426.3303,668.9732 430.9537,660.211 C425.244,652.1402 426.7907,643.7781 438.0582,642.5286" fill="#FEF3C7" style="stroke:#181818;stroke-width:0.5;"/><text fill="#000000" font-family="Monospace" font-size="14" lengthAdjust="spacing" textLength="19.6279" x="444.14" y="663.4805">cat</text></g><!--entity tool_chmod--><g class="entity" data-qualified-name="tool_chmod" data-source-line="14" id="ent0009"><path d="M425.9123,726.0545 C430.158,719.1496 436.1993,719.4962 440.7688,725.6872 C445.1093,718.9477 449.9793,719.5322 454.6534,725.3174 C460.3084,718.3665 465.8501,718.0251 471.0219,725.8527 C476.5456,718.7628 481.6556,720.0926 485.8449,727.2418 C495.6994,728.6113 498.1428,733.5785 494.5206,742.5739 C498.5346,751.348 495.1323,759.737 484.1044,758.9342 C481.1404,767.2086 475.5432,767.0106 469.8791,761.7779 C466.5786,768.9715 462.0326,771.7653 455.587,764.9975 C450.1325,772.5192 443.3175,772.5138 439.5551,763.3698 C433.4348,769.4424 427.2866,767.9706 425.4393,759.2833 C417.6188,756.6721 416.6856,749.5726 422.146,744.0839 C415.89,737.9638 417.1111,729.0292 425.9123,726.0545" fill="#FEF3C7" style="stroke:#181818;stroke-width:0.5;"/><text fill="#000000" font-family="Monospace" font-size="14" lengthAdjust="spacing" textLength="45.5418" x="431.19" y="747.4805">chmod</text></g><!--entity tool_curl--><g class="entity" data-qualified-name="tool_curl" data-source-line="15" id="ent0010"><path d="M435.1632,810.2019 C440.1253,800.6406 449.6739,799.9022 455.3862,809.4062 C462.314,801.5491 468.1074,801.5736 473.3654,811.1302 C483.921,811.78 486.1717,818.3738 481.3555,826.8412 C486.1333,835.6707 482.7304,840.6353 473.7239,842.9239 C468.4599,853.051 462.662,853.7526 454.9029,845.4754 C448.1521,853.2174 439.7194,854.0507 435.4521,842.9164 C426.4482,841.6086 423.7261,834.6505 429.969,827.8089 C422.649,820.5778 426.4146,812.6927 435.1632,810.2019" fill="#FEF3C7" style="stroke:#181818;stroke-width:0.5;"/><text fill="#000000" font-family="Monospace" font-size="14" lengthAdjust="spacing" textLength="24.7659" x="441.58" y="831.4805">curl</text></g><!--entity tool_inkscape--><g class="entity" data-qualified-name="tool_inkscape" data-source-line="16" id="ent0011"><path d="M419.0623,895.3614 C421.1545,888.7866 425.9768,888.1628 430.394,893.0661 C433.7845,886.0616 440.0439,885.3308 443.9268,892.5991 C447.5603,887.6524 451.9479,886.4297 455.9174,892.224 C459.711,887.9905 463.4338,888.2145 465.97,893.5456 C470.8397,887.0482 474.8162,887.2684 478.7127,894.4521 C481.5393,888.6476 486.3856,889.228 489.9653,893.621 C500.4201,896.7748 503.6466,902.8313 495.89,911.8908 C502.2197,919.2655 500.7819,925.4792 490.7601,927.4694 C488.8566,933.7748 484.9588,934.7774 479.6927,931.2568 C476.9668,936.7987 470.846,937.7414 467.0266,932.5468 C465.0046,939.2536 460.5753,941.6623 454.5258,936.9593 C449.4461,941.8492 444.4153,939.7833 442.0876,933.8086 C437.3735,937.0106 433.3449,936.4504 432.2018,930.1094 C427.1893,936.1623 422.749,935.2976 419.5166,928.3698 C410.1838,926.1893 407.2482,918.6133 413.8695,911.1889 C407.529,903.6883 410.7025,898.039 419.0623,895.3614" fill="#FEF3C7" style="stroke:#181818;stroke-width:0.5;"/><text fill="#000000" font-family="Monospace" font-size="14" lengthAdjust="spacing" textLength="57.5258" x="425.2" y="915.4805">inkscape</text></g><!--entity tool_mkdir--><g class="entity" data-qualified-name="tool_mkdir" data-source-line="17" id="ent0012"><path d="M428.9813,978.0719 C432.8059,972.2359 438.1333,972.2348 441.4587,978.5832 C444.9858,971.7197 450.5526,971.9973 455.2847,977.2028 C459.2226,971.1698 463.4704,971.6938 467.7656,976.8025 C472.1127,971.4605 477.3654,971.018 480.4707,978.075 C493.0744,978.2947 495.6108,985.484 491.2145,995.9319 C495.8029,1004.6851 490.3085,1011.1157 481.3993,1011.181 C478.4607,1017.4444 474.5879,1019.6979 468.7434,1014.3477 C465.8957,1021.034 459.7046,1022.6782 454.3839,1017.2881 C448.9532,1021.806 445.0674,1019.6542 442.995,1013.6523 C437.3131,1020.8744 430.9004,1018.8964 427.8483,1011.015 C418.4984,1008.9521 414.1233,1004.4565 419.9815,994.9475 C414.5252,984.5132 418.7896,980.1611 428.9813,978.0719" fill="#FEF3C7" style="stroke:#181818;stroke-width:0.5;"/><text fill="#000000" font-family="Monospace" font-size="14" lengthAdjust="spacing" textLength="38.5699" x="434.67" y="999.4805">mkdir</text></g><!--entity tool_pip--><g class="entity" data-qualified-name="tool_pip" data-source-line="18" id="ent0013"><path d="M437.8312,557.5833 C442.1755,549.9554 449.6407,548.4928 455.0951,556.3452 C462.5031,548.2314 468.6118,550.1788 472.9005,559.526 C482.2719,560.7781 486.3319,565.6707 481.497,574.8778 C487.5878,584.6046 481.9144,591.0287 472.0261,591.8263 C469.1161,601.8019 463.4252,604.1692 455.0433,597.3641 C446.7273,604.4763 438.9126,600.5732 436.9246,590.6384 C429.112,586.3597 426.68,581.7375 434.1887,574.8106 C427.1208,567.5925 428.0057,561.2294 437.8312,557.5833" fill="#FEF3C7" style="stroke:#181818;stroke-width:0.5;"/><text fill="#000000" font-family="Monospace" font-size="14" lengthAdjust="spacing" textLength="20.8319" x="443.54" y="579.4805">pip</text></g><!--entity tool_pre_commit--><g class="entity" data-qualified-name="tool_pre_commit" data-source-line="19" id="ent0014"><path d="M410.1172,389.9674 C412.9031,384.871 417.479,385.2327 420.2229,390.0105 C424.3171,383.7632 429.6835,385.1927 433.1536,390.6973 C436.487,385.1875 439.7573,384.7596 443.5143,390.3002 C446.4195,383.3726 450.9897,383.3366 455.7378,388.4255 C459.5656,383.1633 463.9772,385.2685 466.2708,390.0365 C469.4178,384.8859 473.4637,384.6712 476.999,389.6241 C480.8536,383.7593 485.776,384.8846 488.8561,390.429 C491.9373,384.7011 496.5981,386.0053 499.5863,390.5264 C507.8148,394.3376 508.4961,401.3514 501.3336,406.8138 C509.354,411.7773 508.835,417.4589 501.5024,422.5867 C498.306,428.0092 494.0013,428.7517 490.0597,423.3764 C487.3879,430.0647 482.3086,430.3212 477.781,425.3269 C473.7997,430.7332 470.468,429.9943 466.7346,425.0618 C464.315,430.7728 459.0288,430.9144 456.0136,425.6433 C452.5917,430.3988 447.4744,430.8179 444.3458,425.3099 C440.3078,429.1072 435.5795,429.3919 433.4336,423.2356 C430.4216,430.2776 424.2641,429.512 420.2127,424.363 C416.6568,428.8597 411.0087,428.4965 408.6447,422.9854 C399.8379,421.8363 396.8825,413.591 401.7587,406.6678 C397.0421,397.2649 398.4616,391.176 410.1172,389.9674" fill="#FEF3C7" style="stroke:#181818;stroke-width:0.5;"/><text fill="#000000" font-family="Monospace" font-size="14" lengthAdjust="spacing" textLength="76.8317" x="415.54" y="411.4805">pre-commit</text></g><!--entity tool_unittest--><g class="entity" data-qualified-name="tool_unittest" data-source-line="20" id="ent0015"><path d="M423.0073,473.7278 C427.9945,464.6757 433.9324,466.027 439.2884,473.3615 C443.2831,464.4241 451.1867,466.064 455.4542,473.0851 C460.9935,464.7331 467.9129,465.2644 471.8107,474.6028 C476.4549,468.5259 483.6059,468.5938 487.5573,475.4466 C496.759,476.1129 501.7653,482.8204 496.3273,491.4896 C502.861,501.8987 498.2346,508.3122 486.7389,508.6436 C482.4235,516.6613 474.8174,515.9007 470.4102,508.7424 C466.9703,515.3719 460.2121,517.0492 455.184,510.59 C449.9981,518.3037 443.3119,516.944 439.5675,509.1394 C434.6619,518.5114 426.2353,516.8304 422.0629,508.4177 C411.4824,504.7053 411.8013,496.6718 419.5221,490.3813 C413.5662,483.0908 415.0802,478.1129 423.0073,473.7278" fill="#FEF3C7" style="stroke:#181818;stroke-width:0.5;"/><text fill="#000000" font-family="Monospace" font-size="14" lengthAdjust="spacing" textLength="50.6798" x="428.62" y="495.4805">unittest</text></g><!--entity tool_venv--><g class="entity" data-qualified-name="tool_venv" data-source-line="21" id="ent0016"><path d="M432.8992,1062.5112 C435.5672,1058.1158 440.0754,1056.9777 443.2282,1061.9783 C446.4479,1055.0179 450.3879,1054.1037 455.9409,1059.5965 C459.0712,1054.8471 464.3036,1056.0142 466.5667,1060.5852 C470.9364,1056.6349 474.7854,1057.3178 477.1138,1062.8545 C487.0313,1065.6254 486.9265,1072.0019 481.4292,1078.9147 C488.2485,1086.7936 485.4081,1091.993 476.8685,1095.6984 C474.7196,1101.8361 471.1729,1103.6534 465.6219,1099.3701 C463.8494,1104.2392 459.0665,1106.2841 455.1155,1101.8233 C449.2266,1105.3795 445.247,1104.6653 442.8777,1097.7213 C438.9525,1102.2696 433.8246,1100.4597 432.2688,1095.1669 C422.554,1093.0454 419.9677,1085.3072 427.318,1078.2048 C421.5733,1071.2776 424.0303,1064.2413 432.8992,1062.5112" fill="#FEF3C7" style="stroke:#181818;stroke-width:0.5;"/><text fill="#000000" font-family="Monospace" font-size="14" lengthAdjust="spacing" textLength="30.7719" x="438.57" y="1083.4805">venv</text></g><g class="entity" data-qualified-name="toolingGraphSummary" data-source-line="37" id="ent0031"><path d="M54.15,222.3446 L54.15,267.7566 L261.6612,267.7566 L261.6612,232.3446 L251.6612,222.3446 L54.15,222.3446" fill="#FEFFDD" style="stroke:#181818;stroke-width:0.5;"/><path d="M251.6612,222.3446 L251.6612,232.3446 L261.6612,232.3446 L251.6612,222.3446" fill="#FEFFDD" style="stroke:#181818;stroke-width:1;"/><text fill="#000000" font-family="Monospace" font-size="13" lengthAdjust="spacing" textLength="186.5112" x="60.15" y="241.2416">Scanned&#160;2&#160;tooling&#160;entrypoints.</text><text fill="#000000" font-family="Monospace" font-size="13" lengthAdjust="spacing" textLength="179.2182" x="60.15" y="258.9476">Detected&#160;13&#160;third-party&#160;tools.</text></g><!--link source_github_workflows_ci_yml to tool_actions_checkout--><g class="link" data-entity-1="ent0002" data-entity-2="ent0004" data-link-type="dependency" data-source-line="22" id="lnk17"><path d="M285.1,302.2746 C285.1,242.8746 285.1,70.0546 285.1,70.0546 C285.1,70.0546 330.69,70.0546 376.84,70.0546" fill="none" id="source_github_workflows_ci_yml-to-tool_actions_checkout" style="stroke:#181818;stroke-width:1;"/><polygon fill="#181818" points="382.84,70.0546,373.84,66.0546,377.84,70.0546,373.84,74.0546,382.84,70.0546" style="stroke:#181818;stroke-width:1;"/></g><!--link source_github_workflows_ci_yml to tool_actions_setup_python--><g class="link" data-entity-1="ent0002" data-entity-2="ent0005" data-link-type="dependency" data-source-line="23" id="lnk18"><path d="M309.13,310.3346 C350.95,310.3346 385.1,310.3346 385.1,310.3346 C385.1,310.3346 385.1,228.8846 385.1,184.8146" fill="none" id="source_github_workflows_ci_yml-to-tool_actions_setup_python" style="stroke:#181818;stroke-width:1;"/><polygon fill="#181818" points="385.1,178.8146,381.1,187.8146,385.1,183.8146,389.1,187.8146,385.1,178.8146" style="stroke:#181818;stroke-width:1;"/></g><!--link source_github_workflows_ci_yml to tool_archility--><g class="link" data-entity-1="ent0002" data-entity-2="ent0006" data-link-type="dependency" data-source-line="24" id="lnk19"><path d="M309.26,318.1446 C366.5,318.1446 418.1,318.1446 418.1,318.1446 C418.1,318.1446 418.1,292.4646 418.1,268.9546" fill="none" id="source_github_workflows_ci_yml-to-tool_archility" style="stroke:#181818;stroke-width:1;"/><polygon fill="#181818" points="418.1,262.9546,414.1,271.9546,418.1,267.9546,422.1,271.9546,418.1,262.9546" style="stroke:#181818;stroke-width:1;"/></g><!--link source_github_workflows_ci_yml to tool_bash--><g class="link" data-entity-1="ent0002" data-entity-2="ent0007" data-link-type="dependency" data-source-line="25" id="lnk20"><path d="M308.97,325.9546 C352.16,325.9546 389.01,325.9546 416.8,325.9546" fill="none" id="source_github_workflows_ci_yml-to-tool_bash" style="stroke:#181818;stroke-width:1;"/><polygon fill="#181818" points="422.8,325.9546,413.8,321.9546,417.8,325.9546,413.8,329.9546,422.8,325.9546" style="stroke:#181818;stroke-width:1;"/></g><!--link source_github_workflows_ci_yml to tool_pip--><g class="link" data-entity-1="ent0002" data-entity-2="ent0013" data-link-type="dependency" data-source-line="26" id="lnk21"><path d="M273.1,342.0046 C273.1,400.2346 273.1,565.8746 273.1,565.8746 C273.1,565.8746 372.04,565.8746 422.05,565.8746" fill="none" id="source_github_workflows_ci_yml-to-tool_pip" style="stroke:#181818;stroke-width:1;"/><polygon fill="#181818" points="428.05,565.8746,419.05,561.8746,423.05,565.8746,419.05,569.8746,428.05,565.8746" style="stroke:#181818;stroke-width:1;"/></g><!--link source_github_workflows_ci_yml to tool_pre_commit--><g class="link" data-entity-1="ent0002" data-entity-2="ent0014" data-link-type="dependency" data-source-line="27" id="lnk22"><path d="M308.97,333.7746 C361.3,333.7746 407.1,333.7746 407.1,333.7746 C407.1,333.7746 407.1,354.2646 407.1,375.1746" fill="none" id="source_github_workflows_ci_yml-to-tool_pre_commit" style="stroke:#181818;stroke-width:1;"/><polygon fill="#181818" points="407.1,381.1746,411.1,372.1746,407.1,376.1746,403.1,372.1746,407.1,381.1746" style="stroke:#181818;stroke-width:1;"/></g><!--link source_github_workflows_ci_yml to tool_unittest--><g class="link" data-entity-1="ent0002" data-entity-2="ent0015" data-link-type="dependency" data-source-line="28" id="lnk23"><path d="M291.1,341.9846 C291.1,386.4846 291.1,490.0546 291.1,490.0546 C291.1,490.0546 359.04,490.0546 407.28,490.0546" fill="none" id="source_github_workflows_ci_yml-to-tool_unittest" style="stroke:#181818;stroke-width:1;"/><polygon fill="#181818" points="413.28,490.0546,404.28,486.0546,408.28,490.0546,404.28,494.0546,413.28,490.0546" style="stroke:#181818;stroke-width:1;"/></g><!--link source_setup_sh to tool_cat--><g class="link" data-entity-1="ent0003" data-entity-2="ent0008" data-link-type="dependency" data-source-line="29" id="lnk24"><path d="M190.1,806.1146 C190.1,761.6146 190.1,658.0546 190.1,658.0546 C190.1,658.0546 356.62,658.0546 422.66,658.0546" fill="none" id="source_setup_sh-to-tool_cat" style="stroke:#181818;stroke-width:1;"/><polygon fill="#181818" points="428.66,658.0546,419.66,654.0546,423.66,658.0546,419.66,662.0546,428.66,658.0546" style="stroke:#181818;stroke-width:1;"/></g><!--link source_setup_sh to tool_chmod--><g class="link" data-entity-1="ent0003" data-entity-2="ent0009" data-link-type="dependency" data-source-line="30" id="lnk25"><path d="M255.9,816.2846 C331.45,816.2846 423.1,816.2846 423.1,816.2846 C423.1,816.2846 423.1,794.3646 423.1,772.7646" fill="none" id="source_setup_sh-to-tool_chmod" style="stroke:#181818;stroke-width:1;"/><polygon fill="#181818" points="423.1,766.7646,419.1,775.7646,423.1,771.7646,427.1,775.7646,423.1,766.7646" style="stroke:#181818;stroke-width:1;"/></g><!--link source_setup_sh to tool_curl--><g class="link" data-entity-1="ent0003" data-entity-2="ent0010" data-link-type="dependency" data-source-line="31" id="lnk26"><path d="M255.67,826.0546 C315.46,826.0546 381.66,826.0546 420.32,826.0546" fill="none" id="source_setup_sh-to-tool_curl" style="stroke:#181818;stroke-width:1;"/><polygon fill="#181818" points="426.32,826.0546,417.32,822.0546,421.32,826.0546,417.32,830.0546,426.32,826.0546" style="stroke:#181818;stroke-width:1;"/></g><!--link source_setup_sh to tool_inkscape--><g class="link" data-entity-1="ent0003" data-entity-2="ent0011" data-link-type="dependency" data-source-line="32" id="lnk27"><path d="M255.91,835.8146 C330.38,835.8146 420.1,835.8146 420.1,835.8146 C420.1,835.8146 420.1,857.7346 420.1,879.3346" fill="none" id="source_setup_sh-to-tool_inkscape" style="stroke:#181818;stroke-width:1;"/><polygon fill="#181818" points="420.1,885.3346,424.1,876.3346,420.1,880.3346,416.1,876.3346,420.1,885.3346" style="stroke:#181818;stroke-width:1;"/></g><!--link source_setup_sh to tool_mkdir--><g class="link" data-entity-1="ent0003" data-entity-2="ent0012" data-link-type="dependency" data-source-line="33" id="lnk28"><path d="M190.1,845.9846 C190.1,890.4846 190.1,994.0546 190.1,994.0546 C190.1,994.0546 341.54,994.0546 413.19,994.0546" fill="none" id="source_setup_sh-to-tool_mkdir" style="stroke:#181818;stroke-width:1;"/><polygon fill="#181818" points="419.19,994.0546,410.19,990.0546,414.19,994.0546,410.19,998.0546,419.19,994.0546" style="stroke:#181818;stroke-width:1;"/></g><!--link source_setup_sh to tool_pip--><g class="link" data-entity-1="ent0003" data-entity-2="ent0013" data-link-type="dependency" data-source-line="34" id="lnk29"><path d="M125.1,806.0946 C125.1,747.8646 125.1,582.2246 125.1,582.2246 C125.1,582.2246 344.63,582.2246 422.15,582.2246" fill="none" id="source_setup_sh-to-tool_pip" style="stroke:#181818;stroke-width:1;"/><polygon fill="#181818" points="428.15,582.2246,419.15,578.2246,423.15,582.2246,419.15,586.2246,428.15,582.2246" style="stroke:#181818;stroke-width:1;"/></g><!--link source_setup_sh to tool_venv--><g class="link" data-entity-1="ent0003" data-entity-2="ent0016" data-link-type="dependency" data-source-line="35" id="lnk30"><path d="M125.1,845.8246 C125.1,905.2346 125.1,1078.0546 125.1,1078.0546 C125.1,1078.0546 335.68,1078.0546 417.32,1078.0546" fill="none" id="source_setup_sh-to-tool_venv" style="stroke:#181818;stroke-width:1;"/><polygon fill="#181818" points="423.32,1078.0546,414.32,1074.0546,418.32,1078.0546,414.32,1082.0546,423.32,1078.0546" style="stroke:#181818;stroke-width:1;"/></g><?plantuml-src bPH1Rvmm48Nl_0fhSuOqoI6tNjgbwY6zR8-Ha6EysC9uB7l8Yd_VCLl0Wcv2Z-FtlR6D7uCQZMJS2wMDne7z1Z3QDkodHTbuZXfio8my8qDWNZSAMQsz5578GgkjuvvtB2XUmoKQpzm4cIYrFFFUO0aMV_5EiXUm41mNAIEWSs2bnHCET9hOdjl6f0WTIkBW90EF2h8POOUYqQZwj_iB-FPiu1BkXIw6pho-scVQ7OcKDPqUJ3Wm7bY0tWjPNLtLxAg4hiZ5xevVoiVocEuG9FQk2EgJZYDM1JMt40RwcXtu-B7eM4gA5deSFT5T_LMgIM5tvR5y-lQyTewTSpVGpUtMVTttgcuwJ0-RsEQtNh5lFAW5YzMQ43mvF1KRNNLG9qGiDqplJO9GjIQqROFWJYxKjB8ckvQok61ZkMQSTWj1nKRtCgVyTJgv6grLrxKrtLkDA4F2JYjhybtQzuMArKnyai0y__hlUFotCKt6VlEKZzsE69NTC3t1VdP-XzsMwJcozKyv4vJR3yGOsGzaYkjjTOhfRM9Cw6qv-JPRCKOeiu1o2XLDsn-UEtNgkuxx8Ji9RYqDfiT9PJHH_U10Mmn5zdqQN0zF39NsTKwJbQR0ECUAJDgQnUv_0000?></g></svg>
