<?plantuml 1.2026.2?><svg xmlns="http://www.w3.org/2000/svg" xmlns:xlink="http://www.w3.org/1999/xlink" contentStyleType="text/css" data-diagram-type="DESCRIPTION" height="1281px" preserveAspectRatio="none" style="width:456px;height:1281px;background:#FFFFFF;" version="1.1" viewBox="0 0 456 1281" width="456px" zoomAndPan="magnify"><title>archility Tooling Integrations</title><defs/><g><g class="title" data-source-line="1"><text fill="#000000" font-family="Monospace" font-size="14" font-weight="bold" lengthAdjust="spacing" textLength="201.8653" x="120.3018" y="24.9659">archility&#160;Tooling&#160;Integrations</text></g><!--entity source_github_workflows_ci_yml--><g class="entity" data-qualified-name="source_github_workflows_ci_yml" data-source-line="7" id="ent0002"><rect fill="#E0F2FE" height="58.1358" rx="2.5" ry="2.5" style="stroke:#181818;stroke-width:0.5;" width="182.6234" x="18.44" y="376.9846"/><text fill="#000000" font-family="Monospace" font-size="14" lengthAdjust="spacing" textLength="162.6234" x="28.44" y="401.9505">.github/workflows/ci.yml</text><text fill="#000000" font-family="Monospace" font-size="14" lengthAdjust="spacing" textLength="105.3356" x="28.44" y="421.0184">9&#160;detected&#160;tools</text></g><!--entity source_setup_sh--><g class="entity" data-qualified-name="source_setup_sh" data-source-line="8" id="ent0003"><rect fill="#E0F2FE" height="58.1358" rx="2.5" ry="2.5" style="stroke:#181818;stroke-width:0.5;" width="125.3356" x="47.09" y="964.9846"/><text fill="#000000" font-family="Monospace" font-size="14" lengthAdjust="spacing" textLength="56.0278" x="57.09" y="989.9505">setup.sh</text><text fill="#000000" font-family="Monospace" font-size="14" lengthAdjust="spacing" textLength="105.3356" x="57.09" y="1009.0184">7&#160;detected&#160;tools</text></g><!--entity tool_actions_checkout--><g class="entity" data-qualified-name="tool_actions_checkout" data-source-line="9" id="ent0004"><path d="M297.1221,53.8803 C300.9739,47.7213 305.7165,47.8618 309.446,54.0028 C312.7517,47.2399 317.7534,48.4888 321.792,53.2153 C326.4123,46.0679 330.6729,46.1928 335.3139,53.1956 C339.5887,46.9122 343.4213,47.9002 347.5173,53.3812 C350.8488,48.6952 356.0624,48.8489 358.8426,54.0149 C361.5408,48.3572 367.8073,47.8653 371.3845,52.9928 C375.4641,46.9554 380.7619,47.015 385.135,52.6469 C390.3096,47.2114 395.0712,47.7115 397.9216,54.9852 C400.8926,48.8612 406.3729,48.9453 409.4115,54.921 C413.3803,49.0874 417.7644,49.8445 421.7744,54.874 C431.4557,57.2837 432.7659,63.4434 427.7682,71.2317 C433.2131,79.6889 431.748,84.7921 421.8047,87.6652 C419.5571,93.3365 414.1973,93.8078 411.0214,88.584 C407.4344,95.0942 401.2723,95.6835 396.6811,89.7403 C393.9476,95.6427 389.9771,97.2581 384.7471,92.5475 C381.4662,99.0514 376.9701,98.8755 372.8901,93.334 C370.3617,100.7731 363.8443,101.2401 359.836,94.7178 C354.9327,101.1156 349.4736,99.0399 346.9865,92.3462 C343.0506,99.1242 337.1289,98.9687 333.5581,91.9898 C329.0234,97.5081 324.3351,96.0295 321.6615,90.0621 C317.7843,95.1797 312.4253,94.8018 309.8814,88.6665 C305.4205,94.1295 299.1986,94.8653 295.9371,87.3753 C288.8391,83.3238 287.4377,75.3409 296.0187,71.3694 C287.7764,65.3412 288.7235,58.8586 297.1221,53.8803" fill="#FEF3C7" style="stroke:#181818;stroke-width:0.5;"/><text fill="#000000" font-family="Monospace" font-size="14" lengthAdjust="spacing" textLength="111.9156" x="302.69" y="75.4805">actions/checkout</text></g><!--entity tool_actions_setup_python--><g class="entity" data-qualified-name="tool_actions_setup_python" data-source-line="10" id="ent0005"><path d="M282.7591,139.0653 C284.9716,133.0104 289.1852,132.9487 293.0039,137.5162 C297.8676,132.1865 302.2069,132.8353 305.5997,139.1123 C307.4957,134.523 312.2936,132.6687 315.7496,137.4164 C319.1091,131.1239 322.7166,131.2305 326.7851,136.7543 C330.3653,131.2677 334.103,132.166 337.5527,136.8919 C341.3914,132.5503 345.0298,132.8787 347.806,138.0385 C350.9814,132.2339 356.0379,130.5811 360.7798,136.2702 C363.8256,131.2994 366.764,131.358 369.885,136.2005 C374.2181,130.4578 378.5461,131.0985 382.2753,136.8515 C386.318,131.9141 390.1871,132.5779 393.2486,137.9009 C396.0171,132.528 400.7805,133.2043 403.8899,137.5267 C406.9403,131.8827 411.7418,132.5978 414.4725,137.8376 C418.6974,132.1954 422.4972,132.8788 426.5337,138.0476 C430.3254,132.7773 434.7772,133.0907 437.9776,138.6712 C447.1226,141.3725 448.9541,149.3956 442.434,156.1019 C449.4689,164.1975 447.0216,170.7354 436.4314,172.2994 C432.9494,177.8902 429.171,177.8178 425.9867,172.0262 C423.9418,177.902 419.0028,177.5255 415.5359,173.5319 C412.789,179.3945 408.1612,179.5459 404.2638,174.7485 C401.1427,180.8644 395.3931,180.5999 392.3238,174.6971 C389.9005,180.2628 386.6716,179.6416 382.7733,176.2741 C379.6192,181.4071 375.0585,182.0431 371.5469,176.6555 C369.1721,182.0373 363.5119,182.5113 360.1629,177.7488 C356.5816,183.7723 352.0383,183.4457 348.351,177.8565 C344.7763,182.4354 339.5835,183.1241 336.8866,176.923 C333.2368,181.4066 328.9318,179.8954 327.1853,174.9623 C322.7332,178.9929 319.0024,178.6572 315.8481,173.3813 C311.7118,179.4902 307.7978,178.1863 303.9184,173.1073 C301.691,177.5332 297.0623,177.3996 294.4088,173.5998 C290.6347,179.2753 285.0549,178.6616 282.5562,172.3398 C272.8193,171.054 269.2489,163.8861 273.8211,155.2756 C268.8585,146.3595 271.3867,138.9746 282.7591,139.0653" fill="#FEF3C7" style="stroke:#181818;stroke-width:0.5;"/><text fill="#000000" font-family="Monospace" font-size="14" lengthAdjust="spacing" textLength="140.2795" x="288.51" y="159.4805">actions/setup-python</text></g><!--entity tool_archility--><g class="entity" data-qualified-name="tool_archility" data-source-line="11" id="ent0006"><path d="M326.1194,222.1068 C329.6852,216.1601 334.174,216.9035 337.3883,222.4514 C340.5232,217.4617 344.0511,216.5975 348.0471,221.5259 C351.075,215.7448 356.4245,214.9627 360.7023,220.0736 C364.2834,216.4408 367.301,216.3956 369.7505,221.2762 C373.8026,216.3325 377.8662,216.0164 381.0884,222.1274 C384.8154,216.9677 389.0537,216.2216 392.8551,222.0477 C400.8139,226.5102 400.7441,232.8144 394.5576,238.7213 C400.9165,245.2956 401.3376,251.956 391.9025,256.1201 C390.4536,262.0954 385.8133,262.3003 381.8498,258.7831 C379.1796,264.23 375.8896,265.2572 371.26,260.8993 C369.5168,266.8205 366.7796,269.5741 360.7449,265.345 C355.1696,269.1052 349.9487,268.9024 348.4688,261.0249 C344.5516,265.2189 340.5484,263.7281 338.4491,258.9864 C333.0706,264.8064 328.9105,263.1593 326.2962,256.3306 C317.4123,251.5054 317.6883,245.3563 325.995,240.2099 C317.371,234.1602 318.0002,228.0414 326.1194,222.1068" fill="#FEF3C7" style="stroke:#181818;stroke-width:0.5;"/><text fill="#000000" font-family="Monospace" font-size="14" lengthAdjust="spacing" textLength="52.0378" x="332.63" y="243.4805">archility</text></g><!--entity tool_bash--><g class="entity" data-qualified-name="tool_bash" data-source-line="12" id="ent0007"><path d="M336.7342,306.1845 C339.6981,300.6316 343.9515,300.102 347.4658,305.6526 C349.7761,300.2575 354.8341,297.9914 359.2377,303.3641 C363.7065,298.993 368.3464,299.025 371.0295,305.3353 C375.2485,299.662 381.028,301.2223 383.6782,307.0594 C392.9666,311.7374 393.2593,316.9575 385.8879,323.8304 C392.2569,329.6755 389.5755,336.71 382.1551,339.2078 C380.5029,344.2322 376.5135,346.4911 372.027,342.3345 C368.6873,349.2902 363.906,349.9719 359.4085,343.4158 C355.0071,347.453 351.3498,348.0457 348.6081,341.6909 C344.3825,346.8723 340.6019,346.4128 337.8324,340.3014 C328.3751,338.1291 325.9853,330.2936 331.4341,322.7022 C324.691,315.6528 328.1212,308.3065 336.7342,306.1845" fill="#FEF3C7" style="stroke:#181818;stroke-width:0.5;"/><text fill="#000000" font-family="Monospace" font-size="14" lengthAdjust="spacing" textLength="31.8219" x="342.74" y="327.4805">bash</text></g><!--entity tool_black--><g class="entity" data-qualified-name="tool_black" data-source-line="13" id="ent0008"><path d="M335.1412,391.1298 C337.163,384.6355 343.2075,384.1158 347.3373,388.8377 C351.2081,382.2128 355.5347,382.0673 359.9624,388.2905 C364.372,382.7962 368.2221,383.0128 371.7459,389.1853 C375.991,383.427 381.7844,383.4704 384.6393,390.5784 C392.6322,394.4399 393.3531,400.9414 386.8301,406.7673 C393.3422,412.8849 392.461,420.6955 383.8117,424.1859 C382.0848,430.423 376.8259,432.9272 371.475,428.3016 C370.4792,434.5594 365.167,435.6661 360.8139,431.8573 C354.2692,437.3441 348.8535,435.4667 347.3011,427.017 C341.5056,432.9176 336.7028,431.5293 334.5737,423.6345 C323.9535,421.7595 322.4682,415.6424 328.4649,407.4827 C322.5482,399.1567 326.3406,393.4473 335.1412,391.1298" fill="#FEF3C7" style="stroke:#181818;stroke-width:0.5;"/><text fill="#000000" font-family="Monospace" font-size="14" lengthAdjust="spacing" textLength="34.2719" x="341.52" y="411.4805">black</text></g><!--entity tool_cat--><g class="entity" data-qualified-name="tool_cat" data-source-line="14" id="ent0009"><path d="M342.7582,810.5286 C346.6419,800.4187 353.5092,800.8236 360.2721,807.53 C367.7559,800.8376 372.1146,803.6972 375.7238,811.625 C384.3392,814.7777 384.8273,820.2699 379.5219,826.887 C385.4694,833.0441 385.0912,840.9412 375.6411,843.5019 C373.3183,853.3175 366.0367,854.3168 358.6782,849.2362 C350.8632,855.328 345.6119,852.603 343.2027,843.6688 C332.4425,842.4193 331.0303,836.9732 335.6537,828.211 C329.944,820.1402 331.4907,811.7781 342.7582,810.5286" fill="#FEF3C7" style="stroke:#181818;stroke-width:0.5;"/><text fill="#000000" font-family="Monospace" font-size="14" lengthAdjust="spacing" textLength="19.6279" x="348.84" y="831.4805">cat</text></g><!--entity tool_chmod--><g class="entity" data-qualified-name="tool_chmod" data-source-line="15" id="ent0010"><path d="M330.6023,894.0545 C334.848,887.1496 340.8893,887.4962 345.4588,893.6872 C349.7993,886.9477 354.6693,887.5322 359.3434,893.3174 C364.9984,886.3665 370.5401,886.0251 375.7119,893.8527 C381.2356,886.7628 386.3456,888.0926 390.5349,895.2418 C400.3894,896.6113 402.8328,901.5785 399.2106,910.5739 C403.2246,919.348 399.8223,927.737 388.7944,926.9342 C385.8304,935.2086 380.2332,935.0106 374.5691,929.7779 C371.2686,936.9715 366.7226,939.7653 360.277,932.9975 C354.8225,940.5192 348.0075,940.5138 344.2451,931.3698 C338.1248,937.4424 331.9766,935.9706 330.1293,927.2833 C322.3088,924.6721 321.3756,917.5726 326.836,912.0839 C320.58,905.9638 321.8011,897.0292 330.6023,894.0545" fill="#FEF3C7" style="stroke:#181818;stroke-width:0.5;"/><text fill="#000000" font-family="Monospace" font-size="14" lengthAdjust="spacing" textLength="45.5418" x="335.88" y="915.4805">chmod</text></g><!--entity tool_curl--><g class="entity" data-qualified-name="tool_curl" data-source-line="16" id="ent0011"><path d="M339.8532,978.2019 C344.8153,968.6406 354.3639,967.9022 360.0762,977.4062 C367.004,969.5491 372.7974,969.5736 378.0554,979.1302 C388.611,979.78 390.8617,986.3738 386.0455,994.8412 C390.8233,1003.6707 387.4204,1008.6353 378.4139,1010.9239 C373.1499,1021.051 367.352,1021.7526 359.5929,1013.4754 C352.8421,1021.2174 344.4094,1022.0507 340.1421,1010.9164 C331.1382,1009.6086 328.4161,1002.6505 334.659,995.8089 C327.339,988.5778 331.1046,980.6927 339.8532,978.2019" fill="#FEF3C7" style="stroke:#181818;stroke-width:0.5;"/><text fill="#000000" font-family="Monospace" font-size="14" lengthAdjust="spacing" textLength="24.7659" x="346.27" y="999.4805">curl</text></g><!--entity tool_inkscape--><g class="entity" data-qualified-name="tool_inkscape" data-source-line="17" id="ent0012"><path d="M323.7523,1063.3614 C325.8445,1056.7866 330.6668,1056.1628 335.084,1061.0661 C338.4745,1054.0616 344.7339,1053.3308 348.6168,1060.5991 C352.2503,1055.6524 356.6379,1054.4297 360.6074,1060.224 C364.401,1055.9905 368.1238,1056.2145 370.66,1061.5456 C375.5297,1055.0482 379.5062,1055.2684 383.4027,1062.4521 C386.2293,1056.6476 391.0756,1057.228 394.6553,1061.621 C405.1101,1064.7748 408.3366,1070.8313 400.58,1079.8908 C406.9097,1087.2655 405.4719,1093.4792 395.4501,1095.4694 C393.5466,1101.7748 389.6488,1102.7774 384.3827,1099.2568 C381.6568,1104.7987 375.536,1105.7414 371.7166,1100.5468 C369.6946,1107.2536 365.2653,1109.6623 359.2158,1104.9593 C354.1361,1109.8492 349.1053,1107.7833 346.7776,1101.8086 C342.0635,1105.0106 338.0349,1104.4504 336.8918,1098.1094 C331.8793,1104.1623 327.439,1103.2976 324.2066,1096.3698 C314.8738,1094.1893 311.9382,1086.6133 318.5595,1079.1889 C312.219,1071.6883 315.3925,1066.039 323.7523,1063.3614" fill="#FEF3C7" style="stroke:#181818;stroke-width:0.5;"/><text fill="#000000" font-family="Monospace" font-size="14" lengthAdjust="spacing" textLength="57.5258" x="329.89" y="1083.4805">inkscape</text></g><!--entity tool_mkdir--><g class="entity" data-qualified-name="tool_mkdir" data-source-line="18" id="ent0013"><path d="M333.6813,1146.0719 C337.5059,1140.2359 342.8333,1140.2348 346.1587,1146.5832 C349.6858,1139.7197 355.2526,1139.9973 359.9847,1145.2028 C363.9226,1139.1698 368.1704,1139.6938 372.4656,1144.8025 C376.8127,1139.4605 382.0654,1139.018 385.1707,1146.075 C397.7744,1146.2947 400.3108,1153.484 395.9145,1163.9319 C400.5029,1172.6851 395.0085,1179.1157 386.0993,1179.181 C383.1607,1185.4444 379.2879,1187.6979 373.4434,1182.3477 C370.5957,1189.034 364.4046,1190.6782 359.0839,1185.2881 C353.6532,1189.806 349.7674,1187.6542 347.695,1181.6523 C342.0131,1188.8744 335.6004,1186.8964 332.5483,1179.015 C323.1984,1176.9521 318.8233,1172.4565 324.6815,1162.9475 C319.2252,1152.5132 323.4896,1148.1611 333.6813,1146.0719" fill="#FEF3C7" style="stroke:#181818;stroke-width:0.5;"/><text fill="#000000" font-family="Monospace" font-size="14" lengthAdjust="spacing" textLength="38.5699" x="339.37" y="1167.4805">mkdir</text></g><!--entity tool_pip--><g class="entity" data-qualified-name="tool_pip" data-source-line="19" id="ent0014"><path d="M342.5212,725.5833 C346.8655,717.9554 354.3307,716.4928 359.7851,724.3452 C367.1931,716.2314 373.3018,718.1788 377.5905,727.526 C386.9619,728.7781 391.0219,733.6707 386.187,742.8778 C392.2778,752.6046 386.6044,759.0287 376.7161,759.8263 C373.8061,769.8019 368.1152,772.1692 359.7333,765.3641 C351.4173,772.4763 343.6026,768.5732 341.6146,758.6384 C333.802,754.3597 331.37,749.7375 338.8787,742.8106 C331.8108,735.5925 332.6957,729.2294 342.5212,725.5833" fill="#FEF3C7" style="stroke:#181818;stroke-width:0.5;"/><text fill="#000000" font-family="Monospace" font-size="14" lengthAdjust="spacing" textLength="20.8319" x="348.23" y="747.4805">pip</text></g><!--entity tool_pre_commit--><g class="entity" data-qualified-name="tool_pre_commit" data-source-line="20" id="ent0015"><path d="M314.8172,473.9674 C317.6031,468.871 322.179,469.2327 324.9229,474.0105 C329.0171,467.7632 334.3835,469.1927 337.8536,474.6973 C341.187,469.1875 344.4573,468.7596 348.2143,474.3002 C351.1195,467.3726 355.6897,467.3366 360.4378,472.4255 C364.2656,467.1633 368.6772,469.2685 370.9708,474.0365 C374.1178,468.8859 378.1637,468.6712 381.699,473.6241 C385.5536,467.7593 390.476,468.8846 393.5561,474.429 C396.6373,468.7011 401.2981,470.0053 404.2863,474.5264 C412.5148,478.3376 413.1961,485.3514 406.0336,490.8138 C414.054,495.7773 413.535,501.4589 406.2024,506.5867 C403.006,512.0092 398.7013,512.7517 394.7597,507.3764 C392.0879,514.0647 387.0086,514.3212 382.481,509.3269 C378.4997,514.7332 375.168,513.9943 371.4346,509.0618 C369.015,514.7728 363.7288,514.9144 360.7136,509.6433 C357.2917,514.3988 352.1744,514.8179 349.0458,509.3099 C345.0078,513.1072 340.2795,513.3919 338.1336,507.2356 C335.1216,514.2776 328.9641,513.512 324.9127,508.363 C321.3568,512.8597 315.7087,512.4965 313.3447,506.9854 C304.5379,505.8363 301.5825,497.591 306.4587,490.6678 C301.7421,481.2649 303.1616,475.176 314.8172,473.9674" fill="#FEF3C7" style="stroke:#181818;stroke-width:0.5;"/><text fill="#000000" font-family="Monospace" font-size="14" lengthAdjust="spacing" textLength="76.8317" x="320.24" y="495.4805">pre-commit</text></g><!--entity tool_ruff--><g class="entity" data-qualified-name="tool_ruff" data-source-line="21" id="ent0016"><path d="M340.2032,558.2019 C345.0731,548.8025 354.4561,548.0703 360.0762,557.4062 C366.8849,549.7135 372.5665,549.7482 377.7054,559.1302 C388.261,559.78 390.5117,566.3738 385.6955,574.8412 C390.4734,583.6707 387.0704,588.6353 378.0639,590.9239 C372.9211,600.8791 367.2308,601.5822 359.5929,593.4754 C352.9435,601.0647 344.6581,601.8637 340.4921,590.9164 C331.4882,589.6086 328.7661,582.6505 335.009,575.8089 C327.689,568.5778 331.4546,560.6927 340.2032,558.2019" fill="#FEF3C7" style="stroke:#181818;stroke-width:0.5;"/><text fill="#000000" font-family="Monospace" font-size="14" lengthAdjust="spacing" textLength="24.0659" x="346.62" y="579.4805">ruff</text></g><!--entity tool_unittest--><g class="entity" data-qualified-name="tool_unittest" data-source-line="22" id="ent0017"><path d="M327.6973,641.7278 C332.6845,632.6757 338.6224,634.027 343.9784,641.3615 C347.9731,632.4241 355.8767,634.064 360.1442,641.0851 C365.6835,632.7331 372.6029,633.2644 376.5007,642.6028 C381.1449,636.5259 388.2959,636.5938 392.2473,643.4466 C401.449,644.1129 406.4553,650.8204 401.0173,659.4896 C407.551,669.8987 402.9246,676.3122 391.4289,676.6436 C387.1135,684.6613 379.5074,683.9007 375.1002,676.7424 C371.6603,683.3719 364.9021,685.0492 359.874,678.59 C354.6881,686.3037 348.0019,684.944 344.2575,677.1394 C339.3519,686.5114 330.9253,684.8304 326.7529,676.4177 C316.1724,672.7053 316.4913,664.6718 324.2121,658.3813 C318.2562,651.0908 319.7702,646.1129 327.6973,641.7278" fill="#FEF3C7" style="stroke:#181818;stroke-width:0.5;"/><text fill="#000000" font-family="Monospace" font-size="14" lengthAdjust="spacing" textLength="50.6798" x="333.31" y="663.4805">unittest</text></g><!--entity tool_venv--><g class="entity" data-qualified-name="tool_venv" data-source-line="23" id="ent0018"><path d="M337.5992,1230.5112 C340.2672,1226.1158 344.7754,1224.9777 347.9282,1229.9783 C351.1479,1223.0179 355.0879,1222.1037 360.6409,1227.5965 C363.7712,1222.8471 369.0036,1224.0142 371.2667,1228.5852 C375.6364,1224.6349 379.4854,1225.3178 381.8138,1230.8545 C391.7313,1233.6254 391.6265,1240.0019 386.1292,1246.9147 C392.9485,1254.7936 390.1081,1259.993 381.5685,1263.6984 C379.4196,1269.8361 375.8729,1271.6534 370.3219,1267.3701 C368.5494,1272.2392 363.7665,1274.2841 359.8155,1269.8233 C353.9266,1273.3795 349.947,1272.6653 347.5777,1265.7213 C343.6525,1270.2696 338.5246,1268.4597 336.9688,1263.1669 C327.254,1261.0454 324.6677,1253.3072 332.018,1246.2048 C326.2733,1239.2776 328.7303,1232.2413 337.5992,1230.5112" fill="#FEF3C7" style="stroke:#181818;stroke-width:0.5;"/><text fill="#000000" font-family="Monospace" font-size="14" lengthAdjust="spacing" textLength="30.7719" x="343.27" y="1251.4805">venv</text></g><g class="entity" data-qualified-name="toolingGraphSummary" data-source-line="41" id="ent0035"><path d="M6,296.3446 L6,341.7566 L213.5112,341.7566 L213.5112,306.3446 L203.5112,296.3446 L6,296.3446" fill="#FEFFDD" style="stroke:#181818;stroke-width:0.5;"/><path d="M203.5112,296.3446 L203.5112,306.3446 L213.5112,306.3446 L203.5112,296.3446" fill="#FEFFDD" style="stroke:#181818;stroke-width:1;"/><text fill="#000000" font-family="Monospace" font-size="13" lengthAdjust="spacing" textLength="186.5112" x="12" y="315.2416">Scanned&#160;2&#160;tooling&#160;entrypoints.</text><text fill="#000000" font-family="Monospace" font-size="13" lengthAdjust="spacing" textLength="179.2182" x="12" y="332.9476">Detected&#160;15&#160;third-party&#160;tools.</text></g><!--link source_github_workflows_ci_yml to tool_actions_checkout--><g class="link" data-entity-1="ent0002" data-entity-2="ent0004" data-link-type="dependency" data-source-line="24" id="lnk19"><path d="M201.53,388.5246 C219.96,388.5246 233.79,388.5246 233.79,388.5246 C233.79,388.5246 233.79,70.0546 233.79,70.0546 C233.79,70.0546 253.43,70.0546 281.47,70.0546" fill="none" id="source_github_workflows_ci_yml-to-tool_actions_checkout" style="stroke:#181818;stroke-width:1;"/><polygon fill="#181818" points="287.47,70.0546,278.47,66.0546,282.47,70.0546,278.47,74.0546,287.47,70.0546" style="stroke:#181818;stroke-width:1;"/></g><!--link source_github_workflows_ci_yml to tool_actions_setup_python--><g class="link" data-entity-1="ent0002" data-entity-2="ent0005" data-link-type="dependency" data-source-line="25" id="lnk20"><path d="M201.36,402.5446 C245.83,402.5446 289.79,402.5446 289.79,402.5446 C289.79,402.5446 289.79,247.6446 289.79,184.7846" fill="none" id="source_github_workflows_ci_yml-to-tool_actions_setup_python" style="stroke:#181818;stroke-width:1;"/><polygon fill="#181818" points="289.79,178.7846,285.79,187.7846,289.79,183.7846,293.79,187.7846,289.79,178.7846" style="stroke:#181818;stroke-width:1;"/></g><!--link source_github_workflows_ci_yml to tool_archility--><g class="link" data-entity-1="ent0002" data-entity-2="ent0006" data-link-type="dependency" data-source-line="26" id="lnk21"><path d="M201.52,409.5546 C258.83,409.5546 321.79,409.5546 321.79,409.5546 C321.79,409.5546 321.79,316.5546 321.79,268.9846" fill="none" id="source_github_workflows_ci_yml-to-tool_archility" style="stroke:#181818;stroke-width:1;"/><polygon fill="#181818" points="321.79,262.9846,317.79,271.9846,321.79,267.9846,325.79,271.9846,321.79,262.9846" style="stroke:#181818;stroke-width:1;"/></g><!--link source_github_workflows_ci_yml to tool_bash--><g class="link" data-entity-1="ent0002" data-entity-2="ent0007" data-link-type="dependency" data-source-line="27" id="lnk22"><path d="M201.38,395.5346 C229.79,395.5346 253.79,395.5346 253.79,395.5346 C253.79,395.5346 253.79,319.6346 253.79,319.6346 C253.79,319.6346 290.56,319.6346 321.47,319.6346" fill="none" id="source_github_workflows_ci_yml-to-tool_bash" style="stroke:#181818;stroke-width:1;"/><polygon fill="#181818" points="327.47,319.6346,318.47,315.6346,322.47,319.6346,318.47,323.6346,327.47,319.6346" style="stroke:#181818;stroke-width:1;"/></g><!--link source_github_workflows_ci_yml to tool_black--><g class="link" data-entity-1="ent0002" data-entity-2="ent0008" data-link-type="dependency" data-source-line="28" id="lnk23"><path d="M201.37,416.5646 C245.04,416.5646 288.51,416.5646 320.11,416.5646" fill="none" id="source_github_workflows_ci_yml-to-tool_black" style="stroke:#181818;stroke-width:1;"/><polygon fill="#181818" points="326.11,416.5646,317.11,412.5646,321.11,416.5646,317.11,420.5646,326.11,416.5646" style="stroke:#181818;stroke-width:1;"/></g><!--link source_github_workflows_ci_yml to tool_pip--><g class="link" data-entity-1="ent0002" data-entity-2="ent0014" data-link-type="dependency" data-source-line="29" id="lnk24"><path d="M179.79,435.4346 C179.79,515.8946 179.79,733.8746 179.79,733.8746 C179.79,733.8746 277.57,733.8746 327.02,733.8746" fill="none" id="source_github_workflows_ci_yml-to-tool_pip" style="stroke:#181818;stroke-width:1;"/><polygon fill="#181818" points="333.02,733.8746,324.02,729.8746,328.02,733.8746,324.02,737.8746,333.02,733.8746" style="stroke:#181818;stroke-width:1;"/></g><!--link source_github_workflows_ci_yml to tool_pre_commit--><g class="link" data-entity-1="ent0002" data-entity-2="ent0015" data-link-type="dependency" data-source-line="30" id="lnk25"><path d="M201.32,423.5746 C254.77,423.5746 311.79,423.5746 311.79,423.5746 C311.79,423.5746 311.79,440.3946 311.79,459.2946" fill="none" id="source_github_workflows_ci_yml-to-tool_pre_commit" style="stroke:#181818;stroke-width:1;"/><polygon fill="#181818" points="311.79,465.2946,315.79,456.2946,311.79,460.2946,307.79,456.2946,311.79,465.2946" style="stroke:#181818;stroke-width:1;"/></g><!--link source_github_workflows_ci_yml to tool_ruff--><g class="link" data-entity-1="ent0002" data-entity-2="ent0016" data-link-type="dependency" data-source-line="31" id="lnk26"><path d="M193.79,435.3146 C193.79,483.4446 193.79,574.0546 193.79,574.0546 C193.79,574.0546 278.6,574.0546 325.43,574.0546" fill="none" id="source_github_workflows_ci_yml-to-tool_ruff" style="stroke:#181818;stroke-width:1;"/><polygon fill="#181818" points="331.43,574.0546,322.43,570.0546,326.43,574.0546,322.43,578.0546,331.43,574.0546" style="stroke:#181818;stroke-width:1;"/></g><!--link source_github_workflows_ci_yml to tool_unittest--><g class="link" data-entity-1="ent0002" data-entity-2="ent0017" data-link-type="dependency" data-source-line="32" id="lnk27"><path d="M186.79,435.4546 C186.79,501.9246 186.79,658.0546 186.79,658.0546 C186.79,658.0546 261.1,658.0546 311.92,658.0546" fill="none" id="source_github_workflows_ci_yml-to-tool_unittest" style="stroke:#181818;stroke-width:1;"/><polygon fill="#181818" points="317.92,658.0546,308.92,654.0546,312.92,658.0546,308.92,662.0546,317.92,658.0546" style="stroke:#181818;stroke-width:1;"/></g><!--link source_setup_sh to tool_cat--><g class="link" data-entity-1="ent0003" data-entity-2="ent0009" data-link-type="dependency" data-source-line="33" id="lnk28"><path d="M130.79,964.7846 C130.79,916.6546 130.79,826.0546 130.79,826.0546 C130.79,826.0546 268.07,826.0546 327.4,826.0546" fill="none" id="source_setup_sh-to-tool_cat" style="stroke:#181818;stroke-width:1;"/><polygon fill="#181818" points="333.4,826.0546,324.4,822.0546,328.4,826.0546,324.4,830.0546,333.4,826.0546" style="stroke:#181818;stroke-width:1;"/></g><!--link source_setup_sh to tool_chmod--><g class="link" data-entity-1="ent0003" data-entity-2="ent0010" data-link-type="dependency" data-source-line="34" id="lnk29"><path d="M172.82,981.7846 C237.21,981.7846 327.79,981.7846 327.79,981.7846 C327.79,981.7846 327.79,961.4846 327.79,940.7346" fill="none" id="source_setup_sh-to-tool_chmod" style="stroke:#181818;stroke-width:1;"/><polygon fill="#181818" points="327.79,934.7346,323.79,943.7346,327.79,939.7346,331.79,943.7346,327.79,934.7346" style="stroke:#181818;stroke-width:1;"/></g><!--link source_setup_sh to tool_curl--><g class="link" data-entity-1="ent0003" data-entity-2="ent0011" data-link-type="dependency" data-source-line="35" id="lnk30"><path d="M172.88,994.0546 C223.87,994.0546 287.15,994.0546 325.06,994.0546" fill="none" id="source_setup_sh-to-tool_curl" style="stroke:#181818;stroke-width:1;"/><polygon fill="#181818" points="331.06,994.0546,322.06,990.0546,326.06,994.0546,322.06,998.0546,331.06,994.0546" style="stroke:#181818;stroke-width:1;"/></g><!--link source_setup_sh to tool_inkscape--><g class="link" data-entity-1="ent0003" data-entity-2="ent0012" data-link-type="dependency" data-source-line="36" id="lnk31"><path d="M172.82,1006.3146 C236.27,1006.3146 324.79,1006.3146 324.79,1006.3146 C324.79,1006.3146 324.79,1026.6146 324.79,1047.3646" fill="none" id="source_setup_sh-to-tool_inkscape" style="stroke:#181818;stroke-width:1;"/><polygon fill="#181818" points="324.79,1053.3646,328.79,1044.3646,324.79,1048.3646,320.79,1044.3646,324.79,1053.3646" style="stroke:#181818;stroke-width:1;"/></g><!--link source_setup_sh to tool_mkdir--><g class="link" data-entity-1="ent0003" data-entity-2="ent0013" data-link-type="dependency" data-source-line="37" id="lnk32"><path d="M130.79,1023.3146 C130.79,1071.4446 130.79,1162.0546 130.79,1162.0546 C130.79,1162.0546 254.3,1162.0546 318.04,1162.0546" fill="none" id="source_setup_sh-to-tool_mkdir" style="stroke:#181818;stroke-width:1;"/><polygon fill="#181818" points="324.04,1162.0546,315.04,1158.0546,319.04,1162.0546,315.04,1166.0546,324.04,1162.0546" style="stroke:#181818;stroke-width:1;"/></g><!--link source_setup_sh to tool_pip--><g class="link" data-entity-1="ent0003" data-entity-2="ent0014" data-link-type="dependency" data-source-line="38" id="lnk33"><path d="M88.79,964.6446 C88.79,899.7946 88.79,750.2246 88.79,750.2246 C88.79,750.2246 259.23,750.2246 326.78,750.2246" fill="none" id="source_setup_sh-to-tool_pip" style="stroke:#181818;stroke-width:1;"/><polygon fill="#181818" points="332.78,750.2246,323.78,746.2246,327.78,750.2246,323.78,754.2246,332.78,750.2246" style="stroke:#181818;stroke-width:1;"/></g><!--link source_setup_sh to tool_venv--><g class="link" data-entity-1="ent0003" data-entity-2="ent0018" data-link-type="dependency" data-source-line="39" id="lnk34"><path d="M88.79,1023.4546 C88.79,1089.9246 88.79,1246.0546 88.79,1246.0546 C88.79,1246.0546 251.23,1246.0546 321.96,1246.0546" fill="none" id="source_setup_sh-to-tool_venv" style="stroke:#181818;stroke-width:1;"/><polygon fill="#181818" points="327.96,1246.0546,318.96,1242.0546,322.96,1246.0546,318.96,1250.0546,327.96,1246.0546" style="stroke:#181818;stroke-width:1;"/></g><?plantuml-src bPN1Zfmm38RlF4KqUsQstQfQzT9BErGzj9VfSIMK3O54X3XAp8vu-pfCWGWwKtfq_kzt4kmOr6WaurueRJGEx1U0qRPXtotAndFKO4DcP8qCWNdTA6ILzb948Gkjjevxth6WU0MNQAov2J9HAbdptc015d_oJh8VO24uBb96GEV0Iejd7EWqCJstZKaHEfJ4mKa67XLaCy8EnqQZwbyVB-3Rsi0bF0fz73hpOZ_HvaYWhEZmOCA1yS02z5x8ycegPrCfT4aczd1wLpmLftI38B5tnw1UxFETX2DL1ZLd40RwYXtu-AdeK4gA5deSFT5T_b7AIM4FnQduyELvxHmpvswWUzkj-xhlLTracCgQsEPAhzXN7jI2nMX362xQ18dXcX4ykI056rrrK2L433TCxqs2KBGcj6s3u4ukrBIo9hkMkdN1nd3DEEqMWeADxcLE7Thfv6gqLbxNrhJlwthXOhGcUgiHPKYoJIjhyatQjuMAqKpyeutp_FFVc-o_ZMb_xJTFNRRR4HjkFnnRRpTD9TtFpdNTROabtWrFbSxMKsCcwD7S4UDxkIFJMxcjJc_aDZ4-ZzjoyY6tOkpEp0BAgL_fP_3DSwVEVTTnFsHdmQsboVaqgOm6lXySQ8lXc7sT9klxZmoLzbLEWv_6r3XeZvcq5OlPVmC0?></g></svg>
