<?plantuml 1.2026.2?><svg xmlns="http://www.w3.org/2000/svg" xmlns:xlink="http://www.w3.org/1999/xlink" contentStyleType="text/css" data-diagram-type="DESCRIPTION" height="1957px" preserveAspectRatio="none" style="width:567px;height:1957px;background:#FFFFFF;" version="1.1" viewBox="0 0 567 1957" width="567px" zoomAndPan="magnify"><title>archility Tooling Integrations</title><defs/><g><g class="title" data-source-line="1"><text fill="#000000" font-family="Monospace" font-size="14" font-weight="bold" lengthAdjust="spacing" textLength="201.8653" x="175.7296" y="24.9659">archility&#160;Tooling&#160;Integrations</text></g><!--entity source_github_workflows_ci_yml--><g class="entity" data-qualified-name="source_github_workflows_ci_yml" data-source-line="7" id="ent0002"><rect fill="#E0F2FE" height="58.1358" rx="2.5" ry="2.5" style="stroke:#181818;stroke-width:0.5;" width="182.6234" x="51.6" y="630.7079"/><text fill="#000000" font-family="Monospace" font-size="14" lengthAdjust="spacing" textLength="162.6234" x="61.6" y="655.6739">.github/workflows/ci.yml</text><text fill="#000000" font-family="Monospace" font-size="14" lengthAdjust="spacing" textLength="105.3356" x="61.6" y="674.7418">9&#160;detected&#160;tools</text></g><!--entity source_github_workflows_python_publish_yml--><g class="entity" data-qualified-name="source_github_workflows_python_publish_yml" data-source-line="8" id="ent0003"><rect fill="#E0F2FE" height="58.1358" rx="2.5" ry="2.5" style="stroke:#181818;stroke-width:0.5;" width="271.831" x="7" y="1050.7079"/><text fill="#000000" font-family="Monospace" font-size="14" lengthAdjust="spacing" textLength="251.831" x="17" y="1075.6739">.github/workflows/python-publish.yml</text><text fill="#000000" font-family="Monospace" font-size="14" lengthAdjust="spacing" textLength="105.3356" x="17" y="1094.7418">7&#160;detected&#160;tools</text></g><!--entity source_github_workflows_secret_scan_yml--><g class="entity" data-qualified-name="source_github_workflows_secret_scan_yml" data-source-line="9" id="ent0004"><rect fill="#E0F2FE" height="58.1358" rx="2.5" ry="2.5" style="stroke:#181818;stroke-width:0.5;" width="246.7851" x="19.52" y="1265.7079"/><text fill="#000000" font-family="Monospace" font-size="14" lengthAdjust="spacing" textLength="226.7851" x="29.52" y="1290.6739">.github/workflows/secret-scan.yml</text><text fill="#000000" font-family="Monospace" font-size="14" lengthAdjust="spacing" textLength="105.3356" x="29.52" y="1309.7418">2&#160;detected&#160;tools</text></g><!--entity source_scripts_run_tachometer_profile_sh--><g class="entity" data-qualified-name="source_scripts_run_tachometer_profile_sh" data-source-line="10" id="ent0005"><rect fill="#E0F2FE" height="58.1358" rx="2.5" ry="2.5" style="stroke:#181818;stroke-width:0.5;" width="242.2912" x="21.77" y="126.7079"/><text fill="#000000" font-family="Monospace" font-size="14" lengthAdjust="spacing" textLength="222.2912" x="31.77" y="151.6739">scripts/run_tachometer_profile.sh</text><text fill="#000000" font-family="Monospace" font-size="14" lengthAdjust="spacing" textLength="105.3356" x="31.77" y="170.7418">3&#160;detected&#160;tools</text></g><!--entity source_setup_sh--><g class="entity" data-qualified-name="source_setup_sh" data-source-line="11" id="ent0006"><rect fill="#E0F2FE" height="58.1358" rx="2.5" ry="2.5" style="stroke:#181818;stroke-width:0.5;" width="125.3356" x="80.25" y="1638.7079"/><text fill="#000000" font-family="Monospace" font-size="14" lengthAdjust="spacing" textLength="56.0278" x="90.25" y="1663.6739">setup.sh</text><text fill="#000000" font-family="Monospace" font-size="14" lengthAdjust="spacing" textLength="105.3356" x="90.25" y="1682.7418">7&#160;detected&#160;tools</text></g><!--entity tool_actions_checkout--><g class="entity" data-qualified-name="tool_actions_checkout" data-source-line="12" id="ent0007"><path d="M384.8021,979.6036 C388.6539,973.4446 393.3965,973.5851 397.126,979.7262 C400.4317,972.9632 405.4334,974.2122 409.472,978.9387 C414.0923,971.7913 418.3529,971.9161 422.9939,978.919 C427.2687,972.6356 431.1013,973.6236 435.1973,979.1045 C438.5288,974.4186 443.7424,974.5722 446.5226,979.7382 C449.2208,974.0805 455.4873,973.5886 459.0645,978.7161 C463.1441,972.6788 468.4419,972.7384 472.815,978.3702 C477.9896,972.9347 482.7512,973.4348 485.6016,980.7085 C488.5726,974.5845 494.0529,974.6686 497.0915,980.6443 C501.0603,974.8108 505.4444,975.5678 509.4544,980.5974 C519.1357,983.007 520.4459,989.1667 515.4482,996.955 C520.8931,1005.4122 519.428,1010.5155 509.4847,1013.3885 C507.2371,1019.0599 501.8773,1019.5312 498.7014,1014.3073 C495.1144,1020.8175 488.9523,1021.4068 484.3611,1015.4636 C481.6276,1021.3661 477.6571,1022.9815 472.4271,1018.2708 C469.1462,1024.7747 464.6501,1024.5988 460.5701,1019.0573 C458.0417,1026.4965 451.5243,1026.9634 447.516,1020.4411 C442.6127,1026.8389 437.1536,1024.7632 434.6665,1018.0695 C430.7306,1024.8475 424.8089,1024.6921 421.2381,1017.7131 C416.7034,1023.2315 412.0151,1021.7529 409.3415,1015.7855 C405.4643,1020.903 400.1053,1020.5251 397.5614,1014.3898 C393.1005,1019.8529 386.8786,1020.5887 383.6171,1013.0986 C376.5191,1009.0471 375.1177,1001.0642 383.6987,997.0927 C375.4564,991.0645 376.4035,984.5819 384.8021,979.6036" fill="#FEF3C7" style="stroke:#181818;stroke-width:0.5;"/><text fill="#000000" font-family="Monospace" font-size="14" lengthAdjust="spacing" textLength="111.9156" x="390.37" y="1001.2039">actions/checkout</text></g><!--entity tool_actions_download_artifact--><g class="entity" data-qualified-name="tool_actions_download_artifact" data-source-line="13" id="ent0008"><path d="M357.1855,1232.9205 C361.1349,1227.625 365.9532,1226.1656 370.1042,1232.7004 C373.2909,1225.9948 377.2114,1225.3609 382.3053,1230.7813 C386.5128,1224.5945 393.2106,1226.3698 396.0591,1232.3212 C398.6567,1226.7108 404.2493,1224.8608 408.3779,1230.6695 C412.362,1225.0581 418.3875,1224.536 421.6586,1231.4269 C424.7221,1223.6279 430.874,1224.1227 435.5047,1229.8188 C439.0101,1224.1415 444.181,1224.5901 446.7954,1230.6742 C450.6625,1223.4914 457.8262,1222.8112 461.6027,1230.7629 C465.7626,1224.3892 471.1781,1224.674 474.564,1231.5216 C477.6524,1225.9853 483.0045,1225.6834 485.9883,1231.6257 C489.0717,1224.9388 495.4255,1224.1251 499.5796,1230.5126 C503.9471,1224.5648 509.4441,1225.8554 512.1484,1232.2116 C516.7459,1224.5539 521.3123,1225.1405 526.3926,1231.7288 C529.9933,1225.2811 536.3625,1224.6555 540.1733,1231.5111 C551.147,1233.698 554.0568,1241.5462 546.2576,1249.9332 C550.6339,1258.5727 547.3997,1263.6508 537.9898,1264.4248 C534.4539,1270.5948 530.3239,1272.8621 524.7625,1266.5758 C521.2888,1272.8885 516.2575,1272.6321 511.9435,1267.5185 C509.1498,1272.3682 504.2699,1273.2649 500.8635,1268.2035 C497.5687,1274.6453 491.1904,1275.9261 486.3691,1269.9913 C482.9533,1276.889 476.8849,1275.5183 473.4122,1270.0508 C470.5824,1276.8069 466.3874,1277.6575 461.6983,1271.774 C457.3429,1279.9195 450.2082,1278.8582 446.436,1271.2104 C442.3884,1277.0311 437.4072,1277.7875 433.8372,1270.7426 C430.0371,1276.3984 424.9492,1276.0484 421.0031,1270.9162 C417.3218,1276.654 411.6193,1276.5421 408.6973,1270.1462 C404.2648,1275.4691 398.9012,1275.9228 395.852,1268.7268 C391.5438,1275.1054 387.4413,1273.8246 383.3796,1268.4647 C379.1276,1274.4565 373.0397,1274.1787 369.8371,1267.3557 C365.698,1273.1516 358.9686,1273.1121 355.806,1266.2713 C343.7184,1265.3681 341.4346,1258.1029 347.3508,1248.5902 C344.0106,1239.3781 347.396,1233.892 357.1855,1232.9205" fill="#FEF3C7" style="stroke:#181818;stroke-width:0.5;"/><text fill="#000000" font-family="Monospace" font-size="14" lengthAdjust="spacing" textLength="168.8114" x="361.92" y="1253.2039">actions/download-artifact</text></g><!--entity tool_actions_setup_python--><g class="entity" data-qualified-name="tool_actions_setup_python" data-source-line="14" id="ent0009"><path d="M370.4391,812.7886 C372.6516,806.7338 376.8652,806.672 380.6839,811.2395 C385.5476,805.9098 389.8869,806.5586 393.2797,812.8357 C395.1757,808.2463 399.9736,806.3921 403.4296,811.1398 C406.7891,804.8472 410.3966,804.9538 414.4651,810.4776 C418.0453,804.9911 421.783,805.8893 425.2327,810.6152 C429.0714,806.2736 432.7098,806.602 435.486,811.7618 C438.6614,805.9573 443.7179,804.3045 448.4598,809.9936 C451.5056,805.0228 454.444,805.0813 457.565,809.9238 C461.8981,804.1812 466.2261,804.8219 469.9553,810.5748 C473.998,805.6374 477.8671,806.3012 480.9286,811.6243 C483.6971,806.2513 488.4605,806.9276 491.5699,811.2501 C494.6203,805.606 499.4218,806.3211 502.1525,811.5609 C506.3774,805.9187 510.1772,806.6022 514.2137,811.771 C518.0054,806.5006 522.4572,806.814 525.6576,812.3945 C534.8026,815.0958 536.6341,823.119 530.114,829.8252 C537.1489,837.9209 534.7016,844.4588 524.1114,846.0228 C520.6294,851.6135 516.851,851.5411 513.6667,845.7495 C511.6218,851.6253 506.6828,851.2488 503.2159,847.2552 C500.469,853.1179 495.8412,853.2693 491.9438,848.4719 C488.8227,854.5877 483.0731,854.3233 480.0038,848.4204 C477.5805,853.9861 474.3516,853.365 470.4533,849.9974 C467.2992,855.1305 462.7385,855.7664 459.2269,850.3789 C456.8521,855.7606 451.1919,856.2346 447.8429,851.4721 C444.2616,857.4957 439.7183,857.169 436.031,851.5798 C432.4563,856.1587 427.2635,856.8475 424.5666,850.6464 C420.9168,855.1299 416.6118,853.6187 414.8653,848.6856 C410.4132,852.7163 406.6824,852.3805 403.5281,847.1046 C399.3918,853.2135 395.4778,851.9096 391.5984,846.8306 C389.371,851.2565 384.7423,851.123 382.0888,847.3232 C378.3147,852.9986 372.7349,852.3849 370.2362,846.0631 C360.4993,844.7773 356.9289,837.6095 361.5011,828.9989 C356.5385,820.0828 359.0667,812.6979 370.4391,812.7886" fill="#FEF3C7" style="stroke:#181818;stroke-width:0.5;"/><text fill="#000000" font-family="Monospace" font-size="14" lengthAdjust="spacing" textLength="140.2795" x="376.19" y="833.2039">actions/setup-python</text></g><!--entity tool_actions_upload_artifact--><g class="entity" data-qualified-name="tool_actions_upload_artifact" data-source-line="15" id="ent0010"><path d="M366.8794,1315.9258 C369.3213,1310.6573 373.442,1311.1947 376.5374,1315.2488 C380.6259,1309.0982 385.8201,1309.8212 389.7054,1315.4755 C392.6709,1309.4966 398.4068,1309.5416 401.3435,1315.5036 C404.4454,1310.8247 410.1674,1310.4711 412.7979,1316.031 C415.9476,1309.956 419.7802,1310.5225 424.1735,1314.6434 C427.2199,1309.1369 431.977,1310.2266 434.7346,1314.9419 C438.1389,1308.9238 442.4382,1308.19 446.788,1313.9765 C450.9813,1308.3125 457.1443,1310.1543 459.665,1315.8694 C462.7698,1308.8357 467.2889,1309.8639 471.6972,1314.5287 C474.9216,1310.5288 479.4416,1310.1956 481.5844,1315.6588 C485.4864,1309.5241 489.0824,1309.4817 493.4402,1315.203 C497.3915,1309.731 501.8361,1310.5545 504.9865,1316.0465 C508.7851,1310.6378 513.2172,1310.328 517.1845,1315.8584 C520.2919,1309.467 525.6777,1309.6284 529.3095,1315.3327 C538.6789,1319.4822 540.0609,1325.7924 532.1877,1332.7854 C540.2207,1339.2865 538.7328,1345.1544 529.8406,1349.2414 C525.923,1355.1051 522.0862,1355.7646 517.0795,1350.4892 C513.4743,1355.8299 507.7487,1354.9167 504.9759,1349.5483 C501.7846,1354.5286 498.6426,1355.4309 494.739,1350.267 C490.7802,1357.3577 485.8229,1356.297 481.5023,1350.6428 C478.604,1356.4047 474.7649,1357.0245 470.3992,1352.1788 C467.9966,1357.7969 463.0082,1358.1427 460.0767,1352.6711 C456.4646,1360.0297 452.0985,1358.8722 447.1099,1354.1484 C442.6045,1358.7999 439.4607,1357.7078 436.8158,1352.2534 C433.4483,1358.3394 428.117,1358.0218 424.213,1352.8542 C420.0632,1358.3504 415.9813,1357.9639 413.1326,1351.6349 C408.6852,1356.2214 404.7666,1356.2231 401.5574,1350.2745 C398.5187,1355.9507 392.8167,1357.181 389.1062,1350.9787 C385.1565,1356.0832 380.3337,1356.5007 376.532,1350.8062 C373.382,1355.4693 368.3403,1355.2262 366.3139,1349.6814 C355.8235,1347.9474 352.1368,1340.5161 359.6928,1332.0176 C354.5203,1323.9123 357.2396,1317.4159 366.8794,1315.9258" fill="#FEF3C7" style="stroke:#181818;stroke-width:0.5;"/><text fill="#000000" font-family="Monospace" font-size="14" lengthAdjust="spacing" textLength="149.3374" x="371.66" y="1337.2039">actions/upload-artifact</text></g><!--entity tool_archility--><g class="entity" data-qualified-name="tool_archility" data-source-line="16" id="ent0011"><path d="M413.7994,643.8301 C417.3652,637.8834 421.854,638.6269 425.0683,644.1747 C428.2032,639.1851 431.7311,638.3208 435.7271,643.2492 C438.755,637.4682 444.1045,636.686 448.3823,641.797 C451.9634,638.1641 454.981,638.1189 457.4305,642.9996 C461.4826,638.0559 465.5462,637.7397 468.7684,643.8508 C472.4954,638.691 476.7337,637.945 480.5351,643.771 C488.4939,648.2336 488.4241,654.5377 482.2376,660.4446 C488.5965,667.0189 489.0176,673.6793 479.5825,677.8434 C478.1336,683.8187 473.4933,684.0236 469.5298,680.5064 C466.8596,685.9533 463.5696,686.9805 458.94,682.6227 C457.1968,688.5438 454.4596,691.2975 448.4249,687.0684 C442.8496,690.8285 437.6287,690.6257 436.1488,682.7483 C432.2316,686.9422 428.2284,685.4514 426.1291,680.7098 C420.7506,686.5297 416.5905,684.8826 413.9762,678.0539 C405.0923,673.2288 405.3683,667.0796 413.675,661.9332 C405.051,655.8835 405.6802,649.7648 413.7994,643.8301" fill="#FEF3C7" style="stroke:#181818;stroke-width:0.5;"/><text fill="#000000" font-family="Monospace" font-size="14" lengthAdjust="spacing" textLength="52.0378" x="420.31" y="665.2039">archility</text></g><!--entity tool_bash--><g class="entity" data-qualified-name="tool_bash" data-source-line="17" id="ent0012"><path d="M424.4142,727.9078 C427.3781,722.3549 431.6315,721.8253 435.1458,727.3759 C437.4561,721.9809 442.5141,719.7148 446.9177,725.0874 C451.3865,720.7164 456.0264,720.7484 458.7095,727.0587 C462.9285,721.3854 468.708,722.9457 471.3582,728.7827 C480.6466,733.4607 480.9393,738.6808 473.5679,745.5538 C479.9369,751.3988 477.2555,758.4334 469.8351,760.9311 C468.1829,765.9555 464.1935,768.2145 459.707,764.0579 C456.3673,771.0135 451.586,771.6952 447.0885,765.1391 C442.6871,769.1764 439.0298,769.769 436.2881,763.4142 C432.0625,768.5957 428.2819,768.1362 425.5124,762.0247 C416.0551,759.8525 413.6653,752.017 419.1141,744.4255 C412.371,737.3761 415.8012,730.0299 424.4142,727.9078" fill="#FEF3C7" style="stroke:#181818;stroke-width:0.5;"/><text fill="#000000" font-family="Monospace" font-size="14" lengthAdjust="spacing" textLength="31.8219" x="430.42" y="749.2039">bash</text></g><!--entity tool_black--><g class="entity" data-qualified-name="tool_black" data-source-line="18" id="ent0013"><path d="M422.8112,308.8532 C424.833,302.3588 430.8775,301.8391 435.0073,306.5611 C438.8781,299.9361 443.2047,299.7907 447.6324,306.0139 C452.042,300.5195 455.8921,300.7362 459.4159,306.9086 C463.661,301.1503 469.4544,301.1937 472.3093,308.3017 C480.3022,312.1633 481.0231,318.6647 474.5001,324.4906 C481.0122,330.6082 480.131,338.4189 471.4817,341.9092 C469.7548,348.1464 464.4959,350.6505 459.145,346.025 C458.1492,352.2827 452.837,353.3895 448.4839,349.5806 C441.9392,355.0675 436.5235,353.1901 434.9711,344.7403 C429.1756,350.6409 424.3728,349.2527 422.2437,341.3578 C411.6235,339.4828 410.1382,333.3657 416.1349,325.206 C410.2182,316.88 414.0106,311.1707 422.8112,308.8532" fill="#FEF3C7" style="stroke:#181818;stroke-width:0.5;"/><text fill="#000000" font-family="Monospace" font-size="14" lengthAdjust="spacing" textLength="34.2719" x="429.19" y="329.2039">black</text></g><!--entity tool_build--><g class="entity" data-qualified-name="tool_build" data-source-line="19" id="ent0014"><path d="M423.0282,895.5985 C427.1754,889.7643 431.967,889.6046 435.7822,895.9462 C438.8648,889.8018 444.2951,888.8821 448.354,894.9404 C451.1634,890.42 456.2454,889.2323 459.2228,894.7586 C463.2435,889.3371 468.4277,889.796 471.4544,895.8208 C482.3228,897.9442 481.8735,907.3509 475.8264,913.6275 C482.2788,920.3504 479.8408,926.4418 471.3224,928.6874 C469.4882,934.2538 464.1999,935.8007 459.8835,931.5921 C456.8677,937.9005 452.2794,938.7167 447.6863,933.2221 C443.6464,938.7617 437.3187,938.7966 434.5675,931.8664 C429.8136,935.781 425.1455,934.264 422.995,928.6909 C412.6763,928.2708 409.901,919.5091 414.9757,911.7866 C409.1928,903.833 412.2948,895.3363 423.0282,895.5985" fill="#FEF3C7" style="stroke:#181818;stroke-width:0.5;"/><text fill="#000000" font-family="Monospace" font-size="14" lengthAdjust="spacing" textLength="33.0959" x="429.78" y="917.2039">build</text></g><!--entity tool_cat--><g class="entity" data-qualified-name="tool_cat" data-source-line="20" id="ent0015"><path d="M430.4282,1820.252 C434.3119,1810.142 441.1792,1810.5469 447.9421,1817.2533 C455.4259,1810.561 459.7846,1813.4205 463.3938,1821.3483 C472.0092,1824.5011 472.4973,1829.9933 467.1919,1836.6103 C473.1394,1842.7674 472.7612,1850.6645 463.3111,1853.2252 C460.9883,1863.0409 453.7067,1864.0402 446.3482,1858.9596 C438.5332,1865.0514 433.2819,1862.3264 430.8727,1853.3922 C420.1125,1852.1426 418.7003,1846.6966 423.3237,1837.9343 C417.614,1829.8636 419.1607,1821.5015 430.4282,1820.252" fill="#FEF3C7" style="stroke:#181818;stroke-width:0.5;"/><text fill="#000000" font-family="Monospace" font-size="14" lengthAdjust="spacing" textLength="19.6279" x="436.51" y="1841.2039">cat</text></g><!--entity tool_chmod--><g class="entity" data-qualified-name="tool_chmod" data-source-line="21" id="ent0016"><path d="M418.2823,1903.7778 C422.528,1896.8729 428.5693,1897.2195 433.1388,1903.4105 C437.4793,1896.671 442.3493,1897.2555 447.0234,1903.0408 C452.6784,1896.0898 458.2201,1895.7484 463.3919,1903.576 C468.9156,1896.4862 474.0256,1897.8159 478.2149,1904.9651 C488.0694,1906.3347 490.5128,1911.3018 486.8906,1920.2972 C490.9046,1929.0713 487.5023,1937.4603 476.4744,1936.6575 C473.5104,1944.9319 467.9132,1944.7339 462.2491,1939.5013 C458.9486,1946.6948 454.4026,1949.4887 447.957,1942.7209 C442.5025,1950.2426 435.6875,1950.2372 431.9251,1941.0931 C425.8048,1947.1658 419.6566,1945.694 417.8093,1937.0066 C409.9888,1934.3955 409.0556,1927.296 414.516,1921.8072 C408.26,1915.6871 409.4811,1906.7525 418.2823,1903.7778" fill="#FEF3C7" style="stroke:#181818;stroke-width:0.5;"/><text fill="#000000" font-family="Monospace" font-size="14" lengthAdjust="spacing" textLength="45.5418" x="423.56" y="1925.2039">chmod</text></g><!--entity tool_curl--><g class="entity" data-qualified-name="tool_curl" data-source-line="22" id="ent0017"><path d="M427.5332,1483.9253 C432.4953,1474.364 442.0439,1473.6255 447.7562,1483.1296 C454.684,1475.2724 460.4774,1475.2969 465.7354,1484.8536 C476.291,1485.5033 478.5417,1492.0972 473.7255,1500.5645 C478.5033,1509.394 475.1004,1514.3586 466.0939,1516.6472 C460.8299,1526.7744 455.032,1527.4759 447.2729,1519.1988 C440.5221,1526.9407 432.0894,1527.774 427.8221,1516.6398 C418.8182,1515.3319 416.0961,1508.3738 422.339,1501.5323 C415.019,1494.3011 418.7846,1486.416 427.5332,1483.9253" fill="#FEF3C7" style="stroke:#181818;stroke-width:0.5;"/><text fill="#000000" font-family="Monospace" font-size="14" lengthAdjust="spacing" textLength="24.7659" x="433.95" y="1505.2039">curl</text></g><!--entity tool_gitleaks_gitleaks_action--><g class="entity" data-qualified-name="tool_gitleaks_gitleaks_action" data-source-line="23" id="ent0018"><path d="M363.4866,1400.893 C367.627,1393.5143 371.857,1394.0066 377.0958,1399.7541 C381.0075,1394.2092 385.8395,1394.4052 388.963,1400.5539 C392.2192,1394.6947 396.7025,1394.979 400.0729,1400.4418 C403.2246,1395.0893 408.1698,1393.4346 412.2506,1399.4461 C414.9364,1393.6664 420.8213,1391.9679 424.5572,1398.3866 C428.946,1392.241 433.6679,1394.4888 436.6086,1399.897 C439.1746,1395.0278 442.7211,1394.0315 446.4222,1398.733 C450.4549,1391.4053 456.9427,1393.4639 460.2878,1399.4491 C462.738,1395.0407 467.397,1394.7365 470.2031,1399.0442 C473.7561,1393.319 477.9752,1393.4517 481.8887,1398.6588 C486.6345,1393.5886 492.6664,1393.3013 495.8067,1400.4827 C498.805,1395.3534 503.7892,1394.0673 507.7006,1399.4495 C510.8313,1394.2607 514.4391,1394.0943 517.9236,1399.0946 C523.1506,1393.34 527.0626,1394.1017 530.2187,1401.0923 C539.8089,1401.8242 543.2736,1408.5209 539.5493,1417.0418 C545.4577,1427.3892 540.6616,1434.2098 529.273,1434.1943 C525.714,1438.7655 521.8013,1438.1223 518.9772,1433.3818 C516.4718,1441.1453 511.4692,1441.7071 506.1696,1436.0479 C503.0435,1441.1547 499.8217,1441.0319 495.9066,1436.927 C491.4434,1442.3778 486.6566,1444.0043 482.369,1436.7401 C478.9487,1442.7809 474.2914,1442.7686 470.304,1437.3365 C467.869,1443.7211 464.5042,1444.0873 459.7316,1439.6122 C456.0475,1445.4364 451.7673,1446.0617 447.0391,1440.8085 C442.2463,1445.4504 438.0559,1445.6466 434.5881,1439.3062 C430.8228,1443.9129 425.5224,1443.9518 422.9212,1438.0177 C419.4398,1443.3919 415.151,1442.4789 412.3538,1437.3305 C408.5966,1444.1314 403.3016,1443.4254 399.7592,1437.124 C395.4249,1441.5215 390.8675,1441.0186 388.1051,1435.3111 C384.2341,1440.9883 378.8076,1438.6124 376.6568,1433.4879 C373.741,1439.9809 367.9837,1440.2292 364.2563,1434.2979 C354.5482,1431.6607 352.9888,1423.8995 359.3231,1416.7519 C352.3684,1410.4309 355.2718,1403.2313 363.4866,1400.893" fill="#FEF3C7" style="stroke:#181818;stroke-width:0.5;"/><text fill="#000000" font-family="Monospace" font-size="14" lengthAdjust="spacing" textLength="151.7174" x="370.47" y="1421.2039">gitleaks/gitleaks-action</text></g><!--entity tool_inkscape--><g class="entity" data-qualified-name="tool_inkscape" data-source-line="24" id="ent0019"><path d="M411.4323,1569.0848 C413.5245,1562.5099 418.3468,1561.8861 422.764,1566.7894 C426.1545,1559.7849 432.4139,1559.0542 436.2968,1566.3225 C439.9303,1561.3758 444.3179,1560.153 448.2874,1565.9474 C452.081,1561.7139 455.8038,1561.9378 458.34,1567.269 C463.2097,1560.7715 467.1862,1560.9918 471.0827,1568.1754 C473.9093,1562.371 478.7556,1562.9513 482.3353,1567.3443 C492.7901,1570.4981 496.0166,1576.5546 488.26,1585.6142 C494.5897,1592.9888 493.1519,1599.2025 483.1301,1601.1927 C481.2266,1607.4981 477.3288,1608.5008 472.0627,1604.9801 C469.3368,1610.5221 463.216,1611.4647 459.3966,1606.2702 C457.3746,1612.977 452.9453,1615.3857 446.8958,1610.6826 C441.8161,1615.5725 436.7853,1613.5066 434.4576,1607.532 C429.7435,1610.7339 425.7149,1610.1738 424.5718,1603.8327 C419.5593,1609.8857 415.119,1609.0209 411.8866,1602.0932 C402.5538,1599.9127 399.6182,1592.3366 406.2395,1584.9122 C399.899,1577.4116 403.0725,1571.7623 411.4323,1569.0848" fill="#FEF3C7" style="stroke:#181818;stroke-width:0.5;"/><text fill="#000000" font-family="Monospace" font-size="14" lengthAdjust="spacing" textLength="57.5258" x="417.57" y="1589.2039">inkscape</text></g><!--entity tool_mkdir--><g class="entity" data-qualified-name="tool_mkdir" data-source-line="25" id="ent0020"><path d="M421.3513,1651.7953 C425.1759,1645.9592 430.5033,1645.9581 433.8287,1652.3065 C437.3558,1645.4431 442.9226,1645.7206 447.6547,1650.9261 C451.5926,1644.8931 455.8404,1645.4172 460.1356,1650.5259 C464.4827,1645.1838 469.7354,1644.7413 472.8407,1651.7984 C485.4444,1652.018 487.9808,1659.2073 483.5845,1669.6553 C488.1729,1678.4085 482.6785,1684.839 473.7693,1684.9043 C470.8307,1691.1677 466.9579,1693.4213 461.1134,1688.071 C458.2657,1694.7574 452.0746,1696.4015 446.7539,1691.0114 C441.3232,1695.5293 437.4374,1693.3775 435.365,1687.3757 C429.6831,1694.5977 423.2704,1692.6197 420.2183,1684.7384 C410.8684,1682.6754 406.4933,1678.1798 412.3515,1668.6708 C406.8952,1658.2365 411.1596,1653.8844 421.3513,1651.7953" fill="#FEF3C7" style="stroke:#181818;stroke-width:0.5;"/><text fill="#000000" font-family="Monospace" font-size="14" lengthAdjust="spacing" textLength="38.5699" x="427.04" y="1673.2039">mkdir</text></g><!--entity tool_pip--><g class="entity" data-qualified-name="tool_pip" data-source-line="26" id="ent0021"><path d="M430.2012,1063.3066 C434.5455,1055.6787 442.0107,1054.2161 447.4651,1062.0686 C454.8731,1053.9547 460.9818,1055.9022 465.2705,1065.2494 C474.6419,1066.5015 478.7019,1071.3941 473.867,1080.6012 C479.9578,1090.3279 474.2844,1096.752 464.3961,1097.5496 C461.4861,1107.5252 455.7952,1109.8925 447.4133,1103.0874 C439.0973,1110.1997 431.2826,1106.2965 429.2946,1096.3617 C421.482,1092.083 419.05,1087.4608 426.5587,1080.5339 C419.4908,1073.3159 420.3757,1066.9528 430.2012,1063.3066" fill="#FEF3C7" style="stroke:#181818;stroke-width:0.5;"/><text fill="#000000" font-family="Monospace" font-size="14" lengthAdjust="spacing" textLength="20.8319" x="435.91" y="1085.2039">pip</text></g><!--entity tool_pre_commit--><g class="entity" data-qualified-name="tool_pre_commit" data-source-line="27" id="ent0022"><path d="M402.4872,391.6907 C405.2731,386.5944 409.849,386.9561 412.5929,391.7338 C416.6871,385.4865 422.0535,386.916 425.5236,392.4206 C428.857,386.9108 432.1273,386.4829 435.8843,392.0235 C438.7895,385.0959 443.3597,385.06 448.1078,390.1488 C451.9356,384.8867 456.3472,386.9919 458.6408,391.7599 C461.7878,386.6092 465.8337,386.3945 469.369,391.3474 C473.2236,385.4826 478.146,386.608 481.2261,392.1523 C484.3073,386.4244 488.9681,387.7286 491.9563,392.2497 C500.1848,396.061 500.8661,403.0747 493.7036,408.5371 C501.724,413.5006 501.205,419.1823 493.8724,424.3101 C490.676,429.7326 486.3713,430.475 482.4297,425.0998 C479.7579,431.7881 474.6786,432.0445 470.151,427.0502 C466.1697,432.4565 462.838,431.7176 459.1046,426.7852 C456.685,432.4961 451.3988,432.6378 448.3836,427.3666 C444.9617,432.1221 439.8444,432.5412 436.7158,427.0332 C432.6778,430.8305 427.9495,431.1152 425.8036,424.959 C422.7916,432.001 416.6341,431.2354 412.5827,426.0863 C409.0268,430.583 403.3787,430.2198 401.0147,424.7087 C392.2079,423.5597 389.2525,415.3143 394.1287,408.3911 C389.4121,398.9882 390.8316,392.8994 402.4872,391.6907" fill="#FEF3C7" style="stroke:#181818;stroke-width:0.5;"/><text fill="#000000" font-family="Monospace" font-size="14" lengthAdjust="spacing" textLength="76.8317" x="407.91" y="413.2039">pre-commit</text></g><!--entity tool_pypa_gh_action_pypi_publish--><g class="entity" data-qualified-name="tool_pypa_gh_action_pypi_publish" data-source-line="28" id="ent0023"><path d="M347.3646,1148.7222 C351.3144,1140.9713 358.3079,1142.6651 361.9552,1149.0348 C366.2157,1141.2076 372.7232,1141.1815 377.2585,1148.7618 C380.622,1142.4812 386.9184,1140.883 390.8436,1148.2006 C393.8459,1140.9272 400.808,1140.1063 405.1908,1146.7805 C408.3675,1140.1268 414.7109,1141.0387 418.1284,1146.5238 C423.0305,1140.7508 429.0512,1141.6727 432.5657,1148.1581 C436.686,1141.7819 442.005,1140.9724 447.113,1146.9995 C451.5372,1141.3273 458.1852,1141.2922 461.5825,1148.1823 C464.9279,1140.9341 470.1805,1140.5961 474.8599,1146.8726 C480.1052,1140.2351 484.4221,1140.8164 489.2618,1147.3173 C493.2263,1139.3483 500.9288,1139.2192 505.257,1146.9468 C509.3972,1141.2117 514.7567,1142.0817 518.3765,1147.556 C522.536,1140.8381 528.4207,1140.2596 532.6011,1147.5347 C538.3895,1141.4508 543.2198,1142.3048 547.615,1149.1523 C557.0716,1151.2145 560.1711,1156.1517 556.2301,1165.3428 C560.3244,1174.5295 559.0084,1181.3368 547.248,1181.9466 C542.7535,1188.9542 538.3403,1188.568 533.4488,1182.3611 C527.8005,1188.8559 523.3096,1187.739 518.4726,1181.4133 C514.8048,1188.3464 509.2629,1190.5739 503.316,1183.964 C499.1575,1189.3466 494.4898,1190.6318 490.5832,1183.7035 C487.0137,1191.5514 479.8873,1191.0745 476.3132,1183.7078 C472.363,1191.1923 465.4557,1189.974 462.0692,1183.1467 C458.5111,1189.7097 450.9629,1190.3596 446.7028,1183.9802 C441.5664,1190.2755 436.702,1190.4294 433.041,1182.5574 C429.7402,1189.5078 424.2331,1189.7067 419.1242,1184.6537 C413.3081,1191.1409 408.3027,1189.5659 404.4889,1182.4927 C400.1187,1190.1854 394.5344,1190.6366 389.6054,1183.0366 C385.5573,1187.775 380.7095,1188.0667 377.42,1182.1676 C371.9949,1189.1736 366.572,1189.7827 362.1386,1181.1956 C357.3322,1189.2245 352.0601,1188.4291 347.0113,1181.4397 C339.123,1177.7585 336.2665,1171.5609 344.0343,1165.0381 C336.3835,1158.6154 339.6495,1152.0085 347.3646,1148.7222" fill="#FEF3C7" style="stroke:#181818;stroke-width:0.5;"/><text fill="#000000" font-family="Monospace" font-size="14" lengthAdjust="spacing" textLength="184.9953" x="353.83" y="1169.2039">pypa/gh-action-pypi-publish</text></g><!--entity tool_ruff--><g class="entity" data-qualified-name="tool_ruff" data-source-line="29" id="ent0024"><path d="M427.8832,475.9253 C432.7531,466.5258 442.1361,465.7936 447.7562,475.1296 C454.5649,467.4368 460.2465,467.4715 465.3854,476.8536 C475.941,477.5033 478.1917,484.0972 473.3755,492.5645 C478.1534,501.394 474.7504,506.3586 465.7439,508.6472 C460.6011,518.6025 454.9108,519.3056 447.2729,511.1988 C440.6235,518.788 432.3381,519.587 428.1721,508.6398 C419.1682,507.3319 416.4461,500.3738 422.689,493.5323 C415.369,486.3011 419.1346,478.416 427.8832,475.9253" fill="#FEF3C7" style="stroke:#181818;stroke-width:0.5;"/><text fill="#000000" font-family="Monospace" font-size="14" lengthAdjust="spacing" textLength="24.0659" x="434.3" y="497.2039">ruff</text></g><!--entity tool_run--><g class="entity" data-qualified-name="tool_run" data-source-line="30" id="ent0025"><path d="M428.0002,56.8706 C432.8718,47.7293 441.1748,46.1296 448.2351,54.3143 C454.0987,46.5504 462.4235,48.2883 465.8227,56.9525 C475.4123,57.6613 481.1016,62.4144 475.6144,72.5737 C480.8485,82.0202 477.3465,87.44 466.973,88.3228 C466.7346,101.0475 460.4031,106.0421 448.4097,99.8709 C437.503,104.9036 430.3406,103.4176 429.6402,89.6703 C419.9793,88.8356 416.1911,80.744 421.5439,72.7327 C416.4885,64.6057 418.9047,59.2377 428.0002,56.8706" fill="#FEF3C7" style="stroke:#181818;stroke-width:0.5;"/><text fill="#000000" font-family="Monospace" font-size="14" lengthAdjust="spacing" textLength="23.0859" x="434.79" y="77.2039">run</text></g><!--entity tool_summarize--><g class="entity" data-qualified-name="tool_summarize" data-source-line="31" id="ent0026"><path d="M403.8662,139.7082 C409.0605,132.088 414.2979,133.6617 418.7254,140.4963 C422.3419,133.3452 428.0494,133.5795 432.1302,140.0389 C436.9642,132.5754 441.7309,131.3054 447.9359,138.5673 C451.9967,131.1997 459.0965,131.4657 462.7206,139.0007 C467.3051,132.1413 474.1965,132.4184 477.4124,140.3593 C481.0489,134.5447 487.749,133.9823 490.9117,140.8631 C500.2794,140.9338 504.3894,148.7506 499.2993,156.5512 C505.2439,165.1643 501.5713,171.1668 491.9764,172.7589 C488.1944,180.6105 480.6045,180.5184 475.6862,174.0518 C472.3799,182.1689 467.0983,181.6599 461.8395,176.0165 C459.0474,183.3974 452.1639,182.8845 448.1046,177.3659 C443.2756,182.9427 438.3055,183.9218 433.9681,176.8179 C428.4102,182.4858 422.0888,181.7947 418.9919,174.0665 C414.802,181.7863 408.3119,181.8264 404.4376,173.7753 C393.8776,172.9199 391.9451,163.6176 397.3871,156.3045 C392.0733,149.1206 393.1392,140.6298 403.8662,139.7082" fill="#FEF3C7" style="stroke:#181818;stroke-width:0.5;"/><text fill="#000000" font-family="Monospace" font-size="14" lengthAdjust="spacing" textLength="73.2617" x="409.7" y="161.2039">summarize</text></g><!--entity tool_tachometer--><g class="entity" data-qualified-name="tool_tachometer" data-source-line="32" id="ent0027"><path d="M402.6672,223.6907 C405.4407,218.6174 409.996,218.9775 412.7274,223.7338 C416.8084,217.5092 422.1557,218.9347 425.6126,224.4206 C428.9305,218.9344 432.1863,218.5078 435.9278,224.0235 C438.8186,217.1195 443.3721,217.0811 448.1058,222.1488 C451.9208,216.9114 456.3124,219.0105 458.5933,223.7599 C461.7261,218.6305 465.7549,218.416 469.276,223.3474 C473.1174,217.506 478.0207,218.6284 481.0876,224.1523 C484.156,218.4488 488.7969,219.7477 491.7723,224.2497 C500.0008,228.061 500.6821,235.0747 493.5196,240.5371 C501.54,245.5006 501.021,251.1823 493.6884,256.3101 C490.5061,261.712 486.2187,262.4527 482.2912,257.0998 C479.6329,263.7654 474.5721,264.0238 470.058,259.0502 C466.0925,264.4338 462.7746,263.6977 459.0571,258.7852 C456.6491,264.4725 451.3853,264.6148 448.3816,259.3666 C444.9725,264.1032 439.875,264.5201 436.7593,259.0332 C432.7347,262.8121 428.0251,263.0921 425.8926,256.959 C422.893,263.9778 416.7563,263.2166 412.7172,258.0863 C409.1731,262.5639 403.547,262.1996 401.1947,256.7087 C392.3879,255.5597 389.4325,247.3143 394.3087,240.3911 C389.5921,230.9882 391.0116,224.8994 402.6672,223.6907" fill="#FEF3C7" style="stroke:#181818;stroke-width:0.5;"/><text fill="#000000" font-family="Monospace" font-size="14" lengthAdjust="spacing" textLength="76.4677" x="408.09" y="245.2039">tachometer</text></g><!--entity tool_unittest--><g class="entity" data-qualified-name="tool_unittest" data-source-line="33" id="ent0028"><path d="M415.3773,559.4511 C420.3645,550.3991 426.3024,551.7503 431.6584,559.0848 C435.6531,550.1474 443.5567,551.7874 447.8242,558.8084 C453.3635,550.4565 460.2829,550.9878 464.1807,560.3261 C468.8249,554.2493 475.9759,554.3172 479.9273,561.17 C489.129,561.8362 494.1353,568.5437 488.6973,577.2129 C495.231,587.622 490.6046,594.0356 479.1089,594.367 C474.7935,602.3846 467.1874,601.624 462.7802,594.4657 C459.3403,601.0953 452.5821,602.7725 447.554,596.3134 C442.3681,604.0271 435.6819,602.6673 431.9375,594.8628 C427.0319,604.2347 418.6053,602.5538 414.4329,594.141 C403.8524,590.4287 404.1713,582.3951 411.8921,576.1046 C405.9362,568.8141 407.4502,563.8362 415.3773,559.4511" fill="#FEF3C7" style="stroke:#181818;stroke-width:0.5;"/><text fill="#000000" font-family="Monospace" font-size="14" lengthAdjust="spacing" textLength="50.6798" x="420.99" y="581.2039">unittest</text></g><!--entity tool_venv--><g class="entity" data-qualified-name="tool_venv" data-source-line="34" id="ent0029"><path d="M425.2692,1736.2346 C427.9372,1731.8391 432.4454,1730.701 435.5982,1735.7016 C438.8179,1728.7413 442.7579,1727.8271 448.3109,1733.3198 C451.4412,1728.5704 456.6736,1729.7375 458.9367,1734.3085 C463.3064,1730.3582 467.1554,1731.0411 469.4838,1736.5779 C479.4013,1739.3487 479.2965,1745.7252 473.7992,1752.6381 C480.6185,1760.5169 477.7781,1765.7164 469.2385,1769.4217 C467.0896,1775.5594 463.5429,1777.3768 457.9919,1773.0934 C456.2194,1777.9626 451.4365,1780.0075 447.4855,1775.5466 C441.5966,1779.1028 437.617,1778.3886 435.2477,1771.4446 C431.3225,1775.993 426.1946,1774.183 424.6388,1768.8903 C414.924,1766.7687 412.3377,1759.0305 419.688,1751.9281 C413.9433,1745.001 416.4003,1737.9646 425.2692,1736.2346" fill="#FEF3C7" style="stroke:#181818;stroke-width:0.5;"/><text fill="#000000" font-family="Monospace" font-size="14" lengthAdjust="spacing" textLength="30.7719" x="430.94" y="1757.2039">venv</text></g><g class="entity" data-qualified-name="toolingGraphSummary" data-source-line="64" id="ent0058"><path d="M39.16,46.0679 L39.16,91.4799 L246.6712,91.4799 L246.6712,56.0679 L236.6712,46.0679 L39.16,46.0679" fill="#FEFFDD" style="stroke:#181818;stroke-width:0.5;"/><path d="M236.6712,46.0679 L236.6712,56.0679 L246.6712,56.0679 L236.6712,46.0679" fill="#FEFFDD" style="stroke:#181818;stroke-width:1;"/><text fill="#000000" font-family="Monospace" font-size="13" lengthAdjust="spacing" textLength="186.5112" x="45.16" y="64.9649">Scanned&#160;5&#160;tooling&#160;entrypoints.</text><text fill="#000000" font-family="Monospace" font-size="13" lengthAdjust="spacing" textLength="179.2182" x="45.16" y="82.6709">Detected&#160;23&#160;third-party&#160;tools.</text></g><!--link source_github_workflows_ci_yml to tool_actions_checkout--><g class="link" data-entity-1="ent0002" data-entity-2="ent0007" data-link-type="dependency" data-source-line="35" id="lnk30"><path d="M112.83,689.0779 C112.83,768.7679 112.83,983.5079 112.83,983.5079 C112.83,983.5079 271.25,983.5079 369.19,983.5079" fill="none" id="source_github_workflows_ci_yml-to-tool_actions_checkout" style="stroke:#181818;stroke-width:1;"/><polygon fill="#181818" points="375.19,983.5079,366.19,979.5079,370.19,983.5079,366.19,987.5079,375.19,983.5079" style="stroke:#181818;stroke-width:1;"/></g><!--link source_github_workflows_ci_yml to tool_actions_setup_python--><g class="link" data-entity-1="ent0002" data-entity-2="ent0009" data-link-type="dependency" data-source-line="36" id="lnk31"><path d="M234.69,664.6779 C300.22,664.6779 376.83,664.6779 376.83,664.6779 C376.83,664.6779 376.83,751.3779 376.83,797.0079" fill="none" id="source_github_workflows_ci_yml-to-tool_actions_setup_python" style="stroke:#181818;stroke-width:1;"/><polygon fill="#181818" points="376.83,803.0079,380.83,794.0079,376.83,798.0079,372.83,794.0079,376.83,803.0079" style="stroke:#181818;stroke-width:1;"/></g><!--link source_github_workflows_ci_yml to tool_archility--><g class="link" data-entity-1="ent0002" data-entity-2="ent0011" data-link-type="dependency" data-source-line="37" id="lnk32"><path d="M234.36,654.8679 C291.07,654.8679 355.19,654.8679 398.85,654.8679" fill="none" id="source_github_workflows_ci_yml-to-tool_archility" style="stroke:#181818;stroke-width:1;"/><polygon fill="#181818" points="404.85,654.8679,395.85,650.8679,399.85,654.8679,395.85,658.8679,404.85,654.8679" style="stroke:#181818;stroke-width:1;"/></g><!--link source_github_workflows_ci_yml to tool_bash--><g class="link" data-entity-1="ent0002" data-entity-2="ent0012" data-link-type="dependency" data-source-line="38" id="lnk33"><path d="M173.83,689.1579 C173.83,713.3779 173.83,743.7779 173.83,743.7779 C173.83,743.7779 337.49,743.7779 409.07,743.7779" fill="none" id="source_github_workflows_ci_yml-to-tool_bash" style="stroke:#181818;stroke-width:1;"/><polygon fill="#181818" points="415.07,743.7779,406.07,739.7779,410.07,743.7779,406.07,747.7779,415.07,743.7779" style="stroke:#181818;stroke-width:1;"/></g><!--link source_github_workflows_ci_yml to tool_black--><g class="link" data-entity-1="ent0002" data-entity-2="ent0013" data-link-type="dependency" data-source-line="39" id="lnk34"><path d="M96.83,630.2479 C96.83,548.2579 96.83,323.7779 96.83,323.7779 C96.83,323.7779 321,323.7779 407.76,323.7779" fill="none" id="source_github_workflows_ci_yml-to-tool_black" style="stroke:#181818;stroke-width:1;"/><polygon fill="#181818" points="413.76,323.7779,404.76,319.7779,408.76,323.7779,404.76,327.7779,413.76,323.7779" style="stroke:#181818;stroke-width:1;"/></g><!--link source_github_workflows_ci_yml to tool_pip--><g class="link" data-entity-1="ent0002" data-entity-2="ent0021" data-link-type="dependency" data-source-line="40" id="lnk35"><path d="M234.62,674.4979 C266.22,674.4979 293.83,674.4979 293.83,674.4979 C293.83,674.4979 293.83,1067.5079 293.83,1067.5079 C293.83,1067.5079 370.95,1067.5079 414.46,1067.5079" fill="none" id="source_github_workflows_ci_yml-to-tool_pip" style="stroke:#181818;stroke-width:1;"/><polygon fill="#181818" points="420.46,1067.5079,411.46,1063.5079,415.46,1067.5079,411.46,1071.5079,420.46,1067.5079" style="stroke:#181818;stroke-width:1;"/></g><!--link source_github_workflows_ci_yml to tool_pre_commit--><g class="link" data-entity-1="ent0002" data-entity-2="ent0022" data-link-type="dependency" data-source-line="41" id="lnk36"><path d="M234.58,645.0579 C308.01,645.0579 398.83,645.0579 398.83,645.0579 C398.83,645.0579 398.83,499.6379 398.83,438.7179" fill="none" id="source_github_workflows_ci_yml-to-tool_pre_commit" style="stroke:#181818;stroke-width:1;"/><polygon fill="#181818" points="398.83,432.7179,394.83,441.7179,398.83,437.7179,402.83,441.7179,398.83,432.7179" style="stroke:#181818;stroke-width:1;"/></g><!--link source_github_workflows_ci_yml to tool_ruff--><g class="link" data-entity-1="ent0002" data-entity-2="ent0024" data-link-type="dependency" data-source-line="42" id="lnk37"><path d="M142.83,630.5079 C142.83,582.3779 142.83,491.7779 142.83,491.7779 C142.83,491.7779 338.15,491.7779 412.86,491.7779" fill="none" id="source_github_workflows_ci_yml-to-tool_ruff" style="stroke:#181818;stroke-width:1;"/><polygon fill="#181818" points="418.86,491.7779,409.86,487.7779,413.86,491.7779,409.86,495.7779,418.86,491.7779" style="stroke:#181818;stroke-width:1;"/></g><!--link source_github_workflows_ci_yml to tool_unittest--><g class="link" data-entity-1="ent0002" data-entity-2="ent0028" data-link-type="dependency" data-source-line="43" id="lnk38"><path d="M188.83,630.3979 C188.83,606.1679 188.83,575.7779 188.83,575.7779 C188.83,575.7779 326.92,575.7779 399.53,575.7779" fill="none" id="source_github_workflows_ci_yml-to-tool_unittest" style="stroke:#181818;stroke-width:1;"/><polygon fill="#181818" points="405.53,575.7779,396.53,571.7779,400.53,575.7779,396.53,579.7779,405.53,575.7779" style="stroke:#181818;stroke-width:1;"/></g><!--link source_github_workflows_python_publish_yml to tool_actions_checkout--><g class="link" data-entity-1="ent0003" data-entity-2="ent0007" data-link-type="dependency" data-source-line="44" id="lnk39"><path d="M274.83,1050.3979 C274.83,1026.1679 274.83,995.7779 274.83,995.7779 C274.83,995.7779 321.97,995.7779 369.09,995.7779" fill="none" id="source_github_workflows_python_publish_yml-to-tool_actions_checkout" style="stroke:#181818;stroke-width:1;"/><polygon fill="#181818" points="375.09,995.7779,366.09,991.7779,370.09,995.7779,366.09,999.7779,375.09,995.7779" style="stroke:#181818;stroke-width:1;"/></g><!--link source_github_workflows_python_publish_yml to tool_actions_download_artifact--><g class="link" data-entity-1="ent0003" data-entity-2="ent0008" data-link-type="dependency" data-source-line="45" id="lnk40"><path d="M272.83,1109.2179 C272.83,1156.5879 272.83,1244.4779 272.83,1244.4779 C272.83,1244.4779 301.99,1244.4779 340.66,1244.4779" fill="none" id="source_github_workflows_python_publish_yml-to-tool_actions_download_artifact" style="stroke:#181818;stroke-width:1;"/><polygon fill="#181818" points="346.66,1244.4779,337.66,1240.4779,341.66,1244.4779,337.66,1248.4779,346.66,1244.4779" style="stroke:#181818;stroke-width:1;"/></g><!--link source_github_workflows_python_publish_yml to tool_actions_setup_python--><g class="link" data-entity-1="ent0003" data-entity-2="ent0009" data-link-type="dependency" data-source-line="46" id="lnk41"><path d="M267.83,1050.3779 C267.83,983.8979 267.83,827.7779 267.83,827.7779 C267.83,827.7779 308.93,827.7779 354.74,827.7779" fill="none" id="source_github_workflows_python_publish_yml-to-tool_actions_setup_python" style="stroke:#181818;stroke-width:1;"/><polygon fill="#181818" points="360.74,827.7779,351.74,823.7779,355.74,827.7779,351.74,831.7779,360.74,827.7779" style="stroke:#181818;stroke-width:1;"/></g><!--link source_github_workflows_python_publish_yml to tool_actions_upload_artifact--><g class="link" data-entity-1="ent0003" data-entity-2="ent0010" data-link-type="dependency" data-source-line="47" id="lnk42"><path d="M269.83,1109.1579 C269.83,1172.3579 269.83,1315.5379 269.83,1315.5379 C269.83,1315.5379 306.75,1315.5379 350.27,1315.5379" fill="none" id="source_github_workflows_python_publish_yml-to-tool_actions_upload_artifact" style="stroke:#181818;stroke-width:1;"/><polygon fill="#181818" points="356.27,1315.5379,347.27,1311.5379,351.27,1315.5379,347.27,1319.5379,356.27,1315.5379" style="stroke:#181818;stroke-width:1;"/></g><!--link source_github_workflows_python_publish_yml to tool_build--><g class="link" data-entity-1="ent0003" data-entity-2="ent0014" data-link-type="dependency" data-source-line="48" id="lnk43"><path d="M271.83,1050.5079 C271.83,1002.3779 271.83,911.7779 271.83,911.7779 C271.83,911.7779 357.94,911.7779 408.32,911.7779" fill="none" id="source_github_workflows_python_publish_yml-to-tool_build" style="stroke:#181818;stroke-width:1;"/><polygon fill="#181818" points="414.32,911.7779,405.32,907.7779,409.32,911.7779,405.32,915.7779,414.32,911.7779" style="stroke:#181818;stroke-width:1;"/></g><!--link source_github_workflows_python_publish_yml to tool_pip--><g class="link" data-entity-1="ent0003" data-entity-2="ent0021" data-link-type="dependency" data-source-line="49" id="lnk44"><path d="M279.09,1079.7779 C332.65,1079.7779 382.83,1079.7779 414.52,1079.7779" fill="none" id="source_github_workflows_python_publish_yml-to-tool_pip" style="stroke:#181818;stroke-width:1;"/><polygon fill="#181818" points="420.52,1079.7779,411.52,1075.7779,415.52,1079.7779,411.52,1083.7779,420.52,1079.7779" style="stroke:#181818;stroke-width:1;"/></g><!--link source_github_workflows_python_publish_yml to tool_pypa_gh_action_pypi_publish--><g class="link" data-entity-1="ent0003" data-entity-2="ent0023" data-link-type="dependency" data-source-line="50" id="lnk45"><path d="M275.83,1109.1579 C275.83,1133.3779 275.83,1163.7779 275.83,1163.7779 C275.83,1163.7779 298.51,1163.7779 332.35,1163.7779" fill="none" id="source_github_workflows_python_publish_yml-to-tool_pypa_gh_action_pypi_publish" style="stroke:#181818;stroke-width:1;"/><polygon fill="#181818" points="338.35,1163.7779,329.35,1159.7779,333.35,1163.7779,329.35,1167.7779,338.35,1163.7779" style="stroke:#181818;stroke-width:1;"/></g><!--link source_github_workflows_secret_scan_yml to tool_actions_checkout--><g class="link" data-entity-1="ent0004" data-entity-2="ent0007" data-link-type="dependency" data-source-line="51" id="lnk46"><path d="M266.53,1289.7779 C290.75,1289.7779 308.83,1289.7779 308.83,1289.7779 C308.83,1289.7779 308.83,1008.0379 308.83,1008.0379 C308.83,1008.0379 335.61,1008.0379 369.16,1008.0379" fill="none" id="source_github_workflows_secret_scan_yml-to-tool_actions_checkout" style="stroke:#181818;stroke-width:1;"/><polygon fill="#181818" points="375.16,1008.0379,366.16,1004.0379,370.16,1008.0379,366.16,1012.0379,375.16,1008.0379" style="stroke:#181818;stroke-width:1;"/></g><!--link source_github_workflows_secret_scan_yml to tool_gitleaks_gitleaks_action--><g class="link" data-entity-1="ent0004" data-entity-2="ent0018" data-link-type="dependency" data-source-line="52" id="lnk47"><path d="M235.83,1324.0679 C235.83,1359.8779 235.83,1415.7779 235.83,1415.7779 C235.83,1415.7779 292.33,1415.7779 349.22,1415.7779" fill="none" id="source_github_workflows_secret_scan_yml-to-tool_gitleaks_gitleaks_action" style="stroke:#181818;stroke-width:1;"/><polygon fill="#181818" points="355.22,1415.7779,346.22,1411.7779,350.22,1415.7779,346.22,1419.7779,355.22,1415.7779" style="stroke:#181818;stroke-width:1;"/></g><!--link source_scripts_run_tachometer_profile_sh to tool_run--><g class="link" data-entity-1="ent0005" data-entity-2="ent0025" data-link-type="dependency" data-source-line="53" id="lnk48"><path d="M255.83,126.5179 C255.83,101.4479 255.83,69.3579 255.83,69.3579 C255.83,69.3579 360.93,69.3579 413.44,69.3579" fill="none" id="source_scripts_run_tachometer_profile_sh-to-tool_run" style="stroke:#181818;stroke-width:1;"/><polygon fill="#181818" points="419.44,69.3579,410.44,65.3579,414.44,69.3579,410.44,73.3579,419.44,69.3579" style="stroke:#181818;stroke-width:1;"/></g><!--link source_scripts_run_tachometer_profile_sh to tool_summarize--><g class="link" data-entity-1="ent0005" data-entity-2="ent0026" data-link-type="dependency" data-source-line="54" id="lnk49"><path d="M264.14,155.7779 C309.53,155.7779 352.72,155.7779 388.54,155.7779" fill="none" id="source_scripts_run_tachometer_profile_sh-to-tool_summarize" style="stroke:#181818;stroke-width:1;"/><polygon fill="#181818" points="394.54,155.7779,385.54,151.7779,389.54,155.7779,385.54,159.7779,394.54,155.7779" style="stroke:#181818;stroke-width:1;"/></g><!--link source_scripts_run_tachometer_profile_sh to tool_tachometer--><g class="link" data-entity-1="ent0005" data-entity-2="ent0027" data-link-type="dependency" data-source-line="55" id="lnk50"><path d="M248.83,185.1579 C248.83,209.3779 248.83,239.7779 248.83,239.7779 C248.83,239.7779 328.14,239.7779 386.62,239.7779" fill="none" id="source_scripts_run_tachometer_profile_sh-to-tool_tachometer" style="stroke:#181818;stroke-width:1;"/><polygon fill="#181818" points="392.62,239.7779,383.62,235.7779,387.62,239.7779,383.62,243.7779,392.62,239.7779" style="stroke:#181818;stroke-width:1;"/></g><!--link source_setup_sh to tool_cat--><g class="link" data-entity-1="ent0006" data-entity-2="ent0015" data-link-type="dependency" data-source-line="56" id="lnk51"><path d="M142.83,1697.0379 C142.83,1745.1679 142.83,1835.7779 142.83,1835.7779 C142.83,1835.7779 342.52,1835.7779 415.23,1835.7779" fill="none" id="source_setup_sh-to-tool_cat" style="stroke:#181818;stroke-width:1;"/><polygon fill="#181818" points="421.23,1835.7779,412.23,1831.7779,416.23,1835.7779,412.23,1839.7779,421.23,1835.7779" style="stroke:#181818;stroke-width:1;"/></g><!--link source_setup_sh to tool_chmod--><g class="link" data-entity-1="ent0006" data-entity-2="ent0016" data-link-type="dependency" data-source-line="57" id="lnk52"><path d="M111.83,1697.1779 C111.83,1763.6479 111.83,1919.7779 111.83,1919.7779 C111.83,1919.7779 314.61,1919.7779 402.28,1919.7779" fill="none" id="source_setup_sh-to-tool_chmod" style="stroke:#181818;stroke-width:1;"/><polygon fill="#181818" points="408.28,1919.7779,399.28,1915.7779,403.28,1919.7779,399.28,1923.7779,408.28,1919.7779" style="stroke:#181818;stroke-width:1;"/></g><!--link source_setup_sh to tool_curl--><g class="link" data-entity-1="ent0006" data-entity-2="ent0017" data-link-type="dependency" data-source-line="58" id="lnk53"><path d="M121.83,1638.5079 C121.83,1590.3779 121.83,1499.7779 121.83,1499.7779 C121.83,1499.7779 334.19,1499.7779 412.66,1499.7779" fill="none" id="source_setup_sh-to-tool_curl" style="stroke:#181818;stroke-width:1;"/><polygon fill="#181818" points="418.66,1499.7779,409.66,1495.7779,413.66,1499.7779,409.66,1503.7779,418.66,1499.7779" style="stroke:#181818;stroke-width:1;"/></g><!--link source_setup_sh to tool_inkscape--><g class="link" data-entity-1="ent0006" data-entity-2="ent0019" data-link-type="dependency" data-source-line="59" id="lnk54"><path d="M163.83,1638.3979 C163.83,1614.1679 163.83,1583.7779 163.83,1583.7779 C163.83,1583.7779 316.73,1583.7779 396.19,1583.7779" fill="none" id="source_setup_sh-to-tool_inkscape" style="stroke:#181818;stroke-width:1;"/><polygon fill="#181818" points="402.19,1583.7779,393.19,1579.7779,397.19,1583.7779,393.19,1587.7779,402.19,1583.7779" style="stroke:#181818;stroke-width:1;"/></g><!--link source_setup_sh to tool_mkdir--><g class="link" data-entity-1="ent0006" data-entity-2="ent0020" data-link-type="dependency" data-source-line="60" id="lnk55"><path d="M205.78,1675.9479 C268.27,1675.9479 355.81,1675.9479 405.84,1675.9479" fill="none" id="source_setup_sh-to-tool_mkdir" style="stroke:#181818;stroke-width:1;"/><polygon fill="#181818" points="411.84,1675.9479,402.84,1671.9479,406.84,1675.9479,402.84,1679.9479,411.84,1675.9479" style="stroke:#181818;stroke-width:1;"/></g><!--link source_setup_sh to tool_pip--><g class="link" data-entity-1="ent0006" data-entity-2="ent0021" data-link-type="dependency" data-source-line="61" id="lnk56"><path d="M205.94,1659.5979 C258.15,1659.5979 323.83,1659.5979 323.83,1659.5979 C323.83,1659.5979 323.83,1092.0379 323.83,1092.0379 C323.83,1092.0379 378.73,1092.0379 414.65,1092.0379" fill="none" id="source_setup_sh-to-tool_pip" style="stroke:#181818;stroke-width:1;"/><polygon fill="#181818" points="420.65,1092.0379,411.65,1088.0379,415.65,1092.0379,411.65,1096.0379,420.65,1092.0379" style="stroke:#181818;stroke-width:1;"/></g><!--link source_setup_sh to tool_venv--><g class="link" data-entity-1="ent0006" data-entity-2="ent0029" data-link-type="dependency" data-source-line="62" id="lnk57"><path d="M173.83,1697.1579 C173.83,1721.3779 173.83,1751.7779 173.83,1751.7779 C173.83,1751.7779 338.33,1751.7779 409.6,1751.7779" fill="none" id="source_setup_sh-to-tool_venv" style="stroke:#181818;stroke-width:1;"/><polygon fill="#181818" points="415.6,1751.7779,406.6,1747.7779,410.6,1751.7779,406.6,1755.7779,415.6,1751.7779" style="stroke:#181818;stroke-width:1;"/></g><?plantuml-src fPV1RjmW48RlVWgKdBrR9QgYNdffirKFxIKzHa84OuEC0G5Ev3vz1tknaHqxtkrjX_d-6Gp3m7hX9KF4KYway1twexKKga8_bMUL9LvevJB9Ie-yHbPKtAD2M4Q38tErK8POqY37IQ7VWh0aqh74Kx2IjDAVjFA_ISFGBwsqCuIc3DMDqOef_-Gxc4q8JrGbKmGcnNnd6DBMSvsD2BevLCBpzkNufcrTIltcZbGSkaO-go-Gt0F82fYybku64OUSRYrbU13XKOIfm212ju-VJdUdn-q4feCvgDoqBr8uFYHxk2JP402V0-nFx1YrpEUE4ZLalRiaww36GRsMqb4hZ7T7sohi2UMwWV0M6wjB8Td1yMTrlv7oBCVlox7Zx-PalZLzwAqrxAaq0fMwBT0DwKiHDfqpMklMzvgWncSFZXvqUteytNzxc2kXS9NKfCY9zQA4qMM8YE28hCNgPvaFsxiCCtp3u5sBq9eFvZ80wpE9HpbHZgTxnhuGnoSiM0j24bedI30NJ2jaaJ31d3EK95y2niBF6vt4wCq5qrgP863DYIeqCrAxO_oH3uisgQ9Z-Z4GyqX2rN1C39kKSMHEDZNqmmdhpJbZX9a8C1P-otBeWOr85Wd6y32se3j3ZXK_VniKcn6n5ILoW735pvyNJ17RpJoURSjo4WPhIQWKMAoMQvk6MF4tMQvnQCvERM62fx4vtIhXFNF9kiIHEVdArEj41MiaFcZvUVxr_OPniJ0zt_l5yNJkLeI3kXyEHtOt3SMvdnqhTBSa5DTkEEvqTi4jUlbUxWcoQF__5MrNbUm9DBi9hehLT-khb5kbigbRxqpPtfVBvTky6c7jHiXsFscIwhv6DNRAAxIJEvi_aqO6RjiDPxXeDznmoQvxuvMuJlItuRexAQ6bCxJmJ6dFObE7VnS_B37ygL-mBdk2lLJmLFmSlGZ-GTZEQA6yEsJVurFoxXvvBcoHmpy9U0FrByj3nbI1GlH_?></g></svg>
