<?plantuml 1.2026.2?><svg xmlns="http://www.w3.org/2000/svg" xmlns:xlink="http://www.w3.org/1999/xlink" contentStyleType="text/css" data-diagram-type="DESCRIPTION" height="1535px" preserveAspectRatio="none" style="width:492px;height:1535px;background:#FFFFFF;" version="1.1" viewBox="0 0 492 1535" width="492px" zoomAndPan="magnify"><title>archility Tooling Integrations</title><defs/><g><g class="title" data-source-line="1"><text fill="#000000" font-family="Monospace" font-size="14" font-weight="bold" lengthAdjust="spacing" textLength="201.8653" x="138.1918" y="24.9659">archility&#160;Tooling&#160;Integrations</text></g><!--entity source_github_workflows_ci_yml--><g class="entity" data-qualified-name="source_github_workflows_ci_yml" data-source-line="7" id="ent0002"><rect fill="#E0F2FE" height="58.1358" rx="2.5" ry="2.5" style="stroke:#181818;stroke-width:0.5;" width="182.6234" x="36.83" y="630.7079"/><text fill="#000000" font-family="Monospace" font-size="14" lengthAdjust="spacing" textLength="162.6234" x="46.83" y="655.6739">.github/workflows/ci.yml</text><text fill="#000000" font-family="Monospace" font-size="14" lengthAdjust="spacing" textLength="105.3356" x="46.83" y="674.7418">9&#160;detected&#160;tools</text></g><!--entity source_scripts_run_tachometer_profile_sh--><g class="entity" data-qualified-name="source_scripts_run_tachometer_profile_sh" data-source-line="8" id="ent0003"><rect fill="#E0F2FE" height="58.1358" rx="2.5" ry="2.5" style="stroke:#181818;stroke-width:0.5;" width="242.2912" x="7" y="126.7079"/><text fill="#000000" font-family="Monospace" font-size="14" lengthAdjust="spacing" textLength="222.2912" x="17" y="151.6739">scripts/run_tachometer_profile.sh</text><text fill="#000000" font-family="Monospace" font-size="14" lengthAdjust="spacing" textLength="105.3356" x="17" y="170.7418">3&#160;detected&#160;tools</text></g><!--entity source_setup_sh--><g class="entity" data-qualified-name="source_setup_sh" data-source-line="9" id="ent0004"><rect fill="#E0F2FE" height="58.1358" rx="2.5" ry="2.5" style="stroke:#181818;stroke-width:0.5;" width="125.3356" x="65.48" y="1218.7079"/><text fill="#000000" font-family="Monospace" font-size="14" lengthAdjust="spacing" textLength="56.0278" x="75.48" y="1243.6739">setup.sh</text><text fill="#000000" font-family="Monospace" font-size="14" lengthAdjust="spacing" textLength="105.3356" x="75.48" y="1262.7418">7&#160;detected&#160;tools</text></g><!--entity tool_actions_checkout--><g class="entity" data-qualified-name="tool_actions_checkout" data-source-line="10" id="ent0005"><path d="M332.9021,307.6036 C336.7539,301.4446 341.4965,301.5851 345.226,307.7262 C348.5317,300.9632 353.5334,302.2122 357.572,306.9387 C362.1923,299.7913 366.4529,299.9161 371.0939,306.919 C375.3687,300.6356 379.2013,301.6236 383.2973,307.1045 C386.6288,302.4186 391.8424,302.5722 394.6226,307.7382 C397.3208,302.0805 403.5873,301.5886 407.1645,306.7161 C411.2441,300.6788 416.5419,300.7384 420.915,306.3702 C426.0896,300.9347 430.8512,301.4348 433.7016,308.7085 C436.6726,302.5845 442.1529,302.6686 445.1915,308.6443 C449.1603,302.8108 453.5444,303.5678 457.5544,308.5974 C467.2357,311.007 468.5459,317.1667 463.5482,324.955 C468.9931,333.4122 467.528,338.5155 457.5847,341.3885 C455.3371,347.0599 449.9773,347.5312 446.8014,342.3073 C443.2144,348.8175 437.0523,349.4068 432.4611,343.4636 C429.7276,349.3661 425.7571,350.9815 420.5271,346.2708 C417.2462,352.7747 412.7501,352.5988 408.6701,347.0573 C406.1417,354.4965 399.6243,354.9634 395.616,348.4411 C390.7127,354.8389 385.2536,352.7632 382.7665,346.0695 C378.8306,352.8475 372.9089,352.6921 369.3381,345.7131 C364.8034,351.2315 360.1151,349.7529 357.4415,343.7855 C353.5643,348.903 348.2053,348.5251 345.6614,342.3898 C341.2005,347.8529 334.9786,348.5887 331.7171,341.0986 C324.6191,337.0471 323.2177,329.0642 331.7987,325.0927 C323.5564,319.0645 324.5035,312.5819 332.9021,307.6036" fill="#FEF3C7" style="stroke:#181818;stroke-width:0.5;"/><text fill="#000000" font-family="Monospace" font-size="14" lengthAdjust="spacing" textLength="111.9156" x="338.47" y="329.2039">actions/checkout</text></g><!--entity tool_actions_setup_python--><g class="entity" data-qualified-name="tool_actions_setup_python" data-source-line="11" id="ent0006"><path d="M318.5391,392.7886 C320.7516,386.7338 324.9652,386.672 328.7839,391.2395 C333.6476,385.9098 337.9869,386.5586 341.3797,392.8357 C343.2757,388.2463 348.0736,386.3921 351.5296,391.1398 C354.8891,384.8472 358.4966,384.9538 362.5651,390.4776 C366.1453,384.9911 369.883,385.8893 373.3327,390.6152 C377.1714,386.2736 380.8098,386.602 383.586,391.7618 C386.7614,385.9573 391.8179,384.3045 396.5598,389.9936 C399.6056,385.0228 402.544,385.0813 405.665,389.9238 C409.9981,384.1812 414.3261,384.8219 418.0553,390.5748 C422.098,385.6374 425.9671,386.3012 429.0286,391.6243 C431.7971,386.2513 436.5605,386.9276 439.6699,391.2501 C442.7203,385.606 447.5218,386.3211 450.2525,391.5609 C454.4774,385.9187 458.2772,386.6022 462.3137,391.771 C466.1054,386.5006 470.5572,386.814 473.7576,392.3945 C482.9026,395.0958 484.7341,403.119 478.214,409.8252 C485.2489,417.9209 482.8016,424.4588 472.2114,426.0228 C468.7294,431.6135 464.951,431.5411 461.7667,425.7495 C459.7218,431.6253 454.7828,431.2488 451.3159,427.2552 C448.569,433.1179 443.9412,433.2693 440.0438,428.4719 C436.9227,434.5877 431.1731,434.3233 428.1038,428.4204 C425.6805,433.9861 422.4516,433.365 418.5533,429.9974 C415.3992,435.1305 410.8385,435.7664 407.3269,430.3789 C404.9521,435.7606 399.2919,436.2346 395.9429,431.4721 C392.3616,437.4957 387.8183,437.169 384.131,431.5798 C380.5563,436.1587 375.3635,436.8475 372.6666,430.6464 C369.0168,435.1299 364.7118,433.6187 362.9653,428.6856 C358.5132,432.7163 354.7824,432.3805 351.6281,427.1046 C347.4918,433.2135 343.5778,431.9096 339.6984,426.8306 C337.471,431.2565 332.8423,431.123 330.1888,427.3232 C326.4147,432.9986 320.8349,432.3849 318.3362,426.0631 C308.5993,424.7773 305.0289,417.6095 309.6011,408.9989 C304.6385,400.0828 307.1667,392.6979 318.5391,392.7886" fill="#FEF3C7" style="stroke:#181818;stroke-width:0.5;"/><text fill="#000000" font-family="Monospace" font-size="14" lengthAdjust="spacing" textLength="140.2795" x="324.29" y="413.2039">actions/setup-python</text></g><!--entity tool_archility--><g class="entity" data-qualified-name="tool_archility" data-source-line="12" id="ent0007"><path d="M361.8994,475.8301 C365.4652,469.8834 369.954,470.6269 373.1683,476.1747 C376.3032,471.1851 379.8311,470.3208 383.8271,475.2492 C386.855,469.4682 392.2045,468.686 396.4823,473.797 C400.0634,470.1641 403.081,470.1189 405.5305,474.9996 C409.5826,470.0559 413.6462,469.7397 416.8684,475.8508 C420.5954,470.691 424.8337,469.945 428.6351,475.771 C436.5939,480.2336 436.5241,486.5377 430.3376,492.4446 C436.6965,499.0189 437.1176,505.6793 427.6825,509.8434 C426.2336,515.8187 421.5933,516.0236 417.6298,512.5064 C414.9596,517.9533 411.6696,518.9805 407.04,514.6227 C405.2968,520.5438 402.5596,523.2975 396.5249,519.0684 C390.9496,522.8285 385.7287,522.6257 384.2488,514.7483 C380.3316,518.9422 376.3284,517.4514 374.2291,512.7098 C368.8506,518.5297 364.6905,516.8826 362.0762,510.0539 C353.1923,505.2288 353.4683,499.0796 361.775,493.9332 C353.151,487.8835 353.7802,481.7648 361.8994,475.8301" fill="#FEF3C7" style="stroke:#181818;stroke-width:0.5;"/><text fill="#000000" font-family="Monospace" font-size="14" lengthAdjust="spacing" textLength="52.0378" x="368.41" y="497.2039">archility</text></g><!--entity tool_bash--><g class="entity" data-qualified-name="tool_bash" data-source-line="13" id="ent0008"><path d="M372.5142,559.9078 C375.4781,554.3549 379.7315,553.8253 383.2458,559.3759 C385.5561,553.9809 390.6141,551.7148 395.0177,557.0874 C399.4865,552.7164 404.1264,552.7484 406.8095,559.0587 C411.0285,553.3854 416.808,554.9457 419.4582,560.7827 C428.7466,565.4607 429.0393,570.6808 421.6679,577.5538 C428.0369,583.3988 425.3555,590.4334 417.9351,592.9311 C416.2829,597.9555 412.2935,600.2145 407.807,596.0579 C404.4673,603.0135 399.686,603.6952 395.1885,597.1391 C390.7871,601.1764 387.1298,601.769 384.3881,595.4142 C380.1625,600.5957 376.3819,600.1362 373.6124,594.0247 C364.1551,591.8525 361.7653,584.017 367.2141,576.4255 C360.471,569.3761 363.9012,562.0299 372.5142,559.9078" fill="#FEF3C7" style="stroke:#181818;stroke-width:0.5;"/><text fill="#000000" font-family="Monospace" font-size="14" lengthAdjust="spacing" textLength="31.8219" x="378.52" y="581.2039">bash</text></g><!--entity tool_black--><g class="entity" data-qualified-name="tool_black" data-source-line="14" id="ent0009"><path d="M370.9112,644.8532 C372.933,638.3588 378.9775,637.8391 383.1073,642.5611 C386.9781,635.9361 391.3047,635.7907 395.7324,642.0139 C400.142,636.5195 403.9921,636.7362 407.5159,642.9086 C411.761,637.1503 417.5544,637.1937 420.4093,644.3017 C428.4022,648.1633 429.1231,654.6647 422.6001,660.4906 C429.1122,666.6082 428.231,674.4189 419.5817,677.9092 C417.8548,684.1464 412.5959,686.6505 407.245,682.025 C406.2492,688.2827 400.937,689.3895 396.5839,685.5806 C390.0392,691.0675 384.6235,689.1901 383.0711,680.7403 C377.2756,686.6409 372.4728,685.2527 370.3437,677.3578 C359.7235,675.4828 358.2382,669.3657 364.2349,661.206 C358.3182,652.88 362.1106,647.1707 370.9112,644.8532" fill="#FEF3C7" style="stroke:#181818;stroke-width:0.5;"/><text fill="#000000" font-family="Monospace" font-size="14" lengthAdjust="spacing" textLength="34.2719" x="377.29" y="665.2039">black</text></g><!--entity tool_cat--><g class="entity" data-qualified-name="tool_cat" data-source-line="15" id="ent0010"><path d="M378.5382,1064.252 C382.4219,1054.142 389.2892,1054.5469 396.0521,1061.2533 C403.5359,1054.561 407.8946,1057.4205 411.5038,1065.3483 C420.1192,1068.5011 420.6073,1073.9933 415.3019,1080.6103 C421.2494,1086.7674 420.8712,1094.6645 411.4211,1097.2252 C409.0983,1107.0409 401.8167,1108.0402 394.4582,1102.9596 C386.6432,1109.0514 381.3919,1106.3264 378.9827,1097.3922 C368.2225,1096.1426 366.8103,1090.6966 371.4337,1081.9343 C365.724,1073.8636 367.2707,1065.5015 378.5382,1064.252" fill="#FEF3C7" style="stroke:#181818;stroke-width:0.5;"/><text fill="#000000" font-family="Monospace" font-size="14" lengthAdjust="spacing" textLength="19.6279" x="384.62" y="1085.2039">cat</text></g><!--entity tool_chmod--><g class="entity" data-qualified-name="tool_chmod" data-source-line="16" id="ent0011"><path d="M366.3823,1147.7778 C370.628,1140.8729 376.6693,1141.2195 381.2388,1147.4105 C385.5793,1140.671 390.4493,1141.2555 395.1234,1147.0408 C400.7784,1140.0898 406.3201,1139.7484 411.4919,1147.576 C417.0156,1140.4862 422.1256,1141.8159 426.3149,1148.9651 C436.1694,1150.3347 438.6128,1155.3018 434.9906,1164.2972 C439.0046,1173.0713 435.6023,1181.4603 424.5744,1180.6575 C421.6104,1188.9319 416.0132,1188.7339 410.3491,1183.5013 C407.0486,1190.6948 402.5026,1193.4887 396.057,1186.7209 C390.6025,1194.2426 383.7875,1194.2372 380.0251,1185.0931 C373.9048,1191.1658 367.7566,1189.694 365.9093,1181.0066 C358.0888,1178.3955 357.1556,1171.296 362.616,1165.8072 C356.36,1159.6871 357.5811,1150.7525 366.3823,1147.7778" fill="#FEF3C7" style="stroke:#181818;stroke-width:0.5;"/><text fill="#000000" font-family="Monospace" font-size="14" lengthAdjust="spacing" textLength="45.5418" x="371.66" y="1169.2039">chmod</text></g><!--entity tool_curl--><g class="entity" data-qualified-name="tool_curl" data-source-line="17" id="ent0012"><path d="M375.6332,1231.9253 C380.5953,1222.364 390.1439,1221.6255 395.8562,1231.1296 C402.784,1223.2724 408.5774,1223.2969 413.8354,1232.8536 C424.391,1233.5033 426.6417,1240.0972 421.8255,1248.5645 C426.6033,1257.394 423.2004,1262.3586 414.1939,1264.6472 C408.9299,1274.7744 403.132,1275.4759 395.3729,1267.1988 C388.6221,1274.9407 380.1894,1275.774 375.9221,1264.6398 C366.9182,1263.3319 364.1961,1256.3738 370.439,1249.5323 C363.119,1242.3011 366.8846,1234.416 375.6332,1231.9253" fill="#FEF3C7" style="stroke:#181818;stroke-width:0.5;"/><text fill="#000000" font-family="Monospace" font-size="14" lengthAdjust="spacing" textLength="24.7659" x="382.05" y="1253.2039">curl</text></g><!--entity tool_inkscape--><g class="entity" data-qualified-name="tool_inkscape" data-source-line="18" id="ent0013"><path d="M359.5323,1317.0848 C361.6245,1310.5099 366.4468,1309.8861 370.864,1314.7894 C374.2545,1307.7849 380.5139,1307.0542 384.3968,1314.3225 C388.0303,1309.3758 392.4179,1308.153 396.3874,1313.9474 C400.181,1309.7139 403.9038,1309.9378 406.44,1315.269 C411.3097,1308.7715 415.2862,1308.9918 419.1827,1316.1754 C422.0093,1310.371 426.8556,1310.9513 430.4353,1315.3443 C440.8901,1318.4981 444.1166,1324.5546 436.36,1333.6142 C442.6897,1340.9888 441.2519,1347.2025 431.2301,1349.1927 C429.3266,1355.4981 425.4288,1356.5008 420.1627,1352.9801 C417.4368,1358.5221 411.316,1359.4647 407.4966,1354.2702 C405.4746,1360.977 401.0453,1363.3857 394.9958,1358.6826 C389.9161,1363.5725 384.8853,1361.5066 382.5576,1355.532 C377.8435,1358.7339 373.8149,1358.1738 372.6718,1351.8327 C367.6593,1357.8857 363.219,1357.0209 359.9866,1350.0932 C350.6538,1347.9127 347.7182,1340.3366 354.3395,1332.9122 C347.999,1325.4116 351.1725,1319.7623 359.5323,1317.0848" fill="#FEF3C7" style="stroke:#181818;stroke-width:0.5;"/><text fill="#000000" font-family="Monospace" font-size="14" lengthAdjust="spacing" textLength="57.5258" x="365.67" y="1337.2039">inkscape</text></g><!--entity tool_mkdir--><g class="entity" data-qualified-name="tool_mkdir" data-source-line="19" id="ent0014"><path d="M369.4613,1399.7953 C373.2859,1393.9592 378.6133,1393.9581 381.9387,1400.3065 C385.4658,1393.4431 391.0326,1393.7206 395.7647,1398.9261 C399.7026,1392.8931 403.9504,1393.4172 408.2456,1398.5259 C412.5927,1393.1838 417.8454,1392.7413 420.9507,1399.7984 C433.5544,1400.018 436.0908,1407.2073 431.6945,1417.6553 C436.2829,1426.4085 430.7885,1432.839 421.8793,1432.9043 C418.9407,1439.1677 415.0679,1441.4213 409.2234,1436.071 C406.3757,1442.7574 400.1846,1444.4015 394.8639,1439.0114 C389.4332,1443.5293 385.5474,1441.3775 383.475,1435.3757 C377.7931,1442.5977 371.3804,1440.6197 368.3283,1432.7384 C358.9784,1430.6754 354.6033,1426.1798 360.4615,1416.6708 C355.0052,1406.2365 359.2696,1401.8844 369.4613,1399.7953" fill="#FEF3C7" style="stroke:#181818;stroke-width:0.5;"/><text fill="#000000" font-family="Monospace" font-size="14" lengthAdjust="spacing" textLength="38.5699" x="375.15" y="1421.2039">mkdir</text></g><!--entity tool_pip--><g class="entity" data-qualified-name="tool_pip" data-source-line="20" id="ent0015"><path d="M378.3012,979.3066 C382.6455,971.6787 390.1107,970.2161 395.5651,978.0686 C402.9731,969.9547 409.0818,971.9022 413.3705,981.2494 C422.7419,982.5015 426.8019,987.3941 421.967,996.6012 C428.0578,1006.3279 422.3844,1012.752 412.4961,1013.5496 C409.5861,1023.5252 403.8952,1025.8925 395.5133,1019.0874 C387.1973,1026.1997 379.3826,1022.2965 377.3946,1012.3617 C369.582,1008.083 367.15,1003.4608 374.6587,996.5339 C367.5908,989.3159 368.4757,982.9528 378.3012,979.3066" fill="#FEF3C7" style="stroke:#181818;stroke-width:0.5;"/><text fill="#000000" font-family="Monospace" font-size="14" lengthAdjust="spacing" textLength="20.8319" x="384.01" y="1001.2039">pip</text></g><!--entity tool_pre_commit--><g class="entity" data-qualified-name="tool_pre_commit" data-source-line="21" id="ent0016"><path d="M350.5972,727.6907 C353.3831,722.5944 357.959,722.9561 360.7029,727.7338 C364.7971,721.4865 370.1635,722.916 373.6336,728.4206 C376.967,722.9108 380.2373,722.4829 383.9943,728.0235 C386.8995,721.0959 391.4697,721.06 396.2178,726.1488 C400.0456,720.8867 404.4572,722.9919 406.7508,727.7599 C409.8978,722.6092 413.9437,722.3945 417.479,727.3474 C421.3336,721.4826 426.256,722.608 429.3361,728.1523 C432.4173,722.4244 437.0781,723.7286 440.0663,728.2497 C448.2948,732.061 448.9761,739.0747 441.8136,744.5371 C449.834,749.5006 449.315,755.1823 441.9824,760.3101 C438.786,765.7326 434.4813,766.475 430.5397,761.0998 C427.8679,767.7881 422.7886,768.0445 418.261,763.0502 C414.2797,768.4565 410.948,767.7176 407.2146,762.7852 C404.795,768.4961 399.5088,768.6378 396.4936,763.3666 C393.0717,768.1221 387.9544,768.5412 384.8258,763.0332 C380.7878,766.8305 376.0595,767.1152 373.9136,760.959 C370.9016,768.001 364.7441,767.2354 360.6927,762.0863 C357.1368,766.583 351.4887,766.2198 349.1247,760.7087 C340.3179,759.5597 337.3625,751.3143 342.2387,744.3911 C337.5221,734.9882 338.9416,728.8994 350.5972,727.6907" fill="#FEF3C7" style="stroke:#181818;stroke-width:0.5;"/><text fill="#000000" font-family="Monospace" font-size="14" lengthAdjust="spacing" textLength="76.8317" x="356.02" y="749.2039">pre-commit</text></g><!--entity tool_ruff--><g class="entity" data-qualified-name="tool_ruff" data-source-line="22" id="ent0017"><path d="M375.9832,811.9253 C380.8531,802.5258 390.2361,801.7936 395.8562,811.1296 C402.6649,803.4368 408.3465,803.4715 413.4854,812.8536 C424.041,813.5033 426.2917,820.0972 421.4755,828.5645 C426.2534,837.394 422.8504,842.3586 413.8439,844.6472 C408.7011,854.6025 403.0108,855.3056 395.3729,847.1988 C388.7235,854.788 380.4381,855.587 376.2721,844.6398 C367.2682,843.3319 364.5461,836.3738 370.789,829.5323 C363.469,822.3011 367.2346,814.416 375.9832,811.9253" fill="#FEF3C7" style="stroke:#181818;stroke-width:0.5;"/><text fill="#000000" font-family="Monospace" font-size="14" lengthAdjust="spacing" textLength="24.0659" x="382.4" y="833.2039">ruff</text></g><!--entity tool_run--><g class="entity" data-qualified-name="tool_run" data-source-line="23" id="ent0018"><path d="M376.1002,56.8706 C380.9718,47.7293 389.2748,46.1296 396.3351,54.3143 C402.1987,46.5504 410.5235,48.2883 413.9227,56.9525 C423.5123,57.6613 429.2016,62.4144 423.7144,72.5737 C428.9485,82.0202 425.4465,87.44 415.073,88.3228 C414.8346,101.0475 408.5031,106.0421 396.5097,99.8709 C385.603,104.9036 378.4406,103.4176 377.7402,89.6703 C368.0793,88.8356 364.2911,80.744 369.6439,72.7327 C364.5885,64.6057 367.0047,59.2377 376.1002,56.8706" fill="#FEF3C7" style="stroke:#181818;stroke-width:0.5;"/><text fill="#000000" font-family="Monospace" font-size="14" lengthAdjust="spacing" textLength="23.0859" x="382.89" y="77.2039">run</text></g><!--entity tool_summarize--><g class="entity" data-qualified-name="tool_summarize" data-source-line="24" id="ent0019"><path d="M351.9662,139.7082 C357.1605,132.088 362.3979,133.6617 366.8254,140.4963 C370.4419,133.3452 376.1494,133.5795 380.2302,140.0389 C385.0642,132.5754 389.8309,131.3054 396.0359,138.5673 C400.0967,131.1997 407.1965,131.4657 410.8206,139.0007 C415.4051,132.1413 422.2965,132.4184 425.5124,140.3593 C429.1489,134.5447 435.849,133.9823 439.0117,140.8631 C448.3794,140.9338 452.4894,148.7506 447.3993,156.5512 C453.3439,165.1643 449.6713,171.1668 440.0764,172.7589 C436.2944,180.6105 428.7045,180.5184 423.7862,174.0518 C420.4799,182.1689 415.1983,181.6599 409.9395,176.0165 C407.1474,183.3974 400.2639,182.8845 396.2046,177.3659 C391.3756,182.9427 386.4055,183.9218 382.0681,176.8179 C376.5102,182.4858 370.1888,181.7947 367.0919,174.0665 C362.902,181.7863 356.4119,181.8264 352.5376,173.7753 C341.9776,172.9199 340.0451,163.6176 345.4871,156.3045 C340.1733,149.1206 341.2392,140.6298 351.9662,139.7082" fill="#FEF3C7" style="stroke:#181818;stroke-width:0.5;"/><text fill="#000000" font-family="Monospace" font-size="14" lengthAdjust="spacing" textLength="73.2617" x="357.8" y="161.2039">summarize</text></g><!--entity tool_tachometer--><g class="entity" data-qualified-name="tool_tachometer" data-source-line="25" id="ent0020"><path d="M350.7772,223.6907 C353.5507,218.6174 358.106,218.9775 360.8374,223.7338 C364.9184,217.5092 370.2657,218.9347 373.7226,224.4206 C377.0405,218.9344 380.2963,218.5078 384.0378,224.0235 C386.9286,217.1195 391.4821,217.0811 396.2158,222.1488 C400.0308,216.9114 404.4224,219.0105 406.7033,223.7599 C409.8361,218.6305 413.8649,218.416 417.386,223.3474 C421.2274,217.506 426.1307,218.6284 429.1976,224.1523 C432.266,218.4488 436.9069,219.7477 439.8823,224.2497 C448.1108,228.061 448.7921,235.0747 441.6296,240.5371 C449.65,245.5006 449.131,251.1823 441.7984,256.3101 C438.6161,261.712 434.3287,262.4527 430.4012,257.0998 C427.7429,263.7654 422.6821,264.0238 418.168,259.0502 C414.2025,264.4338 410.8846,263.6977 407.1671,258.7852 C404.7591,264.4725 399.4953,264.6148 396.4916,259.3666 C393.0825,264.1032 387.985,264.5201 384.8693,259.0332 C380.8447,262.8121 376.1351,263.0921 374.0026,256.959 C371.003,263.9778 364.8663,263.2166 360.8272,258.0863 C357.2831,262.5639 351.657,262.1996 349.3047,256.7087 C340.4979,255.5597 337.5425,247.3143 342.4187,240.3911 C337.7021,230.9882 339.1216,224.8994 350.7772,223.6907" fill="#FEF3C7" style="stroke:#181818;stroke-width:0.5;"/><text fill="#000000" font-family="Monospace" font-size="14" lengthAdjust="spacing" textLength="76.4677" x="356.2" y="245.2039">tachometer</text></g><!--entity tool_unittest--><g class="entity" data-qualified-name="tool_unittest" data-source-line="26" id="ent0021"><path d="M363.4773,895.4511 C368.4645,886.3991 374.4024,887.7503 379.7584,895.0848 C383.7531,886.1474 391.6567,887.7874 395.9242,894.8084 C401.4635,886.4565 408.3829,886.9878 412.2807,896.3261 C416.9249,890.2493 424.0759,890.3172 428.0273,897.17 C437.229,897.8362 442.2353,904.5437 436.7973,913.2129 C443.331,923.622 438.7046,930.0356 427.2089,930.367 C422.8935,938.3846 415.2874,937.624 410.8802,930.4657 C407.4403,937.0953 400.6821,938.7725 395.654,932.3134 C390.4681,940.0271 383.7819,938.6673 380.0375,930.8628 C375.1319,940.2347 366.7053,938.5538 362.5329,930.141 C351.9524,926.4287 352.2713,918.3951 359.9921,912.1046 C354.0362,904.8141 355.5502,899.8362 363.4773,895.4511" fill="#FEF3C7" style="stroke:#181818;stroke-width:0.5;"/><text fill="#000000" font-family="Monospace" font-size="14" lengthAdjust="spacing" textLength="50.6798" x="369.09" y="917.2039">unittest</text></g><!--entity tool_venv--><g class="entity" data-qualified-name="tool_venv" data-source-line="27" id="ent0022"><path d="M373.3692,1484.2346 C376.0372,1479.8391 380.5454,1478.701 383.6982,1483.7016 C386.9179,1476.7413 390.8579,1475.8271 396.4109,1481.3198 C399.5412,1476.5704 404.7736,1477.7375 407.0367,1482.3085 C411.4064,1478.3582 415.2554,1479.0411 417.5838,1484.5779 C427.5013,1487.3487 427.3965,1493.7252 421.8992,1500.6381 C428.7185,1508.5169 425.8781,1513.7164 417.3385,1517.4217 C415.1896,1523.5594 411.6429,1525.3768 406.0919,1521.0934 C404.3194,1525.9626 399.5365,1528.0075 395.5855,1523.5466 C389.6966,1527.1028 385.717,1526.3886 383.3477,1519.4446 C379.4225,1523.993 374.2946,1522.183 372.7388,1516.8903 C363.024,1514.7687 360.4377,1507.0305 367.788,1499.9281 C362.0433,1493.001 364.5003,1485.9646 373.3692,1484.2346" fill="#FEF3C7" style="stroke:#181818;stroke-width:0.5;"/><text fill="#000000" font-family="Monospace" font-size="14" lengthAdjust="spacing" textLength="30.7719" x="379.04" y="1505.2039">venv</text></g><g class="entity" data-qualified-name="toolingGraphSummary" data-source-line="48" id="ent0042"><path d="M24.39,46.0679 L24.39,91.4799 L231.9012,91.4799 L231.9012,56.0679 L221.9012,46.0679 L24.39,46.0679" fill="#FEFFDD" style="stroke:#181818;stroke-width:0.5;"/><path d="M221.9012,46.0679 L221.9012,56.0679 L231.9012,56.0679 L221.9012,46.0679" fill="#FEFFDD" style="stroke:#181818;stroke-width:1;"/><text fill="#000000" font-family="Monospace" font-size="13" lengthAdjust="spacing" textLength="186.5112" x="30.39" y="64.9649">Scanned&#160;3&#160;tooling&#160;entrypoints.</text><text fill="#000000" font-family="Monospace" font-size="13" lengthAdjust="spacing" textLength="179.2182" x="30.39" y="82.6709">Detected&#160;18&#160;third-party&#160;tools.</text></g><!--link source_github_workflows_ci_yml to tool_actions_checkout--><g class="link" data-entity-1="ent0002" data-entity-2="ent0005" data-link-type="dependency" data-source-line="28" id="lnk23"><path d="M97.57,630.2479 C97.57,548.2579 97.57,323.7779 97.57,323.7779 C97.57,323.7779 229.5,323.7779 317.33,323.7779" fill="none" id="source_github_workflows_ci_yml-to-tool_actions_checkout" style="stroke:#181818;stroke-width:1;"/><polygon fill="#181818" points="323.33,323.7779,314.33,319.7779,318.33,323.7779,314.33,327.7779,323.33,323.7779" style="stroke:#181818;stroke-width:1;"/></g><!--link source_github_workflows_ci_yml to tool_actions_setup_python--><g class="link" data-entity-1="ent0002" data-entity-2="ent0006" data-link-type="dependency" data-source-line="29" id="lnk24"><path d="M219.92,645.0579 C271.48,645.0579 325.57,645.0579 325.57,645.0579 C325.57,645.0579 325.57,499.6379 325.57,438.7179" fill="none" id="source_github_workflows_ci_yml-to-tool_actions_setup_python" style="stroke:#181818;stroke-width:1;"/><polygon fill="#181818" points="325.57,432.7179,321.57,441.7179,325.57,437.7179,329.57,441.7179,325.57,432.7179" style="stroke:#181818;stroke-width:1;"/></g><!--link source_github_workflows_ci_yml to tool_archility--><g class="link" data-entity-1="ent0002" data-entity-2="ent0007" data-link-type="dependency" data-source-line="30" id="lnk25"><path d="M219.81,654.8679 C283.71,654.8679 357.57,654.8679 357.57,654.8679 C357.57,654.8679 357.57,568.1679 357.57,522.5479" fill="none" id="source_github_workflows_ci_yml-to-tool_archility" style="stroke:#181818;stroke-width:1;"/><polygon fill="#181818" points="357.57,516.5479,353.57,525.5479,357.57,521.5479,361.57,525.5479,357.57,516.5479" style="stroke:#181818;stroke-width:1;"/></g><!--link source_github_workflows_ci_yml to tool_bash--><g class="link" data-entity-1="ent0002" data-entity-2="ent0008" data-link-type="dependency" data-source-line="31" id="lnk26"><path d="M158.57,630.3979 C158.57,606.1679 158.57,575.7779 158.57,575.7779 C158.57,575.7779 292.95,575.7779 357.11,575.7779" fill="none" id="source_github_workflows_ci_yml-to-tool_bash" style="stroke:#181818;stroke-width:1;"/><polygon fill="#181818" points="363.11,575.7779,354.11,571.7779,358.11,575.7779,354.11,579.7779,363.11,575.7779" style="stroke:#181818;stroke-width:1;"/></g><!--link source_github_workflows_ci_yml to tool_black--><g class="link" data-entity-1="ent0002" data-entity-2="ent0009" data-link-type="dependency" data-source-line="32" id="lnk27"><path d="M219.79,664.6779 C269.13,664.6779 320.93,664.6779 356.1,664.6779" fill="none" id="source_github_workflows_ci_yml-to-tool_black" style="stroke:#181818;stroke-width:1;"/><polygon fill="#181818" points="362.1,664.6779,353.1,660.6779,357.1,664.6779,353.1,668.6779,362.1,664.6779" style="stroke:#181818;stroke-width:1;"/></g><!--link source_github_workflows_ci_yml to tool_pip--><g class="link" data-entity-1="ent0002" data-entity-2="ent0015" data-link-type="dependency" data-source-line="33" id="lnk28"><path d="M197.57,689.1579 C197.57,769.6179 197.57,987.5979 197.57,987.5979 C197.57,987.5979 309.33,987.5979 362.69,987.5979" fill="none" id="source_github_workflows_ci_yml-to-tool_pip" style="stroke:#181818;stroke-width:1;"/><polygon fill="#181818" points="368.69,987.5979,359.69,983.5979,363.69,987.5979,359.69,991.5979,368.69,987.5979" style="stroke:#181818;stroke-width:1;"/></g><!--link source_github_workflows_ci_yml to tool_pre_commit--><g class="link" data-entity-1="ent0002" data-entity-2="ent0016" data-link-type="dependency" data-source-line="34" id="lnk29"><path d="M219.93,674.4979 C280.06,674.4979 347.57,674.4979 347.57,674.4979 C347.57,674.4979 347.57,692.9179 347.57,712.7579" fill="none" id="source_github_workflows_ci_yml-to-tool_pre_commit" style="stroke:#181818;stroke-width:1;"/><polygon fill="#181818" points="347.57,718.7579,351.57,709.7579,347.57,713.7579,343.57,709.7579,347.57,718.7579" style="stroke:#181818;stroke-width:1;"/></g><!--link source_github_workflows_ci_yml to tool_ruff--><g class="link" data-entity-1="ent0002" data-entity-2="ent0017" data-link-type="dependency" data-source-line="35" id="lnk30"><path d="M212.57,689.0379 C212.57,737.1679 212.57,827.7779 212.57,827.7779 C212.57,827.7779 310.47,827.7779 361.2,827.7779" fill="none" id="source_github_workflows_ci_yml-to-tool_ruff" style="stroke:#181818;stroke-width:1;"/><polygon fill="#181818" points="367.2,827.7779,358.2,823.7779,362.2,827.7779,358.2,831.7779,367.2,827.7779" style="stroke:#181818;stroke-width:1;"/></g><!--link source_github_workflows_ci_yml to tool_unittest--><g class="link" data-entity-1="ent0002" data-entity-2="ent0021" data-link-type="dependency" data-source-line="36" id="lnk31"><path d="M205.57,689.1779 C205.57,755.6479 205.57,911.7779 205.57,911.7779 C205.57,911.7779 292.42,911.7779 347.92,911.7779" fill="none" id="source_github_workflows_ci_yml-to-tool_unittest" style="stroke:#181818;stroke-width:1;"/><polygon fill="#181818" points="353.92,911.7779,344.92,907.7779,348.92,911.7779,344.92,915.7779,353.92,911.7779" style="stroke:#181818;stroke-width:1;"/></g><!--link source_scripts_run_tachometer_profile_sh to tool_run--><g class="link" data-entity-1="ent0003" data-entity-2="ent0018" data-link-type="dependency" data-source-line="37" id="lnk32"><path d="M240.57,126.5179 C240.57,101.4479 240.57,69.3579 240.57,69.3579 C240.57,69.3579 317.55,69.3579 361.63,69.3579" fill="none" id="source_scripts_run_tachometer_profile_sh-to-tool_run" style="stroke:#181818;stroke-width:1;"/><polygon fill="#181818" points="367.63,69.3579,358.63,65.3579,362.63,69.3579,358.63,73.3579,367.63,69.3579" style="stroke:#181818;stroke-width:1;"/></g><!--link source_scripts_run_tachometer_profile_sh to tool_summarize--><g class="link" data-entity-1="ent0003" data-entity-2="ent0019" data-link-type="dependency" data-source-line="38" id="lnk33"><path d="M249.6,155.7779 C282.25,155.7779 309.84,155.7779 336.44,155.7779" fill="none" id="source_scripts_run_tachometer_profile_sh-to-tool_summarize" style="stroke:#181818;stroke-width:1;"/><polygon fill="#181818" points="342.44,155.7779,333.44,151.7779,337.44,155.7779,333.44,159.7779,342.44,155.7779" style="stroke:#181818;stroke-width:1;"/></g><!--link source_scripts_run_tachometer_profile_sh to tool_tachometer--><g class="link" data-entity-1="ent0003" data-entity-2="ent0020" data-link-type="dependency" data-source-line="39" id="lnk34"><path d="M234.57,185.1579 C234.57,209.3779 234.57,239.7779 234.57,239.7779 C234.57,239.7779 288.31,239.7779 334.76,239.7779" fill="none" id="source_scripts_run_tachometer_profile_sh-to-tool_tachometer" style="stroke:#181818;stroke-width:1;"/><polygon fill="#181818" points="340.76,239.7779,331.76,235.7779,335.76,239.7779,331.76,243.7779,340.76,239.7779" style="stroke:#181818;stroke-width:1;"/></g><!--link source_setup_sh to tool_cat--><g class="link" data-entity-1="ent0004" data-entity-2="ent0010" data-link-type="dependency" data-source-line="40" id="lnk35"><path d="M148.57,1218.5079 C148.57,1170.3779 148.57,1079.7779 148.57,1079.7779 C148.57,1079.7779 301,1079.7779 363.5,1079.7779" fill="none" id="source_setup_sh-to-tool_cat" style="stroke:#181818;stroke-width:1;"/><polygon fill="#181818" points="369.5,1079.7779,360.5,1075.7779,364.5,1079.7779,360.5,1083.7779,369.5,1079.7779" style="stroke:#181818;stroke-width:1;"/></g><!--link source_setup_sh to tool_chmod--><g class="link" data-entity-1="ent0004" data-entity-2="ent0011" data-link-type="dependency" data-source-line="41" id="lnk36"><path d="M191.24,1235.5079 C260.97,1235.5079 363.57,1235.5079 363.57,1235.5079 C363.57,1235.5079 363.57,1215.2079 363.57,1194.4579" fill="none" id="source_setup_sh-to-tool_chmod" style="stroke:#181818;stroke-width:1;"/><polygon fill="#181818" points="363.57,1188.4579,359.57,1197.4579,363.57,1193.4579,367.57,1197.4579,363.57,1188.4579" style="stroke:#181818;stroke-width:1;"/></g><!--link source_setup_sh to tool_curl--><g class="link" data-entity-1="ent0004" data-entity-2="ent0012" data-link-type="dependency" data-source-line="42" id="lnk37"><path d="M191.25,1247.7779 C246.93,1247.7779 319.44,1247.7779 360.67,1247.7779" fill="none" id="source_setup_sh-to-tool_curl" style="stroke:#181818;stroke-width:1;"/><polygon fill="#181818" points="366.67,1247.7779,357.67,1243.7779,361.67,1247.7779,357.67,1251.7779,366.67,1247.7779" style="stroke:#181818;stroke-width:1;"/></g><!--link source_setup_sh to tool_inkscape--><g class="link" data-entity-1="ent0004" data-entity-2="ent0013" data-link-type="dependency" data-source-line="43" id="lnk38"><path d="M191.04,1260.0379 C259.88,1260.0379 360.57,1260.0379 360.57,1260.0379 C360.57,1260.0379 360.57,1280.3379 360.57,1301.0879" fill="none" id="source_setup_sh-to-tool_inkscape" style="stroke:#181818;stroke-width:1;"/><polygon fill="#181818" points="360.57,1307.0879,364.57,1298.0879,360.57,1302.0879,356.57,1298.0879,360.57,1307.0879" style="stroke:#181818;stroke-width:1;"/></g><!--link source_setup_sh to tool_mkdir--><g class="link" data-entity-1="ent0004" data-entity-2="ent0014" data-link-type="dependency" data-source-line="44" id="lnk39"><path d="M148.57,1277.0379 C148.57,1325.1679 148.57,1415.7779 148.57,1415.7779 C148.57,1415.7779 285.96,1415.7779 353.73,1415.7779" fill="none" id="source_setup_sh-to-tool_mkdir" style="stroke:#181818;stroke-width:1;"/><polygon fill="#181818" points="359.73,1415.7779,350.73,1411.7779,354.73,1415.7779,350.73,1419.7779,359.73,1415.7779" style="stroke:#181818;stroke-width:1;"/></g><!--link source_setup_sh to tool_pip--><g class="link" data-entity-1="ent0004" data-entity-2="ent0015" data-link-type="dependency" data-source-line="45" id="lnk40"><path d="M107.57,1218.3679 C107.57,1153.5179 107.57,1003.9479 107.57,1003.9479 C107.57,1003.9479 292.31,1003.9479 362.72,1003.9479" fill="none" id="source_setup_sh-to-tool_pip" style="stroke:#181818;stroke-width:1;"/><polygon fill="#181818" points="368.72,1003.9479,359.72,999.9479,363.72,1003.9479,359.72,1007.9479,368.72,1003.9479" style="stroke:#181818;stroke-width:1;"/></g><!--link source_setup_sh to tool_venv--><g class="link" data-entity-1="ent0004" data-entity-2="ent0022" data-link-type="dependency" data-source-line="46" id="lnk41"><path d="M107.57,1277.1779 C107.57,1343.6479 107.57,1499.7779 107.57,1499.7779 C107.57,1499.7779 283.73,1499.7779 357.73,1499.7779" fill="none" id="source_setup_sh-to-tool_venv" style="stroke:#181818;stroke-width:1;"/><polygon fill="#181818" points="363.73,1499.7779,354.73,1495.7779,358.73,1499.7779,354.73,1503.7779,363.73,1499.7779" style="stroke:#181818;stroke-width:1;"/></g><?plantuml-src dPKzRzim48Pt_Gh2cMstzP1swTBQHOTsSSS00aDH9Y7gZY1FCTHVNrAE94Ao7JNZyNtUuzVnI9gCPDm9fOscblr1D1fEx2UGF3bE6i5dHfR429dJ9qMiq4wAA6I-qc2vupNpYXTuZiQI6oyJfP0bRmmT4EWthoNxXO3USf4o0ckB886Er8RLnFGSJYP5mg8ajLOoTAGm6n2ssfmqgUPvUqPNbGRFVYlqfgtD4tm9arC0PH4MZyQl6FVCO-E4p2-cV33bGkV1n1xs7mwV3ljq0Y-SjkIthe6Sk51OXwmkjmvBRUJ6goVOtPdfrPvVj-TUNPrJKcExr8_tKaSgpI0CDWLRyUvwma4eAIfigFD4T_wgvBt27Wxxm-xRuzJPPLxRDfmrpDsNUI_gB4DVIebjgAu9-yoz6h4OpGZ3HPKWCPmoWYSR3C5CLpKM2H736TCuao0XcX8QAY-ubIFLZqp9kWelPCIwSCfORKSY13FToNLu5RLEjXR6yilOb7PDMOvSZEO4fC3irdnJrzpflydsXg4fEnRn28zZKxe1JIHziez-P4g-I7WPgHWDn1kFTht-Uhsy_zkOLlPoSr_VYnsnr9V3iUWNqw6ObhD3HIssnE9Q3FStdIrkXSayy0xNKBFly8voDcsl0nEwonqnDfOxScWgjzM-cTmckZvoMqxkVIx6nvG1akoVL_YfVpXkrR4xi3Ox2WuGlfXThxBm6xlMeWRoc-nx_mLz_Cn8QLUimwyS-ddt8sqo2GMBsVy1?></g></svg>
